<?xml version="1.0" encoding="UTF-8" standalone="no"?>
<svg
   width="284.34857"
   height="91.772491"
   viewBox="0 0 284.34857 91.77249"
   version="1.1"
   id="svg4197"
   inkscape:version="1.1.2 (0a00cf5339, 2022-02-04)"
   sodipodi:docname="debian-linux-logo-name.svg"
   inkscape:export-filename="/home/practicalli/projects/practicalli/graphic-design/topic-images/debian-linux-logo-name.png"
   inkscape:export-xdpi="90"
   inkscape:export-ydpi="90"
   xmlns:inkscape="http://www.inkscape.org/namespaces/inkscape"
   xmlns:sodipodi="http://sodipodi.sourceforge.net/DTD/sodipodi-0.dtd"
   xmlns:xlink="http://www.w3.org/1999/xlink"
   xmlns="http://www.w3.org/2000/svg"
   xmlns:svg="http://www.w3.org/2000/svg"
   xmlns:rdf="http://www.w3.org/1999/02/22-rdf-syntax-ns#"
   xmlns:cc="http://creativecommons.org/ns#"
   xmlns:dc="http://purl.org/dc/elements/1.1/"
   xmlns:ns2="http://ns.adobe.com/AdobeIllustrator/10.0/">
  <metadata
     id="metadata4218">
    <rdf:RDF>
      <cc:Work
         rdf:about="">
        <dc:format>image/svg+xml</dc:format>
        <dc:type
           rdf:resource="http://purl.org/dc/dcmitype/StillImage" />
        <dc:title>clojure-berlin</dc:title>
      </cc:Work>
    </rdf:RDF>
  </metadata>
  <sodipodi:namedview
     pagecolor="#000000"
     bordercolor="#666666"
     borderopacity="1"
     objecttolerance="10"
     gridtolerance="10"
     guidetolerance="10"
     inkscape:pageopacity="0"
     inkscape:pageshadow="2"
     inkscape:window-width="3440"
     inkscape:window-height="1415"
     id="namedview4216"
     showgrid="false"
     inkscape:zoom="4"
     inkscape:cx="122.875"
     inkscape:cy="49.25"
     inkscape:window-x="0"
     inkscape:window-y="25"
     inkscape:window-maximized="1"
     inkscape:current-layer="svg4197"
     fit-margin-top="12"
     fit-margin-left="12"
     fit-margin-right="12"
     fit-margin-bottom="12"
     inkscape:document-rotation="0"
     inkscape:pagecheckerboard="0" />
  <!-- Generator: Sketch 39.1 (31720) - http://www.bohemiancoding.com/sketch -->
  <title
     id="title4199">clojure-berlin</title>
  <desc
     id="desc4201">Created with Sketch.</desc>
  <defs
     id="defs4203">
    <linearGradient
       id="linearGradient4221">
      <stop
         id="stop4223"
         offset="0"
         style="stop-color:#c0c0dc;stop-opacity:1" />
      <stop
         style="stop-color:#c0c0dd;stop-opacity:1"
         offset="0.11419532"
         id="stop4225" />
      <stop
         id="stop4227"
         offset="0.47871608"
         style="stop-color:#a191bf;stop-opacity:1" />
      <stop
         id="stop4229"
         offset="1"
         style="stop-color:#625681;stop-opacity:1" />
    </linearGradient>
    <linearGradient
       gradientTransform="matrix(0.4887125,0,0,0.4887125,7.5674041,560.78197)"
       xlink:href="#linearGradient4274"
       id="linearGradient7595"
       x1="-0.65353984"
       y1="934.5658"
       x2="46.893108"
       y2="951.89844"
       gradientUnits="userSpaceOnUse" />
    <linearGradient
       id="linearGradient4274">
      <stop
         id="stop4276"
         offset="0"
         style="stop-color:#eeeeec;stop-opacity:1" />
      <stop
         style="stop-color:#eeeeec;stop-opacity:1"
         offset="0.0837483"
         id="stop4181" />
      <stop
         id="stop4280"
         offset="0.3513594"
         style="stop-color:#eeeeec;stop-opacity:1" />
      <stop
         id="stop4282"
         offset="1"
         style="stop-color:#e0d5d5;stop-opacity:1" />
    </linearGradient>
    <linearGradient
       xlink:href="#linearGradient7589"
       id="linearGradient4317"
       x1="303.64438"
       y1="608.87836"
       x2="396.9097"
       y2="672.25775"
       gradientUnits="userSpaceOnUse"
       gradientTransform="matrix(0.19229712,0.06206447,-0.10031905,0.17023858,27.947597,914.55215)" />
    <linearGradient
       id="linearGradient7589">
      <stop
         id="stop7591"
         offset="0"
         style="stop-color:#351347;stop-opacity:1" />
      <stop
         id="stop7593"
         offset="1"
         style="stop-color:#5c3566;stop-opacity:0;" />
    </linearGradient>
    <linearGradient
       xlink:href="#linearGradient4311"
       id="linearGradient4301"
       x1="306.88434"
       y1="425.15848"
       x2="377.03168"
       y2="364.66345"
       gradientUnits="userSpaceOnUse"
       gradientTransform="matrix(0.07485012,0.08932098,-0.08626544,0.06221301,53.22269,961.64413)" />
    <linearGradient
       id="linearGradient4311">
      <stop
         style="stop-color:#351e47;stop-opacity:1"
         offset="0"
         id="stop4313" />
      <stop
         style="stop-color:#5c3566;stop-opacity:0;"
         offset="1"
         id="stop4315" />
    </linearGradient>
    <linearGradient
       xlink:href="#linearGradient4274"
       id="linearGradient4230"
       x1="267.65439"
       y1="527.33502"
       x2="329.16669"
       y2="429.49622"
       gradientUnits="userSpaceOnUse"
       gradientTransform="matrix(0.15153279,0.0143268,-0.0143268,0.15153279,-12.641966,950.28506)" />
    <linearGradient
       xlink:href="#linearGradient4196"
       id="linearGradient5577"
       x1="308.41003"
       y1="511.44083"
       x2="190.84904"
       y2="465.96136"
       gradientUnits="userSpaceOnUse"
       gradientTransform="matrix(-0.13467,0.03941451,0.04093431,0.13986281,58.64004,937.70038)" />
    <linearGradient
       id="linearGradient4196">
      <stop
         style="stop-color:#ffffff;stop-opacity:1"
         offset="0"
         id="stop4198" />
      <stop
         id="stop4200"
         offset="0.11419532"
         style="stop-color:#fffff2;stop-opacity:1" />
      <stop
         style="stop-color:#d2acd2;stop-opacity:1"
         offset="0.47871608"
         id="stop4202" />
      <stop
         style="stop-color:#123069;stop-opacity:1"
         offset="1"
         id="stop4204" />
    </linearGradient>
    <radialGradient
       xlink:href="#linearGradient6003"
       id="radialGradient5136-0-6-65"
       cx="322.17105"
       cy="472.51749"
       fx="322.17105"
       fy="472.51749"
       r="169"
       gradientUnits="userSpaceOnUse"
       gradientTransform="matrix(0.3389967,0.21474015,-0.19688621,0.26982602,-1209.2255,-630.6322)" />
    <linearGradient
       id="linearGradient6003">
      <stop
         id="stop6005"
         offset="0"
         style="stop-color:#c2c6db;stop-opacity:1" />
      <stop
         style="stop-color:#bab1e0;stop-opacity:1"
         offset="0.33969504"
         id="stop6007" />
      <stop
         style="stop-color:#8d77a3;stop-opacity:1"
         offset="0.44414869"
         id="stop6009" />
      <stop
         id="stop6011"
         offset="0.55217898"
         style="stop-color:#675a84;stop-opacity:1" />
      <stop
         id="stop6013"
         offset="1"
         style="stop-color:#050846;stop-opacity:1" />
    </linearGradient>
    <radialGradient
       xlink:href="#linearGradient6003"
       id="radialGradient5136-0-6-6-8-3-1"
       cx="322.17105"
       cy="472.51749"
       fx="322.17105"
       fy="472.51749"
       r="169"
       gradientUnits="userSpaceOnUse"
       gradientTransform="matrix(0.19025707,0.10471339,-0.11049955,0.13157478,-966.76195,-798.66855)" />
    <radialGradient
       xlink:href="#linearGradient6003"
       id="radialGradient5136-0-6-6-8-8-8"
       cx="322.17105"
       cy="472.51749"
       fx="322.17105"
       fy="472.51749"
       r="169"
       gradientUnits="userSpaceOnUse"
       gradientTransform="matrix(0.1361054,0.07855904,-0.0790488,0.09871133,-780.58233,-1164.6467)" />
    <radialGradient
       xlink:href="#linearGradient6003"
       id="radialGradient5136-0-6-6-8-6"
       cx="322.17105"
       cy="472.51749"
       fx="322.17105"
       fy="472.51749"
       r="169"
       gradientUnits="userSpaceOnUse"
       gradientTransform="matrix(0.18445402,0.09675949,-0.10712923,0.12158052,-859.37376,-1098.3051)" />
    <radialGradient
       xlink:href="#linearGradient6003"
       id="radialGradient5136-0-6-6-2"
       cx="322.17105"
       cy="472.51749"
       fx="322.17105"
       fy="472.51749"
       r="169"
       gradientUnits="userSpaceOnUse"
       gradientTransform="matrix(0.33582312,0.20512484,-0.19504306,0.25774431,-945.14244,-758.65362)" />
    <radialGradient
       xlink:href="#linearGradient6003"
       id="radialGradient5136-0-6-65-3"
       cx="322.17105"
       cy="472.51749"
       fx="322.17105"
       fy="472.51749"
       r="169"
       gradientUnits="userSpaceOnUse"
       gradientTransform="matrix(0.35330232,0.22380216,-0.20519478,0.28121264,-702.27629,-398.30317)" />
    <radialGradient
       xlink:href="#linearGradient6003"
       id="radialGradient5136-0-6-6-8-3-1-9"
       cx="322.17105"
       cy="472.51749"
       fx="322.17105"
       fy="472.51749"
       r="169"
       gradientUnits="userSpaceOnUse"
       gradientTransform="matrix(0.19828589,0.10913228,-0.11516262,0.13712722,-658.03031,-481.71303)" />
    <radialGradient
       xlink:href="#linearGradient6003"
       id="radialGradient5136-0-6-6-8-8-8-5"
       cx="322.17105"
       cy="472.51749"
       fx="322.17105"
       fy="472.51749"
       r="169"
       gradientUnits="userSpaceOnUse"
       gradientTransform="matrix(0.14184903,0.08187422,-0.08238465,0.10287694,-643.98232,-766.01725)" />
    <radialGradient
       xlink:href="#linearGradient6003"
       id="radialGradient5136-0-6-6-2-1"
       cx="322.17105"
       cy="472.51749"
       fx="322.17105"
       fy="472.51749"
       r="169"
       gradientUnits="userSpaceOnUse"
       gradientTransform="matrix(0.34999481,0.21378108,-0.20327385,0.26862109,-680.60673,-453.66251)" />
    <radialGradient
       xlink:href="#linearGradient6003"
       id="radialGradient5136-0-6-6-8-6-9"
       cx="322.17105"
       cy="472.51749"
       fx="322.17105"
       fy="472.51749"
       r="169"
       gradientUnits="userSpaceOnUse"
       gradientTransform="matrix(0.19223796,0.10084273,-0.11165007,0.1267112,-724.74062,-701.33347)" />
    <style
       id="style2319">.cls-1{fill:#e9500e;}</style>
  </defs>
  <rect
     style="opacity:1;fill:#1a1a1a;fill-opacity:0;stroke:#a80030;stroke-width:1.36248195;stroke-linejoin:miter;stroke-miterlimit:4;stroke-dasharray:none;stroke-dashoffset:0;stroke-opacity:1"
     id="rect902"
     width="258.98608"
     height="50.55978"
     x="12.681241"
     y="20.606356"
     ry="14.404602" />
  <text
     xml:space="preserve"
     style="font-style:normal;font-variant:normal;font-weight:normal;font-stretch:normal;font-size:29.5751px;line-height:125%;font-family:Ubuntu;-inkscape-font-specification:Ubuntu;letter-spacing:0px;word-spacing:0px;fill:#a80030;fill-opacity:1;stroke:#800000;stroke-width:1.38633;stroke-linecap:butt;stroke-linejoin:miter;stroke-miterlimit:4;stroke-dasharray:none;stroke-opacity:1"
     x="121.74362"
     y="57.154358"
     id="text900"><tspan
       sodipodi:role="line"
       id="tspan898"
       x="121.74362"
       y="57.154358"
       style="font-style:normal;font-variant:normal;font-weight:bold;font-stretch:normal;font-family:Ubuntu;-inkscape-font-specification:'Ubuntu Bold';fill:#a80030;fill-opacity:1;stroke:#800000;stroke-width:1.38633;stroke-miterlimit:4;stroke-dasharray:none;stroke-opacity:1">Debian</tspan></text>
  <g
     style="overflow:visible"
     id="g34448"
     transform="matrix(0.80008171,0,0,0.80008171,24.999308,2.502215)">
    <g
       id="Layer_1"
       ns2:layer="yes"
       ns2:dimmedPercent="50"
       ns2:rgbTrio="#4F008000FFFF">
		<g
   id="g34425">
			<path
   ns2:knockout="Off"
   fill="#a80030"
   d="m 51.986,57.297 c -1.797,0.025 0.34,0.926 2.686,1.287 0.648,-0.506 1.236,-1.018 1.76,-1.516 -1.461,0.358 -2.948,0.366 -4.446,0.229"
   id="path34401" />

			<path
   ns2:knockout="Off"
   fill="#a80030"
   d="m 61.631,54.893 c 1.07,-1.477 1.85,-3.094 2.125,-4.766 -0.24,1.192 -0.887,2.221 -1.496,3.307 -3.359,2.115 -0.316,-1.256 -0.002,-2.537 -3.612,4.546 -0.496,2.726 -0.627,3.996"
   id="path34403" />

			<path
   ns2:knockout="Off"
   fill="#a80030"
   d="m 65.191,45.629 c 0.217,-3.236 -0.637,-2.213 -0.924,-0.978 0.335,0.174 0.6,2.281 0.924,0.978"
   id="path34405" />

			<path
   ns2:knockout="Off"
   fill="#a80030"
   d="m 45.172,1.399 c 0.959,0.172 2.072,0.304 1.916,0.533 1.049,-0.23 1.287,-0.442 -1.916,-0.533"
   id="path34407" />

			<path
   ns2:knockout="Off"
   fill="#a80030"
   d="M 47.088,1.932 46.41,2.072 47.041,2.016 47.088,1.932"
   id="path34409" />

			<path
   ns2:knockout="Off"
   fill="#a80030"
   d="m 76.992,46.856 c 0.107,2.906 -0.85,4.316 -1.713,6.812 l -1.553,0.776 c -1.271,2.468 0.123,1.567 -0.787,3.53 -1.984,1.764 -6.021,5.52 -7.313,5.863 -0.943,-0.021 0.639,-1.113 0.846,-1.541 -2.656,1.824 -2.131,2.738 -6.193,3.846 L 60.16,65.878 C 50.142,70.591 36.226,61.251 36.409,48.507 c -0.107,0.809 -0.304,0.607 -0.526,0.934 -0.517,-6.557 3.028,-13.143 9.007,-15.832 5.848,-2.895 12.704,-1.707 16.893,2.197 -2.301,-3.014 -6.881,-6.209 -12.309,-5.91 -5.317,0.084 -10.291,3.463 -11.951,7.131 -2.724,1.715 -3.04,6.611 -4.227,7.507 -1.597,11.737 3.004,16.808 10.787,22.773 1.225,0.826 0.345,0.951 0.511,1.58 -2.586,-1.211 -4.954,-3.039 -6.901,-5.277 1.033,1.512 2.148,2.982 3.589,4.137 -2.438,-0.826 -5.695,-5.908 -6.646,-6.115 4.203,7.525 17.052,13.197 23.78,10.383 -3.113,0.115 -7.068,0.064 -10.566,-1.229 -1.469,-0.756 -3.467,-2.322 -3.11,-2.615 9.182,3.43 18.667,2.598 26.612,-3.771 2.021,-1.574 4.229,-4.252 4.867,-4.289 -0.961,1.445 0.164,0.695 -0.574,1.971 2.014,-3.248 -0.875,-1.322 2.082,-5.609 l 1.092,1.504 c -0.406,-2.696 3.348,-5.97 2.967,-10.234 0.861,-1.304 0.961,1.403 0.047,4.403 1.268,-3.328 0.334,-3.863 0.66,-6.609 0.352,0.923 0.814,1.904 1.051,2.878 -0.826,-3.216 0.848,-5.416 1.262,-7.285 -0.408,-0.181 -1.275,1.422 -1.473,-2.377 0.029,-1.65 0.459,-0.865 0.625,-1.271 -0.324,-0.186 -1.174,-1.451 -1.691,-3.877 0.375,-0.57 1.002,1.478 1.512,1.562 -0.328,-1.929 -0.893,-3.4 -0.916,-4.88 -1.49,-3.114 -0.527,0.415 -1.736,-1.337 -1.586,-4.947 1.316,-1.148 1.512,-3.396 2.404,3.483 3.775,8.881 4.404,11.117 -0.48,-2.726 -1.256,-5.367 -2.203,-7.922 0.73,0.307 -1.176,-5.609 0.949,-1.691 C 83.519,18.706 76.074,10.902 69.225,7.24 70.063,8.007 71.121,8.97 70.741,9.121 67.335,7.093 67.934,6.935 67.446,6.078 64.671,4.949 64.489,6.169 62.651,6.08 57.421,3.306 56.413,3.601 51.6,1.863 l 0.219,1.023 c -3.465,-1.154 -4.037,0.438 -7.782,0.004 -0.228,-0.178 1.2,-0.644 2.375,-0.815 -3.35,0.442 -3.193,-0.66 -6.471,0.122 0.808,-0.567 1.662,-0.942 2.524,-1.424 -2.732,0.166 -6.522,1.59 -5.352,0.295 -4.456,1.988 -12.37,4.779 -16.811,8.943 l -0.14,-0.933 c -2.035,2.443 -8.874,7.296 -9.419,10.46 l -0.544,0.127 c -1.059,1.793 -1.744,3.825 -2.584,5.67 -1.385,2.36 -2.03,0.908 -1.833,1.278 -2.724,5.523 -4.077,10.164 -5.246,13.97 0.833,1.245 0.02,7.495 0.335,12.497 -1.368,24.704 17.338,48.69 37.785,54.228 2.997,1.072 7.454,1.031 11.245,1.141 -4.473,-1.279 -5.051,-0.678 -9.408,-2.197 -3.143,-1.48 -3.832,-3.17 -6.058,-5.102 l 0.881,1.557 c -4.366,-1.545 -2.539,-1.912 -6.091,-3.037 l 0.941,-1.229 C 28.751,98.334 26.418,96.056 25.78,94.795 l -1.548,0.061 c -1.86,-2.295 -2.851,-3.949 -2.779,-5.23 l -0.5,0.891 c -0.567,-0.973 -6.843,-8.607 -3.587,-6.83 -0.605,-0.553 -1.409,-0.9 -2.281,-2.484 l 0.663,-0.758 c -1.567,-2.016 -2.884,-4.6 -2.784,-5.461 0.836,1.129 1.416,1.34 1.99,1.533 -3.957,-9.818 -4.179,-0.541 -7.176,-9.994 L 8.412,66.472 C 7.926,65.74 7.631,64.945 7.24,64.165 l 0.276,-2.75 C 4.667,58.121 6.719,47.409 7.13,41.534 7.415,39.145 9.508,36.602 11.1,32.614 l -0.97,-0.167 c 1.854,-3.234 10.586,-12.988 14.63,-12.486 1.959,-2.461 -0.389,-0.009 -0.772,-0.629 4.303,-4.453 5.656,-3.146 8.56,-3.947 3.132,-1.859 -2.688,0.725 -1.203,-0.709 5.414,-1.383 3.837,-3.144 10.9,-3.846 0.745,0.424 -1.729,0.655 -2.35,1.205 4.511,-2.207 14.275,-1.705 20.617,1.225 7.359,3.439 15.627,13.605 15.953,23.17 l 0.371,0.1 c -0.188,3.802 0.582,8.199 -0.752,12.238 l 0.908,-1.912"
   id="path34411" />

			<path
   ns2:knockout="Off"
   fill="#a80030"
   d="m 32.372,59.764 -0.252,1.26 c 1.181,1.604 2.118,3.342 3.626,4.596 -1.085,-2.118 -1.891,-2.993 -3.374,-5.856"
   id="path34413" />

			<path
   ns2:knockout="Off"
   fill="#a80030"
   d="m 35.164,59.654 c -0.625,-0.691 -0.995,-1.523 -1.409,-2.352 0.396,1.457 1.207,2.709 1.962,3.982 l -0.553,-1.63"
   id="path34415" />

			<path
   ns2:knockout="Off"
   fill="#a80030"
   d="m 84.568,48.916 -0.264,0.662 c -0.484,3.438 -1.529,6.84 -3.131,9.994 1.77,-3.328 2.915,-6.968 3.395,-10.656"
   id="path34417" />

			<path
   ns2:knockout="Off"
   fill="#a80030"
   d="M 45.527,0.537 C 46.742,0.092 48.514,0.293 49.803,0 48.123,0.141 46.451,0.225 44.8,0.438 l 0.727,0.099"
   id="path34419" />

			<path
   ns2:knockout="Off"
   fill="#a80030"
   d="m 2.872,23.219 c 0.28,2.592 -1.95,3.598 0.494,1.889 1.31,-2.951 -0.512,-0.815 -0.494,-1.889"
   id="path34421" />

			<path
   ns2:knockout="Off"
   fill="#a80030"
   d="M 0,35.215 C 0.563,33.487 0.665,32.449 0.88,31.449 -0.676,33.438 0.164,33.862 0,35.215"
   id="path34423" />

		</g>

	</g>
  </g>
</svg>
