<?xml version="1.0" encoding="UTF-8" standalone="no"?>
<svg
   width="284.34857"
   height="91.772491"
   viewBox="0 0 284.34857 91.77249"
   version="1.1"
   id="svg4197"
   inkscape:version="1.1.2 (0a00cf5339, 2022-02-04)"
   sodipodi:docname="docker-logo-name.svg"
   inkscape:export-filename="/home/practicalli/projects/practicalli/graphic-design/topic-images/docker-logo-name.png"
   inkscape:export-xdpi="90"
   inkscape:export-ydpi="90"
   xmlns:inkscape="http://www.inkscape.org/namespaces/inkscape"
   xmlns:sodipodi="http://sodipodi.sourceforge.net/DTD/sodipodi-0.dtd"
   xmlns:xlink="http://www.w3.org/1999/xlink"
   xmlns="http://www.w3.org/2000/svg"
   xmlns:svg="http://www.w3.org/2000/svg"
   xmlns:rdf="http://www.w3.org/1999/02/22-rdf-syntax-ns#"
   xmlns:cc="http://creativecommons.org/ns#"
   xmlns:dc="http://purl.org/dc/elements/1.1/">
  <metadata
     id="metadata4218">
    <rdf:RDF>
      <cc:Work
         rdf:about="">
        <dc:format>image/svg+xml</dc:format>
        <dc:type
           rdf:resource="http://purl.org/dc/dcmitype/StillImage" />
        <dc:title>clojure-berlin</dc:title>
      </cc:Work>
    </rdf:RDF>
  </metadata>
  <sodipodi:namedview
     pagecolor="#ffffff"
     bordercolor="#666666"
     borderopacity="1"
     objecttolerance="10"
     gridtolerance="10"
     guidetolerance="10"
     inkscape:pageopacity="0"
     inkscape:pageshadow="2"
     inkscape:window-width="1920"
     inkscape:window-height="1055"
     id="namedview4216"
     showgrid="false"
     inkscape:zoom="1"
     inkscape:cx="137.5"
     inkscape:cy="64"
     inkscape:window-x="1920"
     inkscape:window-y="25"
     inkscape:window-maximized="1"
     inkscape:current-layer="svg4197"
     fit-margin-top="12"
     fit-margin-left="12"
     fit-margin-right="12"
     fit-margin-bottom="12"
     inkscape:pagecheckerboard="0" />
  <!-- Generator: Sketch 39.1 (31720) - http://www.bohemiancoding.com/sketch -->
  <title
     id="title4199">clojure-berlin</title>
  <desc
     id="desc4201">Created with Sketch.</desc>
  <defs
     id="defs4203">
    <linearGradient
       id="linearGradient4221">
      <stop
         id="stop4223"
         offset="0"
         style="stop-color:#c0c0dc;stop-opacity:1" />
      <stop
         style="stop-color:#c0c0dd;stop-opacity:1"
         offset="0.11419532"
         id="stop4225" />
      <stop
         id="stop4227"
         offset="0.47871608"
         style="stop-color:#a191bf;stop-opacity:1" />
      <stop
         id="stop4229"
         offset="1"
         style="stop-color:#625681;stop-opacity:1" />
    </linearGradient>
    <linearGradient
       gradientTransform="matrix(0.4887125,0,0,0.4887125,7.5674041,560.78197)"
       xlink:href="#linearGradient4274"
       id="linearGradient7595"
       x1="-0.65353984"
       y1="934.5658"
       x2="46.893108"
       y2="951.89844"
       gradientUnits="userSpaceOnUse" />
    <linearGradient
       id="linearGradient4274">
      <stop
         id="stop4276"
         offset="0"
         style="stop-color:#eeeeec;stop-opacity:1" />
      <stop
         style="stop-color:#eeeeec;stop-opacity:1"
         offset="0.0837483"
         id="stop4181" />
      <stop
         id="stop4280"
         offset="0.3513594"
         style="stop-color:#eeeeec;stop-opacity:1" />
      <stop
         id="stop4282"
         offset="1"
         style="stop-color:#e0d5d5;stop-opacity:1" />
    </linearGradient>
    <linearGradient
       xlink:href="#linearGradient7589"
       id="linearGradient4317"
       x1="303.64438"
       y1="608.87836"
       x2="396.9097"
       y2="672.25775"
       gradientUnits="userSpaceOnUse"
       gradientTransform="matrix(0.19229712,0.06206447,-0.10031905,0.17023858,27.947597,914.55215)" />
    <linearGradient
       id="linearGradient7589">
      <stop
         id="stop7591"
         offset="0"
         style="stop-color:#351347;stop-opacity:1" />
      <stop
         id="stop7593"
         offset="1"
         style="stop-color:#5c3566;stop-opacity:0;" />
    </linearGradient>
    <linearGradient
       xlink:href="#linearGradient4311"
       id="linearGradient4301"
       x1="306.88434"
       y1="425.15848"
       x2="377.03168"
       y2="364.66345"
       gradientUnits="userSpaceOnUse"
       gradientTransform="matrix(0.07485012,0.08932098,-0.08626544,0.06221301,53.22269,961.64413)" />
    <linearGradient
       id="linearGradient4311">
      <stop
         style="stop-color:#351e47;stop-opacity:1"
         offset="0"
         id="stop4313" />
      <stop
         style="stop-color:#5c3566;stop-opacity:0;"
         offset="1"
         id="stop4315" />
    </linearGradient>
    <linearGradient
       xlink:href="#linearGradient4274"
       id="linearGradient4230"
       x1="267.65439"
       y1="527.33502"
       x2="329.16669"
       y2="429.49622"
       gradientUnits="userSpaceOnUse"
       gradientTransform="matrix(0.15153279,0.0143268,-0.0143268,0.15153279,-12.641966,950.28506)" />
    <linearGradient
       xlink:href="#linearGradient4196"
       id="linearGradient5577"
       x1="308.41003"
       y1="511.44083"
       x2="190.84904"
       y2="465.96136"
       gradientUnits="userSpaceOnUse"
       gradientTransform="matrix(-0.13467,0.03941451,0.04093431,0.13986281,58.64004,937.70038)" />
    <linearGradient
       id="linearGradient4196">
      <stop
         style="stop-color:#ffffff;stop-opacity:1"
         offset="0"
         id="stop4198" />
      <stop
         id="stop4200"
         offset="0.11419532"
         style="stop-color:#fffff2;stop-opacity:1" />
      <stop
         style="stop-color:#d2acd2;stop-opacity:1"
         offset="0.47871608"
         id="stop4202" />
      <stop
         style="stop-color:#123069;stop-opacity:1"
         offset="1"
         id="stop4204" />
    </linearGradient>
    <radialGradient
       xlink:href="#linearGradient6003"
       id="radialGradient5136-0-6-65"
       cx="322.17105"
       cy="472.51749"
       fx="322.17105"
       fy="472.51749"
       r="169"
       gradientUnits="userSpaceOnUse"
       gradientTransform="matrix(0.3389967,0.21474015,-0.19688621,0.26982602,-1209.2255,-630.6322)" />
    <linearGradient
       id="linearGradient6003">
      <stop
         id="stop6005"
         offset="0"
         style="stop-color:#c2c6db;stop-opacity:1" />
      <stop
         style="stop-color:#bab1e0;stop-opacity:1"
         offset="0.33969504"
         id="stop6007" />
      <stop
         style="stop-color:#8d77a3;stop-opacity:1"
         offset="0.44414869"
         id="stop6009" />
      <stop
         id="stop6011"
         offset="0.55217898"
         style="stop-color:#675a84;stop-opacity:1" />
      <stop
         id="stop6013"
         offset="1"
         style="stop-color:#050846;stop-opacity:1" />
    </linearGradient>
    <radialGradient
       xlink:href="#linearGradient6003"
       id="radialGradient5136-0-6-6-8-3-1"
       cx="322.17105"
       cy="472.51749"
       fx="322.17105"
       fy="472.51749"
       r="169"
       gradientUnits="userSpaceOnUse"
       gradientTransform="matrix(0.19025707,0.10471339,-0.11049955,0.13157478,-966.76195,-798.66855)" />
    <radialGradient
       xlink:href="#linearGradient6003"
       id="radialGradient5136-0-6-6-8-8-8"
       cx="322.17105"
       cy="472.51749"
       fx="322.17105"
       fy="472.51749"
       r="169"
       gradientUnits="userSpaceOnUse"
       gradientTransform="matrix(0.1361054,0.07855904,-0.0790488,0.09871133,-780.58233,-1164.6467)" />
    <radialGradient
       xlink:href="#linearGradient6003"
       id="radialGradient5136-0-6-6-8-6"
       cx="322.17105"
       cy="472.51749"
       fx="322.17105"
       fy="472.51749"
       r="169"
       gradientUnits="userSpaceOnUse"
       gradientTransform="matrix(0.18445402,0.09675949,-0.10712923,0.12158052,-859.37376,-1098.3051)" />
    <radialGradient
       xlink:href="#linearGradient6003"
       id="radialGradient5136-0-6-6-2"
       cx="322.17105"
       cy="472.51749"
       fx="322.17105"
       fy="472.51749"
       r="169"
       gradientUnits="userSpaceOnUse"
       gradientTransform="matrix(0.33582312,0.20512484,-0.19504306,0.25774431,-945.14244,-758.65362)" />
    <radialGradient
       xlink:href="#linearGradient6003"
       id="radialGradient5136-0-6-65-3"
       cx="322.17105"
       cy="472.51749"
       fx="322.17105"
       fy="472.51749"
       r="169"
       gradientUnits="userSpaceOnUse"
       gradientTransform="matrix(0.35330232,0.22380216,-0.20519478,0.28121264,-702.27629,-398.30317)" />
    <radialGradient
       xlink:href="#linearGradient6003"
       id="radialGradient5136-0-6-6-8-3-1-9"
       cx="322.17105"
       cy="472.51749"
       fx="322.17105"
       fy="472.51749"
       r="169"
       gradientUnits="userSpaceOnUse"
       gradientTransform="matrix(0.19828589,0.10913228,-0.11516262,0.13712722,-658.03031,-481.71303)" />
    <radialGradient
       xlink:href="#linearGradient6003"
       id="radialGradient5136-0-6-6-8-8-8-5"
       cx="322.17105"
       cy="472.51749"
       fx="322.17105"
       fy="472.51749"
       r="169"
       gradientUnits="userSpaceOnUse"
       gradientTransform="matrix(0.14184903,0.08187422,-0.08238465,0.10287694,-643.98232,-766.01725)" />
    <radialGradient
       xlink:href="#linearGradient6003"
       id="radialGradient5136-0-6-6-2-1"
       cx="322.17105"
       cy="472.51749"
       fx="322.17105"
       fy="472.51749"
       r="169"
       gradientUnits="userSpaceOnUse"
       gradientTransform="matrix(0.34999481,0.21378108,-0.20327385,0.26862109,-680.60673,-453.66251)" />
    <radialGradient
       xlink:href="#linearGradient6003"
       id="radialGradient5136-0-6-6-8-6-9"
       cx="322.17105"
       cy="472.51749"
       fx="322.17105"
       fy="472.51749"
       r="169"
       gradientUnits="userSpaceOnUse"
       gradientTransform="matrix(0.19223796,0.10084273,-0.11165007,0.1267112,-724.74062,-701.33347)" />
  </defs>
  <rect
     style="opacity:1;fill:#009dce;fill-opacity:1;stroke:#000000;stroke-width:1.36248195;stroke-linejoin:miter;stroke-miterlimit:4;stroke-dasharray:none;stroke-dashoffset:0;stroke-opacity:1"
     id="rect902"
     width="258.98608"
     height="50.55978"
     x="12.681241"
     y="20.606356"
     ry="14.404602" />
  <text
     xml:space="preserve"
     style="font-style:normal;font-variant:normal;font-weight:normal;font-stretch:normal;font-size:29.5751px;line-height:125%;font-family:Ubuntu;-inkscape-font-specification:Ubuntu;letter-spacing:0px;word-spacing:0px;fill:#ffffff;fill-opacity:1;stroke:#ffffff;stroke-width:1.38633;stroke-linecap:butt;stroke-linejoin:miter;stroke-miterlimit:4;stroke-dasharray:none;stroke-opacity:1"
     x="147.74362"
     y="57.154358"
     id="text900"><tspan
       sodipodi:role="line"
       id="tspan898"
       x="147.74362"
       y="57.154358"
       style="font-style:normal;font-variant:normal;font-weight:bold;font-stretch:normal;font-family:Ubuntu;-inkscape-font-specification:'Ubuntu Bold';fill:#ffffff;stroke:#ffffff;stroke-width:1.38633;stroke-miterlimit:4;stroke-dasharray:none">Docker</tspan></text>
  <ellipse
     style="fill:#ffffff;fill-opacity:1;stroke:#088cb9;stroke-width:2.39371;stroke-miterlimit:4;stroke-dasharray:none;stroke-opacity:1"
     id="path4555"
     cx="81.205383"
     cy="45.886246"
     rx="57.555042"
     ry="39.784473" />
  <g
     id="g2741"
     transform="matrix(4.2606409,0,0,4.2606409,11.0982,-25.032847)">
    <path
       d="M 18.191,13.071 H 20.7 v 2.566 h 1.27 a 5.5,5.5 0 0 0 1.744,-0.292 4.462,4.462 0 0 0 0.848,-0.383 3.149,3.149 0 0 1 -0.589,-1.623 3.427,3.427 0 0 1 0.616,-2.416 l 0.264,-0.305 0.314,0.253 a 4,4 0 0 1 1.575,2.538 3.837,3.837 0 0 1 2.913,0.271 l 0.345,0.2 -0.181,0.354 a 3.629,3.629 0 0 1 -3.648,1.74 c -2.173,5.413 -6.9,7.976 -12.642,7.976 A 7.958,7.958 0 0 1 6.3,20.211 L 6.275,20.168 6.049,19.709 A 7.28,7.28 0 0 1 5.47,16.016 l 0.035,-0.38 h 2.143 v -2.565 h 2.51 v -2.51 h 5.02 v -2.51 h 3.012 v 5.02 z"
       style="fill:#3a4e55"
       id="path2678" />
    <path
       d="M 26.324,14.021 A 3.311,3.311 0 0 0 24.906,11.2 3.072,3.072 0 0 0 25.195,15.021 5.279,5.279 0 0 1 21.97,16.058 H 5.883 a 6.779,6.779 0 0 0 0.667,3.737 l 0.183,0.335 a 6.2,6.2 0 0 0 0.379,0.569 v 0 q 0.992,0.064 1.829,0.045 v 0 a 8.972,8.972 0 0 0 2.669,-0.389 0.19306799,0.19306799 0 1 1 0.126,0.365 c -0.09,0.031 -0.184,0.061 -0.281,0.088 v 0 a 8.4,8.4 0 0 1 -1.845,0.3 c 0.044,0 -0.046,0.007 -0.046,0.007 l -0.082,0.007 c -0.291,0.016 -0.6,0.02 -0.925,0.02 -0.351,0 -0.7,-0.007 -1.083,-0.026 l -0.01,0.007 a 7.882,7.882 0 0 0 6.063,2.41 c 5.56,0 10.276,-2.465 12.365,-8 1.482,0.152 2.906,-0.226 3.553,-1.49 a 3.5,3.5 0 0 0 -3.122,-0.022"
       style="fill:#00aada"
       id="path2680" />
    <path
       d="M 26.324,14.021 A 3.311,3.311 0 0 0 24.906,11.2 3.072,3.072 0 0 0 25.195,15.021 5.279,5.279 0 0 1 21.97,16.058 H 6.836 a 5.223,5.223 0 0 0 2.106,4.686 v 0 a 8.972,8.972 0 0 0 2.669,-0.389 0.19306799,0.19306799 0 1 1 0.126,0.365 c -0.09,0.031 -0.184,0.061 -0.281,0.088 v 0 A 8.83,8.83 0 0 1 9.562,21.122 L 9.543,21.1 c 1.892,0.971 4.636,0.967 7.782,-0.241 a 21.868,21.868 0 0 0 9.1,-6.889 l -0.1,0.048"
       style="fill:#27b9ec"
       id="path2682" />
    <path
       d="m 5.913,17.732 a 6.431,6.431 0 0 0 0.637,2.061 l 0.183,0.335 a 6.2,6.2 0 0 0 0.379,0.569 q 0.992,0.064 1.829,0.045 a 8.972,8.972 0 0 0 2.669,-0.389 0.19306799,0.19306799 0 1 1 0.126,0.365 c -0.09,0.031 -0.184,0.061 -0.281,0.088 v 0 a 8.826,8.826 0 0 1 -1.891,0.307 h -0.1 c -0.291,0.016 -0.6,0.026 -0.922,0.026 -0.351,0 -0.709,-0.007 -1.1,-0.026 a 7.913,7.913 0 0 0 6.076,2.413 c 4.76,0 8.9,-1.807 11.3,-5.8 z"
       style="fill:#088cb9"
       id="path2684" />
    <path
       d="m 6.98,17.732 a 4.832,4.832 0 0 0 1.961,3.01 8.972,8.972 0 0 0 2.669,-0.389 0.19306799,0.19306799 0 1 1 0.126,0.365 c -0.09,0.031 -0.184,0.061 -0.281,0.088 v 0 a 8.959,8.959 0 0 1 -1.9,0.307 c 1.892,0.971 4.628,0.957 7.773,-0.252 a 20.545,20.545 0 0 0 5.377,-3.13 z"
       style="fill:#039cc7"
       id="path2686" />
    <path
       d="m 9.889,13.671 h 0.172 v 1.813 H 9.889 Z m -0.33,0 h 0.179 v 1.813 H 9.559 Z m -0.33,0 h 0.179 v 1.813 H 9.23 v -1.813 z m -0.33,0 h 0.179 v 1.813 H 8.9 v -1.813 z m -0.33,0 h 0.179 v 1.813 H 8.57 v -1.813 z m -0.323,0 h 0.172 v 1.813 H 8.248 V 13.671 Z M 8.065,13.49 h 2.175 v 2.176 H 8.066 V 13.49 Z"
       style="fill:#00acd3"
       id="path2688" />
    <path
       d="m 12.4,11.161 h 0.172 v 1.813 H 12.4 Z m -0.33,0 h 0.179 v 1.813 H 12.07 Z m -0.33,0 h 0.179 v 1.813 H 11.74 Z m -0.33,0 h 0.179 v 1.813 H 11.41 Z m -0.33,0 h 0.178 v 1.813 H 11.08 Z m -0.323,0 h 0.172 v 1.813 H 10.757 Z M 10.576,10.98 h 2.176 v 2.176 h -2.175 v -2.177 z"
       style="fill:#00acd3"
       id="path2690" />
    <path
       d="m 12.4,13.671 h 0.172 v 1.813 H 12.4 Z m -0.33,0 h 0.179 v 1.813 H 12.07 Z m -0.33,0 h 0.179 v 1.813 H 11.74 Z m -0.33,0 h 0.179 v 1.813 H 11.41 Z m -0.33,0 h 0.178 v 1.813 H 11.08 Z m -0.323,0 h 0.172 v 1.813 H 10.757 Z M 10.576,13.49 h 2.176 v 2.176 H 10.577 V 13.49 Z"
       style="fill:#26c2ee"
       id="path2692" />
    <path
       d="m 14.909,13.671 h 0.172 v 1.813 h -0.172 z m -0.33,0 h 0.179 v 1.813 H 14.58 v -1.813 z m -0.33,0 h 0.179 v 1.813 H 14.25 v -1.813 z m -0.33,0 H 14.1 v 1.813 h -0.179 v -1.813 z m -0.33,0 h 0.179 v 1.813 h -0.179 z m -0.323,0 h 0.172 v 1.813 H 13.266 Z M 13.085,13.49 h 2.176 v 2.176 H 13.087 V 13.49 Z"
       style="fill:#00acd3"
       id="path2694" />
    <path
       d="m 14.909,11.161 h 0.172 v 1.813 h -0.172 z m -0.33,0 h 0.179 v 1.813 H 14.58 v -1.813 z m -0.33,0 h 0.179 v 1.813 H 14.25 v -1.813 z m -0.33,0 H 14.1 v 1.813 h -0.179 v -1.813 z m -0.33,0 h 0.179 v 1.813 h -0.179 z m -0.323,0 h 0.172 v 1.813 H 13.266 Z M 13.085,10.98 h 2.176 v 2.176 h -2.174 v -2.177 z"
       style="fill:#26c2ee"
       id="path2696" />
    <path
       d="m 17.42,13.671 h 0.172 v 1.813 H 17.42 Z m -0.33,0 h 0.179 v 1.813 H 17.09 Z m -0.33,0 h 0.179 v 1.813 H 16.76 Z m -0.33,0 h 0.179 v 1.813 H 16.43 Z m -0.33,0 h 0.179 v 1.813 H 16.1 Z m -0.323,0 h 0.172 v 1.813 H 15.777 Z M 15.6,13.49 h 2.176 v 2.176 H 15.6 Z"
       style="fill:#26c2ee"
       id="path2698" />
    <path
       d="m 17.42,11.161 h 0.172 v 1.813 H 17.42 Z m -0.33,0 h 0.179 v 1.813 H 17.09 Z m -0.33,0 h 0.179 v 1.813 H 16.76 Z m -0.33,0 h 0.179 v 1.813 H 16.43 Z m -0.33,0 h 0.179 v 1.813 H 16.1 Z m -0.323,0 h 0.172 v 1.813 H 15.777 Z M 15.596,10.98 h 2.176 v 2.176 H 15.6 v -2.177 z"
       style="fill:#00acd3"
       id="path2700" />
    <path
       d="m 17.42,8.65 h 0.172 v 1.813 H 17.42 Z m -0.33,0 h 0.179 v 1.813 H 17.09 Z m -0.33,0 h 0.179 v 1.813 H 16.76 Z m -0.33,0 h 0.179 v 1.813 H 16.43 Z m -0.33,0 h 0.179 v 1.813 H 16.1 Z m -0.323,0 h 0.172 v 1.813 H 15.777 Z M 15.6,8.469 h 2.176 v 2.176 H 15.6 Z"
       style="fill:#26c2ee"
       id="path2702" />
    <path
       d="m 19.93,13.671 h 0.17 v 1.813 h -0.17 z m -0.33,0 h 0.178 v 1.813 H 19.6 Z m -0.33,0 h 0.179 v 1.813 H 19.27 Z m -0.33,0 h 0.179 v 1.813 H 18.94 Z m -0.33,0 h 0.179 v 1.813 H 18.61 Z m -0.323,0 h 0.172 v 1.813 H 18.287 Z M 18.106,13.49 h 2.176 v 2.176 H 18.107 V 13.49 Z"
       style="fill:#00acd3"
       id="path2704" />
    <path
       d="m 12.616,19.193 a 0.6,0.6 0 1 1 -0.6,0.6 0.6,0.6 0 0 1 0.6,-0.6"
       style="fill:#d5eef2"
       id="path2706" />
    <path
       d="m 12.616,19.363 a 0.431,0.431 0 0 1 0.156,0.029 0.175,0.175 0 1 0 0.241,0.236 0.43,0.43 0 1 1 -0.4,-0.265"
       style="fill:#3a4e55"
       id="path2708" />
    <path
       d="m 2,17.949 h 27.92 c -0.608,-0.154 -1.923,-0.362 -1.707,-1.159 -1.105,1.279 -3.771,0.9 -4.444,0.267 -0.749,1.087 -5.111,0.674 -5.415,-0.173 -0.939,1.1 -3.85,1.1 -4.789,0 -0.3,0.847 -4.666,1.26 -5.415,0.173 -0.673,0.631 -3.338,1.012 -4.444,-0.267 0.217,0.8 -1.1,1.005 -1.707,1.159"
       style="fill:#3a4e55"
       id="path2710" />
    <path
       d="m 14.211,23.518 a 5.287,5.287 0 0 1 -2.756,-2.711 9.2,9.2 0 0 1 -1.987,0.3 q -0.436,0.024 -0.917,0.025 -0.554,0 -1.168,-0.033 a 7.942,7.942 0 0 0 6.145,2.43 q 0.344,0 0.683,-0.013"
       style="fill:#c0dbe1"
       id="path2712" />
    <path
       d="m 12.007,21.773 a 5.206,5.206 0 0 1 -0.552,-0.966 9.2,9.2 0 0 1 -1.987,0.3 6.325,6.325 0 0 0 2.539,0.664"
       style="fill:#d5eef2"
       id="path2714" />
  </g>
</svg>
