<?xml version="1.0" encoding="UTF-8" standalone="no"?>
<svg
   xmlns:dc="http://purl.org/dc/elements/1.1/"
   xmlns:cc="http://creativecommons.org/ns#"
   xmlns:rdf="http://www.w3.org/1999/02/22-rdf-syntax-ns#"
   xmlns:svg="http://www.w3.org/2000/svg"
   xmlns="http://www.w3.org/2000/svg"
   xmlns:sodipodi="http://sodipodi.sourceforge.net/DTD/sodipodi-0.dtd"
   xmlns:inkscape="http://www.inkscape.org/namespaces/inkscape"
   width="284.34857"
   height="91.772491"
   viewBox="0 0 284.34857 91.77249"
   version="1.1"
   id="svg4197"
   inkscape:version="0.92.4 (5da689c313, 2019-01-14)"
   sodipodi:docname="github-logo-name.svg"
   inkscape:export-filename="/home/jr0cket/projects/graphic-design/github-logo-name.png"
   inkscape:export-xdpi="90"
   inkscape:export-ydpi="90">
  <metadata
     id="metadata4218">
    <rdf:RDF>
      <cc:Work
         rdf:about="">
        <dc:format>image/svg+xml</dc:format>
        <dc:type
           rdf:resource="http://purl.org/dc/dcmitype/StillImage" />
        <dc:title>clojure-berlin</dc:title>
      </cc:Work>
    </rdf:RDF>
  </metadata>
  <sodipodi:namedview
     pagecolor="#ffffff"
     bordercolor="#666666"
     borderopacity="1"
     objecttolerance="10"
     gridtolerance="10"
     guidetolerance="10"
     inkscape:pageopacity="0"
     inkscape:pageshadow="2"
     inkscape:window-width="1920"
     inkscape:window-height="1016"
     id="namedview4216"
     showgrid="false"
     inkscape:zoom="2"
     inkscape:cx="134.15517"
     inkscape:cy="-12.52667"
     inkscape:window-x="0"
     inkscape:window-y="27"
     inkscape:window-maximized="1"
     inkscape:current-layer="svg4197"
     fit-margin-top="12"
     fit-margin-left="12"
     fit-margin-right="12"
     fit-margin-bottom="12" />
  <!-- Generator: Sketch 39.1 (31720) - http://www.bohemiancoding.com/sketch -->
  <title
     id="title4199">clojure-berlin</title>
  <desc
     id="desc4201">Created with Sketch.</desc>
  <defs
     id="defs4203" />
  <rect
     style="opacity:1;fill:#000000;fill-opacity:1;stroke:#000000;stroke-width:1.36248195;stroke-linejoin:miter;stroke-miterlimit:4;stroke-dasharray:none;stroke-dashoffset:0;stroke-opacity:1"
     id="rect902"
     width="258.98608"
     height="50.55978"
     x="12.681241"
     y="20.606356"
     ry="14.404602" />
  <text
     xml:space="preserve"
     style="font-style:normal;font-variant:normal;font-weight:normal;font-stretch:normal;font-size:29.57505035px;line-height:125%;font-family:Ubuntu;-inkscape-font-specification:Ubuntu;letter-spacing:0px;word-spacing:0px;fill:#ffffff;fill-opacity:1;stroke:#ffffff;stroke-width:1.38633049;stroke-linecap:butt;stroke-linejoin:miter;stroke-miterlimit:4;stroke-dasharray:none;stroke-opacity:1"
     x="129.74362"
     y="53.546185"
     id="text900"><tspan
       sodipodi:role="line"
       id="tspan898"
       x="129.74362"
       y="53.546185"
       style="font-style:normal;font-variant:normal;font-weight:bold;font-stretch:normal;font-family:'Ubuntu Mono';-inkscape-font-specification:'Ubuntu Mono Bold';fill:#ffffff;stroke:#ffffff;stroke-width:1.38633049;stroke-miterlimit:4;stroke-dasharray:none">GitHub</tspan></text>
  <circle
     style="opacity:1;fill:#ffffff;fill-opacity:1;stroke:#ffffff;stroke-width:16.01262665;stroke-linejoin:miter;stroke-miterlimit:10;stroke-dasharray:none;stroke-dashoffset:0;stroke-opacity:1"
     id="path8130"
     cx="58.5"
     cy="43.272491"
     r="26.83227" />
  <g
     style="fill:none"
     id="g8128"
     transform="matrix(0.06239881,0,0,0.06239881,26.551809,12.112458)">
    <path
       id="path8117"
       transform="scale(64)"
       d="M 8,0 C 3.58,0 0,3.58 0,8 c 0,3.54 2.29,6.53 5.47,7.59 0.4,0.07 0.55,-0.17 0.55,-0.38 0,-0.19 -0.01,-0.82 -0.01,-1.49 C 4,14.09 3.48,13.23 3.32,12.78 3.23,12.55 2.84,11.84 2.5,11.65 2.22,11.5 1.82,11.13 2.49,11.12 3.12,11.11 3.57,11.7 3.72,11.94 4.44,13.15 5.59,12.81 6.05,12.6 6.12,12.08 6.33,11.73 6.56,11.53 4.78,11.33 2.92,10.64 2.92,7.58 2.92,6.71 3.23,5.99 3.74,5.43 3.66,5.23 3.38,4.41 3.82,3.31 c 0,0 0.67,-0.21 2.2,0.82 0.64,-0.18 1.32,-0.27 2,-0.27 0.68,0 1.36,0.09 2,0.27 1.53,-1.04 2.2,-0.82 2.2,-0.82 0.44,1.1 0.16,1.92 0.08,2.12 0.51,0.56 0.82,1.27 0.82,2.15 0,3.07 -1.87,3.75 -3.65,3.95 0.29,0.25 0.54,0.73 0.54,1.48 0,1.07 -0.01,1.93 -0.01,2.2 0,0.21 0.15,0.46 0.55,0.38 C 13.71,14.53 16,11.53 16,8 16,3.58 12.42,0 8,0 Z"
       inkscape:connector-curvature="0"
       style="clip-rule:evenodd;fill:#1b1f23;fill-rule:evenodd" />
  </g>
</svg>
