<?xml version="1.0" encoding="UTF-8" standalone="no"?>
<!-- Created with Inkscape (http://www.inkscape.org/) -->

<svg
   xmlns:dc="http://purl.org/dc/elements/1.1/"
   xmlns:cc="http://creativecommons.org/ns#"
   xmlns:rdf="http://www.w3.org/1999/02/22-rdf-syntax-ns#"
   xmlns:svg="http://www.w3.org/2000/svg"
   xmlns="http://www.w3.org/2000/svg"
   xmlns:sodipodi="http://sodipodi.sourceforge.net/DTD/sodipodi-0.dtd"
   xmlns:inkscape="http://www.inkscape.org/namespaces/inkscape"
   width="64px"
   height="64px"
   id="svg5348"
   version="1.1"
   inkscape:version="0.48.4 r9939"
   sodipodi:docname="New document 22">
  <defs
     id="defs5350" />
  <sodipodi:namedview
     id="base"
     pagecolor="#ffffff"
     bordercolor="#666666"
     borderopacity="1.0"
     inkscape:pageopacity="0.0"
     inkscape:pageshadow="2"
     inkscape:zoom="5.5"
     inkscape:cx="32"
     inkscape:cy="32"
     inkscape:current-layer="layer1"
     showgrid="true"
     inkscape:document-units="px"
     inkscape:grid-bbox="true"
     inkscape:window-width="982"
     inkscape:window-height="791"
     inkscape:window-x="60"
     inkscape:window-y="48"
     inkscape:window-maximized="0" />
  <metadata
     id="metadata5353">
    <rdf:RDF>
      <cc:Work
         rdf:about="">
        <dc:format>image/svg+xml</dc:format>
        <dc:type
           rdf:resource="http://purl.org/dc/dcmitype/StillImage" />
        <dc:title></dc:title>
      </cc:Work>
    </rdf:RDF>
  </metadata>
  <g
     id="layer1"
     inkscape:label="Layer 1"
     inkscape:groupmode="layer">
    <path
       style="fill:#c83737;fill-opacity:1;stroke:#000000;stroke-width:2.37017632;stroke-miterlimit:4;stroke-dasharray:none;display:inline"
       d="m 32.146881,9.851883 c -15.041194,0 -27.2385184,3.47966 -27.2385184,7.777133 0,0.147223 0.027367,0.280702 0.055544,0.425888 -0.3383962,0.889065 -0.5555025,2.047632 -0.5555025,3.333062 l 0,21.183452 c 0,2.794987 0.9630977,5.055139 2.1664867,5.055139 0.1372609,0 0.2773077,-0.03662 0.4073766,-0.09253 4.0951336,2.817718 13.8207556,4.79591 25.1645976,4.79591 12.120096,0 22.373048,-2.261389 25.905284,-5.388461 0.125049,0.05167 0.257242,0.07406 0.38886,0.07406 1.203383,0 2.166486,-2.241647 2.166486,-5.036623 l 0,-21.183452 c 0,-2.692569 -0.895074,-4.879997 -2.036861,-5.036623 C 55.635477,12.36641 44.927234,9.8519104 32.146865,9.8519104 z m 24.127649,11.387952 0,19.702093 C 51.720953,38.462359 42.6274,36.775596 32.146881,36.775596 c -9.950894,0 -18.653605,1.519552 -23.4054924,3.795988 l 0,-18.961406 c 4.7518874,2.276441 13.4545984,3.795983 23.4054924,3.795983 10.480519,0 19.574072,-1.686758 24.127649,-4.166326 z"
       id="path5296-7-9"
       inkscape:connector-curvature="0" />
  </g>
</svg>
