<?xml version="1.0" encoding="UTF-8" standalone="no"?>
<!-- Created with Inkscape (http://www.inkscape.org/) -->

<svg
   xmlns:dc="http://purl.org/dc/elements/1.1/"
   xmlns:cc="http://creativecommons.org/ns#"
   xmlns:rdf="http://www.w3.org/1999/02/22-rdf-syntax-ns#"
   xmlns:svg="http://www.w3.org/2000/svg"
   xmlns="http://www.w3.org/2000/svg"
   xmlns:sodipodi="http://sodipodi.sourceforge.net/DTD/sodipodi-0.dtd"
   xmlns:inkscape="http://www.inkscape.org/namespaces/inkscape"
   width="128"
   height="128"
   id="svg7956"
   version="1.1"
   inkscape:version="0.48.4 r9939"
   sodipodi:docname="git-icon-staging.svg"
   inkscape:export-filename="/home/jr0cket/projects/dev-docs/developer-guides/git-icon-staging.png"
   inkscape:export-xdpi="90"
   inkscape:export-ydpi="90">
  <defs
     id="defs7958" />
  <sodipodi:namedview
     id="base"
     pagecolor="#ffffff"
     bordercolor="#666666"
     borderopacity="1.0"
     inkscape:pageopacity="0.0"
     inkscape:pageshadow="2"
     inkscape:zoom="1"
     inkscape:cx="49.120695"
     inkscape:cy="54.277201"
     inkscape:document-units="px"
     inkscape:current-layer="layer1"
     showgrid="false"
     inkscape:window-width="876"
     inkscape:window-height="676"
     inkscape:window-x="0"
     inkscape:window-y="24"
     inkscape:window-maximized="0" />
  <metadata
     id="metadata7961">
    <rdf:RDF>
      <cc:Work
         rdf:about="">
        <dc:format>image/svg+xml</dc:format>
        <dc:type
           rdf:resource="http://purl.org/dc/dcmitype/StillImage" />
        <dc:title></dc:title>
      </cc:Work>
    </rdf:RDF>
  </metadata>
  <g
     inkscape:label="Layer 1"
     inkscape:groupmode="layer"
     id="layer1"
     transform="translate(0,-924.36218)">
    <path
       style="opacity:0.5;fill:#c83737;fill-opacity:1;stroke:#000000;stroke-width:4.45050478;stroke-miterlimit:4;stroke-dasharray:none;display:inline"
       d="m 62.74083,946.05845 c -28.243007,0 -51.14604,6.5338 -51.14604,14.60316 0,0.27646 0.0514,0.52715 0.104299,0.79979 -0.635427,1.66929 -1.043093,3.84477 -1.043093,6.25846 l 0,39.77644 c 0,5.2481 1.808421,9.4921 4.06804,9.4921 0.257738,0 0.520715,-0.068 0.764945,-0.1738 7.689472,5.2908 25.951364,9.0053 47.251815,9.0053 22.758048,0 42.010124,-4.2462 48.642644,-10.1179 0.2348,0.096 0.48302,0.1398 0.73016,0.1398 2.25961,0 4.06804,-4.2093 4.06804,-9.4575 l 0,-39.7763 c 0,-5.05594 -1.6807,-9.16324 -3.82464,-9.45734 -5.51138,-6.36999 -25.618358,-11.09149 -49.616204,-11.09149 z m 45.30475,21.38328 0,36.99487 c -8.5503,-4.65591 -25.625363,-7.82316 -45.30475,-7.82316 -18.684901,0 -35.026073,2.8532 -43.948737,7.12776 l 0,-35.60414 c 8.922664,4.27461 25.263836,7.12778 43.948737,7.12778 19.679387,0 36.75445,-3.16724 45.30475,-7.82311 z"
       id="path5296-3"
       inkscape:connector-curvature="0"
       inkscape:export-filename="/home/jr0cket/Dropbox/DevGuides/git-local-workflow.png"
       inkscape:export-xdpi="90"
       inkscape:export-ydpi="90" />
  </g>
</svg>
