<?xml version="1.0" encoding="UTF-8" standalone="no"?>
<svg
   width="371.73859"
   height="97.018433"
   viewBox="0 0 98.35583 25.669456"
   version="1.1"
   id="svg8"
   inkscape:version="1.1.2 (0a00cf5339, 2022-02-04)"
   sodipodi:docname="practicalli-paypal-me-button.svg"
   inkscape:export-filename="/home/practicalli/projects/practicalli/graphic-design/buttons/practicalli-paypal-me-button.png"
   inkscape:export-xdpi="90"
   inkscape:export-ydpi="90"
   xmlns:inkscape="http://www.inkscape.org/namespaces/inkscape"
   xmlns:sodipodi="http://sodipodi.sourceforge.net/DTD/sodipodi-0.dtd"
   xmlns:xlink="http://www.w3.org/1999/xlink"
   xmlns="http://www.w3.org/2000/svg"
   xmlns:svg="http://www.w3.org/2000/svg"
   xmlns:rdf="http://www.w3.org/1999/02/22-rdf-syntax-ns#"
   xmlns:cc="http://creativecommons.org/ns#"
   xmlns:dc="http://purl.org/dc/elements/1.1/">
  <defs
     id="defs2">
    <linearGradient
       inkscape:collect="always"
       id="linearGradient2118">
      <stop
         style="stop-color:#aaccff;stop-opacity:1;"
         offset="0"
         id="stop2114" />
      <stop
         style="stop-color:#aaccff;stop-opacity:0;"
         offset="1"
         id="stop2116" />
    </linearGradient>
    <linearGradient
       id="linearGradient4221">
      <stop
         id="stop4223"
         offset="0"
         style="stop-color:#c0c0dc;stop-opacity:1" />
      <stop
         style="stop-color:#c0c0dd;stop-opacity:1"
         offset="0.11419532"
         id="stop4225" />
      <stop
         id="stop4227"
         offset="0.47871608"
         style="stop-color:#a191bf;stop-opacity:1" />
      <stop
         id="stop4229"
         offset="1"
         style="stop-color:#625681;stop-opacity:1" />
    </linearGradient>
    <linearGradient
       gradientTransform="matrix(0.4887125,0,0,0.4887125,7.5674041,560.78197)"
       xlink:href="#linearGradient4274"
       id="linearGradient7595"
       x1="-0.65353984"
       y1="934.5658"
       x2="46.893108"
       y2="951.89844"
       gradientUnits="userSpaceOnUse" />
    <linearGradient
       id="linearGradient4274">
      <stop
         id="stop4276"
         offset="0"
         style="stop-color:#eeeeec;stop-opacity:1" />
      <stop
         style="stop-color:#eeeeec;stop-opacity:1"
         offset="0.0837483"
         id="stop4181" />
      <stop
         id="stop4280"
         offset="0.3513594"
         style="stop-color:#eeeeec;stop-opacity:1" />
      <stop
         id="stop4282"
         offset="1"
         style="stop-color:#e0d5d5;stop-opacity:1" />
    </linearGradient>
    <linearGradient
       xlink:href="#linearGradient7589"
       id="linearGradient4317"
       x1="303.64438"
       y1="608.87836"
       x2="396.9097"
       y2="672.25775"
       gradientUnits="userSpaceOnUse"
       gradientTransform="matrix(0.19229712,0.06206447,-0.10031905,0.17023858,27.947597,914.55215)" />
    <linearGradient
       id="linearGradient7589">
      <stop
         id="stop7591"
         offset="0"
         style="stop-color:#351347;stop-opacity:1" />
      <stop
         id="stop7593"
         offset="1"
         style="stop-color:#5c3566;stop-opacity:0;" />
    </linearGradient>
    <linearGradient
       xlink:href="#linearGradient4311"
       id="linearGradient4301"
       x1="306.88434"
       y1="425.15848"
       x2="377.03168"
       y2="364.66345"
       gradientUnits="userSpaceOnUse"
       gradientTransform="matrix(0.07485012,0.08932098,-0.08626544,0.06221301,53.22269,961.64413)" />
    <linearGradient
       id="linearGradient4311">
      <stop
         style="stop-color:#351e47;stop-opacity:1"
         offset="0"
         id="stop4313" />
      <stop
         style="stop-color:#5c3566;stop-opacity:0;"
         offset="1"
         id="stop4315" />
    </linearGradient>
    <linearGradient
       xlink:href="#linearGradient4274"
       id="linearGradient4230"
       x1="267.65439"
       y1="527.33502"
       x2="329.16669"
       y2="429.49622"
       gradientUnits="userSpaceOnUse"
       gradientTransform="matrix(0.15153279,0.0143268,-0.0143268,0.15153279,-12.641966,950.28506)" />
    <linearGradient
       xlink:href="#linearGradient4196"
       id="linearGradient5577"
       x1="308.41003"
       y1="511.44083"
       x2="190.84904"
       y2="465.96136"
       gradientUnits="userSpaceOnUse"
       gradientTransform="matrix(-0.13467,0.03941451,0.04093431,0.13986281,58.64004,937.70038)" />
    <linearGradient
       id="linearGradient4196">
      <stop
         style="stop-color:#ffffff;stop-opacity:1"
         offset="0"
         id="stop4198" />
      <stop
         id="stop4200"
         offset="0.11419532"
         style="stop-color:#fffff2;stop-opacity:1" />
      <stop
         style="stop-color:#d2acd2;stop-opacity:1"
         offset="0.47871608"
         id="stop4202" />
      <stop
         style="stop-color:#123069;stop-opacity:1"
         offset="1"
         id="stop4204" />
    </linearGradient>
    <radialGradient
       xlink:href="#linearGradient6003"
       id="radialGradient5136-0-6-65"
       cx="322.17105"
       cy="472.51749"
       fx="322.17105"
       fy="472.51749"
       r="169"
       gradientUnits="userSpaceOnUse"
       gradientTransform="matrix(0.3389967,0.21474015,-0.19688621,0.26982602,-1209.2255,-630.6322)" />
    <linearGradient
       id="linearGradient6003">
      <stop
         id="stop6005"
         offset="0"
         style="stop-color:#c2c6db;stop-opacity:1" />
      <stop
         style="stop-color:#bab1e0;stop-opacity:1"
         offset="0.33969504"
         id="stop6007" />
      <stop
         style="stop-color:#8d77a3;stop-opacity:1"
         offset="0.44414869"
         id="stop6009" />
      <stop
         id="stop6011"
         offset="0.55217898"
         style="stop-color:#675a84;stop-opacity:1" />
      <stop
         id="stop6013"
         offset="1"
         style="stop-color:#050846;stop-opacity:1" />
    </linearGradient>
    <radialGradient
       xlink:href="#linearGradient6003"
       id="radialGradient5136-0-6-6-8-3-1"
       cx="322.17105"
       cy="472.51749"
       fx="322.17105"
       fy="472.51749"
       r="169"
       gradientUnits="userSpaceOnUse"
       gradientTransform="matrix(0.19025707,0.10471339,-0.11049955,0.13157478,-966.76195,-798.66855)" />
    <radialGradient
       xlink:href="#linearGradient6003"
       id="radialGradient5136-0-6-6-8-8-8"
       cx="322.17105"
       cy="472.51749"
       fx="322.17105"
       fy="472.51749"
       r="169"
       gradientUnits="userSpaceOnUse"
       gradientTransform="matrix(0.1361054,0.07855904,-0.0790488,0.09871133,-780.58233,-1164.6467)" />
    <radialGradient
       xlink:href="#linearGradient6003"
       id="radialGradient5136-0-6-6-8-6"
       cx="322.17105"
       cy="472.51749"
       fx="322.17105"
       fy="472.51749"
       r="169"
       gradientUnits="userSpaceOnUse"
       gradientTransform="matrix(0.18445402,0.09675949,-0.10712923,0.12158052,-859.37376,-1098.3051)" />
    <radialGradient
       xlink:href="#linearGradient6003"
       id="radialGradient5136-0-6-6-2"
       cx="322.17105"
       cy="472.51749"
       fx="322.17105"
       fy="472.51749"
       r="169"
       gradientUnits="userSpaceOnUse"
       gradientTransform="matrix(0.33582312,0.20512484,-0.19504306,0.25774431,-945.14244,-758.65362)" />
    <radialGradient
       xlink:href="#linearGradient6003"
       id="radialGradient5136-0-6-65-3"
       cx="322.17105"
       cy="472.51749"
       fx="322.17105"
       fy="472.51749"
       r="169"
       gradientUnits="userSpaceOnUse"
       gradientTransform="matrix(0.35330232,0.22380216,-0.20519478,0.28121264,-702.27629,-398.30317)" />
    <radialGradient
       xlink:href="#linearGradient6003"
       id="radialGradient5136-0-6-6-8-3-1-9"
       cx="322.17105"
       cy="472.51749"
       fx="322.17105"
       fy="472.51749"
       r="169"
       gradientUnits="userSpaceOnUse"
       gradientTransform="matrix(0.19828589,0.10913228,-0.11516262,0.13712722,-658.03031,-481.71303)" />
    <radialGradient
       xlink:href="#linearGradient6003"
       id="radialGradient5136-0-6-6-8-8-8-5"
       cx="322.17105"
       cy="472.51749"
       fx="322.17105"
       fy="472.51749"
       r="169"
       gradientUnits="userSpaceOnUse"
       gradientTransform="matrix(0.14184903,0.08187422,-0.08238465,0.10287694,-643.98232,-766.01725)" />
    <radialGradient
       xlink:href="#linearGradient6003"
       id="radialGradient5136-0-6-6-2-1"
       cx="322.17105"
       cy="472.51749"
       fx="322.17105"
       fy="472.51749"
       r="169"
       gradientUnits="userSpaceOnUse"
       gradientTransform="matrix(0.34999481,0.21378108,-0.20327385,0.26862109,-680.60673,-453.66251)" />
    <radialGradient
       xlink:href="#linearGradient6003"
       id="radialGradient5136-0-6-6-8-6-9"
       cx="322.17105"
       cy="472.51749"
       fx="322.17105"
       fy="472.51749"
       r="169"
       gradientUnits="userSpaceOnUse"
       gradientTransform="matrix(0.19223796,0.10084273,-0.11165007,0.1267112,-724.74062,-701.33347)" />
    <radialGradient
       xlink:href="#linearGradient6003"
       id="radialGradient5136-0-6-65-2"
       cx="322.17105"
       cy="472.51749"
       fx="322.17105"
       fy="472.51749"
       r="169"
       gradientUnits="userSpaceOnUse"
       gradientTransform="matrix(0.3389967,0.21474015,-0.19688621,0.26982602,-1209.2255,-630.6322)" />
    <radialGradient
       xlink:href="#linearGradient6003"
       id="radialGradient5136-0-6-6-8-3-1-2"
       cx="322.17105"
       cy="472.51749"
       fx="322.17105"
       fy="472.51749"
       r="169"
       gradientUnits="userSpaceOnUse"
       gradientTransform="matrix(0.19025707,0.10471339,-0.11049955,0.13157478,-966.76195,-798.66855)" />
    <radialGradient
       xlink:href="#linearGradient6003"
       id="radialGradient5136-0-6-6-8-8-8-0"
       cx="322.17105"
       cy="472.51749"
       fx="322.17105"
       fy="472.51749"
       r="169"
       gradientUnits="userSpaceOnUse"
       gradientTransform="matrix(0.1361054,0.07855904,-0.0790488,0.09871133,-780.58233,-1164.6467)" />
    <radialGradient
       xlink:href="#linearGradient6003"
       id="radialGradient5136-0-6-6-8-6-2"
       cx="322.17105"
       cy="472.51749"
       fx="322.17105"
       fy="472.51749"
       r="169"
       gradientUnits="userSpaceOnUse"
       gradientTransform="matrix(0.18445402,0.09675949,-0.10712923,0.12158052,-859.37376,-1098.3051)" />
    <radialGradient
       xlink:href="#linearGradient6003"
       id="radialGradient5136-0-6-6-2-3"
       cx="322.17105"
       cy="472.51749"
       fx="322.17105"
       fy="472.51749"
       r="169"
       gradientUnits="userSpaceOnUse"
       gradientTransform="matrix(0.33582312,0.20512484,-0.19504306,0.25774431,-945.14244,-758.65362)" />
    <radialGradient
       xlink:href="#linearGradient6003"
       id="radialGradient5136-0-6-65-3-7"
       cx="322.17105"
       cy="472.51749"
       fx="322.17105"
       fy="472.51749"
       r="169"
       gradientUnits="userSpaceOnUse"
       gradientTransform="matrix(0.35330232,0.22380216,-0.20519478,0.28121264,-702.27629,-398.30317)" />
    <radialGradient
       xlink:href="#linearGradient6003"
       id="radialGradient5136-0-6-6-8-3-1-9-5"
       cx="322.17105"
       cy="472.51749"
       fx="322.17105"
       fy="472.51749"
       r="169"
       gradientUnits="userSpaceOnUse"
       gradientTransform="matrix(0.19828589,0.10913228,-0.11516262,0.13712722,-658.03031,-481.71303)" />
    <radialGradient
       xlink:href="#linearGradient6003"
       id="radialGradient5136-0-6-6-8-8-8-5-9"
       cx="322.17105"
       cy="472.51749"
       fx="322.17105"
       fy="472.51749"
       r="169"
       gradientUnits="userSpaceOnUse"
       gradientTransform="matrix(0.14184903,0.08187422,-0.08238465,0.10287694,-643.98232,-766.01725)" />
    <radialGradient
       xlink:href="#linearGradient6003"
       id="radialGradient5136-0-6-6-2-1-2"
       cx="322.17105"
       cy="472.51749"
       fx="322.17105"
       fy="472.51749"
       r="169"
       gradientUnits="userSpaceOnUse"
       gradientTransform="matrix(0.34999481,0.21378108,-0.20327385,0.26862109,-680.60673,-453.66251)" />
    <radialGradient
       xlink:href="#linearGradient6003"
       id="radialGradient5136-0-6-6-8-6-9-2"
       cx="322.17105"
       cy="472.51749"
       fx="322.17105"
       fy="472.51749"
       r="169"
       gradientUnits="userSpaceOnUse"
       gradientTransform="matrix(0.19223796,0.10084273,-0.11165007,0.1267112,-724.74062,-701.33347)" />
    <linearGradient
       id="linearGradient-1"
       y2="62.452332"
       x2="102.97687"
       y1="62.452332"
       x1="8.7429123"
       gradientTransform="scale(1.805544,0.55384969)"
       gradientUnits="userSpaceOnUse">
      <stop
         id="stop1060"
         offset="0%"
         stop-color="#1E8D55" />
      <stop
         id="stop1062"
         offset="100%"
         stop-color="#134225" />
    </linearGradient>
    <linearGradient
       id="linearGradient-2"
       y2="207.74036"
       x2="43.407299"
       y1="36.029663"
       x1="224.36723"
       gradientTransform="scale(1.0560205,0.94695129)"
       gradientUnits="userSpaceOnUse">
      <stop
         id="stop1065"
         offset="0%"
         stop-color="#1E8D55" />
      <stop
         id="stop1067"
         offset="100%"
         stop-color="#134225" />
    </linearGradient>
    <linearGradient
       id="linearGradient-3"
       y2="485.69226"
       x2="100.55902"
       y1="452.71408"
       x1="10.478932"
       gradientTransform="scale(1.8655394,0.536038)"
       gradientUnits="userSpaceOnUse">
      <stop
         id="stop1070"
         offset="0%"
         stop-color="#1E8D55" />
      <stop
         id="stop1072"
         offset="100%"
         stop-color="#134225" />
    </linearGradient>
    <linearGradient
       inkscape:collect="always"
       xlink:href="#linearGradient2118"
       id="linearGradient2120"
       x1="-100.65974"
       y1="32.287298"
       x2="-6.5372469"
       y2="32.287298"
       gradientUnits="userSpaceOnUse" />
  </defs>
  <sodipodi:namedview
     id="base"
     pagecolor="#000000"
     bordercolor="#666666"
     borderopacity="1.0"
     inkscape:pageopacity="0"
     inkscape:pageshadow="2"
     inkscape:zoom="2.8284271"
     inkscape:cx="200.288"
     inkscape:cy="96.520076"
     inkscape:document-units="mm"
     inkscape:current-layer="layer2"
     showgrid="false"
     units="px"
     inkscape:window-width="3440"
     inkscape:window-height="1415"
     inkscape:window-x="0"
     inkscape:window-y="25"
     inkscape:window-maximized="1"
     fit-margin-top="8"
     fit-margin-left="8"
     fit-margin-right="8"
     fit-margin-bottom="8"
     showguides="true"
     inkscape:guide-bbox="true"
     inkscape:snap-global="false"
     inkscape:document-rotation="0"
     inkscape:pagecheckerboard="0" />
  <metadata
     id="metadata5">
    <rdf:RDF>
      <cc:Work
         rdf:about="">
        <dc:format>image/svg+xml</dc:format>
        <dc:type
           rdf:resource="http://purl.org/dc/dcmitype/StillImage" />
        <cc:license
           rdf:resource="http://creativecommons.org/licenses/by-sa/4.0/" />
      </cc:Work>
      <cc:License
         rdf:about="http://creativecommons.org/licenses/by-sa/4.0/">
        <cc:permits
           rdf:resource="http://creativecommons.org/ns#Reproduction" />
        <cc:permits
           rdf:resource="http://creativecommons.org/ns#Distribution" />
        <cc:requires
           rdf:resource="http://creativecommons.org/ns#Notice" />
        <cc:requires
           rdf:resource="http://creativecommons.org/ns#Attribution" />
        <cc:permits
           rdf:resource="http://creativecommons.org/ns#DerivativeWorks" />
        <cc:requires
           rdf:resource="http://creativecommons.org/ns#ShareAlike" />
      </cc:License>
    </rdf:RDF>
  </metadata>
  <g
     inkscape:label="background"
     inkscape:groupmode="layer"
     id="layer1"
     transform="translate(102.77641,-11.652505)"
     style="display:inline" />
  <g
     inkscape:groupmode="layer"
     id="layer2"
     inkscape:label="foreground"
     transform="translate(102.77641,-19.452568)">
    <rect
       style="opacity:1;fill:url(#linearGradient2120);fill-opacity:1;stroke:#d7e3f4;stroke-width:0.68707246;stroke-linecap:round;stroke-linejoin:round;stroke-miterlimit:4;stroke-dasharray:none;stroke-dashoffset:0;stroke-opacity:1"
       id="rect3359-3"
       width="93.435425"
       height="20.749054"
       x="-100.31621"
       y="21.912771"
       rx="4.7608843" />
    <g
       id="g2051"
       transform="matrix(0.05193014,0,0,0.05193014,-75.322792,-9.4266467)">
      <path
         class="st0"
         d="m 226.9,684.5 c 0,20.4 -8.4,36.8 -25.3,49.3 -16.9,12.5 -40.5,18.7 -70.8,18.7 H 114 l -12.9,55.7 H 56.8 L 96.3,637.1 h 61.5 c 11.2,0 20.9,0.8 29.2,2.3 8.3,1.5 15.5,4.2 21.5,7.9 6,3.8 10.5,8.6 13.7,14.6 3.1,6.2 4.7,13.7 4.7,22.6 z m -47.1,4.3 c 0,-6.7 -2.4,-11.6 -7.3,-14.8 -4.9,-3.2 -12,-4.8 -21.5,-4.8 h -17.8 l -11.8,51.2 h 15.9 c 13.4,0 23.9,-2.7 31.3,-8.2 7.5,-5.5 11.2,-13.3 11.2,-23.4 z"
         id="path2039" />
      <path
         class="st0"
         d="m 308.4,794.6 c -2.6,1.7 -5.7,3.7 -9.4,6.1 -3.7,2.4 -7.1,4.3 -10.2,5.7 -4.3,1.8 -8.3,3.1 -12.1,4 -3.8,0.9 -9,1.4 -15.6,1.4 -10.7,0 -19.5,-3 -26.3,-9 -6.8,-6 -10.2,-13.9 -10.2,-23.5 0,-10.2 2.4,-18.8 7.2,-25.9 4.8,-7.1 12,-12.8 21.5,-17 8.9,-4 19.5,-6.9 31.7,-8.6 12.3,-1.8 25.6,-3.1 39.9,-3.9 0.1,-0.5 0.3,-1.2 0.5,-2.2 0.3,-1 0.4,-2.2 0.4,-3.5 0,-5.4 -2.5,-9.2 -7.6,-11.4 -5.1,-2.2 -12.6,-3.3 -22.6,-3.3 -6.8,0 -14.3,1.1 -22.6,3.4 -8.2,2.3 -14.4,4.2 -18.5,5.7 h -3.8 l 6.1,-30.6 c 4.8,-1.2 12.3,-2.6 22.4,-4.1 10.1,-1.5 20.2,-2.3 30.2,-2.3 20.2,0 35.1,2.6 44.5,7.9 9.5,5.3 14.2,13.5 14.2,24.6 0,1.5 -0.1,3.5 -0.4,6 -0.3,2.5 -0.6,4.6 -1.1,6.4 l -20.2,87.8 h -41.1 z m 11,-47.2 c -7.4,0.6 -14.3,1.3 -20.8,2.2 -6.5,0.8 -12,2.1 -16.5,3.7 -4.7,1.7 -8.3,4.1 -10.7,7.1 -2.5,3.1 -3.7,7.1 -3.7,12.2 0,4.4 1.6,7.6 4.9,9.4 3.3,1.8 8,2.7 14.3,2.7 4.1,0 8.4,-0.9 13.1,-2.8 4.7,-1.9 9,-4.3 13.1,-7.2 z"
         id="path2041" />
      <path
         class="st0"
         d="M 431.8,855.6 H 386.3 L 419.2,805.7 398,679.3 h 42.3 l 11.2,84.5 49.1,-84.5 h 43.7 z"
         id="path2043" />
      <path
         class="st1"
         d="m 709.7,684.5 c 0,20.4 -8.4,36.8 -25.3,49.3 -16.9,12.5 -40.5,18.7 -70.8,18.7 h -16.8 l -12.9,55.7 h -44.3 l 39.4,-171 h 61.5 c 11.2,0 20.9,0.8 29.2,2.3 8.3,1.5 15.5,4.2 21.5,7.9 6,3.8 10.5,8.6 13.7,14.6 3.2,6.1 4.8,13.6 4.8,22.5 z m -47.2,4.3 c 0,-6.7 -2.4,-11.6 -7.3,-14.8 -4.9,-3.2 -12,-4.8 -21.5,-4.8 h -17.8 l -11.8,51.2 H 620 c 13.4,0 23.9,-2.7 31.3,-8.2 7.5,-5.5 11.2,-13.3 11.2,-23.4 z"
         id="path2045" />
      <path
         class="st1"
         d="m 791.2,794.6 c -2.6,1.7 -5.7,3.7 -9.4,6.1 -3.7,2.4 -7.1,4.3 -10.2,5.7 -4.3,1.8 -8.3,3.1 -12.1,4 -3.8,0.9 -9,1.4 -15.6,1.4 -10.7,0 -19.5,-3 -26.3,-9 -6.8,-6 -10.2,-13.9 -10.2,-23.5 0,-10.2 2.4,-18.8 7.2,-25.9 4.8,-7.1 12,-12.8 21.5,-17 8.9,-4 19.5,-6.9 31.7,-8.6 12.3,-1.8 25.6,-3.1 39.9,-3.9 0.1,-0.5 0.3,-1.2 0.5,-2.2 0.3,-1 0.4,-2.2 0.4,-3.5 0,-5.4 -2.5,-9.2 -7.6,-11.4 -5.1,-2.2 -12.6,-3.3 -22.6,-3.3 -6.8,0 -14.3,1.1 -22.6,3.4 -8.2,2.3 -14.4,4.2 -18.5,5.7 h -3.8 l 6.1,-30.6 c 4.8,-1.2 12.3,-2.6 22.4,-4.1 10.1,-1.5 20.2,-2.3 30.2,-2.3 20.2,0 35.1,2.6 44.5,7.9 9.5,5.3 14.2,13.5 14.2,24.6 0,1.5 -0.1,3.5 -0.4,6 -0.3,2.5 -0.6,4.6 -1.1,6.4 l -20.2,87.8 H 788 Z m 11,-47.2 c -7.4,0.6 -14.3,1.3 -20.8,2.2 -6.5,0.8 -12,2.1 -16.5,3.7 -4.7,1.7 -8.3,4.1 -10.7,7.1 -2.5,3.1 -3.7,7.1 -3.7,12.2 0,4.4 1.6,7.6 4.9,9.4 3.3,1.8 8,2.7 14.3,2.7 4.1,0 8.4,-0.9 13.1,-2.8 4.7,-1.9 9,-4.3 13.1,-7.2 z"
         id="path2047" />
      <path
         class="st1"
         d="M 949.9,629.5 908.6,808.3 H 867 l 41.3,-178.8 z"
         id="path2049" />
    </g>
    <g
       id="g2069"
       transform="matrix(0.03290979,0,0,0.03290979,-102.28329,19.753074)">
      <path
         class="st2"
         d="m 581.7,213.1 c 27.2,0 50.9,1.7 71.2,5.4 1,0.2 2,0.4 2.9,0.5 -1,-0.2 -1.9,-0.4 -2.9,-0.5 -20.3,-3.7 -44,-5.4 -71.2,-5.4 z"
         id="path2053" />
      <path
         class="st3"
         d="m 738,273.2 c -7.6,-14.6 -18.7,-26.5 -33.3,-35.6 -12.2,-7.6 -25.8,-13.3 -41.9,-17.1 0.4,4.6 1.1,9.4 1.1,14.4 0,0 0,0 0,0 0,0 0,0 0,0 0,49.6 -21.1,89.3 -62.2,119.7 -41,30.4 -98.9,45.4 -172.8,45.4 h -40.7 l -52.8,230 h 107.9 l 31.3,-137 h 40.8 c 73.8,0 131.3,-15 172.4,-45.4 41.1,-30.4 61.7,-70.3 61.7,-119.8 0,-21.8 -3.8,-40 -11.5,-54.6 z"
         id="path2055" />
      <path
         class="st4"
         d="m 581.7,214 c 27.2,0 50.9,1.5 71.2,5.2 1,0.2 2,0.3 2.9,0.5 2.4,0.4 4.8,0.8 7.1,1.4 -1.4,-15.5 -5,-29 -10.9,-40.3 -7.6,-14.6 -18.7,-26.6 -33.3,-35.7 C 604,136 586.5,129.4 566.3,125.7 546.1,122 522.3,120 495.1,120 H 345.6 l -96.1,416 h 107.9 l 31.3,-136 h 0.1 L 432,214 Z"
         id="path2057" />
      <g
         id="g2063">
        <path
           class="st5"
           d="m 601.9,355.1 c 41.1,-30.4 61.7,-70.6 61.7,-120.2 0,-5 -0.2,-9.8 -0.6,-14.4 0,0 0,0 0,0 0,0 0,0 0,0.1 -2.3,-0.6 -4.7,-1 -7.2,-1.5 -1,-0.2 -1.9,0.1 -2.9,-0.1 -20.2,-3.7 -44,-5 -71.2,-5 H 432 l -43.3,187 h 40.7 c 73.9,0 131.4,-15.5 172.5,-45.9 z"
           id="path2059" />
        <path
           class="st5"
           d="m 429.5,401 h -41.4 l 0.1,-0.6 43.5,-187.4 h 150 c 28.9,0 52.2,1.7 71.3,5.2 0.5,0.1 1,0.1 1.5,0.2 0.5,0 1,0.1 1.5,0.2 2.2,0.4 4.5,0.9 6.8,1.4 h 0.1 l 0.1,-0.1 0.6,0.2 v 0.3 c 0,0.1 0,0.2 0,0.3 v 0.4 0 c 0.4,4.5 0.6,9.1 0.6,13.7 0,49.6 -20.8,90.1 -61.9,120.4 C 561.1,385.6 503,401 429.5,401 Z m -40.1,-1 h 40.1 c 73.3,0 131.2,-15.3 172.1,-45.6 v 0 c 40.8,-30.1 61.4,-70.4 61.5,-119.6 0,-4.7 -0.2,-9.4 -0.6,-13.9 -2.3,-0.5 -4.6,-1 -6.8,-1.4 -0.5,-0.1 -0.9,-0.1 -1.4,-0.2 -0.5,0 -1,-0.1 -1.6,-0.2 -19,-3.5 -42.2,-5.2 -71.1,-5.2 H 432.4 Z"
           id="path2061" />
      </g>
      <path
         class="st6"
         d="m 602.3,354.9 c 41.1,-30.4 61.7,-70.4 61.7,-120 0,0 0,0 0,0 0,49.5 -20.6,89.6 -61.7,120 z"
         id="path2065" />
      <path
         class="st6"
         d="m 663,220.5 c 0,0 0,0 0,0 -2.4,-0.6 -4.7,-1.1 -7.2,-1.5 2.4,0.5 4.8,1 7.2,1.5 z"
         id="path2067" />
    </g>
    <text
       xml:space="preserve"
       style="font-style:italic;font-variant:normal;font-weight:bold;font-stretch:normal;font-size:8.00306px;line-height:1.25;font-family:Ubuntu;-inkscape-font-specification:'Ubuntu Bold Italic';letter-spacing:0px;word-spacing:0px;writing-mode:lr-tb;fill:#123984;fill-opacity:1;stroke-width:0.125049;stroke:#afc6e9"
       x="-70.142616"
       y="40.446152"
       id="text2124"><tspan
         sodipodi:role="line"
         id="tspan2122"
         x="-70.142616"
         y="40.446152"
         style="font-style:italic;font-variant:normal;font-weight:bold;font-stretch:normal;font-family:Ubuntu;-inkscape-font-specification:'Ubuntu Bold Italic';fill:#123984;fill-opacity:1;stroke-width:0.125049;stroke:#afc6e9">practicalli</tspan></text>
  </g>
  <style
     type="text/css"
     id="style911">
	.st0{fill:#FF0000;}
	.st1{fill:#FFFFFF;}
	.st2{fill:#282828;}
</style>
  <style
     id="style4925"
     type="text/css">
	.st0{fill:#E01E5A;}
	.st1{fill:#36C5F0;}
	.st2{fill:#2EB67D;}
	.st3{fill:#ECB22E;}
</style>
  <style
     type="text/css"
     id="style2037">
	.st0{fill:#123984;}
	.st1{fill:#009DE2;}
	.st2{fill:none;}
	.st3{fill:#009CDE;}
	.st4{fill:#002F86;}
	.st5{fill:#012069;}
	.st6{fill:#0F3572;}
</style>
</svg>
