<?xml version="1.0" encoding="UTF-8" standalone="no"?>
<svg
   xmlns:dc="http://purl.org/dc/elements/1.1/"
   xmlns:cc="http://creativecommons.org/ns#"
   xmlns:rdf="http://www.w3.org/1999/02/22-rdf-syntax-ns#"
   xmlns:svg="http://www.w3.org/2000/svg"
   xmlns="http://www.w3.org/2000/svg"
   xmlns:xlink="http://www.w3.org/1999/xlink"
   xmlns:sodipodi="http://sodipodi.sourceforge.net/DTD/sodipodi-0.dtd"
   xmlns:inkscape="http://www.inkscape.org/namespaces/inkscape"
   width="371.73859"
   height="97.018433"
   viewBox="0 0 98.35583 25.669456"
   version="1.1"
   id="svg8"
   inkscape:version="1.0.2 (e86c870879, 2021-01-15)"
   sodipodi:docname="practicalli-youtube-channel-subscribe.svg"
   inkscape:export-filename="/home/practicalli/projects/practicalli/graphic-design/practicalli-youtube-channel-subscribe.png"
   inkscape:export-xdpi="90"
   inkscape:export-ydpi="90">
  <defs
     id="defs2">
    <linearGradient
       inkscape:collect="always"
       id="linearGradient1351">
      <stop
         style="stop-color:#ff0000;stop-opacity:1;"
         offset="0"
         id="stop1347" />
      <stop
         style="stop-color:#ff0000;stop-opacity:0;"
         offset="1"
         id="stop1349" />
    </linearGradient>
    <linearGradient
       id="linearGradient4221">
      <stop
         id="stop4223"
         offset="0"
         style="stop-color:#c0c0dc;stop-opacity:1" />
      <stop
         style="stop-color:#c0c0dd;stop-opacity:1"
         offset="0.11419532"
         id="stop4225" />
      <stop
         id="stop4227"
         offset="0.47871608"
         style="stop-color:#a191bf;stop-opacity:1" />
      <stop
         id="stop4229"
         offset="1"
         style="stop-color:#625681;stop-opacity:1" />
    </linearGradient>
    <linearGradient
       gradientTransform="matrix(0.4887125,0,0,0.4887125,7.5674041,560.78197)"
       xlink:href="#linearGradient4274"
       id="linearGradient7595"
       x1="-0.65353984"
       y1="934.5658"
       x2="46.893108"
       y2="951.89844"
       gradientUnits="userSpaceOnUse" />
    <linearGradient
       id="linearGradient4274">
      <stop
         id="stop4276"
         offset="0"
         style="stop-color:#eeeeec;stop-opacity:1" />
      <stop
         style="stop-color:#eeeeec;stop-opacity:1"
         offset="0.0837483"
         id="stop4181" />
      <stop
         id="stop4280"
         offset="0.3513594"
         style="stop-color:#eeeeec;stop-opacity:1" />
      <stop
         id="stop4282"
         offset="1"
         style="stop-color:#e0d5d5;stop-opacity:1" />
    </linearGradient>
    <linearGradient
       xlink:href="#linearGradient7589"
       id="linearGradient4317"
       x1="303.64438"
       y1="608.87836"
       x2="396.9097"
       y2="672.25775"
       gradientUnits="userSpaceOnUse"
       gradientTransform="matrix(0.19229712,0.06206447,-0.10031905,0.17023858,27.947597,914.55215)" />
    <linearGradient
       id="linearGradient7589">
      <stop
         id="stop7591"
         offset="0"
         style="stop-color:#351347;stop-opacity:1" />
      <stop
         id="stop7593"
         offset="1"
         style="stop-color:#5c3566;stop-opacity:0;" />
    </linearGradient>
    <linearGradient
       xlink:href="#linearGradient4311"
       id="linearGradient4301"
       x1="306.88434"
       y1="425.15848"
       x2="377.03168"
       y2="364.66345"
       gradientUnits="userSpaceOnUse"
       gradientTransform="matrix(0.07485012,0.08932098,-0.08626544,0.06221301,53.22269,961.64413)" />
    <linearGradient
       id="linearGradient4311">
      <stop
         style="stop-color:#351e47;stop-opacity:1"
         offset="0"
         id="stop4313" />
      <stop
         style="stop-color:#5c3566;stop-opacity:0;"
         offset="1"
         id="stop4315" />
    </linearGradient>
    <linearGradient
       xlink:href="#linearGradient4274"
       id="linearGradient4230"
       x1="267.65439"
       y1="527.33502"
       x2="329.16669"
       y2="429.49622"
       gradientUnits="userSpaceOnUse"
       gradientTransform="matrix(0.15153279,0.0143268,-0.0143268,0.15153279,-12.641966,950.28506)" />
    <linearGradient
       xlink:href="#linearGradient4196"
       id="linearGradient5577"
       x1="308.41003"
       y1="511.44083"
       x2="190.84904"
       y2="465.96136"
       gradientUnits="userSpaceOnUse"
       gradientTransform="matrix(-0.13467,0.03941451,0.04093431,0.13986281,58.64004,937.70038)" />
    <linearGradient
       id="linearGradient4196">
      <stop
         style="stop-color:#ffffff;stop-opacity:1"
         offset="0"
         id="stop4198" />
      <stop
         id="stop4200"
         offset="0.11419532"
         style="stop-color:#fffff2;stop-opacity:1" />
      <stop
         style="stop-color:#d2acd2;stop-opacity:1"
         offset="0.47871608"
         id="stop4202" />
      <stop
         style="stop-color:#123069;stop-opacity:1"
         offset="1"
         id="stop4204" />
    </linearGradient>
    <radialGradient
       xlink:href="#linearGradient6003"
       id="radialGradient5136-0-6-65"
       cx="322.17105"
       cy="472.51749"
       fx="322.17105"
       fy="472.51749"
       r="169"
       gradientUnits="userSpaceOnUse"
       gradientTransform="matrix(0.3389967,0.21474015,-0.19688621,0.26982602,-1209.2255,-630.6322)" />
    <linearGradient
       id="linearGradient6003">
      <stop
         id="stop6005"
         offset="0"
         style="stop-color:#c2c6db;stop-opacity:1" />
      <stop
         style="stop-color:#bab1e0;stop-opacity:1"
         offset="0.33969504"
         id="stop6007" />
      <stop
         style="stop-color:#8d77a3;stop-opacity:1"
         offset="0.44414869"
         id="stop6009" />
      <stop
         id="stop6011"
         offset="0.55217898"
         style="stop-color:#675a84;stop-opacity:1" />
      <stop
         id="stop6013"
         offset="1"
         style="stop-color:#050846;stop-opacity:1" />
    </linearGradient>
    <radialGradient
       xlink:href="#linearGradient6003"
       id="radialGradient5136-0-6-6-8-3-1"
       cx="322.17105"
       cy="472.51749"
       fx="322.17105"
       fy="472.51749"
       r="169"
       gradientUnits="userSpaceOnUse"
       gradientTransform="matrix(0.19025707,0.10471339,-0.11049955,0.13157478,-966.76195,-798.66855)" />
    <radialGradient
       xlink:href="#linearGradient6003"
       id="radialGradient5136-0-6-6-8-8-8"
       cx="322.17105"
       cy="472.51749"
       fx="322.17105"
       fy="472.51749"
       r="169"
       gradientUnits="userSpaceOnUse"
       gradientTransform="matrix(0.1361054,0.07855904,-0.0790488,0.09871133,-780.58233,-1164.6467)" />
    <radialGradient
       xlink:href="#linearGradient6003"
       id="radialGradient5136-0-6-6-8-6"
       cx="322.17105"
       cy="472.51749"
       fx="322.17105"
       fy="472.51749"
       r="169"
       gradientUnits="userSpaceOnUse"
       gradientTransform="matrix(0.18445402,0.09675949,-0.10712923,0.12158052,-859.37376,-1098.3051)" />
    <radialGradient
       xlink:href="#linearGradient6003"
       id="radialGradient5136-0-6-6-2"
       cx="322.17105"
       cy="472.51749"
       fx="322.17105"
       fy="472.51749"
       r="169"
       gradientUnits="userSpaceOnUse"
       gradientTransform="matrix(0.33582312,0.20512484,-0.19504306,0.25774431,-945.14244,-758.65362)" />
    <radialGradient
       xlink:href="#linearGradient6003"
       id="radialGradient5136-0-6-65-3"
       cx="322.17105"
       cy="472.51749"
       fx="322.17105"
       fy="472.51749"
       r="169"
       gradientUnits="userSpaceOnUse"
       gradientTransform="matrix(0.35330232,0.22380216,-0.20519478,0.28121264,-702.27629,-398.30317)" />
    <radialGradient
       xlink:href="#linearGradient6003"
       id="radialGradient5136-0-6-6-8-3-1-9"
       cx="322.17105"
       cy="472.51749"
       fx="322.17105"
       fy="472.51749"
       r="169"
       gradientUnits="userSpaceOnUse"
       gradientTransform="matrix(0.19828589,0.10913228,-0.11516262,0.13712722,-658.03031,-481.71303)" />
    <radialGradient
       xlink:href="#linearGradient6003"
       id="radialGradient5136-0-6-6-8-8-8-5"
       cx="322.17105"
       cy="472.51749"
       fx="322.17105"
       fy="472.51749"
       r="169"
       gradientUnits="userSpaceOnUse"
       gradientTransform="matrix(0.14184903,0.08187422,-0.08238465,0.10287694,-643.98232,-766.01725)" />
    <radialGradient
       xlink:href="#linearGradient6003"
       id="radialGradient5136-0-6-6-2-1"
       cx="322.17105"
       cy="472.51749"
       fx="322.17105"
       fy="472.51749"
       r="169"
       gradientUnits="userSpaceOnUse"
       gradientTransform="matrix(0.34999481,0.21378108,-0.20327385,0.26862109,-680.60673,-453.66251)" />
    <radialGradient
       xlink:href="#linearGradient6003"
       id="radialGradient5136-0-6-6-8-6-9"
       cx="322.17105"
       cy="472.51749"
       fx="322.17105"
       fy="472.51749"
       r="169"
       gradientUnits="userSpaceOnUse"
       gradientTransform="matrix(0.19223796,0.10084273,-0.11165007,0.1267112,-724.74062,-701.33347)" />
    <radialGradient
       xlink:href="#linearGradient6003"
       id="radialGradient5136-0-6-65-2"
       cx="322.17105"
       cy="472.51749"
       fx="322.17105"
       fy="472.51749"
       r="169"
       gradientUnits="userSpaceOnUse"
       gradientTransform="matrix(0.3389967,0.21474015,-0.19688621,0.26982602,-1209.2255,-630.6322)" />
    <radialGradient
       xlink:href="#linearGradient6003"
       id="radialGradient5136-0-6-6-8-3-1-2"
       cx="322.17105"
       cy="472.51749"
       fx="322.17105"
       fy="472.51749"
       r="169"
       gradientUnits="userSpaceOnUse"
       gradientTransform="matrix(0.19025707,0.10471339,-0.11049955,0.13157478,-966.76195,-798.66855)" />
    <radialGradient
       xlink:href="#linearGradient6003"
       id="radialGradient5136-0-6-6-8-8-8-0"
       cx="322.17105"
       cy="472.51749"
       fx="322.17105"
       fy="472.51749"
       r="169"
       gradientUnits="userSpaceOnUse"
       gradientTransform="matrix(0.1361054,0.07855904,-0.0790488,0.09871133,-780.58233,-1164.6467)" />
    <radialGradient
       xlink:href="#linearGradient6003"
       id="radialGradient5136-0-6-6-8-6-2"
       cx="322.17105"
       cy="472.51749"
       fx="322.17105"
       fy="472.51749"
       r="169"
       gradientUnits="userSpaceOnUse"
       gradientTransform="matrix(0.18445402,0.09675949,-0.10712923,0.12158052,-859.37376,-1098.3051)" />
    <radialGradient
       xlink:href="#linearGradient6003"
       id="radialGradient5136-0-6-6-2-3"
       cx="322.17105"
       cy="472.51749"
       fx="322.17105"
       fy="472.51749"
       r="169"
       gradientUnits="userSpaceOnUse"
       gradientTransform="matrix(0.33582312,0.20512484,-0.19504306,0.25774431,-945.14244,-758.65362)" />
    <radialGradient
       xlink:href="#linearGradient6003"
       id="radialGradient5136-0-6-65-3-7"
       cx="322.17105"
       cy="472.51749"
       fx="322.17105"
       fy="472.51749"
       r="169"
       gradientUnits="userSpaceOnUse"
       gradientTransform="matrix(0.35330232,0.22380216,-0.20519478,0.28121264,-702.27629,-398.30317)" />
    <radialGradient
       xlink:href="#linearGradient6003"
       id="radialGradient5136-0-6-6-8-3-1-9-5"
       cx="322.17105"
       cy="472.51749"
       fx="322.17105"
       fy="472.51749"
       r="169"
       gradientUnits="userSpaceOnUse"
       gradientTransform="matrix(0.19828589,0.10913228,-0.11516262,0.13712722,-658.03031,-481.71303)" />
    <radialGradient
       xlink:href="#linearGradient6003"
       id="radialGradient5136-0-6-6-8-8-8-5-9"
       cx="322.17105"
       cy="472.51749"
       fx="322.17105"
       fy="472.51749"
       r="169"
       gradientUnits="userSpaceOnUse"
       gradientTransform="matrix(0.14184903,0.08187422,-0.08238465,0.10287694,-643.98232,-766.01725)" />
    <radialGradient
       xlink:href="#linearGradient6003"
       id="radialGradient5136-0-6-6-2-1-2"
       cx="322.17105"
       cy="472.51749"
       fx="322.17105"
       fy="472.51749"
       r="169"
       gradientUnits="userSpaceOnUse"
       gradientTransform="matrix(0.34999481,0.21378108,-0.20327385,0.26862109,-680.60673,-453.66251)" />
    <radialGradient
       xlink:href="#linearGradient6003"
       id="radialGradient5136-0-6-6-8-6-9-2"
       cx="322.17105"
       cy="472.51749"
       fx="322.17105"
       fy="472.51749"
       r="169"
       gradientUnits="userSpaceOnUse"
       gradientTransform="matrix(0.19223796,0.10084273,-0.11165007,0.1267112,-724.74062,-701.33347)" />
    <linearGradient
       id="linearGradient-1"
       y2="62.452332"
       x2="102.97687"
       y1="62.452332"
       x1="8.7429123"
       gradientTransform="scale(1.805544,0.55384969)"
       gradientUnits="userSpaceOnUse">
      <stop
         id="stop1060"
         offset="0%"
         stop-color="#1E8D55" />
      <stop
         id="stop1062"
         offset="100%"
         stop-color="#134225" />
    </linearGradient>
    <linearGradient
       id="linearGradient-2"
       y2="207.74036"
       x2="43.407299"
       y1="36.029663"
       x1="224.36723"
       gradientTransform="scale(1.0560205,0.94695129)"
       gradientUnits="userSpaceOnUse">
      <stop
         id="stop1065"
         offset="0%"
         stop-color="#1E8D55" />
      <stop
         id="stop1067"
         offset="100%"
         stop-color="#134225" />
    </linearGradient>
    <linearGradient
       id="linearGradient-3"
       y2="485.69226"
       x2="100.55902"
       y1="452.71408"
       x1="10.478932"
       gradientTransform="scale(1.8655394,0.536038)"
       gradientUnits="userSpaceOnUse">
      <stop
         id="stop1070"
         offset="0%"
         stop-color="#1E8D55" />
      <stop
         id="stop1072"
         offset="100%"
         stop-color="#134225" />
    </linearGradient>
    <linearGradient
       inkscape:collect="always"
       xlink:href="#linearGradient1351"
       id="linearGradient1353"
       x1="-100.65974"
       y1="32.287298"
       x2="-6.5372469"
       y2="32.287298"
       gradientUnits="userSpaceOnUse" />
  </defs>
  <sodipodi:namedview
     id="base"
     pagecolor="#ffffff"
     bordercolor="#666666"
     borderopacity="1.0"
     inkscape:pageopacity="1"
     inkscape:pageshadow="2"
     inkscape:zoom="2"
     inkscape:cx="276.72925"
     inkscape:cy="78.817055"
     inkscape:document-units="mm"
     inkscape:current-layer="layer2"
     showgrid="false"
     units="px"
     inkscape:window-width="3440"
     inkscape:window-height="1419"
     inkscape:window-x="0"
     inkscape:window-y="0"
     inkscape:window-maximized="1"
     fit-margin-top="8"
     fit-margin-left="8"
     fit-margin-right="8"
     fit-margin-bottom="8"
     showguides="true"
     inkscape:guide-bbox="true"
     inkscape:snap-global="false"
     inkscape:document-rotation="0" />
  <metadata
     id="metadata5">
    <rdf:RDF>
      <cc:Work
         rdf:about="">
        <dc:format>image/svg+xml</dc:format>
        <dc:type
           rdf:resource="http://purl.org/dc/dcmitype/StillImage" />
        <dc:title />
        <cc:license
           rdf:resource="http://creativecommons.org/licenses/by-sa/4.0/" />
      </cc:Work>
      <cc:License
         rdf:about="http://creativecommons.org/licenses/by-sa/4.0/">
        <cc:permits
           rdf:resource="http://creativecommons.org/ns#Reproduction" />
        <cc:permits
           rdf:resource="http://creativecommons.org/ns#Distribution" />
        <cc:requires
           rdf:resource="http://creativecommons.org/ns#Notice" />
        <cc:requires
           rdf:resource="http://creativecommons.org/ns#Attribution" />
        <cc:permits
           rdf:resource="http://creativecommons.org/ns#DerivativeWorks" />
        <cc:requires
           rdf:resource="http://creativecommons.org/ns#ShareAlike" />
      </cc:License>
    </rdf:RDF>
  </metadata>
  <g
     inkscape:label="background"
     inkscape:groupmode="layer"
     id="layer1"
     transform="translate(102.77641,-11.652505)"
     style="display:inline" />
  <g
     inkscape:groupmode="layer"
     id="layer2"
     inkscape:label="foreground"
     transform="translate(102.77641,-19.452568)">
    <rect
       style="opacity:1;fill:url(#linearGradient1353);fill-opacity:1;stroke:#f4d7d7;stroke-width:0.68707246;stroke-linecap:round;stroke-linejoin:round;stroke-miterlimit:4;stroke-dasharray:none;stroke-dashoffset:0;stroke-opacity:1"
       id="rect3359-3"
       width="93.435425"
       height="20.749054"
       x="-100.31621"
       y="21.912771"
       rx="4.7608843" />
    <text
       xml:space="preserve"
       style="font-style:normal;font-variant:normal;font-weight:bold;font-stretch:normal;font-size:7.43891px;line-height:125%;font-family:Ubuntu;-inkscape-font-specification:'Ubuntu Bold';text-align:center;letter-spacing:0px;word-spacing:0px;text-anchor:middle;fill:#000000;fill-opacity:1;stroke:#f4d7d7;stroke-width:0.16933333;stroke-linecap:butt;stroke-linejoin:miter;stroke-opacity:1;stroke-miterlimit:4;stroke-dasharray:none"
       x="-44.584728"
       y="41.219326"
       id="text5030"><tspan
         sodipodi:role="line"
         x="-44.584728"
         y="41.219326"
         style="font-size:8.46667px;text-align:center;text-anchor:middle;stroke-width:0.16933333;stroke:#f4d7d7;stroke-miterlimit:4;stroke-dasharray:none"
         id="tspan5036">Subscribe</tspan></text>
    <g
       id="g522"
       transform="matrix(0.37747327,0,0,0.37747327,-39.074099,-3.6479801)"
       style="stroke:#ffffff">
      <path
         d="m -38.467301,95.64501 c 0.234597,-0.612528 0.352425,-1.613677 0.352425,-3.003021 v -5.854172 c 0,-1.348422 -0.117828,-2.334013 -0.352425,-2.957406 -0.23495,-0.623041 -0.648758,-0.934862 -1.241072,-0.934862 -0.572206,0 -0.976136,0.311821 -1.210733,0.934862 -0.234951,0.623393 -0.352426,1.608984 -0.352426,2.957406 v 5.854172 c 0,1.389344 0.112184,2.390493 0.337256,3.003021 0.224367,0.613233 0.632883,0.919409 1.225903,0.919409 0.592314,0 1.006122,-0.306176 1.241072,-0.919409 z m -4.750153,2.942385 c -0.84843,-0.571472 -1.451328,-1.460719 -1.808339,-2.666513 -0.357717,-1.205089 -0.536222,-2.809134 -0.536222,-4.811537 v -2.727713 c 0,-2.022687 0.203905,-3.647228 0.612775,-4.873025 0.408517,-1.225903 1.046692,-2.11956 1.915583,-2.681641 0.868187,-0.561693 2.007306,-0.842821 3.417359,-0.842821 1.389239,0 2.502606,0.286244 3.340453,0.858096 0.837494,0.57203 1.450622,1.466251 1.839031,2.681676 0.387702,1.215849 0.582083,2.835028 0.582083,4.857715 v 2.727713 c 0,2.002403 -0.189089,3.611704 -0.566914,4.82713 -0.378178,1.215707 -0.991306,2.104527 -1.839031,2.666079 -0.848077,0.561965 -1.997075,0.843083 -3.447697,0.843083 -1.491897,0 -2.661709,-0.286357 -3.509081,-0.858242"
         style="fill:#252323;fill-opacity:1;fill-rule:nonzero;stroke:#ffffff;stroke-width:0.0352778"
         id="path464" />
      <path
         d="m 22.413328,83.24681 c -0.214136,0.265536 -0.357717,0.699876 -0.428978,1.302385 -0.07197,0.602862 -0.106891,1.517051 -0.106891,2.742954 v 1.348563 h 3.094919 v -1.348563 c 0,-1.205231 -0.04092,-2.11956 -0.122414,-2.742954 -0.08184,-0.623041 -0.229658,-1.062073 -0.444147,-1.317695 -0.214842,-0.255482 -0.546806,-0.383364 -0.996244,-0.383364 -0.449792,0 -0.781756,0.133244 -0.996245,0.398674 z m -0.535869,7.907162 v 0.950172 c 0,1.205794 0.03492,2.109787 0.106891,2.712261 0.07126,0.602862 0.219075,1.042212 0.4445,1.318084 0.22472,0.27559 0.5715,0.413808 1.042106,0.413808 0.632883,0 1.067506,-0.245286 1.302456,-0.735859 0.234597,-0.490291 0.362302,-1.307465 0.382763,-2.451947 l 3.64737,0.214701 c 0.02046,0.163971 0.03069,0.38862 0.03069,0.674123 0,1.737042 -0.474839,3.034594 -1.425223,3.892698 -0.949677,0.857829 -2.293761,1.287089 -4.030133,1.287089 -2.083859,0 -3.545064,-0.653606 -4.382559,-1.961642 -0.8382,-1.307077 -1.256947,-3.330011 -1.256947,-6.068202 v -3.279563 c 0,-2.819612 0.434269,-4.877718 1.302808,-6.175693 0.868187,-1.297305 2.354792,-1.946064 4.459465,-1.946064 1.450269,0 2.563989,0.265677 3.340453,0.796784 0.776111,0.531636 1.322916,1.359147 1.639711,2.482533 0.316794,1.123915 0.475191,2.676984 0.475191,4.658607 v 3.21811 h -7.079544"
         style="fill:#252323;fill-opacity:1;fill-rule:nonzero;stroke:#ffffff;stroke-width:0.0352778"
         id="path466" />
      <path
         d="m -53.516449,90.802182 -4.811889,-17.377764 h 4.198761 l 1.685573,7.876717 c 0.42933,1.941512 0.745772,3.596428 0.95003,4.964959 h 0.122767 c 0.142875,-0.980616 0.459669,-2.625196 0.95003,-4.934232 l 1.746956,-7.907444 h 4.198762 l -4.87292,17.377764 v 8.336841 h -4.16807 v -8.336841"
         style="fill:#252323;fill-opacity:1;fill-rule:nonzero;stroke:#ffffff;stroke-width:0.0352778"
         id="path468" />
      <path
         d="m -20.198702,80.351669 v 18.787354 h -3.310115 l -0.367947,-2.298555 h -0.09172 c -0.899231,1.736591 -2.2479,2.604756 -4.045656,2.604756 -1.246364,0 -2.165703,-0.408175 -2.758369,-1.225765 -0.592667,-0.816769 -0.888648,-2.094213 -0.888648,-3.830938 V 80.351669 h 4.229453 v 13.791566 c 0,0.838235 0.09207,1.435629 0.275873,1.792816 0.183797,0.357999 0.490361,0.53647 0.919339,0.53647 0.367947,0 0.720372,-0.112043 1.057275,-0.337362 0.337255,-0.224614 0.587375,-0.510117 0.751064,-0.857673 V 80.351669 h 4.229453"
         style="fill:#252323;fill-opacity:1;fill-rule:nonzero;stroke:#ffffff;stroke-width:0.0352778"
         id="path470" />
      <path
         d="m 1.4957212,80.351669 v 18.787354 h -3.3101141 l -0.3679473,-2.298555 h -0.091369 c -0.8999362,1.736591 -2.2482529,2.604756 -4.0460086,2.604756 -1.246364,0 -2.1657029,-0.408175 -2.7583696,-1.225765 -0.5926667,-0.816769 -0.8886473,-2.094213 -0.8886473,-3.830938 V 80.351669 h 4.229453 v 13.791566 c 0,0.838235 0.091722,1.435629 0.2755195,1.792816 0.18415,0.357999 0.4907139,0.53647 0.9196917,0.53647 0.3679473,0 0.7203723,-0.112043 1.0572751,-0.337362 0.3372556,-0.224614 0.587375,-0.510117 0.7510639,-0.857673 V 80.351669 h 4.2294531"
         style="fill:#252323;fill-opacity:1;fill-rule:nonzero;stroke:#ffffff;stroke-width:0.0352778"
         id="path472" />
      <path
         d="m -8.7059072,76.827066 h -4.1987618 v 22.311957 h -4.137378 V 76.827066 h -4.198761 v -3.402084 h 12.5349008 v 3.402084"
         style="fill:#252323;fill-opacity:1;fill-rule:nonzero;stroke:#ffffff;stroke-width:0.0352778"
         id="path474" />
      <path
         d="m 11.616916,91.018258 c 0,1.36906 -0.0568,2.441858 -0.16898,3.217969 -0.112184,0.776958 -0.301273,1.328455 -0.566914,1.655022 -0.265642,0.327025 -0.623711,0.490325 -1.0724447,0.490325 -0.347839,0 -0.6695723,-0.08132 -0.9655529,-0.245286 C 8.5463383,95.972987 8.3068022,95.727948 8.1226522,95.400676 V 84.735215 c 0.142875,-0.510434 0.3880555,-0.929499 0.7355417,-1.25663 0.3474861,-0.326319 0.7249583,-0.490184 1.1338278,-0.490184 0.4293303,0 0.7609413,0.168698 0.9962443,0.505601 0.234597,0.337079 0.398286,0.904134 0.490361,1.7012 0.09208,0.796643 0.138289,1.930647 0.138289,3.401695 z m 3.876676,-7.663427 c -0.255764,-1.184699 -0.669573,-2.042795 -1.241426,-2.574431 -0.572205,-0.530825 -1.3589,-0.796643 -2.35973,-0.796643 -0.776464,0 -1.501775,0.21978 -2.1759337,0.658812 -0.6741584,0.439456 -1.195564,1.016741 -1.5631585,1.731786 h -0.031044 l 3.528e-4,-9.899544 H 4.0466575 v 26.6638 H 7.540216 l 0.4293306,-1.777267 h 0.091722 c 0.3266723,0.633219 0.8170334,1.13386 1.4710834,1.501659 0.653698,0.367661 1.379361,0.551628 2.176286,0.551628 1.429809,0 2.482145,-0.659116 3.156656,-1.976805 0.674159,-1.318083 1.011414,-3.376189 1.011414,-6.175657 V 88.28931 c 0,-2.104249 -0.128058,-3.749075 -0.383116,-4.934479"
         style="fill:#252323;fill-opacity:1;fill-rule:nonzero;stroke:#ffffff;stroke-width:0.0352778"
         id="path476" />
    </g>
    <g
       id="g513"
       transform="matrix(0.55025788,0,0,0.55025788,-39.423799,-14.983356)">
      <path
         d="m -63.463372,75.979729 c -0.49283,-1.843829 -1.944864,-3.296144 -3.788833,-3.78894 -3.342358,-0.895597 -16.744175,-0.895597 -16.744175,-0.895597 0,0 -13.401711,0 -16.744,0.895597 -1.84381,0.492796 -3.29613,1.945111 -3.78891,3.78894 -0.89559,3.342287 -0.89559,10.315434 -0.89559,10.315434 0,0 0,6.97343 0.89559,10.315576 0.49278,1.843677 1.9451,3.296126 3.78891,3.788781 3.342289,0.89586 16.744,0.89586 16.744,0.89586 0,0 13.401817,0 16.744175,-0.89586 1.843969,-0.492655 3.296003,-1.945104 3.788833,-3.788781 0.89535,-3.342146 0.89535,-10.315576 0.89535,-10.315576 0,0 0,-6.973147 -0.89535,-10.315434"
         style="fill:#252323;fill-opacity:1;fill-rule:nonzero;stroke:none;stroke-width:0.0352778"
         id="path478" />
      <path
         d="M -88.282066,92.723833 V 79.866599 l 11.134267,6.428705 z"
         style="fill:#ffffff;fill-opacity:1;fill-rule:nonzero;stroke:none;stroke-width:0.0352778"
         id="path480" />
    </g>
  </g>
  <style
     type="text/css"
     id="style911">
	.st0{fill:#FF0000;}
	.st1{fill:#FFFFFF;}
	.st2{fill:#282828;}
</style>
  <style
     id="style4925"
     type="text/css">
	.st0{fill:#E01E5A;}
	.st1{fill:#36C5F0;}
	.st2{fill:#2EB67D;}
	.st3{fill:#ECB22E;}
</style>
</svg>
