<?xml version="1.0" encoding="UTF-8" standalone="no"?>
<svg
   xmlns:dc="http://purl.org/dc/elements/1.1/"
   xmlns:cc="http://creativecommons.org/ns#"
   xmlns:rdf="http://www.w3.org/1999/02/22-rdf-syntax-ns#"
   xmlns:svg="http://www.w3.org/2000/svg"
   xmlns="http://www.w3.org/2000/svg"
   xmlns:sodipodi="http://sodipodi.sourceforge.net/DTD/sodipodi-0.dtd"
   xmlns:inkscape="http://www.inkscape.org/namespaces/inkscape"
   width="340.77249"
   height="340.77249"
   viewBox="0 0 340.77249 340.77249"
   version="1.1"
   id="svg4197"
   inkscape:version="0.92.4 (5da689c313, 2019-01-14)"
   sodipodi:docname="clojure-cli-logo.svg"
   inkscape:export-filename="/home/jr0cket/projects/graphic-design/clojure-cli-logo.png"
   inkscape:export-xdpi="90"
   inkscape:export-ydpi="90">
  <metadata
     id="metadata4218">
    <rdf:RDF>
      <cc:Work
         rdf:about="">
        <dc:format>image/svg+xml</dc:format>
        <dc:type
           rdf:resource="http://purl.org/dc/dcmitype/StillImage" />
        <dc:title>clojure-berlin</dc:title>
      </cc:Work>
    </rdf:RDF>
  </metadata>
  <sodipodi:namedview
     pagecolor="#ffffff"
     bordercolor="#666666"
     borderopacity="1"
     objecttolerance="10"
     gridtolerance="10"
     guidetolerance="10"
     inkscape:pageopacity="0"
     inkscape:pageshadow="2"
     inkscape:window-width="1920"
     inkscape:window-height="1043"
     id="namedview4216"
     showgrid="false"
     inkscape:zoom="1"
     inkscape:cx="128.42382"
     inkscape:cy="238.14494"
     inkscape:window-x="0"
     inkscape:window-y="1440"
     inkscape:window-maximized="1"
     inkscape:current-layer="svg4197"
     fit-margin-top="0"
     fit-margin-left="0"
     fit-margin-right="0"
     fit-margin-bottom="0" />
  <!-- Generator: Sketch 39.1 (31720) - http://www.bohemiancoding.com/sketch -->
  <title
     id="title4199">clojure-berlin</title>
  <desc
     id="desc4201">Created with Sketch.</desc>
  <defs
     id="defs4203" />
  <circle
     style="fill:#000000;fill-rule:evenodd;stroke:none;stroke-width:0.99061769"
     r="170.38625"
     cy="170.38625"
     cx="170.38625"
     id="background" />
  <path
     style="fill:#5881d8;fill-rule:evenodd;stroke:none;stroke-width:0.99061769;fill-opacity:1"
     inkscape:connector-curvature="0"
     id="path4210"
     d="m 183.89119,326.92354 c 80.10414,-6.7213 143.02875,-74.11775 143.02875,-156.26775 0,-85.786373 -68.61861,-155.484161 -153.76319,-156.799656 l 2.00029,58.338142 c 52.8472,1.98492 95.08288,45.618784 95.08288,99.155404 0,51.22523 -38.66746,93.38434 -88.29992,98.66796 z" />
  <path
     style="fill:#63b132;fill-rule:evenodd;stroke:none;stroke-width:0.99061769"
     inkscape:connector-curvature="0"
     id="path4212"
     d="M 169.00099,13.856134 C 83.216434,14.43328 13.85254,84.392633 13.85254,170.6086 c 0,82.58777 63.648731,150.2584 144.40956,156.31494 l 1.95497,-56.99271 c -49.63319,-5.28152 -88.301213,-47.42382 -88.301213,-98.62862 0,-53.51527 42.236293,-97.131741 95.084273,-99.115869 z" />
  <polygon
     id="polygon4693"
     points="872.5,744.9 168.3,1836.6 140.3,1880 500.4,1884.5 1024.9,1112.3 1368.5,1979.8 1912,1807.7 1825.5,1540.3 1576,1616.4 990.9,146 533,146 533,439 774.5,439 "
     class="st1"
     style="fill:#f9f9f9;fill-opacity:1;stroke:#000000;stroke-width:92.72168732;stroke-miterlimit:4;stroke-dasharray:none;stroke-opacity:1"
     transform="matrix(0.08591401,0,0,0.08578708,20.151251,78.736498)"
     inkscape:export-xdpi="90"
     inkscape:export-ydpi="90" />
  <rect
     style="fill:#ffffff;fill-opacity:1;stroke:#000000;stroke-width:6.67306709;stroke-linejoin:bevel;stroke-miterlimit:4;stroke-dasharray:none;stroke-dashoffset:0;stroke-opacity:1"
     id="rect5148"
     width="122.09375"
     height="28.891899"
     x="185.07086"
     y="213.79396"
     rx="0.15192215"
     ry="0.29618928" />
</svg>
