<?xml version="1.0" encoding="UTF-8" standalone="no"?>
<!-- Created with Inkscape (http://www.inkscape.org/) -->

<svg
   xmlns:dc="http://purl.org/dc/elements/1.1/"
   xmlns:cc="http://creativecommons.org/ns#"
   xmlns:rdf="http://www.w3.org/1999/02/22-rdf-syntax-ns#"
   xmlns:svg="http://www.w3.org/2000/svg"
   xmlns="http://www.w3.org/2000/svg"
   xmlns:sodipodi="http://sodipodi.sourceforge.net/DTD/sodipodi-0.dtd"
   xmlns:inkscape="http://www.inkscape.org/namespaces/inkscape"
   width="363.45374mm"
   height="224.89632mm"
   viewBox="0 0 363.45374 224.89632"
   version="1.1"
   id="svg17753"
   inkscape:version="0.92.4 (5da689c313, 2019-01-14)"
   sodipodi:docname="clojure-cli-logo-designs.svg"
   inkscape:export-filename="/home/jr0cket/projects/graphic-design/practicalli-graphics/clojure-cli-logo-designs.png"
   inkscape:export-xdpi="90"
   inkscape:export-ydpi="90">
  <defs
     id="defs17747" />
  <sodipodi:namedview
     id="base"
     pagecolor="#ffffff"
     bordercolor="#666666"
     borderopacity="1.0"
     inkscape:pageopacity="0.0"
     inkscape:pageshadow="2"
     inkscape:zoom="0.35"
     inkscape:cx="75.280043"
     inkscape:cy="555.80889"
     inkscape:document-units="mm"
     inkscape:current-layer="layer1"
     showgrid="false"
     inkscape:window-width="1920"
     inkscape:window-height="1016"
     inkscape:window-x="0"
     inkscape:window-y="27"
     inkscape:window-maximized="1"
     fit-margin-top="8"
     fit-margin-left="8"
     fit-margin-right="8"
     fit-margin-bottom="8" />
  <metadata
     id="metadata17750">
    <rdf:RDF>
      <cc:Work
         rdf:about="">
        <dc:format>image/svg+xml</dc:format>
        <dc:type
           rdf:resource="http://purl.org/dc/dcmitype/StillImage" />
        <dc:title></dc:title>
      </cc:Work>
    </rdf:RDF>
  </metadata>
  <g
     inkscape:label="Layer 1"
     inkscape:groupmode="layer"
     id="layer1"
     transform="translate(61.11725,-70.994792)">
    <g
       style="display:inline"
       id="g17579"
       transform="translate(-586.7395,42.566974)">
      <circle
         id="background"
         cx="618.33569"
         cy="81.509178"
         r="45.08136"
         style="fill:#000000;fill-rule:evenodd;stroke:none;stroke-width:0.26210093" />
      <path
         d="m 621.9089,122.92634 c 21.19422,-1.77834 37.84303,-19.61032 37.84303,-41.345842 0,-22.697644 -18.15534,-41.138517 -40.68318,-41.486575 l 0.52924,15.4353 c 13.98249,0.525177 25.15735,12.06997 25.15735,26.234867 0,13.553342 -10.23077,24.70794 -23.36269,26.1059 z"
         id="path4210"
         inkscape:connector-curvature="0"
         style="fill:#5881d8;fill-opacity:1;fill-rule:evenodd;stroke:none;stroke-width:0.26210093" />
      <path
         d="m 617.9692,40.093923 c -22.69716,0.152703 -41.04969,18.662782 -41.04969,41.47409 0,21.851347 16.84039,39.755867 38.20836,41.358327 l 0.51726,-15.07932 c -13.13212,-1.3974 -23.36303,-12.547553 -23.36303,-26.09549 0,-14.159248 11.17502,-25.699439 25.15771,-26.224407 z"
         id="path4212"
         inkscape:connector-curvature="0"
         style="fill:#63b132;fill-rule:evenodd;stroke:none;stroke-width:0.26210093" />
      <polygon
         inkscape:export-ydpi="90"
         inkscape:export-xdpi="90"
         transform="matrix(0.02273141,0,0,0.02269783,578.58605,57.260186)"
         style="fill:#f9f9f9;fill-opacity:1;stroke:#000000;stroke-width:92.72168732;stroke-miterlimit:4;stroke-dasharray:none;stroke-opacity:1"
         class="st1"
         points="774.5,439 872.5,744.9 168.3,1836.6 140.3,1880 500.4,1884.5 1024.9,1112.3 1368.5,1979.8 1912,1807.7 1825.5,1540.3 1576,1616.4 990.9,146 533,146 533,439 "
         id="polygon4693" />
      <rect
         ry="0.078366749"
         rx="0.040196069"
         y="92.994141"
         x="622.22101"
         height="7.6443148"
         width="32.30397"
         id="rect5148"
         style="fill:#ffffff;fill-opacity:1;stroke:#000000;stroke-width:1.76558232;stroke-linejoin:bevel;stroke-miterlimit:4;stroke-dasharray:none;stroke-dashoffset:0;stroke-opacity:1" />
    </g>
    <g
       id="g17182"
       transform="translate(-272.26251,-76.933868)">
      <circle
         r="34.745037"
         cy="206.77205"
         cx="521.93597"
         id="path7398"
         style="display:inline;opacity:1;fill:#000000;fill-opacity:1;stroke:#000000;stroke-width:8.46666622;stroke-linejoin:miter;stroke-miterlimit:10;stroke-dasharray:none;stroke-dashoffset:0;stroke-opacity:1"
         transform="translate(-4.3749995e-7,7.800062)" />
      <path
         id="path947-7-6-9-6"
         d="m 524.85479,184.73963 v 2.99527 c 13.59047,1.20704 24.28997,12.66654 24.28997,26.56994 0,13.9034 -10.6995,25.36289 -24.28997,26.56995 v 2.99526 c 15.24457,-1.22196 27.27033,-14.00771 27.27033,-29.56521 0,-15.5575 -12.02576,-28.34327 -27.27033,-29.56521 z"
         stroke-miterlimit="10"
         inkscape:connector-curvature="0"
         style="fill:#5f7fbf;stroke:#5f7fbf;stroke-width:8.46666622;stroke-miterlimit:10;stroke-dasharray:none" />
      <path
         id="path945-2-0-2-3"
         d="m 520.08621,240.85988 c -13.59046,-1.20705 -24.28997,-12.66654 -24.28997,-26.56994 0,-13.9034 10.69951,-25.348 24.28997,-26.55504 v -2.99527 c -15.24456,1.22194 -27.27033,14.00771 -27.27033,29.56521 0,15.5575 12.02577,28.34325 27.27033,29.56521 z"
         stroke-miterlimit="10"
         inkscape:connector-curvature="0"
         style="fill:#96ca4b;stroke:#96ca4b;stroke-width:8.46666622;stroke-miterlimit:10;stroke-dasharray:none" />
      <polygon
         inkscape:export-ydpi="90"
         inkscape:export-xdpi="90"
         transform="matrix(0.01996828,0,0,0.01993878,486.74845,190.03664)"
         style="display:inline;fill:#f9f9f9;fill-opacity:1;stroke:#000000;stroke-width:92.72168732;stroke-miterlimit:4;stroke-dasharray:none;stroke-opacity:1"
         class="st1"
         points="1024.9,1112.3 1368.5,1979.8 1912,1807.7 1825.5,1540.3 1576,1616.4 990.9,146 533,146 533,439 774.5,439 872.5,744.9 168.3,1836.6 140.3,1880 500.4,1884.5 "
         id="polygon4693-5" />
      <rect
         ry="0.068840817"
         rx="0.035310004"
         y="221.42688"
         x="525.54425"
         height="6.7151041"
         width="28.377237"
         id="rect5148-3"
         style="display:inline;fill:#ffffff;fill-opacity:1;stroke:#000000;stroke-width:1.84473276;stroke-linejoin:bevel;stroke-miterlimit:4;stroke-dasharray:none;stroke-dashoffset:0;stroke-opacity:1" />
      <circle
         r="13.040333"
         cy="204.01497"
         cx="537.57123"
         id="path17088"
         style="opacity:1;fill:#ffffff;fill-opacity:1;stroke:#000000;stroke-width:3.01355815;stroke-linejoin:miter;stroke-miterlimit:4;stroke-dasharray:none;stroke-dashoffset:0;stroke-opacity:1" />
      <path
         style="stroke-width:0.05061751"
         inkscape:connector-curvature="0"
         d="m 544.72673,200.01735 -0.87275,-0.31039 c -0.19599,-0.0697 -0.34769,-0.21391 -0.42732,-0.40605 -0.0795,-0.19215 -0.0743,-0.4014 0.015,-0.58929 l 0.39766,-0.83655 c 0.0919,-0.19331 0.0521,-0.42357 -0.0992,-0.57492 -0.1514,-0.1513 -0.38155,-0.19108 -0.57492,-0.0992 l -0.83656,0.39765 c -0.18788,0.0894 -0.39719,0.0946 -0.58927,0.015 -0.19215,-0.0795 -0.33636,-0.23132 -0.40606,-0.42731 l -0.31038,-0.87274 c -0.0717,-0.20167 -0.2626,-0.33641 -0.47668,-0.33641 -0.21406,0 -0.40493,0.13474 -0.47666,0.33641 l -0.31039,0.87279 c -0.0697,0.19594 -0.21385,0.34764 -0.40599,0.42726 -0.1921,0.0795 -0.40141,0.0743 -0.5893,-0.015 l -0.83655,-0.39765 c -0.19336,-0.0919 -0.42362,-0.0522 -0.57491,0.0992 -0.15135,0.15139 -0.19104,0.38161 -0.0992,0.57492 l 0.39765,0.83655 c 0.0893,0.18785 0.0946,0.3971 0.015,0.58929 -0.0795,0.19214 -0.23138,0.33635 -0.42732,0.40605 l -0.8728,0.31039 c -0.20166,0.0717 -0.33641,0.2626 -0.33641,0.47667 0,0.21406 0.13475,0.40499 0.33641,0.47666 l 0.8728,0.31039 c 0.14132,0.0503 0.25916,0.13976 0.34405,0.25759 l -2.6676,2.66764 c -0.39345,0.006 -0.7626,0.16086 -1.04145,0.43967 l -3.40377,3.40372 c -0.28387,0.28386 -0.44017,0.66132 -0.44017,1.06277 0,0.40144 0.1563,0.77884 0.44017,1.06276 l 0.39511,0.39512 c 0.28391,0.28391 0.66132,0.44027 1.06277,0.44027 0.40145,0 0.77889,-0.15636 1.06276,-0.44027 l 3.40378,-3.40377 c 0.27885,-0.27885 0.4343,-0.64801 0.43971,-1.04146 l 2.66755,-2.66759 c 0.11783,0.0848 0.20732,0.20273 0.25764,0.34404 l 0.31038,0.8728 c 0.0717,0.20167 0.26262,0.33642 0.47668,0.33642 0.21406,0 0.40498,-0.13475 0.47666,-0.33642 l 0.31039,-0.8728 c 0.0697,-0.19594 0.2139,-0.34769 0.40605,-0.42731 0.19224,-0.0795 0.40139,-0.0742 0.58929,0.015 l 0.83656,0.39765 c 0.1933,0.0919 0.42361,0.0521 0.57491,-0.0991 0.15134,-0.1514 0.19102,-0.38161 0.0992,-0.57492 l -0.39765,-0.83656 c -0.0893,-0.1879 -0.0946,-0.39715 -0.015,-0.58929 0.0796,-0.19214 0.23133,-0.33635 0.42732,-0.406 l 0.87274,-0.31039 c 0.20167,-0.0717 0.33641,-0.26261 0.33641,-0.47667 0,-0.21406 -0.13474,-0.40488 -0.33641,-0.4766 z m -8.775,4.58331 3.85558,-3.85563 c 0.0652,-0.0652 0.1518,-0.1011 0.24398,-0.1011 0.0922,0 0.17883,0.0359 0.24403,0.1011 0.0652,0.0652 0.10111,0.15181 0.10111,0.24403 0,0.0922 -0.0359,0.17878 -0.10111,0.24397 l -3.85553,3.85559 c -0.0148,-0.0162 -0.47202,-0.47327 -0.48806,-0.488 z m -0.27278,1.85043 -3.40378,3.40377 c -0.0927,0.0928 -0.21608,0.1439 -0.34728,0.1439 -0.13115,0 -0.2545,-0.0512 -0.34729,-0.1439 l -0.39512,-0.39512 h -5e-5 c -0.0927,-0.0927 -0.1438,-0.21609 -0.1438,-0.34728 0,-0.13121 0.0511,-0.2545 0.14385,-0.34729 l 3.40377,-3.40377 c 0.0928,-0.0927 0.21609,-0.14386 0.3473,-0.14386 0.13114,0 0.2545,0.0511 0.34728,0.14386 l 0.39516,0.39511 c 0.0927,0.0927 0.14386,0.21608 0.14386,0.34729 0,0.1312 -0.0512,0.25451 -0.1439,0.34729 z m 6.81292,-5.1513 c -0.13875,0.33489 -0.16785,0.70293 -0.0887,1.05103 -0.3481,-0.0791 -0.71609,-0.05 -1.05098,0.0887 -0.33483,0.1387 -0.61565,0.37836 -0.80587,0.68045 -0.0896,-0.14244 -0.19979,-0.2706 -0.32609,-0.38094 l 0.79045,-0.79045 c 0.25633,-0.25628 0.39745,-0.59703 0.39745,-0.95945 0,-0.36242 -0.14112,-0.70318 -0.3974,-0.9595 -0.25633,-0.25628 -0.59703,-0.3974 -0.9595,-0.3974 -0.36248,0 -0.70319,0.14116 -0.95946,0.3974 l -0.79049,0.79049 c -0.1104,-0.12629 -0.23852,-0.23644 -0.38095,-0.32607 0.30209,-0.19023 0.54176,-0.47106 0.68045,-0.80589 0.1387,-0.33489 0.16784,-0.70287 0.0887,-1.05097 0.3482,0.0792 0.71618,0.05 1.05102,-0.0887 0.33483,-0.13873 0.61561,-0.37836 0.80578,-0.68045 0.19022,0.30209 0.47099,0.54176 0.80588,0.68045 0.33483,0.13874 0.70288,0.1678 1.05098,0.0887 -0.0792,0.3481 -0.05,0.71619 0.0887,1.05097 0.1387,0.33488 0.37837,0.61566 0.68046,0.80589 -0.30204,0.19011 -0.54165,0.47093 -0.6804,0.80576 z"
         id="path17077" />
    </g>
    <g
       id="g17158"
       transform="translate(-274.65242,-77.599462)">
      <circle
         r="34.745037"
         cy="213.77031"
         cx="426.78799"
         id="path7398-9"
         style="display:inline;opacity:1;fill:#000000;fill-opacity:1;stroke:#000000;stroke-width:8.46666622;stroke-linejoin:miter;stroke-miterlimit:10;stroke-dasharray:none;stroke-dashoffset:0;stroke-opacity:1" />
      <path
         id="path947-7-6-9-6-3"
         d="m 429.70683,183.93782 v 2.99527 c 13.59047,1.20704 24.28997,12.66654 24.28997,26.56994 0,13.9034 -10.6995,25.36289 -24.28997,26.56995 v 2.99526 c 15.24457,-1.22196 27.27033,-14.00771 27.27033,-29.56521 0,-15.5575 -12.02576,-28.34327 -27.27033,-29.56521 z"
         stroke-miterlimit="10"
         inkscape:connector-curvature="0"
         style="fill:#5f7fbf;stroke:#5f7fbf;stroke-width:8.46666622;stroke-miterlimit:10;stroke-dasharray:none" />
      <path
         id="path945-2-0-2-3-6"
         d="m 424.93825,240.05807 c -13.59046,-1.20704 -24.28997,-12.66654 -24.28997,-26.56994 0,-13.9034 10.69951,-25.348 24.28997,-26.55504 v -2.99527 c -15.24456,1.22194 -27.27033,14.00771 -27.27033,29.56521 0,15.5575 12.02577,28.34325 27.27033,29.56521 z"
         stroke-miterlimit="10"
         inkscape:connector-curvature="0"
         style="fill:#96ca4b;stroke:#96ca4b;stroke-width:8.46666622;stroke-miterlimit:10;stroke-dasharray:none" />
      <polygon
         inkscape:export-ydpi="90"
         inkscape:export-xdpi="90"
         transform="matrix(0.01996828,0,0,0.01993878,391.60049,189.23483)"
         style="display:inline;fill:#f9f9f9;fill-opacity:1;stroke:#000000;stroke-width:92.72168732;stroke-miterlimit:4;stroke-dasharray:none;stroke-opacity:1"
         class="st1"
         points="990.9,146 533,146 533,439 774.5,439 872.5,744.9 168.3,1836.6 140.3,1880 500.4,1884.5 1024.9,1112.3 1368.5,1979.8 1912,1807.7 1825.5,1540.3 1576,1616.4 "
         id="polygon4693-5-0" />
      <rect
         ry="0.068840824"
         rx="0.035310004"
         y="220.62508"
         x="430.39627"
         height="6.7151041"
         width="28.377237"
         id="rect5148-3-6"
         style="display:inline;fill:#ffffff;fill-opacity:1;stroke:#000000;stroke-width:1.84473276;stroke-linejoin:bevel;stroke-miterlimit:4;stroke-dasharray:none;stroke-dashoffset:0;stroke-opacity:1" />
    </g>
    <g
       id="g27489">
      <circle
         r="34.745037"
         cy="248.91273"
         cx="162.56587"
         id="path7398-9-8"
         style="display:inline;opacity:1;fill:#000000;fill-opacity:1;stroke:#ffffff;stroke-width:8.46666622;stroke-linejoin:miter;stroke-miterlimit:10;stroke-dasharray:none;stroke-dashoffset:0;stroke-opacity:1" />
      <path
         id="path947-7-6-9-6-3-7"
         d="m 165.48469,219.08023 v 2.99527 c 13.59045,1.20704 24.28996,12.66654 24.28996,26.56994 0,13.9034 -10.69951,25.36289 -24.28996,26.56995 v 2.99526 c 15.24457,-1.22196 27.27031,-14.00771 27.27031,-29.56521 0,-15.5575 -12.02574,-28.34327 -27.27031,-29.56521 z"
         stroke-miterlimit="10"
         inkscape:connector-curvature="0"
         style="fill:#5f7fbf;stroke:#5f7fbf;stroke-width:8.46666622;stroke-miterlimit:10;stroke-dasharray:none" />
      <path
         id="path945-2-0-2-3-6-9"
         d="m 160.7161,275.20048 c -13.59045,-1.20704 -24.28997,-12.66654 -24.28997,-26.56994 0,-13.9034 10.69952,-25.348 24.28997,-26.55504 v -2.99527 c -15.24455,1.22194 -27.27034,14.00771 -27.27034,29.56521 0,15.5575 12.02579,28.34325 27.27034,29.56521 z"
         stroke-miterlimit="10"
         inkscape:connector-curvature="0"
         style="fill:#96ca4b;stroke:#96ca4b;stroke-width:8.46666622;stroke-miterlimit:10;stroke-dasharray:none" />
      <polygon
         inkscape:export-ydpi="90"
         inkscape:export-xdpi="90"
         transform="matrix(0.01996828,0,0,0.01993878,127.37834,224.37724)"
         style="display:inline;fill:#f9f9f9;fill-opacity:1;stroke:#000000;stroke-width:92.72168732;stroke-miterlimit:4;stroke-dasharray:none;stroke-opacity:1"
         class="st1"
         points="140.3,1880 500.4,1884.5 1024.9,1112.3 1368.5,1979.8 1912,1807.7 1825.5,1540.3 1576,1616.4 990.9,146 533,146 533,439 774.5,439 872.5,744.9 168.3,1836.6 "
         id="polygon4693-5-0-2" />
      <rect
         ry="0.068840832"
         rx="0.035310004"
         y="255.7675"
         x="166.17415"
         height="6.7151041"
         width="28.377237"
         id="rect5148-3-6-0"
         style="display:inline;fill:#ffffff;fill-opacity:1;stroke:#000000;stroke-width:1.84473276;stroke-linejoin:bevel;stroke-miterlimit:4;stroke-dasharray:none;stroke-dashoffset:0;stroke-opacity:1" />
      <path
         style="fill:#ffffff;stroke:#000000;stroke-width:0.43537575;stroke-miterlimit:4;stroke-dasharray:none"
         inkscape:connector-curvature="0"
         d="m 191.2819,240.88827 -1.46568,-1.46577 1.4723,-1.47219 c 0.16068,-0.16068 0.25101,-0.3787 0.25101,-0.60596 0,-0.22727 -0.0903,-0.4452 -0.25101,-0.60597 l -1.4723,-1.47228 1.38927,-1.38924 c 0.33462,-0.33465 0.33462,-0.87728 0,-1.21202 l -3.11734,-3.11724 c -0.33473,-0.33456 -0.8772,-0.33456 -1.21201,0 l -1.38925,1.38924 -0.86775,-0.86776 1.16144,-1.16155 c 0.33465,-0.33464 0.33465,-0.87729 0,-1.21201 l -3.11732,-3.11725 c -0.16079,-0.16068 -0.3787,-0.25101 -0.60597,-0.25101 -0.22728,0 -0.44527,0.0903 -0.60598,0.25101 l -1.38914,1.38924 -1.47227,-1.47219 c -0.33476,-0.33457 -0.87723,-0.33457 -1.21203,0 l -1.4722,1.47219 -1.50749,-1.50759 c -0.16076,-0.16067 -0.3787,-0.251 -0.60597,-0.251 -0.22728,0 -0.4453,0.0903 -0.60595,0.251 l -1.47222,1.47228 -1.35393,-1.35393 c -0.33472,-0.33455 -0.8772,-0.33455 -1.212,0 l -3.0942,3.09419 c -0.33464,0.33465 -0.33464,0.87728 0,1.21201 l 1.35385,1.35386 -1.49792,1.49798 c -0.33464,0.33465 -0.33464,0.87729 0,1.21203 l 1.50752,1.50749 -1.46963,1.46954 c -0.33464,0.33464 -0.33464,0.87728 0,1.21202 l 1.47228,1.47228 -1.38925,1.38915 c -0.33462,0.33464 -0.33462,0.87728 0,1.21202 l 3.11735,3.11732 c 0.33472,0.33456 0.8772,0.33456 1.212,0 l 1.38925,-1.38924 0.86786,0.86777 -1.16147,1.16146 c -0.33465,0.33465 -0.33465,0.87728 0,1.21202 l 3.11732,3.11732 c 0.33475,0.33456 0.8772,0.33456 1.21203,0 l 1.38925,-1.38924 1.47219,1.4722 c 0.16735,0.16728 0.38666,0.25101 0.60595,0.25101 0.21931,0 0.4386,-0.0837 0.60598,-0.25101 l 1.46952,-1.46955 1.46579,1.46577 c 0.33472,0.33457 0.8772,0.33457 1.212,0 l 1.49792,-1.49798 1.42126,1.42129 c 0.33475,0.33456 0.87722,0.33464 1.21203,0 l 3.09427,-3.0941 c 0.16068,-0.16069 0.25101,-0.37871 0.25101,-0.60597 0,-0.22727 -0.0903,-0.4452 -0.25101,-0.60597 l -1.42136,-1.42128 1.47227,-1.47229 c 0.33449,-0.33482 0.33449,-0.87746 -2.7e-4,-1.2121 z m -3.79973,-9.52268 1.90532,1.9053 -1.12059,1.12059 h -1.94188 v -1.86872 z m -13.08793,11.33869 -1.20362,-1.20362 1.23883,-1.23884 h 1.86881 v 2.44246 z m 6.06041,-8.3128 h -2.44245 v -1.93943 l 1.20489,-1.2049 1.23756,1.23764 z m 0,1.71394 v 2.44246 h -2.44245 v -2.44246 z m -4.15639,-1.71394 h -1.85785 l -1.14372,-1.14373 1.88228,-1.88226 1.11929,1.1193 z m -1.93934,1.71394 h 1.93934 v 2.44246 h -1.90934 l -1.23637,-1.23627 z m 3.65328,4.1564 h 2.44245 v 2.44246 h -2.44245 z m 4.1564,0 h 2.44247 v 2.44246 h -2.44247 z m 0,-1.71394 v -2.44246 h 2.44247 v 2.44246 z m 0,-4.1564 v -1.86872 l 1.2402,-1.24022 1.20227,1.20234 v 1.9066 z m -12.41454,8.1187 -1.9053,-1.9053 1.38925,-1.38925 c 0.33465,-0.33465 0.33465,-0.87728 0,-1.21202 l -1.4723,-1.47227 1.46955,-1.46954 c 0.33465,-0.33465 0.33465,-0.87729 0,-1.21202 l -1.50741,-1.5075 1.49789,-1.49791 c 0.33464,-0.33464 0.33464,-0.87728 0,-1.21193 l -1.35393,-1.35401 1.88225,-1.88226 1.35395,1.35393 c 0.16076,0.16069 0.37867,0.25101 0.60595,0.25101 0.22727,0 0.44529,-0.0903 0.60597,-0.25101 l 1.4722,-1.47228 1.50759,1.50759 c 0.33473,0.33456 0.8772,0.33456 1.21201,0 l 1.47219,-1.47228 1.47219,1.47228 c 0.16077,0.16068 0.3787,0.25101 0.60598,0.25101 0.22725,0 0.44527,-0.0904 0.60595,-0.25101 l 1.38917,-1.38924 1.90529,1.90531 -2.63208,2.63528 -1.50751,-1.50759 c -0.16069,-0.16069 -0.3787,-0.251 -0.60598,-0.251 -0.22728,0 -0.44519,0.0903 -0.60595,0.251 l -1.4723,1.47228 -1.35374,-1.35385 c -0.16071,-0.16068 -0.3787,-0.251 -0.60597,-0.251 -0.22728,0 -0.4453,0.0903 -0.60598,0.251 l -3.09417,3.09419 c -0.33467,0.33465 -0.33467,0.87728 0,1.21202 l 1.35393,1.35393 -1.49799,1.4979 c -0.16069,0.16069 -0.25101,0.3787 -0.25101,0.60597 0,0.22726 0.0903,0.44528 0.25101,0.60596 l 1.50759,1.5075 z m 5.42491,4.96933 -1.90532,-1.90531 1.15588,-1.15589 h 1.86873 v 1.94199 z m 4.07336,0.0829 -1.24023,-1.24021 v -1.90402 h 2.44247 v 1.9419 z m 4.14732,-0.004 -1.23105,-1.23105 v -1.90924 h 2.44247 v 1.92895 z m 4.13123,-0.0766 -1.20586,-1.20592 v -1.85784 h 1.90658 l 1.1815,1.18151 z m 0.72308,-4.7777 h -1.92902 v -2.44247 h 1.90658 l 1.23251,1.23242 z m 0.013,-4.15642 h -1.9419 v -2.44245 h 1.90658 l 1.23894,1.23892 z"
         id="path17229" />
    </g>
    <g
       id="g27474"
       transform="translate(0,-1.7854614)">
      <circle
         r="34.745037"
         cy="250.6982"
         cx="-14.13888"
         id="path7398-9-3"
         style="display:inline;opacity:1;fill:#000000;fill-opacity:1;stroke:#000000;stroke-width:8.46666622;stroke-linejoin:miter;stroke-miterlimit:10;stroke-dasharray:none;stroke-dashoffset:0;stroke-opacity:1" />
      <path
         id="path947-7-6-9-6-3-75"
         d="m -11.220047,220.8657 v 2.99526 c 13.5904704,1.20704 24.28997,12.66654 24.28997,26.56994 0,13.9034 -10.6994996,25.36289 -24.28997,26.56995 v 2.99526 c 15.2445704,-1.22196 27.27033,-14.00771 27.27033,-29.56521 0,-15.5575 -12.0257596,-28.34327 -27.27033,-29.5652 z"
         stroke-miterlimit="10"
         inkscape:connector-curvature="0"
         style="fill:#5f7fbf;stroke:#5f7fbf;stroke-width:8.46666622;stroke-miterlimit:10;stroke-dasharray:none" />
      <path
         id="path945-2-0-2-3-6-92"
         d="m -15.988627,276.98594 c -13.59046,-1.20704 -24.28997,-12.66654 -24.28997,-26.56994 0,-13.9034 10.69951,-25.348 24.28997,-26.55504 v -2.99526 c -15.24456,1.22193 -27.27033,14.0077 -27.27033,29.5652 0,15.5575 12.02577,28.34325 27.27033,29.56521 z"
         stroke-miterlimit="10"
         inkscape:connector-curvature="0"
         style="fill:#96ca4b;stroke:#96ca4b;stroke-width:8.46666622;stroke-miterlimit:10;stroke-dasharray:none" />
      <polygon
         inkscape:export-ydpi="90"
         inkscape:export-xdpi="90"
         transform="matrix(0.01996828,0,0,0.01993878,-49.326397,226.1627)"
         style="display:inline;fill:#f9f9f9;fill-opacity:1;stroke:#000000;stroke-width:92.72168732;stroke-miterlimit:4;stroke-dasharray:none;stroke-opacity:1"
         class="st1"
         points="1024.9,1112.3 1368.5,1979.8 1912,1807.7 1825.5,1540.3 1576,1616.4 990.9,146 533,146 533,439 774.5,439 872.5,744.9 168.3,1836.6 140.3,1880 500.4,1884.5 "
         id="polygon4693-5-0-28" />
      <path
         style="fill:#ffffff;stroke:#000000;stroke-width:0.56902128;stroke-miterlimit:4;stroke-dasharray:none"
         inkscape:connector-curvature="0"
         d="m 16.849393,253.16711 -1.9156,-1.91572 1.92424,-1.9241 c 0.20999,-0.21 0.32805,-0.49495 0.32805,-0.79197 0,-0.29703 -0.11802,-0.58186 -0.32805,-0.79198 l -1.92424,-1.92422 1.81571,-1.81569 c 0.43736,-0.43737 0.43736,-1.14657 0,-1.58407 l -4.07425,-4.07412 c -0.43748,-0.43726 -1.14647,-0.43726 -1.58405,0 l -1.8156896,1.81569 -1.13415,-1.13414 1.51798,-1.5181 c 0.4373596,-0.43737 0.4373596,-1.14659 0,-1.58406 l -4.07423,-4.07414 c -0.21014,-0.21 -0.49497,-0.32806 -0.79199,-0.32806 -0.29703,0 -0.58196,0.11802 -0.79198,0.32806 l -1.81557,1.81569 -1.92422002,-1.9241 c -0.43749,-0.43727 -1.14648,-0.43727 -1.58406998,0 l -1.9241,1.9241 -1.97027,-1.97037 c -0.2101,-0.20999 -0.49493,-0.32805 -0.79198,-0.32805 -0.29702,0 -0.58196,0.11802 -0.79195,0.32805 l -1.92413,1.92422 -1.7695404,-1.76954 c -0.43747,-0.43724 -1.14646,-0.43724 -1.58406,0 l -4.044,4.044 c -0.43736,0.43738 -0.43736,1.14658 0,1.58406 l 1.76944,1.76945 -1.95772,1.95781 c -0.43738,0.43737 -0.43738,1.14658 0,1.58408 l 1.97025,1.97024 -1.92074,1.92063 c -0.43738,0.43737 -0.43738,1.14658 0,1.58407 l 1.92422,1.92422 -1.81569,1.81557 c -0.43737,0.43737 -0.43737,1.14658 0,1.58407 l 4.07424,4.07423 c 0.43748,0.43726 1.14647,0.43726 1.58406,0 l 1.8156904,-1.81568 1.13426,1.13414 -1.51798,1.51799 c -0.43737,0.43738 -0.43737,1.14657 0,1.58407 l 4.07424,4.07423 c 0.43749,0.43726 1.14647,0.43726 1.58406,0 l 1.81569,-1.81569 1.92410998,1.92412 c 0.21874,0.21862 0.50536,0.32806 0.79198002,0.32806 0.28662,0 0.57323,-0.1094 0.79198,-0.32806 l 1.92063,-1.92066 1.91571,1.91572 c 0.43749,0.43727 1.14647,0.43727 1.58407,0 l 1.9577,-1.95781 1.8575696,1.85757 c 0.43749,0.43726 1.14648,0.43737 1.58408,0 l 4.0441,-4.04388 c 0.21001,-0.21002 0.32806,-0.49496 0.32806,-0.79198 0,-0.29704 -0.11801,-0.58186 -0.32806,-0.79198 l -1.85769,-1.85757 1.92422,-1.92423 c 0.43715,-0.4376 0.43715,-1.14681 -2.7e-4,-1.58417 z m -4.96612,-12.44582 2.49018,2.49016 -1.46456,1.46457 h -2.53799 v -2.44235 z m -17.1054996,14.81928 -1.5731,-1.57309 1.61913,-1.61912 h 2.44247 v 3.19221 z m 7.92077,-10.86455 h -3.19221002 v -2.53477 l 1.57476002,-1.57476 1.61745,1.61755 z m 0,2.24006 v 3.19222 h -3.19221002 v -3.19222 z m -5.43227,-2.24006 h -2.42814 l -1.4948,-1.49481 2.46005,-2.46005 1.46289,1.46288 z m -2.53465,2.24006 h 2.53465 v 3.19222 h -2.49544 l -1.61589,-1.61577 z m 4.77470998,5.43228 H 2.6985434 v 3.19221 h -3.19221002 z m 5.43227002,0 h 3.19223 v 3.19221 h -3.19223 z m 0,-2.24006 v -3.19222 h 3.19223 v 3.19222 z m 0,-5.43228 v -2.44235 l 1.62091,-1.62093 1.57132,1.57142 v 2.49186 z m -16.2253804,10.61087 -2.49016,-2.49017 1.81569,-1.8157 c 0.43737,-0.43737 0.43737,-1.14657 0,-1.58407 l -1.92422,-1.9242 1.92062,-1.92064 c 0.43738,-0.43738 0.43738,-1.14659 0,-1.58407 l -1.97013,-1.97025 1.9577,-1.95772 c 0.43738,-0.43736 0.43738,-1.14658 0,-1.58395 l -1.76954,-1.76965 2.46004,-2.46005 1.7695504,1.76954 c 0.21011,0.21002 0.49494,0.32807 0.79197,0.32807 0.29704,0 0.58198,-0.11802 0.79197,-0.32807 l 1.92413,-1.92422 1.97036,1.97037 c 0.43748,0.43726 1.14647,0.43726 1.58405,0 l 1.92411998,-1.92422 1.92410002,1.92422 c 0.21012,0.21001 0.49495,0.32806 0.79198,0.32806 0.29704,0 0.58197,-0.11814 0.79198,-0.32806 l 1.81558,-1.81569 2.49016,2.49018 -3.44005,3.44422 -1.97027,-1.97037 c -0.21,-0.21001 -0.49493,-0.32805 -0.79198,-0.32805 -0.29703002,0 -0.58185002,0.11802 -0.79197002,0.32805 l -1.92421998,1.92422 -1.76932,-1.76943 c -0.21001,-0.21001 -0.49495,-0.32805 -0.79198,-0.32805 -0.29703,0 -0.58197,0.11802 -0.79198,0.32805 l -4.04399,4.044 c -0.43738,0.43737 -0.43738,1.14657 0,1.58407 l 1.76954,1.76954 -1.95781,1.9577 c -0.21001,0.21002 -0.32807,0.49495 -0.32807,0.79198 0,0.29702 0.11802,0.58197 0.32807,0.79197 l 1.97036,1.97025 z m 7.0901604,6.49474 -2.49016,-2.49017 1.51069,-1.51071 h 2.44236 v 2.53811 z m 5.32376,0.10835 -1.62093002,-1.62091 v -2.48849 H 2.6984234 v 2.53799 z m 5.4204,-0.005 -1.60894,-1.60894 v -2.49554 h 3.19223 v 2.52107 z m 5.3993696,-0.10011 -1.57601,-1.5761 v -2.42813 h 2.49184 l 1.54419,1.54419 z m 0.94506,-6.24429 h -2.52119 v -3.19223 h 2.49185 l 1.61084,1.61073 z m 0.0169,-5.4323 h -2.53799 v -3.1922 h 2.49184 l 1.61924,1.61922 z"
         id="path17229-7" />
    </g>
    <g
       id="g27496"
       transform="translate(0,-1.0295066)">
      <g
         transform="translate(104.57895,-43.09618)"
         id="g17388">
        <circle
           style="display:inline;opacity:1;fill:#ffffff;fill-opacity:1;stroke:#ffffff;stroke-width:8.46666622;stroke-linejoin:miter;stroke-miterlimit:10;stroke-dasharray:none;stroke-dashoffset:0;stroke-opacity:1"
           id="path7398-9-3-3"
           cx="150.77917"
           cy="293.03842"
           r="34.745037" />
        <path
           style="fill:#5f7fbf;stroke:#5f7fbf;stroke-width:8.46666622;stroke-miterlimit:10;stroke-dasharray:none"
           inkscape:connector-curvature="0"
           stroke-miterlimit="10"
           d="m 153.698,263.20593 v 2.99527 c 13.59047,1.20704 24.28997,12.66654 24.28997,26.56994 0,13.9034 -10.6995,25.36289 -24.28997,26.56995 v 2.99526 c 15.24457,-1.22196 27.27033,-14.00771 27.27033,-29.56521 0,-15.5575 -12.02576,-28.34327 -27.27033,-29.56521 z"
           id="path947-7-6-9-6-3-75-6" />
        <path
           style="fill:#96ca4b;stroke:#96ca4b;stroke-width:8.46666622;stroke-miterlimit:10;stroke-dasharray:none"
           inkscape:connector-curvature="0"
           stroke-miterlimit="10"
           d="m 148.92942,319.32618 c -13.59046,-1.20704 -24.28997,-12.66654 -24.28997,-26.56994 0,-13.9034 10.69951,-25.348 24.28997,-26.55504 v -2.99527 c -15.24456,1.22194 -27.27033,14.00771 -27.27033,29.56521 0,15.5575 12.02577,28.34325 27.27033,29.56521 z"
           id="path945-2-0-2-3-6-92-1" />
        <path
           id="path17229-7-9"
           d="m 169.67058,297.74526 -2.04414,-2.04427 2.05337,-2.05322 c 0.22407,-0.22409 0.35005,-0.52817 0.35005,-0.84512 0,-0.31696 -0.12594,-0.6209 -0.35005,-0.84513 l -2.05337,-2.05334 1.93755,-1.93754 c 0.4667,-0.46672 0.4667,-1.22351 0,-1.69036 l -4.34765,-4.34752 c -0.46684,-0.46661 -1.22341,-0.46661 -1.69035,0 l -1.93754,1.93753 -1.21025,-1.21025 1.61984,-1.61997 c 0.46671,-0.46672 0.46671,-1.22353 0,-1.69036 l -4.34763,-4.34753 c -0.22425,-0.22409 -0.52819,-0.35007 -0.84513,-0.35007 -0.31697,0 -0.62102,0.12593 -0.84513,0.35007 l -1.93741,1.93753 -2.05333,-2.05322 c -0.46686,-0.46661 -1.22343,-0.46661 -1.69039,0 l -2.05322,2.05322 -2.10248,-2.10259 c -0.2242,-0.22409 -0.52814,-0.35007 -0.84512,-0.35007 -0.31696,0 -0.62101,0.12594 -0.8451,0.35007 l -2.05325,2.05334 -1.88827,-1.88828 c -0.46683,-0.46659 -1.22341,-0.46659 -1.69037,0 l -4.31538,4.31537 c -0.46671,0.46673 -0.46671,1.22352 0,1.69036 l 1.88818,1.88819 -2.08909,2.08919 c -0.46673,0.46672 -0.46673,1.22352 0,1.69038 l 2.10246,2.10245 -2.04963,2.04951 c -0.46674,0.46673 -0.46674,1.22353 0,1.69038 l 2.05334,2.05334 -1.93753,1.93741 c -0.46672,0.46672 -0.46672,1.22352 0,1.69037 l 4.34765,4.34763 c 0.46683,0.4666 1.2234,0.4666 1.69037,0 l 1.93753,-1.93752 1.21036,1.21025 -1.61983,1.61985 c -0.46673,0.46673 -0.46673,1.22351 0,1.69037 l 4.34763,4.34764 c 0.46685,0.4666 1.22341,0.4666 1.69037,0 l 1.93752,-1.93754 2.05323,2.05324 c 0.23342,0.23329 0.53929,0.35007 0.84513,0.35007 0.30585,0 0.61169,-0.11673 0.84512,-0.35007 l 2.04952,-2.04955 2.04426,2.04428 c 0.46685,0.46661 1.22341,0.46661 1.69037,0 l 2.08908,-2.08919 1.98222,1.98222 c 0.46685,0.4666 1.22341,0.46672 1.69039,0 l 4.31547,-4.31524 c 0.22411,-0.22412 0.35009,-0.52818 0.35009,-0.84513 0,-0.31697 -0.12594,-0.62091 -0.35009,-0.84513 l -1.98235,-1.98222 2.05335,-2.05336 c 0.46649,-0.46696 0.46649,-1.22376 -2.9e-4,-1.69047 z m -5.29937,-13.28101 2.65729,2.65727 -1.56285,1.56285 h -2.7083 v -2.60625 z m -18.25338,15.81374 -1.67866,-1.67865 1.72778,-1.72778 h 2.60638 v 3.40643 z m 8.4523,-11.59362 h -3.40641 v -2.70486 l 1.68043,-1.68045 1.72598,1.7261 z m 0,2.39038 v 3.40643 h -3.40641 v -3.40643 z m -5.7968,-2.39038 h -2.59108 l -1.59511,-1.59512 2.62513,-2.62513 1.56106,1.56104 z m -2.70474,2.39038 h 2.70474 v 3.40643 h -2.6629 l -1.72432,-1.72419 z m 5.09513,5.79681 h 3.40641 v 3.40643 h -3.40641 z m 5.79679,0 h 3.40644 v 3.40643 h -3.40644 z m 0,-2.39038 v -3.40643 h 3.40644 v 3.40643 z m 0,-5.79681 v -2.60625 l 1.72969,-1.7297 1.67675,1.67687 v 2.65908 z m -17.31419,11.32291 -2.65726,-2.65727 1.93753,-1.93754 c 0.46672,-0.46672 0.46672,-1.22351 0,-1.69037 l -2.05335,-2.05333 2.04951,-2.04952 c 0.46673,-0.46673 0.46673,-1.22353 0,-1.69037 l -2.10234,-2.10246 2.08908,-2.0891 c 0.46673,-0.46671 0.46673,-1.22352 0,-1.69024 l -1.88829,-1.8884 2.62512,-2.62513 1.8883,1.88828 c 0.22421,0.22411 0.52815,0.35008 0.84511,0.35008 0.31698,0 0.62104,-0.12594 0.84512,-0.35008 l 2.05325,-2.05334 2.10258,2.10259 c 0.46683,0.4666 1.2234,0.4666 1.69035,0 l 2.05325,-2.05335 2.05321,2.05335 c 0.22422,0.2241 0.52816,0.35007 0.84512,0.35007 0.31699,0 0.62103,-0.12606 0.84512,-0.35007 l 1.93743,-1.93753 2.65725,2.65728 -3.67089,3.67535 -2.10249,-2.1026 c -0.22409,-0.2241 -0.52814,-0.35006 -0.84512,-0.35006 -0.31696,0 -0.62089,0.12594 -0.84512,0.35006 l -2.05334,2.05335 -1.88806,-1.88817 c -0.22409,-0.2241 -0.52816,-0.35006 -0.84512,-0.35006 -0.31696,0 -0.62103,0.12593 -0.84513,0.35006 l -4.31536,4.31537 c -0.46673,0.46673 -0.46673,1.22351 0,1.69037 l 1.88829,1.88829 -2.0892,2.08908 c -0.2241,0.2241 -0.35008,0.52816 -0.35008,0.84512 0,0.31695 0.12594,0.62102 0.35008,0.84511 l 2.10259,2.10247 z m 7.56595,6.93058 -2.65725,-2.65727 1.61205,-1.61209 h 2.60626 v 2.70843 z m 5.68102,0.11562 -1.72971,-1.72968 v -2.65549 H 154.57 v 2.70831 z m 5.78413,-0.006 -1.71691,-1.71691 v -2.663 h 3.40644 v 2.69024 z m 5.7617,-0.10683 -1.68177,-1.68186 v -2.59108 h 2.65907 l 1.64781,1.64782 z m 1.00848,-6.66332 h -2.69038 v -3.40644 h 2.65907 l 1.71895,1.71882 z m 0.018,-5.79683 h -2.70831 v -3.40642 h 2.65906 l 1.7279,1.72788 z"
           inkscape:connector-curvature="0"
           style="fill:#000000;stroke:#ffffff;stroke-width:0.60720569;stroke-miterlimit:4;stroke-dasharray:none" />
      </g>
    </g>
    <g
       id="g27481"
       transform="translate(0,-3.6753235)">
      <circle
         r="34.745037"
         cy="252.58806"
         cx="72.417671"
         id="path7398-9-3-31"
         style="display:inline;opacity:1;fill:#000000;fill-opacity:1;stroke:#ffffff;stroke-width:8.46666622;stroke-linejoin:miter;stroke-miterlimit:10;stroke-dasharray:none;stroke-dashoffset:0;stroke-opacity:1" />
      <path
         id="path947-7-6-9-6-3-75-9"
         d="m 75.336488,222.75558 v 2.99527 c 13.59048,1.20704 24.28999,12.66654 24.28999,26.56994 0,13.9034 -10.69951,25.36289 -24.28999,26.56995 v 2.99526 c 15.24457,-1.22196 27.270342,-14.00771 27.270342,-29.56521 0,-15.5575 -12.025772,-28.34327 -27.270342,-29.56521 z"
         stroke-miterlimit="10"
         inkscape:connector-curvature="0"
         style="fill:#5f7fbf;stroke:#5f7fbf;stroke-width:8.46666622;stroke-miterlimit:10;stroke-dasharray:none" />
      <path
         id="path945-2-0-2-3-6-92-4"
         d="m 70.567918,278.87583 c -13.59046,-1.20704 -24.28997,-12.66654 -24.28997,-26.56994 0,-13.9034 10.69951,-25.348 24.28997,-26.55504 v -2.99527 c -15.24456,1.22194 -27.27033,14.00771 -27.27033,29.56521 0,15.5575 12.02577,28.34325 27.27033,29.56521 z"
         stroke-miterlimit="10"
         inkscape:connector-curvature="0"
         style="fill:#96ca4b;stroke:#96ca4b;stroke-width:8.46666622;stroke-miterlimit:10;stroke-dasharray:none" />
      <polygon
         inkscape:export-ydpi="90"
         inkscape:export-xdpi="90"
         transform="matrix(0.01996828,0,0,0.01993878,37.230148,228.05259)"
         style="display:inline;fill:#f9f9f9;fill-opacity:1;stroke:#000000;stroke-width:92.72168732;stroke-miterlimit:4;stroke-dasharray:none;stroke-opacity:1"
         class="st1"
         points="1825.5,1540.3 1576,1616.4 990.9,146 533,146 533,439 774.5,439 872.5,744.9 168.3,1836.6 140.3,1880 500.4,1884.5 1024.9,1112.3 1368.5,1979.8 1912,1807.7 "
         id="polygon4693-5-0-28-7" />
      <path
         style="fill:#ffffff;stroke:#000000;stroke-width:0.56902128;stroke-miterlimit:4;stroke-dasharray:none"
         inkscape:connector-curvature="0"
         d="m 103.40595,255.057 -1.91561,-1.91572 1.92426,-1.9241 c 0.20997,-0.21 0.32803,-0.49495 0.32803,-0.79197 0,-0.29703 -0.11803,-0.58186 -0.32803,-0.79198 l -1.92426,-1.92422 1.8157,-1.81569 c 0.43736,-0.43737 0.43736,-1.14657 0,-1.58407 l -4.074242,-4.07412 c -0.43746,-0.43726 -1.14646,-0.43726 -1.58406,0 l -1.81568,1.81569 -1.13416,-1.13414 1.518,-1.5181 c 0.43735,-0.43737 0.43735,-1.14659 0,-1.58406 l -4.07424,-4.07414 c -0.21014,-0.21 -0.49496,-0.32806 -0.79198,-0.32806 -0.29705,0 -0.58198,0.11802 -0.79198,0.32806 l -1.81557,1.81569 -1.92421,-1.9241 c -0.43751,-0.43727 -1.14649,-0.43727 -1.58408,0 l -1.92411,1.9241 -1.97027,-1.97037 c -0.21011,-0.20999 -0.49493,-0.32805 -0.79198,-0.32805 -0.29702,0 -0.58195,0.11802 -0.79195,0.32805 l -1.92413,1.92422 -1.76953,-1.76954 c -0.43746,-0.43724 -1.14647,-0.43724 -1.58406,0 l -4.04401,4.044 c -0.43736,0.43738 -0.43736,1.14658 0,1.58406 l 1.76944,1.76945 -1.95772,1.95781 c -0.43738,0.43737 -0.43738,1.14658 0,1.58408 l 1.97025,1.97024 -1.92074,1.92063 c -0.43738,0.43737 -0.43738,1.14658 0,1.58407 l 1.92422,1.92422 -1.81569,1.81557 c -0.43737,0.43737 -0.43737,1.14658 0,1.58407 l 4.07425,4.07423 c 0.43746,0.43726 1.14646,0.43726 1.58406,0 l 1.8157,-1.81568 1.13424,1.13414 -1.51796,1.51799 c -0.43739,0.43738 -0.43739,1.14657 0,1.58407 l 4.07421,4.07423 c 0.43749,0.43726 1.14649,0.43726 1.58409,0 l 1.81567,-1.81569 1.92411,1.92412 c 0.21873,0.21862 0.50538,0.32806 0.79197,0.32806 0.28663,0 0.57325,-0.1094 0.79198,-0.32806 l 1.92064,-1.92066 1.91571,1.91572 c 0.43749,0.43727 1.14647,0.43727 1.58406,0 l 1.95771,-1.95781 1.85756,1.85757 c 0.43749,0.43726 1.14649,0.43737 1.58411,0 l 4.044082,-4.04388 c 0.21,-0.21002 0.32808,-0.49496 0.32808,-0.79198 0,-0.29704 -0.11803,-0.58186 -0.32808,-0.79198 l -1.85769,-1.85757 1.92423,-1.92423 c 0.43715,-0.4376 0.43715,-1.14681 -2.6e-4,-1.58417 z m -4.966132,-12.44582 2.490182,2.49016 -1.464572,1.46457 h -2.53799 v -2.44235 z m -17.10549,14.81928 -1.57311,-1.57309 1.61912,-1.61912 h 2.44247 v 3.19221 z m 7.92075,-10.86455 h -3.1922 v -2.53477 l 1.57477,-1.57476 1.61743,1.61755 z m 0,2.24006 v 3.19222 h -3.1922 v -3.19222 z m -5.43227,-2.24006 h -2.42813 l -1.49479,-1.49481 2.46004,-2.46005 1.46288,1.46288 z m -2.53465,2.24006 h 2.53465 v 3.19222 h -2.49544 l -1.61589,-1.61577 z m 4.77472,5.43228 h 3.1922 v 3.19221 h -3.1922 z m 5.43227,0 h 3.19222 v 3.19221 h -3.19222 z m 0,-2.24006 v -3.19222 h 3.19222 v 3.19222 z m 0,-5.43228 v -2.44235 l 1.62091,-1.62093 1.57131,1.57142 v 2.49186 z m -16.22539,10.61087 -2.49015,-2.49017 1.8157,-1.8157 c 0.43736,-0.43737 0.43736,-1.14657 0,-1.58407 l -1.92423,-1.9242 1.92063,-1.92064 c 0.43736,-0.43738 0.43736,-1.14659 0,-1.58407 l -1.97014,-1.97025 1.95771,-1.95772 c 0.43738,-0.43736 0.43738,-1.14658 0,-1.58395 l -1.76955,-1.76965 2.46003,-2.46005 1.76956,1.76954 c 0.2101,0.21002 0.49493,0.32807 0.79198,0.32807 0.29704,0 0.58197,-0.11802 0.79195,-0.32807 l 1.92413,-1.92422 1.97038,1.97037 c 0.43746,0.43726 1.14646,0.43726 1.58403,0 l 1.92413,-1.92422 1.9241,1.92422 c 0.21011,0.21001 0.49496,0.32806 0.79198,0.32806 0.29705,0 0.58198,-0.11814 0.79198,-0.32806 l 1.81557,-1.81569 2.49018,2.49018 -3.44006,3.44422 -1.97028,-1.97037 c -0.21,-0.21001 -0.49493,-0.32805 -0.79197,-0.32805 -0.29702,0 -0.58185,0.11802 -0.79198,0.32805 l -1.92421,1.92422 -1.76932,-1.76943 c -0.21,-0.21001 -0.49496,-0.32805 -0.79198,-0.32805 -0.29702,0 -0.58198,0.11802 -0.79198,0.32805 l -4.04399,4.044 c -0.43739,0.43737 -0.43739,1.14657 0,1.58407 l 1.76953,1.76954 -1.95781,1.9577 c -0.21,0.21002 -0.32806,0.49495 -0.32806,0.79198 0,0.29702 0.11801,0.58197 0.32806,0.79197 l 1.97038,1.97025 z m 7.09017,6.49474 -2.49015,-2.49017 1.51069,-1.51071 h 2.44234 v 2.53811 z m 5.32376,0.10835 -1.62094,-1.62091 v -2.48849 h 3.19222 v 2.53799 z m 5.42039,-0.005 -1.60893,-1.60894 v -2.49554 h 3.19222 v 2.52107 z m 5.39938,-0.10011 -1.57602,-1.5761 v -2.42813 h 2.49187 l 1.544192,1.54419 z m 0.94506,-6.24429 h -2.52119 v -3.19223 h 2.49185 l 1.610862,1.61073 z m 0.0169,-5.4323 h -2.53799 v -3.1922 h 2.49182 l 1.619252,1.61922 z"
         id="path17229-7-8" />
    </g>
  </g>
</svg>
