<?xml version="1.0" encoding="UTF-8" standalone="no"?>
<!-- Created with Inkscape (http://www.inkscape.org/) -->

<svg
   xmlns:dc="http://purl.org/dc/elements/1.1/"
   xmlns:cc="http://creativecommons.org/ns#"
   xmlns:rdf="http://www.w3.org/1999/02/22-rdf-syntax-ns#"
   xmlns:svg="http://www.w3.org/2000/svg"
   xmlns="http://www.w3.org/2000/svg"
   xmlns:sodipodi="http://sodipodi.sourceforge.net/DTD/sodipodi-0.dtd"
   xmlns:inkscape="http://www.inkscape.org/namespaces/inkscape"
   width="121.63908mm"
   height="121.63908mm"
   viewBox="0 0 121.63907 121.63907"
   version="1.1"
   id="svg8"
   sodipodi:docname="practicalli-figwheel-main-logo.svg"
   inkscape:export-filename="/home/practicalli/projects/practicalli/graphic-design/practicalli-figwheel-main-logo.png"
   inkscape:export-xdpi="90"
   inkscape:export-ydpi="90"
   inkscape:version="0.92.4 (5da689c313, 2019-01-14)">
  <defs
     id="defs2">
    <filter
       inkscape:collect="always"
       style="color-interpolation-filters:sRGB"
       id="filter2607-3"
       x="-0.11397986"
       width="1.2279598"
       y="-0.12677042"
       height="1.2535408">
      <feGaussianBlur
         inkscape:collect="always"
         stdDeviation="30.39463"
         id="feGaussianBlur2609-6" />
    </filter>
  </defs>
  <sodipodi:namedview
     id="base"
     pagecolor="#ffffff"
     bordercolor="#666666"
     borderopacity="1.0"
     inkscape:pageopacity="0.0"
     inkscape:pageshadow="2"
     inkscape:zoom="1"
     inkscape:cx="-93.42799"
     inkscape:cy="150.78524"
     inkscape:document-units="mm"
     inkscape:current-layer="layer1"
     showgrid="false"
     fit-margin-top="0"
     fit-margin-left="0"
     fit-margin-right="0"
     fit-margin-bottom="0"
     inkscape:window-width="1920"
     inkscape:window-height="1056"
     inkscape:window-x="3440"
     inkscape:window-y="0"
     inkscape:window-maximized="0"
     inkscape:pagecheckerboard="true" />
  <metadata
     id="metadata5">
    <rdf:RDF>
      <cc:Work
         rdf:about="">
        <dc:format>image/svg+xml</dc:format>
        <dc:type
           rdf:resource="http://purl.org/dc/dcmitype/StillImage" />
        <dc:title></dc:title>
      </cc:Work>
    </rdf:RDF>
  </metadata>
  <g
     inkscape:label="Layer 1"
     inkscape:groupmode="layer"
     id="layer1"
     transform="translate(-36.493446,-0.56571105)">
    <g
       id="g2931">
      <circle
         r="60.420536"
         cy="61.38525"
         cx="97.312988"
         id="path1035"
         style="opacity:1;fill:#ffffff;fill-opacity:1;stroke:#ffffff;stroke-width:0.79800701;stroke-linejoin:miter;stroke-miterlimit:4;stroke-dasharray:none;stroke-dashoffset:0;stroke-opacity:1" />
      <path
         style="fill:#c80000;fill-opacity:1;stroke:#9200bd;stroke-width:7.88565016;stroke-miterlimit:4;stroke-dasharray:none;stroke-opacity:1"
         id="path2417-7-9-3"
         d="M 95.923113,91.248016 C 94.442477,89.606233 90.745383,86.405623 87.707363,84.135484 78.705957,77.409288 77.480867,76.435856 73.826093,73.10592 67.088315,66.967001 64.226891,60.799387 64.236709,52.436556 c 0.004,-4.082386 0.285964,-5.655179 1.441383,-8.061517 1.960209,-4.082607 4.847702,-7.116279 8.539346,-8.971709 2.614674,-1.31414 3.904228,-1.897971 8.270535,-1.921856 4.56749,-0.02585 5.528999,0.501975 8.21575,1.962474 3.270242,1.777682 6.636246,5.57689 7.33205,8.275704 l 0.429737,1.666852 1.059797,-2.295648 C 105.51408,30.118215 124.63412,30.312284 131.288,43.41345 c 2.11079,4.156027 2.34253,13.03013 0.47079,18.02886 -2.44158,6.520666 -7.02751,11.491904 -17.62856,19.109857 -6.95236,4.995965 -14.820834,12.554966 -15.368576,13.616646 -0.63585,1.232425 -0.03026,0.192967 -2.838541,-2.920637 z"
         inkscape:connector-curvature="0" />
      <g
         id="g2221-5-3-5"
         transform="matrix(0.10748714,0,0,0.10635689,77.864016,25.822162)"
         style="fill:#ff0000;fill-opacity:1;stroke:#9200ff;stroke-width:73.75244904;stroke-miterlimit:4;stroke-dasharray:none;stroke-opacity:1;filter:url(#filter2607-3)" />
      <path
         id="path945-2-0-2"
         d="M 93.41386,110.37314 C 68.158511,108.13005 48.275483,86.8347 48.275483,60.997844 c 0,-25.836895 19.883028,-47.104557 45.138377,-49.347645 V 6.0840296 C 65.084703,8.3548099 42.737006,32.114774 42.737006,61.025497 c 0,28.910743 22.347697,52.670683 50.676854,54.941483 z"
         stroke-miterlimit="10"
         inkscape:connector-curvature="0"
         style="fill:#c80000;stroke:#c80000;stroke-width:1.95314896;stroke-miterlimit:10;stroke-dasharray:none;fill-opacity:1;stroke-opacity:1" />
      <path
         id="path947-7-6-9"
         d="m 102.2754,6.0840296 v 5.5661694 c 25.25535,2.243088 45.13838,23.538443 45.13838,49.375298 0,25.836895 -19.88303,47.132253 -45.13838,49.375333 v 5.56615 c 28.32922,-2.2708 50.67685,-26.03074 50.67685,-54.941483 0,-28.910723 -22.34763,-52.6706871 -50.67685,-54.9414674 z"
         stroke-miterlimit="10"
         inkscape:connector-curvature="0"
         style="fill:#9200bd;stroke:#9200bd;stroke-width:1.95314896;stroke-miterlimit:10;stroke-dasharray:none;fill-opacity:1;stroke-opacity:1" />
      <rect
         inkscape:transform-center-y="0.13363477"
         inkscape:transform-center-x="-1.2027129"
         transform="matrix(0.61749626,-0.78657382,0.93331708,0.35905325,0,0)"
         y="81.660011"
         x="6.8579822"
         height="5.4201565"
         width="22.95406"
         id="rect13839"
         style="fill:#c80000;fill-opacity:1;stroke:#c80000;stroke-width:1.47555256;stroke-miterlimit:10;stroke-dasharray:none;stroke-opacity:1" />
      <rect
         inkscape:transform-center-y="0.13363477"
         inkscape:transform-center-x="-1.2027129"
         transform="matrix(0.61749626,-0.78657382,0.93331708,0.35905325,0,0)"
         y="152.80214"
         x="-75.476357"
         height="5.4201565"
         width="22.95406"
         id="rect13839-2"
         style="fill:#9200bd;fill-opacity:1;stroke:#9200bd;stroke-width:1.47555256;stroke-miterlimit:10;stroke-dasharray:none;stroke-opacity:1" />
    </g>
  </g>
</svg>
