<?xml version="1.0" encoding="UTF-8" standalone="no"?>
<!-- Created with Inkscape (http://www.inkscape.org/) -->

<svg
   xmlns:dc="http://purl.org/dc/elements/1.1/"
   xmlns:cc="http://creativecommons.org/ns#"
   xmlns:rdf="http://www.w3.org/1999/02/22-rdf-syntax-ns#"
   xmlns:svg="http://www.w3.org/2000/svg"
   xmlns="http://www.w3.org/2000/svg"
   xmlns:sodipodi="http://sodipodi.sourceforge.net/DTD/sodipodi-0.dtd"
   xmlns:inkscape="http://www.inkscape.org/namespaces/inkscape"
   width="129.63908mm"
   height="129.63908mm"
   viewBox="0 0 129.63908 129.63908"
   version="1.1"
   id="svg8"
   sodipodi:docname="practicalli-figwheel-main-logo.svg"
   inkscape:export-filename="/home/practicalli/projects/practicalli/graphic-design/practicalli-figwheel-main-logo.png"
   inkscape:export-xdpi="90"
   inkscape:export-ydpi="90"
   inkscape:version="0.92.4 (5da689c313, 2019-01-14)">
  <defs
     id="defs2">
    <filter
       inkscape:collect="always"
       style="color-interpolation-filters:sRGB"
       id="filter2607-3"
       x="-0.11397986"
       width="1.2279598"
       y="-0.12677042"
       height="1.2535408">
      <feGaussianBlur
         inkscape:collect="always"
         stdDeviation="30.39463"
         id="feGaussianBlur2609-6" />
    </filter>
  </defs>
  <sodipodi:namedview
     id="base"
     pagecolor="#ffffff"
     bordercolor="#666666"
     borderopacity="1.0"
     inkscape:pageopacity="0.0"
     inkscape:pageshadow="2"
     inkscape:zoom="1"
     inkscape:cx="118.69012"
     inkscape:cy="85.903374"
     inkscape:document-units="mm"
     inkscape:current-layer="layer1"
     showgrid="false"
     fit-margin-top="4"
     fit-margin-left="4"
     fit-margin-right="4"
     fit-margin-bottom="4"
     inkscape:window-width="1712"
     inkscape:window-height="1406"
     inkscape:window-x="1722"
     inkscape:window-y="4"
     inkscape:window-maximized="0"
     inkscape:pagecheckerboard="true" />
  <metadata
     id="metadata5">
    <rdf:RDF>
      <cc:Work
         rdf:about="">
        <dc:format>image/svg+xml</dc:format>
        <dc:type
           rdf:resource="http://purl.org/dc/dcmitype/StillImage" />
        <dc:title></dc:title>
      </cc:Work>
    </rdf:RDF>
  </metadata>
  <g
     inkscape:label="Layer 1"
     inkscape:groupmode="layer"
     id="layer1"
     transform="translate(-32.493446,3.434289)">
    <g
       id="g4854"
       transform="matrix(2.0038123,0,0,2.0038123,-835.57312,-388.69146)">
      <circle
         r="30.152792"
         cy="224.61021"
         cx="465.55563"
         id="path1035"
         style="opacity:1;fill:#ffffff;fill-opacity:1;stroke:#ffffff;stroke-width:0.39824438;stroke-linejoin:miter;stroke-miterlimit:4;stroke-dasharray:none;stroke-dashoffset:0;stroke-opacity:1" />
      <path
         style="fill:#c80000;fill-opacity:1;stroke:#9200bd;stroke-width:3.93532372;stroke-miterlimit:4;stroke-dasharray:none;stroke-opacity:1"
         id="path2417-7-9-3"
         d="m 464.86202,239.51319 c -0.73891,-0.81933 -2.58394,-2.41659 -4.10006,-3.5495 -4.49214,-3.3567 -5.10352,-3.84249 -6.92743,-5.50429 -3.36248,-3.06362 -4.79047,-6.14156 -4.78557,-10.31502 0.002,-2.03731 0.14271,-2.82221 0.71932,-4.02309 0.97824,-2.03742 2.41924,-3.55137 4.26155,-4.47732 1.30485,-0.65582 1.9484,-0.94718 4.1274,-0.9591 2.2794,-0.0129 2.75924,0.25051 4.10006,0.97937 1.63201,0.88715 3.31181,2.78314 3.65905,4.12998 l 0.21446,0.83184 0.52889,-1.14564 c 2.98869,-6.47398 12.53052,-6.37713 15.85113,0.16099 1.05339,2.07406 1.16904,6.50267 0.23495,8.99728 -1.21847,3.25413 -3.50707,5.73502 -8.79751,9.53675 -3.46957,2.49323 -7.39632,6.26554 -7.66967,6.79537 -0.31732,0.61504 -0.0151,0.0963 -1.41657,-1.45754 z"
         inkscape:connector-curvature="0" />
      <g
         id="g2221-5-3-5"
         transform="matrix(0.05364132,0,0,0.05307727,455.84965,206.8625)"
         style="fill:#ff0000;fill-opacity:1;stroke:#9200ff;stroke-width:73.75244904;stroke-miterlimit:4;stroke-dasharray:none;stroke-opacity:1;filter:url(#filter2607-3)" />
      <path
         id="path945-2-0-2"
         d="m 463.60978,249.05756 c -12.60365,-1.11941 -22.52625,-11.74683 -22.52625,-24.64068 0,-12.89387 9.9226,-23.50747 22.52625,-24.62688 v -2.77779 c -14.13763,1.13323 -25.29022,12.99061 -25.29022,27.41847 0,14.42787 11.15259,26.28524 25.29022,27.41848 z"
         stroke-miterlimit="10"
         inkscape:connector-curvature="0"
         style="fill:#96ca4b;stroke:#96ca4b;stroke-width:0.97471654;stroke-miterlimit:10;stroke-dasharray:none" />
      <path
         id="path947-7-6-9"
         d="M 468.03212,197.01221 V 199.79 c 12.60365,1.11941 22.52625,11.74683 22.52625,24.64068 0,12.89387 -9.9226,23.52129 -22.52625,24.6407 v 2.77778 c 14.13766,-1.13324 25.29022,-12.99061 25.29022,-27.41848 0,-14.42786 -11.15256,-26.28524 -25.29022,-27.41847 z"
         stroke-miterlimit="10"
         inkscape:connector-curvature="0"
         style="fill:#5f7fbf;stroke:#5f7fbf;stroke-width:0.97471654;stroke-miterlimit:10;stroke-dasharray:none" />
      <rect
         inkscape:transform-center-y="0.13363477"
         inkscape:transform-center-x="-1.2027129"
         transform="matrix(0.61749625,-0.78657382,0.93331708,0.35905324,0,0)"
         y="509.21536"
         x="-29.343449"
         height="2.7049222"
         width="11.455194"
         id="rect13839"
         style="fill:#96ca4b;fill-opacity:1;stroke:#96ca4b;stroke-width:0.73637265;stroke-miterlimit:10;stroke-dasharray:none;stroke-opacity:1" />
      <rect
         inkscape:transform-center-y="0.13363477"
         inkscape:transform-center-x="-1.2027129"
         transform="matrix(0.61749625,-0.78657382,0.93331708,0.35905324,0,0)"
         y="544.71875"
         x="-70.432297"
         height="2.7049222"
         width="11.455194"
         id="rect13839-2"
         style="fill:#5f7fbf;fill-opacity:1;stroke:#5f7fbf;stroke-width:0.73637265;stroke-miterlimit:10;stroke-dasharray:none;stroke-opacity:1" />
    </g>
  </g>
</svg>
