<?xml version="1.0" encoding="UTF-8" standalone="no"?>
<!-- Created with Inkscape (http://www.inkscape.org/) -->

<svg
   xmlns:dc="http://purl.org/dc/elements/1.1/"
   xmlns:cc="http://creativecommons.org/ns#"
   xmlns:rdf="http://www.w3.org/1999/02/22-rdf-syntax-ns#"
   xmlns:svg="http://www.w3.org/2000/svg"
   xmlns="http://www.w3.org/2000/svg"
   xmlns:sodipodi="http://sodipodi.sourceforge.net/DTD/sodipodi-0.dtd"
   xmlns:inkscape="http://www.inkscape.org/namespaces/inkscape"
   version="1.1"
   id="svg2"
   xml:space="preserve"
   width="331.87735"
   height="54.897812"
   viewBox="0 0 331.87733 54.897811"
   sodipodi:docname="twitter-practicalli-username.svg"
   inkscape:version="0.92.3 (2405546, 2018-03-11)"
   inkscape:export-filename="/home/jr0cket/projects/practicalli/youtube-channel-art/twitter-practicalli-username.png"
   inkscape:export-xdpi="90"
   inkscape:export-ydpi="90"><metadata
     id="metadata8"><rdf:RDF><cc:Work
         rdf:about=""><dc:format>image/svg+xml</dc:format><dc:type
           rdf:resource="http://purl.org/dc/dcmitype/StillImage" /><dc:title></dc:title></cc:Work></rdf:RDF></metadata><defs
     id="defs6" /><sodipodi:namedview
     pagecolor="#ffffff"
     bordercolor="#666666"
     borderopacity="1"
     objecttolerance="10"
     gridtolerance="10"
     guidetolerance="10"
     inkscape:pageopacity="0"
     inkscape:pageshadow="2"
     inkscape:window-width="1920"
     inkscape:window-height="1016"
     id="namedview4"
     showgrid="false"
     fit-margin-top="8"
     fit-margin-left="8"
     fit-margin-right="8"
     fit-margin-bottom="8"
     inkscape:zoom="1"
     inkscape:cx="542.72425"
     inkscape:cy="-3.5304677"
     inkscape:window-x="0"
     inkscape:window-y="27"
     inkscape:window-maximized="1"
     inkscape:current-layer="g12" /><g
     id="g10"
     inkscape:groupmode="layer"
     inkscape:label="ink_ext_XXXXXX"
     transform="matrix(1.3333333,0,0,-1.3333333,-341.6493,178.23495)"><g
       id="g12"
       transform="scale(0.1)"><path
         d="m 2703.9182,1053.9376 c 97.8507,0 151.3618,81.0666 151.3618,151.3616 0,2.3033 -0.047,4.5947 -0.1533,6.8743 10.3867,7.5084 19.4168,16.8806 26.5388,27.5475 -9.5314,-4.2349 -19.7913,-7.0867 -30.5525,-8.3754 10.9853,6.5853 19.4197,17.0073 23.3951,29.4289 -10.2805,-6.0958 -21.6611,-10.5253 -33.7789,-12.914 -9.7084,10.3394 -23.5337,16.8068 -38.8306,16.8068 -29.3847,0 -53.2074,-23.8227 -53.2074,-53.1927 0,-4.1759 0.4689,-8.2338 1.3772,-12.1296 -44.2098,2.2236 -83.4149,23.3922 -109.6529,55.5785 -4.5711,-7.8564 -7.2047,-16.9926 -7.2047,-26.7364 0,-18.4554 9.3929,-34.7506 23.6753,-44.282 -8.7263,0.2683 -16.9248,2.6677 -24.094,6.6561 -0.012,-0.2224 -0.012,-0.4459 -0.012,-0.6798 0,-25.7665 18.3403,-47.2762 42.6792,-52.1528 -4.4679,-1.2165 -9.1687,-1.8718 -14.0229,-1.8718 -3.4298,0 -6.7623,0.3409 -10.0033,0.9596 6.774,-21.1343 26.412,-36.5171 49.7009,-36.95 -18.2135,-14.2709 -41.1486,-22.7725 -66.0743,-22.7725 -4.2909,0 -8.5258,0.2442 -12.6899,0.7372 23.5455,-15.0875 51.4999,-23.8935 81.5482,-23.8935"
         style="fill:#569cda;fill-opacity:1;fill-rule:nonzero;stroke:none;stroke-width:0.29490867"
         id="path14"
         inkscape:connector-curvature="0" /><g
         id="g16"
         transform="matrix(2.9490869,0,0,2.9490869,1849.0103,900.23389)"><text
           transform="matrix(1,0,0,-1,368.2,52.1859)"
           style="font-variant:normal;font-weight:bold;font-size:99.36000061px;font-family:HelveticaNeue;-inkscape-font-specification:HelveticaNeue-Bold;writing-mode:lr-tb;fill:#191819;fill-opacity:1;fill-rule:nonzero;stroke:none"
           id="text20"><tspan
             x="0"
             y="0"
             sodipodi:role="line"
             id="tspan18">@practical_li</tspan></text>
</g></g></g></svg>