<?xml version="1.0" encoding="UTF-8" standalone="no"?>
<svg
   width="685.28986"
   height="186.93929"
   viewBox="0 0 181.31627 49.461024"
   version="1.1"
   id="svg8"
   inkscape:version="1.1.2 (0a00cf5339, 2022-02-04)"
   sodipodi:docname="practicalli-clojurescript-book-banner-alpha.svg"
   inkscape:export-filename="/home/practicalli/projects/practicalli/graphic-design/book-covers/practicalli-clojurescript-book-banner-alpha.png"
   inkscape:export-xdpi="90"
   inkscape:export-ydpi="90"
   xmlns:inkscape="http://www.inkscape.org/namespaces/inkscape"
   xmlns:sodipodi="http://sodipodi.sourceforge.net/DTD/sodipodi-0.dtd"
   xmlns:xlink="http://www.w3.org/1999/xlink"
   xmlns="http://www.w3.org/2000/svg"
   xmlns:svg="http://www.w3.org/2000/svg"
   xmlns:rdf="http://www.w3.org/1999/02/22-rdf-syntax-ns#"
   xmlns:cc="http://creativecommons.org/ns#"
   xmlns:dc="http://purl.org/dc/elements/1.1/">
  <defs
     id="defs2">
    <marker
       inkscape:stockid="Arrow2Lend"
       orient="auto"
       refY="0"
       refX="0"
       id="marker6377"
       style="overflow:visible"
       inkscape:isstock="true">
      <path
         id="path6375"
         style="fill:#008000;fill-opacity:1;fill-rule:evenodd;stroke:#000000;stroke-width:0.625;stroke-linejoin:round;stroke-opacity:1"
         d="M 8.7185878,4.0337352 -2.2072895,0.01601326 8.7185884,-4.0017078 c -1.7454984,2.3720609 -1.7354408,5.6174519 -6e-7,8.035443 z"
         transform="matrix(-1.1,0,0,-1.1,-1.1,0)"
         inkscape:connector-curvature="0" />
    </marker>
    <marker
       inkscape:stockid="Arrow2Lend"
       orient="auto"
       refY="0"
       refX="0"
       id="Arrow2Lend"
       style="overflow:visible"
       inkscape:isstock="true">
      <path
         id="path5346"
         style="fill:#008000;fill-opacity:1;fill-rule:evenodd;stroke:#000000;stroke-width:0.625;stroke-linejoin:round;stroke-opacity:1"
         d="M 8.7185878,4.0337352 -2.2072895,0.01601326 8.7185884,-4.0017078 c -1.7454984,2.3720609 -1.7354408,5.6174519 -6e-7,8.035443 z"
         transform="matrix(-1.1,0,0,-1.1,-1.1,0)"
         inkscape:connector-curvature="0" />
    </marker>
    <linearGradient
       id="linearGradient4221">
      <stop
         id="stop4223"
         offset="0"
         style="stop-color:#c0c0dc;stop-opacity:1" />
      <stop
         style="stop-color:#c0c0dd;stop-opacity:1"
         offset="0.11419532"
         id="stop4225" />
      <stop
         id="stop4227"
         offset="0.47871608"
         style="stop-color:#a191bf;stop-opacity:1" />
      <stop
         id="stop4229"
         offset="1"
         style="stop-color:#625681;stop-opacity:1" />
    </linearGradient>
    <linearGradient
       gradientTransform="matrix(0.4887125,0,0,0.4887125,7.5674041,560.78197)"
       xlink:href="#linearGradient4274"
       id="linearGradient7595"
       x1="-0.65353984"
       y1="934.5658"
       x2="46.893108"
       y2="951.89844"
       gradientUnits="userSpaceOnUse" />
    <linearGradient
       id="linearGradient4274">
      <stop
         id="stop4276"
         offset="0"
         style="stop-color:#eeeeec;stop-opacity:1" />
      <stop
         style="stop-color:#eeeeec;stop-opacity:1"
         offset="0.0837483"
         id="stop4181" />
      <stop
         id="stop4280"
         offset="0.3513594"
         style="stop-color:#eeeeec;stop-opacity:1" />
      <stop
         id="stop4282"
         offset="1"
         style="stop-color:#e0d5d5;stop-opacity:1" />
    </linearGradient>
    <linearGradient
       xlink:href="#linearGradient7589"
       id="linearGradient4317"
       x1="303.64438"
       y1="608.87836"
       x2="396.9097"
       y2="672.25775"
       gradientUnits="userSpaceOnUse"
       gradientTransform="matrix(0.19229712,0.06206447,-0.10031905,0.17023858,27.947597,914.55215)" />
    <linearGradient
       id="linearGradient7589">
      <stop
         id="stop7591"
         offset="0"
         style="stop-color:#351347;stop-opacity:1" />
      <stop
         id="stop7593"
         offset="1"
         style="stop-color:#5c3566;stop-opacity:0;" />
    </linearGradient>
    <linearGradient
       xlink:href="#linearGradient4311"
       id="linearGradient4301"
       x1="306.88434"
       y1="425.15848"
       x2="377.03168"
       y2="364.66345"
       gradientUnits="userSpaceOnUse"
       gradientTransform="matrix(0.07485012,0.08932098,-0.08626544,0.06221301,53.22269,961.64413)" />
    <linearGradient
       id="linearGradient4311">
      <stop
         style="stop-color:#351e47;stop-opacity:1"
         offset="0"
         id="stop4313" />
      <stop
         style="stop-color:#5c3566;stop-opacity:0;"
         offset="1"
         id="stop4315" />
    </linearGradient>
    <linearGradient
       xlink:href="#linearGradient4274"
       id="linearGradient4230"
       x1="267.65439"
       y1="527.33502"
       x2="329.16669"
       y2="429.49622"
       gradientUnits="userSpaceOnUse"
       gradientTransform="matrix(0.15153279,0.0143268,-0.0143268,0.15153279,-12.641966,950.28506)" />
    <linearGradient
       xlink:href="#linearGradient4196"
       id="linearGradient5577"
       x1="308.41003"
       y1="511.44083"
       x2="190.84904"
       y2="465.96136"
       gradientUnits="userSpaceOnUse"
       gradientTransform="matrix(-0.13467,0.03941451,0.04093431,0.13986281,58.64004,937.70038)" />
    <linearGradient
       id="linearGradient4196">
      <stop
         style="stop-color:#ffffff;stop-opacity:1"
         offset="0"
         id="stop4198" />
      <stop
         id="stop4200"
         offset="0.11419532"
         style="stop-color:#fffff2;stop-opacity:1" />
      <stop
         style="stop-color:#d2acd2;stop-opacity:1"
         offset="0.47871608"
         id="stop4202" />
      <stop
         style="stop-color:#123069;stop-opacity:1"
         offset="1"
         id="stop4204" />
    </linearGradient>
    <radialGradient
       xlink:href="#linearGradient6003"
       id="radialGradient5136-0-6-65"
       cx="322.17105"
       cy="472.51749"
       fx="322.17105"
       fy="472.51749"
       r="169"
       gradientUnits="userSpaceOnUse"
       gradientTransform="matrix(0.3389967,0.21474015,-0.19688621,0.26982602,-1209.2255,-630.6322)" />
    <linearGradient
       id="linearGradient6003">
      <stop
         id="stop6005"
         offset="0"
         style="stop-color:#c2c6db;stop-opacity:1" />
      <stop
         style="stop-color:#bab1e0;stop-opacity:1"
         offset="0.33969504"
         id="stop6007" />
      <stop
         style="stop-color:#8d77a3;stop-opacity:1"
         offset="0.44414869"
         id="stop6009" />
      <stop
         id="stop6011"
         offset="0.55217898"
         style="stop-color:#675a84;stop-opacity:1" />
      <stop
         id="stop6013"
         offset="1"
         style="stop-color:#050846;stop-opacity:1" />
    </linearGradient>
    <radialGradient
       xlink:href="#linearGradient6003"
       id="radialGradient5136-0-6-6-8-3-1"
       cx="322.17105"
       cy="472.51749"
       fx="322.17105"
       fy="472.51749"
       r="169"
       gradientUnits="userSpaceOnUse"
       gradientTransform="matrix(0.19025707,0.10471339,-0.11049955,0.13157478,-966.76195,-798.66855)" />
    <radialGradient
       xlink:href="#linearGradient6003"
       id="radialGradient5136-0-6-6-8-8-8"
       cx="322.17105"
       cy="472.51749"
       fx="322.17105"
       fy="472.51749"
       r="169"
       gradientUnits="userSpaceOnUse"
       gradientTransform="matrix(0.1361054,0.07855904,-0.0790488,0.09871133,-780.58233,-1164.6467)" />
    <radialGradient
       xlink:href="#linearGradient6003"
       id="radialGradient5136-0-6-6-8-6"
       cx="322.17105"
       cy="472.51749"
       fx="322.17105"
       fy="472.51749"
       r="169"
       gradientUnits="userSpaceOnUse"
       gradientTransform="matrix(0.18445402,0.09675949,-0.10712923,0.12158052,-859.37376,-1098.3051)" />
    <radialGradient
       xlink:href="#linearGradient6003"
       id="radialGradient5136-0-6-6-2"
       cx="322.17105"
       cy="472.51749"
       fx="322.17105"
       fy="472.51749"
       r="169"
       gradientUnits="userSpaceOnUse"
       gradientTransform="matrix(0.33582312,0.20512484,-0.19504306,0.25774431,-945.14244,-758.65362)" />
    <radialGradient
       xlink:href="#linearGradient6003"
       id="radialGradient5136-0-6-65-3"
       cx="322.17105"
       cy="472.51749"
       fx="322.17105"
       fy="472.51749"
       r="169"
       gradientUnits="userSpaceOnUse"
       gradientTransform="matrix(0.35330232,0.22380216,-0.20519478,0.28121264,-702.27629,-398.30317)" />
    <radialGradient
       xlink:href="#linearGradient6003"
       id="radialGradient5136-0-6-6-8-3-1-9"
       cx="322.17105"
       cy="472.51749"
       fx="322.17105"
       fy="472.51749"
       r="169"
       gradientUnits="userSpaceOnUse"
       gradientTransform="matrix(0.19828589,0.10913228,-0.11516262,0.13712722,-658.03031,-481.71303)" />
    <radialGradient
       xlink:href="#linearGradient6003"
       id="radialGradient5136-0-6-6-8-8-8-5"
       cx="322.17105"
       cy="472.51749"
       fx="322.17105"
       fy="472.51749"
       r="169"
       gradientUnits="userSpaceOnUse"
       gradientTransform="matrix(0.14184903,0.08187422,-0.08238465,0.10287694,-643.98232,-766.01725)" />
    <radialGradient
       xlink:href="#linearGradient6003"
       id="radialGradient5136-0-6-6-2-1"
       cx="322.17105"
       cy="472.51749"
       fx="322.17105"
       fy="472.51749"
       r="169"
       gradientUnits="userSpaceOnUse"
       gradientTransform="matrix(0.34999481,0.21378108,-0.20327385,0.26862109,-680.60673,-453.66251)" />
    <radialGradient
       xlink:href="#linearGradient6003"
       id="radialGradient5136-0-6-6-8-6-9"
       cx="322.17105"
       cy="472.51749"
       fx="322.17105"
       fy="472.51749"
       r="169"
       gradientUnits="userSpaceOnUse"
       gradientTransform="matrix(0.19223796,0.10084273,-0.11165007,0.1267112,-724.74062,-701.33347)" />
    <radialGradient
       xlink:href="#linearGradient6003"
       id="radialGradient5136-0-6-65-2"
       cx="322.17105"
       cy="472.51749"
       fx="322.17105"
       fy="472.51749"
       r="169"
       gradientUnits="userSpaceOnUse"
       gradientTransform="matrix(0.3389967,0.21474015,-0.19688621,0.26982602,-1209.2255,-630.6322)" />
    <radialGradient
       xlink:href="#linearGradient6003"
       id="radialGradient5136-0-6-6-8-3-1-2"
       cx="322.17105"
       cy="472.51749"
       fx="322.17105"
       fy="472.51749"
       r="169"
       gradientUnits="userSpaceOnUse"
       gradientTransform="matrix(0.19025707,0.10471339,-0.11049955,0.13157478,-966.76195,-798.66855)" />
    <radialGradient
       xlink:href="#linearGradient6003"
       id="radialGradient5136-0-6-6-8-8-8-0"
       cx="322.17105"
       cy="472.51749"
       fx="322.17105"
       fy="472.51749"
       r="169"
       gradientUnits="userSpaceOnUse"
       gradientTransform="matrix(0.1361054,0.07855904,-0.0790488,0.09871133,-780.58233,-1164.6467)" />
    <radialGradient
       xlink:href="#linearGradient6003"
       id="radialGradient5136-0-6-6-8-6-2"
       cx="322.17105"
       cy="472.51749"
       fx="322.17105"
       fy="472.51749"
       r="169"
       gradientUnits="userSpaceOnUse"
       gradientTransform="matrix(0.18445402,0.09675949,-0.10712923,0.12158052,-859.37376,-1098.3051)" />
    <radialGradient
       xlink:href="#linearGradient6003"
       id="radialGradient5136-0-6-6-2-3"
       cx="322.17105"
       cy="472.51749"
       fx="322.17105"
       fy="472.51749"
       r="169"
       gradientUnits="userSpaceOnUse"
       gradientTransform="matrix(0.33582312,0.20512484,-0.19504306,0.25774431,-945.14244,-758.65362)" />
    <radialGradient
       xlink:href="#linearGradient6003"
       id="radialGradient5136-0-6-65-3-7"
       cx="322.17105"
       cy="472.51749"
       fx="322.17105"
       fy="472.51749"
       r="169"
       gradientUnits="userSpaceOnUse"
       gradientTransform="matrix(0.35330232,0.22380216,-0.20519478,0.28121264,-702.27629,-398.30317)" />
    <radialGradient
       xlink:href="#linearGradient6003"
       id="radialGradient5136-0-6-6-8-3-1-9-5"
       cx="322.17105"
       cy="472.51749"
       fx="322.17105"
       fy="472.51749"
       r="169"
       gradientUnits="userSpaceOnUse"
       gradientTransform="matrix(0.19828589,0.10913228,-0.11516262,0.13712722,-658.03031,-481.71303)" />
    <radialGradient
       xlink:href="#linearGradient6003"
       id="radialGradient5136-0-6-6-8-8-8-5-9"
       cx="322.17105"
       cy="472.51749"
       fx="322.17105"
       fy="472.51749"
       r="169"
       gradientUnits="userSpaceOnUse"
       gradientTransform="matrix(0.14184903,0.08187422,-0.08238465,0.10287694,-643.98232,-766.01725)" />
    <radialGradient
       xlink:href="#linearGradient6003"
       id="radialGradient5136-0-6-6-2-1-2"
       cx="322.17105"
       cy="472.51749"
       fx="322.17105"
       fy="472.51749"
       r="169"
       gradientUnits="userSpaceOnUse"
       gradientTransform="matrix(0.34999481,0.21378108,-0.20327385,0.26862109,-680.60673,-453.66251)" />
    <radialGradient
       xlink:href="#linearGradient6003"
       id="radialGradient5136-0-6-6-8-6-9-2"
       cx="322.17105"
       cy="472.51749"
       fx="322.17105"
       fy="472.51749"
       r="169"
       gradientUnits="userSpaceOnUse"
       gradientTransform="matrix(0.19223796,0.10084273,-0.11165007,0.1267112,-724.74062,-701.33347)" />
    <radialGradient
       gradientTransform="matrix(0.35330232,0.22380216,-0.20519478,0.28121264,-702.27629,-398.30317)"
       gradientUnits="userSpaceOnUse"
       r="169"
       fy="472.51749"
       fx="322.17105"
       cy="472.51749"
       cx="322.17105"
       id="radialGradient5136-0-6-65-3-7-8-4-2"
       xlink:href="#linearGradient6003" />
    <radialGradient
       gradientTransform="matrix(0.34999481,0.21378108,-0.20327385,0.26862109,-680.60673,-453.66251)"
       gradientUnits="userSpaceOnUse"
       r="169"
       fy="472.51749"
       fx="322.17105"
       cy="472.51749"
       cx="322.17105"
       id="radialGradient5136-0-6-6-2-1-2-1-8-4"
       xlink:href="#linearGradient6003" />
    <radialGradient
       gradientTransform="matrix(0.19223796,0.10084273,-0.11165007,0.1267112,-724.74062,-701.33347)"
       gradientUnits="userSpaceOnUse"
       r="169"
       fy="472.51749"
       fx="322.17105"
       cy="472.51749"
       cx="322.17105"
       id="radialGradient5136-0-6-6-8-6-9-2-4-7-1"
       xlink:href="#linearGradient6003" />
    <radialGradient
       gradientTransform="matrix(0.19828589,0.10913228,-0.11516262,0.13712722,-658.03031,-481.71303)"
       gradientUnits="userSpaceOnUse"
       r="169"
       fy="472.51749"
       fx="322.17105"
       cy="472.51749"
       cx="322.17105"
       id="radialGradient5136-0-6-6-8-3-1-9-5-9-1-8"
       xlink:href="#linearGradient6003" />
    <radialGradient
       gradientTransform="matrix(0.14184903,0.08187422,-0.08238465,0.10287694,-643.98232,-766.01725)"
       gradientUnits="userSpaceOnUse"
       r="169"
       fy="472.51749"
       fx="322.17105"
       cy="472.51749"
       cx="322.17105"
       id="radialGradient5136-0-6-6-8-8-8-5-9-2-7-5"
       xlink:href="#linearGradient6003" />
    <marker
       inkscape:stockid="Arrow2Lend"
       orient="auto"
       refY="0"
       refX="0"
       id="marker6377-3"
       style="overflow:visible"
       inkscape:isstock="true">
      <path
         inkscape:connector-curvature="0"
         id="path6375-7"
         style="fill:#008000;fill-opacity:1;fill-rule:evenodd;stroke:#000000;stroke-width:0.625;stroke-linejoin:round;stroke-opacity:1"
         d="M 8.7185878,4.0337352 -2.2072895,0.01601326 8.7185884,-4.0017078 c -1.7454984,2.3720609 -1.7354408,5.6174519 -6e-7,8.035443 z"
         transform="matrix(-1.1,0,0,-1.1,-1.1,0)" />
    </marker>
    <marker
       inkscape:stockid="Arrow2Lend"
       orient="auto"
       refY="0"
       refX="0"
       id="marker6377-4"
       style="overflow:visible"
       inkscape:isstock="true">
      <path
         inkscape:connector-curvature="0"
         id="path6375-74"
         style="fill:#008000;fill-opacity:1;fill-rule:evenodd;stroke:#000000;stroke-width:0.625;stroke-linejoin:round;stroke-opacity:1"
         d="M 8.7185878,4.0337352 -2.2072895,0.01601326 8.7185884,-4.0017078 c -1.7454984,2.3720609 -1.7354408,5.6174519 -6e-7,8.035443 z"
         transform="matrix(-1.1,0,0,-1.1,-1.1,0)" />
    </marker>
    <marker
       inkscape:stockid="Arrow2Lend"
       orient="auto"
       refY="0"
       refX="0"
       id="marker6377-6"
       style="overflow:visible"
       inkscape:isstock="true">
      <path
         inkscape:connector-curvature="0"
         id="path6375-8"
         style="fill:#008000;fill-opacity:1;fill-rule:evenodd;stroke:#000000;stroke-width:0.625;stroke-linejoin:round;stroke-opacity:1"
         d="M 8.7185878,4.0337352 -2.2072895,0.01601326 8.7185884,-4.0017078 c -1.7454984,2.3720609 -1.7354408,5.6174519 -6e-7,8.035443 z"
         transform="matrix(-1.1,0,0,-1.1,-1.1,0)" />
    </marker>
    <marker
       inkscape:stockid="Arrow2Lend"
       orient="auto"
       refY="0"
       refX="0"
       id="marker6377-49"
       style="overflow:visible"
       inkscape:isstock="true">
      <path
         inkscape:connector-curvature="0"
         id="path6375-2"
         style="fill:#008000;fill-opacity:1;fill-rule:evenodd;stroke:#000000;stroke-width:0.625;stroke-linejoin:round;stroke-opacity:1"
         d="M 8.7185878,4.0337352 -2.2072895,0.01601326 8.7185884,-4.0017078 c -1.7454984,2.3720609 -1.7354408,5.6174519 -6e-7,8.035443 z"
         transform="matrix(-1.1,0,0,-1.1,-1.1,0)" />
    </marker>
    <marker
       inkscape:stockid="Arrow2Lend"
       orient="auto"
       refY="0"
       refX="0"
       id="marker6377-2"
       style="overflow:visible"
       inkscape:isstock="true">
      <path
         inkscape:connector-curvature="0"
         id="path6375-6"
         style="fill:#008000;fill-opacity:1;fill-rule:evenodd;stroke:#000000;stroke-width:0.625;stroke-linejoin:round;stroke-opacity:1"
         d="M 8.7185878,4.0337352 -2.2072895,0.01601326 8.7185884,-4.0017078 c -1.7454984,2.3720609 -1.7354408,5.6174519 -6e-7,8.035443 z"
         transform="matrix(-1.1,0,0,-1.1,-1.1,0)" />
    </marker>
    <marker
       inkscape:stockid="Arrow2Lend"
       orient="auto"
       refY="0"
       refX="0"
       id="marker6377-26"
       style="overflow:visible"
       inkscape:isstock="true">
      <path
         inkscape:connector-curvature="0"
         id="path6375-1"
         style="fill:#008000;fill-opacity:1;fill-rule:evenodd;stroke:#000000;stroke-width:0.625;stroke-linejoin:round;stroke-opacity:1"
         d="M 8.7185878,4.0337352 -2.2072895,0.01601326 8.7185884,-4.0017078 c -1.7454984,2.3720609 -1.7354408,5.6174519 -6e-7,8.035443 z"
         transform="matrix(-1.1,0,0,-1.1,-1.1,0)" />
    </marker>
    <marker
       inkscape:stockid="Arrow2Lend"
       orient="auto"
       refY="0"
       refX="0"
       id="marker6377-2-6"
       style="overflow:visible"
       inkscape:isstock="true">
      <path
         inkscape:connector-curvature="0"
         id="path6375-6-1"
         style="fill:#008000;fill-opacity:1;fill-rule:evenodd;stroke:#000000;stroke-width:0.625;stroke-linejoin:round;stroke-opacity:1"
         d="M 8.7185878,4.0337352 -2.2072895,0.01601326 8.7185884,-4.0017078 c -1.7454984,2.3720609 -1.7354408,5.6174519 -6e-7,8.035443 z"
         transform="matrix(-1.1,0,0,-1.1,-1.1,0)" />
    </marker>
    <marker
       inkscape:stockid="Arrow2Lend"
       orient="auto"
       refY="0"
       refX="0"
       id="marker6377-49-1"
       style="overflow:visible"
       inkscape:isstock="true">
      <path
         inkscape:connector-curvature="0"
         id="path6375-2-5"
         style="fill:#008000;fill-opacity:1;fill-rule:evenodd;stroke:#000000;stroke-width:0.625;stroke-linejoin:round;stroke-opacity:1"
         d="M 8.7185878,4.0337352 -2.2072895,0.01601326 8.7185884,-4.0017078 c -1.7454984,2.3720609 -1.7354408,5.6174519 -6e-7,8.035443 z"
         transform="matrix(-1.1,0,0,-1.1,-1.1,0)" />
    </marker>
    <marker
       inkscape:stockid="Arrow2Lend"
       orient="auto"
       refY="0"
       refX="0"
       id="marker6377-9"
       style="overflow:visible"
       inkscape:isstock="true">
      <path
         inkscape:connector-curvature="0"
         id="path6375-84"
         style="fill:#008000;fill-opacity:1;fill-rule:evenodd;stroke:#000000;stroke-width:0.625;stroke-linejoin:round;stroke-opacity:1"
         d="M 8.7185878,4.0337352 -2.2072895,0.01601326 8.7185884,-4.0017078 c -1.7454984,2.3720609 -1.7354408,5.6174519 -6e-7,8.035443 z"
         transform="matrix(-1.1,0,0,-1.1,-1.1,0)" />
    </marker>
    <filter
       inkscape:collect="always"
       style="color-interpolation-filters:sRGB"
       id="filter2607-3"
       x="-0.11397986"
       width="1.2279598"
       y="-0.12677042"
       height="1.2535408">
      <feGaussianBlur
         inkscape:collect="always"
         stdDeviation="30.39463"
         id="feGaussianBlur2609-6" />
    </filter>
  </defs>
  <sodipodi:namedview
     id="base"
     pagecolor="#ffffff"
     bordercolor="#666666"
     borderopacity="1.0"
     inkscape:pageopacity="0"
     inkscape:pageshadow="2"
     inkscape:zoom="2.0000001"
     inkscape:cx="269.74999"
     inkscape:cy="74.999996"
     inkscape:document-units="px"
     inkscape:current-layer="layer2"
     showgrid="false"
     units="px"
     inkscape:window-width="3440"
     inkscape:window-height="1415"
     inkscape:window-x="0"
     inkscape:window-y="25"
     inkscape:window-maximized="0"
     fit-margin-top="12"
     fit-margin-left="12"
     fit-margin-right="12"
     fit-margin-bottom="12"
     inkscape:pagecheckerboard="true"
     showguides="true"
     inkscape:guide-bbox="true"
     inkscape:document-rotation="0" />
  <metadata
     id="metadata5">
    <rdf:RDF>
      <cc:Work
         rdf:about="">
        <dc:format>image/svg+xml</dc:format>
        <dc:type
           rdf:resource="http://purl.org/dc/dcmitype/StillImage" />
        <cc:license
           rdf:resource="http://creativecommons.org/licenses/by-sa/4.0/" />
      </cc:Work>
      <cc:License
         rdf:about="http://creativecommons.org/licenses/by-sa/4.0/">
        <cc:permits
           rdf:resource="http://creativecommons.org/ns#Reproduction" />
        <cc:permits
           rdf:resource="http://creativecommons.org/ns#Distribution" />
        <cc:requires
           rdf:resource="http://creativecommons.org/ns#Notice" />
        <cc:requires
           rdf:resource="http://creativecommons.org/ns#Attribution" />
        <cc:permits
           rdf:resource="http://creativecommons.org/ns#DerivativeWorks" />
        <cc:requires
           rdf:resource="http://creativecommons.org/ns#ShareAlike" />
      </cc:License>
    </rdf:RDF>
  </metadata>
  <g
     inkscape:label="background"
     inkscape:groupmode="layer"
     id="layer1"
     transform="translate(-102.5816,-131.50693)"
     style="display:inline" />
  <g
     inkscape:groupmode="layer"
     id="layer2"
     inkscape:label="foreground"
     transform="translate(-102.5816,-139.30693)">
    <text
       id="text6629"
       y="145.55696"
       x="193.24222"
       style="font-style:normal;font-variant:normal;font-weight:normal;font-stretch:normal;font-size:1.37446px;line-height:125%;font-family:Ubuntu;-inkscape-font-specification:Ubuntu;letter-spacing:0px;word-spacing:0px;display:inline;fill:#800080;fill-opacity:1;stroke:#800080;stroke-width:0.0644276px;stroke-linecap:butt;stroke-linejoin:miter;stroke-opacity:1"
       xml:space="preserve"
       transform="scale(0.999688,1.0003121)"><tspan
         id="tspan6641"
         style="font-style:normal;font-variant:normal;font-weight:bold;font-stretch:normal;font-size:5.50767px;font-family:'Ubuntu Mono';-inkscape-font-specification:'Ubuntu Mono Bold';text-align:center;text-anchor:middle;fill:#800080;stroke:#800080;stroke-width:0.0644276px;stroke-opacity:1"
         y="145.55696"
         x="193.24222"
         sodipodi:role="line">Practicalli</tspan></text>
    <text
       transform="scale(0.9779647,1.0225318)"
       id="text26365"
       y="151.51787"
       x="163.41499"
       style="font-style:normal;font-variant:normal;font-weight:500;font-stretch:normal;font-size:11.3141px;line-height:125%;font-family:Ubuntu;-inkscape-font-specification:'Ubuntu Medium';letter-spacing:0px;word-spacing:0px;fill:#63b132;fill-opacity:1;stroke:#63b132;stroke-width:0.176783px;stroke-linecap:butt;stroke-linejoin:miter;stroke-opacity:1"
       xml:space="preserve"><tspan
         style="font-size:11.1915px;fill:#63b132;fill-opacity:1;stroke:#63b132;stroke-width:0.176783px;stroke-opacity:1"
         y="151.51787"
         x="163.41499"
         id="tspan26363"
         sodipodi:role="line">ClojureScript</tspan></text>
    <text
       xml:space="preserve"
       style="font-style:normal;font-variant:normal;font-weight:normal;font-stretch:normal;font-size:8.0524px;line-height:1.25;font-family:Impact;-inkscape-font-specification:Impact;letter-spacing:0px;word-spacing:0px;fill:#f2f2f2;fill-opacity:0.487545;stroke:#808080;stroke-width:0.252573;stroke-miterlimit:4;stroke-dasharray:none"
       x="42.276562"
       y="251.17097"
       id="text4687"
       transform="matrix(1.2597712,-0.38532197,0.22202407,0.72588519,0,0)"><tspan
         sodipodi:role="line"
         id="tspan4685"
         x="42.276562"
         y="251.17097"
         style="font-style:normal;font-variant:normal;font-weight:normal;font-stretch:normal;font-size:17.1785px;font-family:Impact;-inkscape-font-specification:Impact;fill:#f2f2f2;fill-opacity:0.487545;stroke:#808080;stroke-width:0.252573;stroke-miterlimit:4;stroke-dasharray:none">Alpha</tspan></text>
    <text
       xml:space="preserve"
       style="font-style:normal;font-variant:normal;font-weight:normal;font-stretch:normal;font-size:4.50928px;line-height:0%;font-family:Impact;-inkscape-font-specification:Impact;letter-spacing:0px;word-spacing:0px;fill:#000000;fill-opacity:1;stroke:#ffffff;stroke-width:0.19050001;stroke-linecap:butt;stroke-linejoin:miter;stroke-opacity:1;stroke-miterlimit:4;stroke-dasharray:none"
       x="128.27112"
       y="184.83624"
       id="text4194"><tspan
         sodipodi:role="line"
         id="tspan4196"
         x="128.27112"
         y="184.83624"
         style="font-style:normal;font-variant:normal;font-weight:normal;font-stretch:normal;font-size:7.51546px;line-height:1.25;font-family:Impact;-inkscape-font-specification:Impact;stroke-width:0.19050001;stroke:#ffffff;stroke-miterlimit:4;stroke-dasharray:none">ClojureScript</tspan></text>
    <text
       xml:space="preserve"
       style="font-style:normal;font-variant:normal;font-weight:normal;font-stretch:normal;font-size:4.50928px;line-height:0%;font-family:Impact;-inkscape-font-specification:Impact;letter-spacing:0px;word-spacing:0px;fill:#000000;fill-opacity:1;stroke:#ffffff;stroke-width:0.19050001;stroke-linecap:butt;stroke-linejoin:miter;stroke-opacity:1;stroke-miterlimit:4;stroke-dasharray:none"
       x="227.04298"
       y="184.83624"
       id="text4194-7-9-6-2"><tspan
         sodipodi:role="line"
         x="227.04298"
         y="184.83624"
         id="tspan4216-4-7-9"
         style="font-style:normal;font-variant:normal;font-weight:normal;font-stretch:normal;font-size:7.51546px;line-height:1.25;font-family:Impact;-inkscape-font-specification:Impact;stroke-width:0.19050001;stroke:#ffffff;stroke-miterlimit:4;stroke-dasharray:none">JavaScript</tspan></text>
    <path
       id="rect3336-2-2"
       style="fill:#9955ff;fill-opacity:1;stroke:#ccaaff;stroke-width:0.491929;stroke-miterlimit:4;stroke-dasharray:none"
       d="m 171.22189,177.28393 h 7.28236 v -0.0904 l 0.0353,0.0599 5.39588,-9.13071 -5.39588,-9.13019 -0.0353,0.0599 v -0.0884 h -7.28236 v 0.0806 l 5.37152,9.08989 -5.37152,9.08937 z" />
    <path
       id="rect3336-2-27-6"
       style="fill:#37c871;stroke:#aaffcc;stroke-width:0.498967;stroke-miterlimit:4;stroke-dasharray:none"
       d="m 212.8638,177.23615 h 7.4463 v -0.0905 l 0.0362,0.0598 5.5172,-9.18656 -5.5172,-9.1871 -0.0362,0.0603 v -0.0895 h -7.4463 v 0.0816 l 5.4926,9.146 -5.4926,9.14547 z" />
    <g
       transform="matrix(0.28718885,0,0,0.28718885,68.836915,141.40962)"
       id="g2253">
      <circle
         style="opacity:1;fill:#ffffff;fill-opacity:1;stroke:#ffffff;stroke-width:0.440435;stroke-linejoin:miter;stroke-miterlimit:4;stroke-dasharray:none;stroke-dashoffset:0;stroke-opacity:1"
         id="path1035"
         cx="447.66296"
         cy="93.000542"
         r="33.34724" />
      <path
         inkscape:connector-curvature="0"
         d="m 446.89587,109.48237 c -0.81719,-0.90614 -2.85768,-2.67261 -4.53442,-3.92554 -4.96805,-3.71232 -5.6442,-4.24958 -7.66134,-6.08743 -3.71871,-3.388186 -5.29798,-6.792209 -5.29256,-11.407814 0.002,-2.253147 0.15783,-3.121201 0.79552,-4.449304 1.08188,-2.253269 2.67554,-3.92761 4.71303,-4.951657 1.44309,-0.725298 2.15482,-1.047526 4.56467,-1.060709 2.52088,-0.01427 3.05155,0.27705 4.53442,1.083127 1.80491,0.981136 3.66267,3.077991 4.0467,4.567518 l 0.23718,0.919967 0.58492,-1.267011 c 3.30532,-7.159847 13.85803,-7.052736 17.53043,0.178045 1.16499,2.29379 1.29289,7.191576 0.25984,9.95047 -1.34755,3.598879 -3.87861,6.3426 -9.72953,10.547088 -3.83714,2.75737 -8.1799,6.92933 -8.48221,7.51529 -0.35094,0.6802 -0.0167,0.1065 -1.56665,-1.61196 z"
         id="path2417-7-9-3"
         style="fill:#c80000;fill-opacity:1;stroke:#9200bd;stroke-width:4.35224;stroke-miterlimit:4;stroke-dasharray:none;stroke-opacity:1" />
      <g
         style="fill:#ff0000;fill-opacity:1;stroke:#9200ff;stroke-width:73.7524;stroke-miterlimit:4;stroke-dasharray:none;stroke-opacity:1;filter:url(#filter2607-3)"
         transform="matrix(0.05932419,0,0,0.05870038,436.92872,73.372597)"
         id="g2221-5-3-5" />
      <path
         style="fill:#c80000;fill-opacity:1;stroke:#c80000;stroke-width:1.07798;stroke-miterlimit:10;stroke-dasharray:none;stroke-opacity:1"
         inkscape:connector-curvature="0"
         stroke-miterlimit="10"
         d="m 445.51097,120.03789 c -13.93891,-1.23801 -24.91273,-12.99132 -24.91273,-27.251167 0,-14.259872 10.97382,-25.997898 24.91273,-27.235901 v -3.072074 c -15.6354,1.253286 -27.96952,14.366861 -27.96952,30.323237 0,15.956385 12.33412,29.069955 27.96952,30.323245 z"
         id="path945-2-0-2" />
      <path
         style="fill:#9200bd;fill-opacity:1;stroke:#9200bd;stroke-width:1.07798;stroke-miterlimit:10;stroke-dasharray:none;stroke-opacity:1"
         inkscape:connector-curvature="0"
         stroke-miterlimit="10"
         d="m 450.40182,62.478748 v 3.072074 c 13.93891,1.238003 24.91273,12.991313 24.91273,27.251163 0,14.259875 -10.97382,26.013185 -24.91273,27.251185 v 3.07206 c 15.63543,-1.25329 27.96952,-14.36686 27.96952,-30.323245 0,-15.956376 -12.33409,-29.069951 -27.96952,-30.323237 z"
         id="path947-7-6-9" />
      <rect
         style="fill:#c80000;fill-opacity:1;stroke:#c80000;stroke-width:0.814385;stroke-miterlimit:10;stroke-dasharray:none;stroke-opacity:1"
         id="rect13839"
         width="12.66878"
         height="2.9914873"
         x="94.043129"
         y="407.45468"
         transform="matrix(0.61749626,-0.78657382,0.93331708,0.35905323,0,0)"
         inkscape:transform-center-x="-1.2027129"
         inkscape:transform-center-y="0.13363477" />
      <rect
         style="fill:#9200bd;fill-opacity:1;stroke:#9200bd;stroke-width:0.814385;stroke-miterlimit:10;stroke-dasharray:none;stroke-opacity:1"
         id="rect13839-2"
         width="12.66878"
         height="2.9914873"
         x="48.601246"
         y="446.71939"
         transform="matrix(0.61749626,-0.78657382,0.93331708,0.35905323,0,0)"
         inkscape:transform-center-x="-1.2027129"
         inkscape:transform-center-y="0.13363477" />
    </g>
    <text
       xml:space="preserve"
       style="font-style:normal;font-variant:normal;font-weight:normal;font-stretch:normal;font-size:4.50928px;line-height:0%;font-family:Impact;-inkscape-font-specification:Impact;letter-spacing:0px;word-spacing:0px;fill:#000000;fill-opacity:1;stroke:#ffffff;stroke-width:0.19050001;stroke-linecap:butt;stroke-linejoin:miter;stroke-opacity:1;stroke-miterlimit:4;stroke-dasharray:none"
       x="183.55144"
       y="184.70047"
       id="text4194-2"><tspan
         sodipodi:role="line"
         id="tspan4196-2"
         x="183.55144"
         y="184.70047"
         style="font-style:normal;font-variant:normal;font-weight:normal;font-stretch:normal;font-size:7.51546px;line-height:1.25;font-family:Impact;-inkscape-font-specification:Impact;stroke-width:0.19050001;stroke-miterlimit:4;stroke-dasharray:none;stroke:#ffffff">Figwheel</tspan></text>
    <g
       id="g10749"
       transform="translate(0,0.52916669)">
      <g
         id="g6197"
         transform="matrix(0.04631215,0,0,0.04631215,132.27268,157.23492)">
        <g
           id="g6177">
          <path
             fill="#96ca4b"
             d="m 122,266.6 c -12.7,0 -22.3,-3.7 -28.9,-11.1 -6.6,-7.4 -9.9,-18 -9.9,-31.8 0,-14.1 3.4,-24.9 10.3,-32.5 6.9,-7.6 16.8,-11.4 29.9,-11.4 8.8,0 16.8,1.6 23.8,4.9 l -5.4,14.3 c -7.5,-2.9 -13.7,-4.4 -18.6,-4.4 -14.5,0 -21.7,9.6 -21.7,28.8 0,9.4 1.8,16.4 5.4,21.2 3.6,4.7 8.9,7.1 15.9,7.1 7.9,0 15.4,-2 22.5,-5.9 v 15.5 c -3.2,1.9 -6.6,3.2 -10.2,4 -3.6,0.9 -8,1.3 -13.1,1.3 z"
             id="path6169" />
          <path
             fill="#96ca4b"
             d="M 194.4,265.1 H 176.6 V 147.3 h 17.8 z"
             id="path6171" />
          <path
             fill="#5f7fbf"
             d="m 222.9,302.3 c -5.3,0 -9.8,-0.6 -13.3,-1.9 v -14.1 c 3.4,0.9 6.9,1.4 10.5,1.4 7.6,0 11.4,-4.3 11.4,-12.9 v -93.5 h 17.8 V 276 c 0,8.6 -2.3,15.2 -6.8,19.6 -4.6,4.5 -11.1,6.7 -19.6,6.7 z m 7.5,-143.1 c 0,-3.2 0.9,-5.6 2.6,-7.3 1.7,-1.7 4.2,-2.6 7.5,-2.6 3.1,0 5.6,0.9 7.3,2.6 1.7,1.7 2.6,4.2 2.6,7.3 0,3 -0.9,5.4 -2.6,7.2 -1.7,1.7 -4.2,2.6 -7.3,2.6 -3.2,0 -5.7,-0.9 -7.5,-2.6 -1.8,-1.8 -2.6,-4.2 -2.6,-7.2 z"
             id="path6173" />
          <path
             fill="#5f7fbf"
             d="m 342.5,241.3 c 0,8.2 -3,14.4 -8.9,18.8 -6,4.4 -14.5,6.5 -25.6,6.5 -11.2,0 -20.1,-1.7 -26.9,-5.1 v -15.4 c 9.8,4.5 19,6.8 27.5,6.8 10.9,0 16.4,-3.3 16.4,-9.9 0,-2.1 -0.6,-3.9 -1.8,-5.3 -1.2,-1.4 -3.2,-2.9 -6,-4.4 -2.8,-1.5 -6.6,-3.2 -11.6,-5.1 -9.6,-3.7 -16.2,-7.5 -19.6,-11.2 -3.4,-3.7 -5.1,-8.6 -5.1,-14.5 0,-7.2 2.9,-12.7 8.7,-16.7 5.8,-4 13.6,-5.9 23.6,-5.9 9.8,0 19.1,2 27.9,6 l -5.8,13.4 c -9,-3.7 -16.6,-5.6 -22.8,-5.6 -9.4,0 -14.1,2.7 -14.1,8 0,2.6 1.2,4.8 3.7,6.7 2.4,1.8 7.8,4.3 16,7.5 6.9,2.7 11.9,5.1 15.1,7.3 3.1,2.2 5.4,4.8 7,7.7 1.5,2.8 2.3,6.3 2.3,10.4 z"
             id="path6175" />
        </g>
        <path
           fill="#96ca4b"
           stroke="#96ca4b"
           stroke-width="6"
           stroke-miterlimit="10"
           d="M 197,392.7 C 105.8,384.6 34,307.7 34,214.4 34,121.1 105.8,44.3 197,36.2 V 16.1 C 94.7,24.3 14,110.1 14,214.5 14,318.9 94.7,404.7 197,412.9 Z"
           id="path6179" />
        <path
           fill="#5f7fbf"
           stroke="#5f7fbf"
           stroke-width="6"
           stroke-miterlimit="10"
           d="m 229,16.1 v 20.1 c 91.2,8.1 163,85 163,178.3 0,93.3 -71.8,170.2 -163,178.3 v 20.1 C 331.3,404.7 412,318.9 412,214.5 412,110.1 331.3,24.3 229,16.1 Z"
           id="path6181" />
      </g>
      <g
         id="g10667"
         transform="matrix(1.114269,0,0,1.114269,13.625514,-18.308617)">
        <path
           d="m 124.94382,173.49999 h 8.07826 c 0.49133,0 0.8292,-0.13229 0.98266,-0.37041 0.15346,-0.26459 0.12303,-0.55563 -0.15346,-0.92604 l -3.53219,-4.78896 v -2.40771 h 0.46064 c 0.12303,0 0.21511,-0.0265 0.30718,-0.10583 0.0921,-0.0794 0.12277,-0.15875 0.12277,-0.26459 0,-0.10583 -0.0307,-0.18521 -0.12277,-0.26458 -0.0921,-0.0794 -0.18415,-0.10583 -0.30691,-0.10583 h -3.5941 c -0.12303,0 -0.21511,0.0264 -0.30718,0.10583 -0.0921,0.0794 -0.12277,0.15875 -0.12277,0.26458 0,0.10584 0.0307,0.18521 0.12277,0.26459 0.0921,0.0794 0.18415,0.10583 0.30691,0.10583 h 0.46091 v 2.40771 l -3.53219,4.78896 c -0.27649,0.37041 -0.30692,0.66145 -0.15346,0.92604 0.18415,0.23812 0.52202,0.37041 0.98266,0.37041 z m 3.4708,-5.68854 0.15346,-0.18521 v -2.61937 h 0.89112 v 2.61937 l 0.15346,0.18521 3.56314,4.92125 h -8.29337 z"
           fill="#303c3c"
           id="path10630"
           style="stroke-width:0.264583" />
        <path
           fill="#00d8ff"
           d="m 130.01191,169.10791 h -2.05793 l -2.3958,3.33375 h 6.88023 z"
           id="path10632"
           style="stroke-width:0.264583" />
        <path
           d="m 129.13048,163.08699 a 0.76065958,0.74312519 0 1 1 -1.52117,0 0.76065958,0.74312519 0 1 1 1.52117,0 z"
           fill="#00d8ff"
           stroke="#00d8ff"
           id="path10634"
           style="stroke-width:0.147709" />
        <path
           d="m 130.36328,161.17676 a 0.61515627,0.61515627 0 1 1 -1.23031,0 0.61515627,0.61515627 0 1 1 1.23031,0 z"
           fill="#00d8ff"
           stroke="#00d8ff"
           stroke-width="0.120915"
           id="path10636" />
        <path
           d="m 128.89722,159.42945 a 0.309695,0.309695 0 1 0 -0.61939,0 0.309695,0.309695 0 1 0 0.61939,0 z"
           fill="#00d8ff"
           stroke="#00d8ff"
           stroke-width="0.0608542"
           id="path10638" />
      </g>
    </g>
    <g
       id="g10721"
       transform="translate(0,0.52916669)">
      <g
         id="g5193"
         transform="matrix(0.05485447,0,0,0.05485447,229.81308,152.92939)">
        <path
           id="path5113"
           class="st0"
           d="M 18.8,375.4 -5,113.4 251.4,113.5 227.8,375.2 123,404.8 Z m 189.7,-14.3 19.9,-224.4 h -105 l 0.8,247.5 z M 113.6,169.6 H 88.1 l -0.3,134.3 -49.5,-13.5 0.1,30.7 75.2,20.3 z" />
        <path
           id="path5159"
           class="st1"
           d="m 105.2,338.9 c -3.3,-1 -19.6,-5.4 -36.2,-9.9 l -30.1,-8.1 v -15.1 c 0,-14.8 0,-15.1 1.5,-14.6 0.8,0.3 11.8,3.3 24.4,6.8 l 22.9,6.3 0.2,-67 0.2,-67 h 25 v 85.2 c 0,67.7 -0.2,85.2 -0.9,85.2 -0.5,-0.1 -3.7,-0.9 -7,-1.8 z" />
        <path
           id="path5157"
           class="st2"
           d="m 38.4,321.1 -0.1,-30.7 c 0,0 31.6,8.9 49.5,13.5 l 0.3,-134.2 h 25.5 v 171.7 z" />
        <path
           id="path5117"
           class="st3"
           d="m 123.4,136.6 h 105 L 208.5,361 123.4,384.1 Z m 79.7,186.8 6.9,-83.9 -51,5.7 v -44.8 l 54.4,-0.2 2.2,-30.6 -82.1,0.4 1.1,111.4 49.6,-8.5 -0.7,24.8 -50,13.3 0.5,30.4 z" />
      </g>
      <g
         id="g10709"
         transform="matrix(0.05325374,0,0,0.05325374,243.97137,161.05705)">
        <path
           d="m 0.75412411,114.75034 c 0,19.21434 18.76247889,37.15171 48.34307589,47.26218 -5.906969,29.73771 -1.058633,53.7061 15.13534,63.04558 16.645727,9.5991 41.44376,2.95452 64.98045,-17.61928 22.94287,19.74325 46.13074,27.51321 62.30962,18.14718 16.62945,-9.62696 21.68777,-35.221 15.61744,-65.88691 30.80976,-10.18643 48.04389,-25.48149 48.04389,-44.94875 0,-18.768874 -18.79729,-35.006478 -47.97892,-45.052348 6.53495,-31.93328 0.9977,-55.320056 -15.8666,-65.045237 -16.25896,-9.375677 -39.716,-1.2038186 -62.99629,19.056504 C 104.12294,2.2045276 80.897347,-4.3611367 64.049392,5.3923895 47.806238,14.794736 43.17111,39.198696 49.0972,69.486941 20.515429,79.452202 0.75412411,96.056526 0.75412411,114.75034 Z"
           fill="#ffffff"
           id="path10689" />
        <path
           d="m 201.02455,79.674118 c -2.34402,-0.806812 -4.7729,-1.570187 -7.27378,-2.292135 0.41105,-1.677575 0.78831,-3.33343 1.12375,-4.961132 5.50611,-26.727365 1.90602,-48.259116 -10.38721,-55.348285 -11.78766,-6.797575 -31.06548,0.289985 -50.53516,17.233847 -1.87224,1.629311 -3.74971,3.354344 -5.62637,5.162231 -1.25044,-1.196141 -2.49886,-2.352063 -3.74407,-3.457709 C 104.17692,17.893455 83.724267,10.258501 71.443105,17.368182 59.666702,24.185464 56.17923,44.427362 61.135535,69.757084 c 0.478617,2.44658 1.038077,4.945043 1.670737,7.485335 -2.89463,0.821694 -5.689113,1.697685 -8.362935,2.629581 -23.922426,8.340412 -39.200377,21.4119 -39.200377,34.97044 0,14.00339 16.400892,28.049 41.317958,36.56557 1.966353,0.67208 4.006711,1.30755 6.10941,1.91085 -0.682532,2.74743 -1.276179,5.43975 -1.774504,8.06571 -4.725844,24.89012 -1.035262,44.6538 10.709769,51.42805 12.131545,6.99586 32.491687,-0.19507 52.317307,-17.52504 1.56697,-1.36989 3.13957,-2.82264 4.71499,-4.34536 2.04197,1.96635 4.08071,3.82733 6.1086,5.57287 19.20342,16.52517 38.16995,23.19807 49.90412,16.40492 12.11948,-7.01597 16.05822,-28.24688 10.94465,-54.07774 -0.39054,-1.97279 -0.84502,-3.98821 -1.35541,-6.03943 1.42982,-0.42271 2.83349,-0.8591 4.20218,-1.31278 25.90366,-8.58253 42.75743,-22.45721 42.75743,-36.64762 0,-13.60761 -15.77065,-26.767178 -40.17491,-35.168322 z"
           fill="#53c1de"
           id="path10691" />
        <path
           d="m 195.40623,142.32755 c -1.23556,0.40904 -2.50329,0.8044 -3.79516,1.1877 -2.85964,-9.05311 -6.71914,-18.67976 -11.44217,-28.62575 4.50705,-9.7091 8.21734,-19.212667 10.99694,-28.207055 2.31144,0.668857 4.55491,1.374315 6.71673,2.118787 20.90955,7.198165 33.6641,17.840768 33.6641,26.041208 0,8.73497 -13.77453,20.07418 -36.14044,27.48511 z m -9.28035,18.38937 c 2.26116,11.42206 2.58413,21.74894 1.08634,29.82189 -1.34576,7.25407 -4.05216,12.09052 -7.39846,14.02751 -7.12095,4.12174 -22.34902,-1.23596 -38.77204,-15.36844 -1.88269,-1.62006 -3.77907,-3.34992 -5.68147,-5.18074 6.36682,-6.96328 12.73002,-15.05835 18.94038,-24.04871 10.92334,-0.9693 21.24338,-2.55397 30.60216,-4.7174 0.46092,1.85937 0.87036,3.68294 1.22309,5.46589 z m -93.849242,43.13711 c -6.957248,2.45703 -12.49835,2.52742 -15.847868,0.59606 -7.127378,-4.11089 -10.090382,-19.97927 -6.048679,-41.26527 0.462932,-2.43774 1.013945,-4.94183 1.649018,-7.50143 9.25622,2.0468 19.500644,3.51965 30.450121,4.40731 6.2522,8.79731 12.7992,16.88353 19.39688,23.96385 -1.44148,1.39161 -2.87734,2.71645 -4.30514,3.96488 -8.76675,7.66311 -17.55199,13.10004 -25.294332,15.8346 z M 59.68279,142.27406 c -11.017854,-3.76579 -20.116814,-8.66016 -26.353722,-14.00097 -5.604248,-4.79944 -8.433722,-9.5643 -8.433722,-13.43065 0,-8.22779 12.266684,-18.722383 32.725367,-25.855392 2.482376,-0.865533 5.080987,-1.681194 7.777735,-2.447384 2.827462,9.197499 6.536547,18.813686 11.012625,28.537666 -4.533995,9.86837 -8.295767,19.63779 -11.150982,28.94308 -1.922514,-0.55262 -3.7851,-1.1342 -5.577301,-1.74635 z M 70.608541,67.903346 c -4.246423,-21.701882 -1.4262,-38.073011 5.670611,-42.181077 7.55934,-4.376333 24.275158,1.86339 41.893108,17.506941 1.12615,0.999868 2.25674,2.046391 3.39054,3.129112 -6.56511,7.049351 -13.05218,15.074841 -19.24887,23.820267 -10.626917,0.984987 -20.799347,2.56724 -30.152095,4.686027 -0.588016,-2.365336 -1.108864,-4.689244 -1.553294,-6.96127 z m 97.467419,24.067218 c -2.23582,-3.86192 -4.53118,-7.63254 -6.87117,-11.300198 7.20943,0.911384 14.1168,2.1212 20.60347,3.601697 -1.94745,6.241332 -4.37472,12.76702 -7.23195,19.456807 -2.0496,-3.891283 -4.21746,-7.81474 -6.50035,-11.758306 z M 128.329,53.256848 c 4.45235,4.823579 8.91113,10.209031 13.29672,16.052186 -4.41937,-0.208742 -8.89344,-0.317336 -13.40451,-0.317336 -4.46844,0 -8.90952,0.106181 -13.30154,0.311303 4.39001,-5.788858 8.8874,-11.16707 13.40933,-16.046153 z M 88.327441,92.037329 c -2.233414,3.872779 -4.36105,7.774919 -6.378483,11.684301 -2.810972,-6.666459 -5.215723,-13.22191 -7.180066,-19.551726 6.446857,-1.44269 13.321653,-2.622341 20.485229,-3.51643 -2.372977,3.701442 -4.687233,7.499814 -6.92668,11.383051 z m 7.133008,57.682651 c -7.401275,-0.82572 -14.379437,-1.94463 -20.824685,-3.34751 1.995714,-6.44283 4.453556,-13.13825 7.324054,-19.94829 2.022661,3.90657 4.158743,7.81031 6.405832,11.69154 h 4.02e-4 c 2.288917,3.95402 4.660286,7.8272 7.094397,11.60426 z m 33.135611,27.38858 c -4.57502,-4.93619 -9.13838,-10.39645 -13.59515,-16.26977 4.32646,0.16972 8.73738,0.2566 13.2203,0.2566 4.60559,0 9.15848,-0.10377 13.63979,-0.30326 -4.40006,5.9791 -8.84276,11.44781 -13.26494,16.31643 z m 46.07236,-51.03148 c 3.02011,6.88365 5.56604,13.54407 7.58749,19.87711 -6.55143,1.49457 -13.62491,2.69835 -21.07767,3.59285 2.34563,-3.71713 4.66109,-7.55251 6.93634,-11.49768 2.30179,-3.99143 4.48734,-7.98889 6.55384,-11.97228 z m -14.91517,7.14991 c -3.53212,6.12429 -7.15835,11.97066 -10.83968,17.48924 -6.70507,0.47942 -13.63215,0.72637 -20.69236,0.72637 -7.03165,0 -13.87146,-0.21839 -20.45788,-0.64593 -3.82974,-5.59098 -7.5348,-11.45464 -11.044398,-17.517 h 8.04e-4 c -3.500343,-6.04586 -6.721961,-12.1428 -9.641125,-18.20556 2.91836,-6.07683 6.131532,-12.18061 9.611765,-18.215615 l -8.05e-4,0.0012 c 3.489479,-6.051091 7.161969,-11.886202 10.956319,-17.442187 6.71995,-0.507977 13.61083,-0.773027 20.57492,-0.773027 h 4e-4 c 6.99546,0 13.89519,0.26706 20.61313,0.779463 3.73643,5.515362 7.38398,11.331569 10.88714,17.383466 3.54297,6.11986 6.79757,12.18302 9.74087,18.12954 -2.93445,6.04868 -6.18181,12.17297 -9.7091,18.29003 v 0 z m 19.9125,-107.791892 c 7.56658,4.363463 10.50907,21.961301 5.75507,45.037499 -0.30326,1.472452 -0.64473,2.972254 -1.01555,4.492167 -9.37447,-2.16303 -19.55414,-3.772632 -30.21203,-4.7725 -6.20875,-8.841552 -12.64274,-16.87951 -19.10085,-23.838366 1.73629,-1.670335 3.47017,-3.263045 5.19682,-4.766064 16.68162,-14.517393 32.27289,-20.249138 39.37654,-16.152736 z"
           fill="#ffffff"
           id="path10693" />
        <path
           d="m 128.22121,94.665301 c 11.14334,0 20.17714,9.033399 20.17714,20.177139 0,11.14334 -9.0338,20.17715 -20.17714,20.17715 -11.14334,0 -20.17714,-9.03381 -20.17714,-20.17715 0,-11.14374 9.0338,-20.177139 20.17714,-20.177139"
           fill="#53c1de"
           id="path10695" />
      </g>
    </g>
  </g>
  <style
     id="style10669">.st0{fill:#d4b830}.st1,.st2{opacity:.986;fill:#ebebeb;fill-opacity:0;enable-background:new}.st2{fill-opacity:.9216}.st3{fill:#fdd83c}</style>
</svg>
