<svg xmlns="http://www.w3.org/2000/svg" xmlns:xlink="http://www.w3.org/1999/xlink" viewBox="0 0 111 41" fill="#fff" fill-rule="evenodd" stroke="#000" stroke-linecap="round" stroke-linejoin="round"><style><![CDATA[.B{fill-rule:nonzero}.C{fill:#f58534}]]></style><use xlink:href="#A" x=".5" y=".5"/><symbol id="A" overflow="visible"><g stroke="none"><g fill="#9d5125" class="B"><path d="M37.919 20.512a18.97 18.97 0 0 1-18.96 18.96A18.97 18.97 0 0 1 0 20.512a18.97 18.97 0 0 1 18.96-18.96 18.97 18.97 0 0 1 18.96 18.96z"/><path d="M0 20.512V18.96h37.919v1.552z"/></g><path d="M37.919 18.96a18.97 18.97 0 0 1-18.96 18.96A18.97 18.97 0 0 1 0 18.96 18.97 18.97 0 0 1 18.96 0a18.97 18.97 0 0 1 18.96 18.96z" class="B C"/><path d="M17.722 16.905L16.422 5.6h5.076l-1.321 11.305z" class="B"/><path d="M30.893 24.412l-3.544-5.306-7.76-2.706-.629 4.279 6.984.671 3.985 3.859zm-23.867 0l3.544-5.306 7.76-2.706.629 4.279-7.005.671-3.964 3.859zM22.483 5.6a3.52 3.52 0 0 1-7.047 0 3.52 3.52 0 0 1 3.524-3.523c1.95.021 3.523 1.594 3.523 3.524z" class="B"/><path d="M18.96 2.412c-1.762 0-3.209 1.447-3.209 3.209S17.198 8.83 18.96 8.83s3.209-1.447 3.209-3.209a3.21 3.21 0 0 0-3.209-3.209zm0 7.026A3.84 3.84 0 0 1 15.122 5.6a3.84 3.84 0 0 1 3.838-3.838A3.84 3.84 0 0 1 22.798 5.6a3.84 3.84 0 0 1-3.838 3.838zM20.114 5.6c0 .629-.524 1.154-1.153 1.154s-1.154-.524-1.154-1.154.524-1.153 1.154-1.153c.629.021 1.153.524 1.153 1.153z" class="B C"/><path d="M21.498 18.498a2.54 2.54 0 0 1-2.538 2.538 2.54 2.54 0 0 1-2.538-2.538 2.54 2.54 0 0 1 2.538-2.538 2.54 2.54 0 0 1 2.538 2.538z" class="B"/><path d="M18.959 16.275c-1.237 0-2.223 1.007-2.223 2.223 0 1.237 1.007 2.223 2.223 2.223 1.237 0 2.223-1.007 2.223-2.223a2.24 2.24 0 0 0-2.223-2.223zm0 5.075c-1.573 0-2.852-1.279-2.852-2.852s1.279-2.852 2.852-2.852 2.852 1.279 2.852 2.852-1.279 2.852-2.852 2.852zm.776-2.852c0 .441-.357.776-.776.776-.44 0-.776-.357-.776-.776 0-.44.357-.776.776-.776a.79.79 0 0 1 .776.776z" class="B C"/><path d="M10.78 33.389V24.35h16.359v9.039z" class="B"/><path d="M11.598 32.655v-7.571h1.237v7.571zm2.244 0v-7.571h1.237v7.571zm2.244 0v-7.571h1.237v7.571zm2.244 0v-7.571h1.237v7.571zm2.244 0v-7.571h1.258v7.571zm2.244 0v-7.571h1.258v7.571zm2.244 0v-7.571h1.258v7.571z" fill="#fcbf92" class="B"/><path d="M45.884 15.786l2.93 7.848H47.03l-.596-1.758h-2.956l-.612 1.758h-1.732l2.98-7.848zm.102 4.816l-.994-2.88h-.025l-1.02 2.88zm4.868-2.65v.764h.025c.204-.306.46-.5.74-.688.28-.153.612-.23.994-.23.357 0 .688.076.994.204s.535.382.688.74c.178-.255.408-.46.688-.663a1.91 1.91 0 0 1 1.02-.28c.306 0 .586.025.84.102s.484.178.663.357c.178.153.33.382.433.637s.153.586.153.943v3.798h-1.554V20.4l-.025-.535c-.025-.178-.05-.306-.127-.433a.81.81 0 0 0-.28-.306c-.127-.076-.306-.102-.535-.102a1.03 1.03 0 0 0-.866.458 1.23 1.23 0 0 0-.153.46l-.05.535v3.16h-1.568v-3.695c0-.153-.05-.306-.102-.46-.05-.127-.153-.255-.28-.33s-.306-.127-.56-.127a1.34 1.34 0 0 0-.28.05c-.127.025-.23.102-.357.178a1.27 1.27 0 0 0-.28.408c-.076.178-.127.408-.127.688v3.313h-1.544V17.98h1.452zm8.663.84c.153-.255.357-.433.612-.586a2.38 2.38 0 0 1 .841-.306c.306-.05.637-.102.943-.102.28 0 .586.025.866.05.306.05.56.127.815.23a1.57 1.57 0 0 1 .586.484c.153.204.23.484.23.84v2.956a6.74 6.74 0 0 0 .051.739c.025.23.076.408.153.535h-1.58l-.076-.28c-.025-.102-.025-.178-.05-.28-.255.255-.535.433-.892.535-.33.102-.688.153-1.045.153-.28 0-.535-.025-.764-.102a2.29 2.29 0 0 1-.612-.306c-.178-.127-.306-.306-.408-.535-.102-.204-.153-.46-.153-.764 0-.33.05-.586.178-.8s.255-.382.433-.5a1.68 1.68 0 0 1 .612-.28l.688-.153c.23-.025.46-.076.688-.076.207-.017.411-.051.612-.102.18-.052.306-.102.408-.204.102-.076.153-.204.153-.357 0-.178-.025-.306-.076-.408a.5.5 0 0 0-.229-.229c-.102-.05-.204-.102-.33-.102-.127-.025-.255-.025-.382-.025-.306 0-.56.076-.713.204-.178.127-.28.357-.306.663h-1.554c.05-.357.153-.663.306-.892zm3.083 2.2l-.33.076c-.102.025-.23.05-.357.05-.127.025-.255.025-.382.05l-.357.076a.86.86 0 0 0-.306.153.88.88 0 0 0-.204.229.74.74 0 0 0-.076.357c0 .127.025.255.076.357a.6.6 0 0 0 .204.229.85.85 0 0 0 .306.127c.127.025.23.025.357.025.306 0 .535-.05.713-.153s.306-.23.382-.357a1.5 1.5 0 0 0 .153-.433c.026-.153.025-.255.025-.357v-.585c-.025.076-.102.127-.204.153zm5.63-1.86h-2.752V17.96h4.8v1.172l-2.956 3.338h3.16v1.166h-5.198v-1.172zm3.136.426a2.37 2.37 0 0 1 .586-.943c.255-.255.56-.46.917-.612s.764-.204 1.198-.204a3.73 3.73 0 0 1 1.223.204c.357.153.663.357.917.612s.46.586.586.943c.127.382.204.8.204 1.25a3.64 3.64 0 0 1-.204 1.223c-.128.357-.33.688-.586.943s-.56.46-.917.612c-.357.127-.764.204-1.223.204s-.84-.076-1.198-.204a2.24 2.24 0 0 1-.917-.612c-.255-.255-.46-.586-.586-.943a3.73 3.73 0 0 1-.204-1.223 3.88 3.88 0 0 1 .204-1.25zm1.427 1.9c.05.204.127.408.23.586s.255.306.433.408a1.34 1.34 0 0 0 .663.153 1.34 1.34 0 0 0 .663-.153c.178-.102.33-.23.433-.408a2.01 2.01 0 0 0 .229-.586 2.83 2.83 0 0 0 .076-.663c.001-.223-.024-.446-.076-.663a2.01 2.01 0 0 0-.229-.586c-.102-.178-.255-.306-.433-.408a1.34 1.34 0 0 0-.663-.153 1.34 1.34 0 0 0-.663.153c-.178.102-.306.255-.433.408a2.01 2.01 0 0 0-.229.586c-.05.23-.076.433-.076.663a2.94 2.94 0 0 0 .076.663zm6.75-3.516v.8h.025c.204-.33.46-.56.764-.713s.637-.23.968-.23c.408 0 .764.05 1.02.178a1.52 1.52 0 0 1 .637.484c.153.204.255.46.33.74a5.38 5.38 0 0 1 .102.968v3.467h-1.555v-3.2c0-.46-.076-.815-.23-1.045s-.408-.357-.8-.357c-.433 0-.74.127-.917.382s-.28.663-.28 1.25v2.98h-1.553v-5.682zm14.144-2.156v1.452h-4.153v1.682h3.797v1.35h-3.797v1.937h4.23v1.452h-5.963v-7.848h5.886zm6.294 2.1a2.03 2.03 0 0 0-.382-.433c-.153-.127-.33-.23-.535-.28-.204-.076-.408-.102-.612-.102-.382 0-.713.076-.994.23s-.484.357-.663.612-.28.535-.357.866-.127.663-.127.994.045.652.127.968c.077.305.204.586.357.84.178.255.382.46.663.612s.612.23.994.23c.535 0 .943-.153 1.25-.484s.484-.74.535-1.274h1.682c-.05.484-.153.943-.33 1.325a3 3 0 0 1-.739 1.019c-.306.28-.663.484-1.045.637s-.84.23-1.325.23c-.612 0-1.147-.102-1.63-.306s-.892-.484-1.223-.866a3.99 3.99 0 0 1-.764-1.3c-.178-.484-.255-1.02-.255-1.605s.076-1.12.255-1.63a4.02 4.02 0 0 1 .764-1.325c.33-.382.74-.663 1.223-.892.484-.204 1.02-.33 1.63-.33a3.84 3.84 0 0 1 1.223.178 3.68 3.68 0 0 1 1.045.535c.306.23.56.535.764.892s.33.764.382 1.223h-1.682c-.076-.204-.127-.408-.23-.56zm7.338-2.1c.357 0 .663.05.943.178s.535.28.74.46c.204.204.357.433.46.688s.153.535.153.84c0 .46-.102.866-.28 1.198s-.5.586-.943.764v.025a1.34 1.34 0 0 1 .535.28c.127.127.255.255.33.433a3.32 3.32 0 0 1 .204.535 2.47 2.47 0 0 1 .076.586c0 .127.025.28.025.433 0 .178.025.33.05.5l.076.5c.05.153.102.28.178.408h-1.732c-.102-.255-.153-.535-.178-.892l-.102-.994c-.05-.408-.178-.713-.382-.892-.178-.178-.5-.28-.943-.28h-1.733v3.08h-1.733v-7.85zm-.612 3.542c.408 0 .688-.076.892-.255s.306-.46.306-.866c0-.382-.102-.663-.306-.84s-.484-.255-.892-.255h-1.886v2.217z" class="B C"/></g></symbol></svg>