<svg xmlns="http://www.w3.org/2000/svg" xmlns:xlink="http://www.w3.org/1999/xlink" viewBox="0 0 58 66" fill="#fff" fill-rule="evenodd" stroke="#000" stroke-linecap="round" stroke-linejoin="round"><use xlink:href="#A" x=".5" y=".5"/><symbol id="A" overflow="visible"><g stroke="none" fill-rule="nonzero"><path d="M28.267 64l28.295-19.977-28.266-4.13L0 44.053z" fill="#b7ca9d"/><path d="M5.648 12.387v31.18l4.797 1.427L21.679 27.78 10.445 10.535z" fill="#4c622c"/><path d="M27.356 14.36v27.72l-16.9 2.975v-34.52z" fill="#759c3f"/><path d="M39.348 25.2l-19.52 22.68-6.62-2.004V3.32l6.62-3.3z" fill="#4c622c"/><path d="M42.415 8.805v33.822L19.827 47.92V0z" fill="#759c3f"/><path d="M28.267 64v-9.928L.002 44.053v5.8z" fill="#4c622c"/><path d="M56.562 44.023v5.83L28.267 64v-9.928z" fill="#759c3f"/><path d="M28.267 50.398l20.342-16h-6.86l-19.522 1.336z" fill="#b7ca9d"/><path d="M22.225 35.734v12.842l6.042 1.822V36.372z" fill="#4c622c"/><path d="M48.608 44.296v-9.898L28.266 36.37v14.027z" fill="#759c3f"/></g></symbol></svg>