<svg xmlns="http://www.w3.org/2000/svg" xmlns:xlink="http://www.w3.org/1999/xlink" viewBox="0 0 65 61" fill="#fff" fill-rule="evenodd" stroke="#000" stroke-linecap="round" stroke-linejoin="round"><use xlink:href="#A" x=".5" y=".5"/><symbol id="A" overflow="visible"><g stroke="none" fill-rule="nonzero"><path d="M3.426 55.751l13.505-24.881L3.426 3.992 0 5.688v48.366zm32.798-39.285l-22.387-3.759 5.056-7.118 22.62 10.046zm.266 26.711L9.946 47.535l5.555 7.651 26.013-11.243z" fill="#9d5125"/><path d="M11.409 5.822v48.067l-7.983 1.863V3.992z" fill="#f58534"/><path d="M11.409 59.742l-4.191-2.096V2.096L11.409 0l7.884 33.231zm30.104-44.108l-5.322.832V43.11l5.322.832 4.856-13.538z" fill="#9d5125"/><g fill="#f58534"><path d="M19.56 2.329v55.118l-8.15 2.295V0z"/><path d="M47.069 49.663v-6.753L11.41 49.53v10.212zm.067-39.518v6.553L11.41 9.913V0z"/><path d="M41.513 51.227V8.549l5.721 1.563v39.551z"/></g><path d="M58.744 12.507L64 24.648l-15.335.732-5.422-.366z" fill="#6b3b19"/><path d="M43.243 15.035v9.979l15.501-.898V12.507z" fill="#9d5125"/><path d="M36.058 24.516l-7.418-.499L44.374 8.183l7.983 15.301z" fill="#6b3b19"/><g fill="#9d5125"><path d="M28.64 11.842v12.175l15.734-1.331V8.183zM43.243 44.94V34.96L64 35.293l-5.256 12.141z"/><path d="M28.64 48.1V35.925l23.717.532-7.983 15.301z"/></g><path d="M36.058 35.427l-7.418.499 15.734 1.331 7.983-.798zm22.686.399L64 35.294l-15.335-.699-5.422.366z" fill="#fcbf92"/><path d="M58.744 12.507v11.609l5.256.532V14.071zm-6.387-1.929v12.906l-7.983-.798V8.183zm6.387 36.857V35.825L64 35.293v10.578zm-6.387 1.929V36.457l-7.983.798v14.503z" fill="#f58534"/></g></symbol></svg>