<svg height="511pt" viewBox="0 0 511.99925 511" width="511pt" xmlns="http://www.w3.org/2000/svg"><path d="m510.085938 447.902344-28.574219-102.121094c0-.003906 0-.011719-.003907-.015625l-18.425781-65.863281c-1.488281-5.320313-7.007812-8.421875-12.324219-6.9375-5.320312 1.488281-8.425781 7.007812-6.9375 12.324218l10.917969 39.015626c-11.839843-5.699219-24.894531-8.722657-38.421875-8.722657-23.675781 0-45.9375 9.222657-62.679687 25.964844-25.503907 25.503906-66.234375 26.683594-93.171875 3.578125l51.65625-184.628906h96.78125l13.351562 47.71875c1.488282 5.316406 7.003906 8.425781 12.324219 6.933594 5.320313-1.484376 8.425781-7.003907 6.9375-12.324219l-13.121094-46.894531c8.46875-5.308594 14.117188-14.71875 14.117188-25.433594 0-16.539063-13.457031-30-30-30h-104c-16.539063 0-29.996094 13.460937-29.996094 30 0 10.714844 5.644531 20.125 14.113281 25.433594l-38.195312 136.523437-46.554688-46.542969v-185.96875c13.796875-2.691406 24.246094-14.867187 24.246094-29.441406 0-16.542969-13.457031-30-30-30h-95.996094c-16.542968 0-30 13.457031-30 30 0 14.574219 10.449219 26.75 24.246094 29.441406v185.96875l-65.664062 65.644532c-22.382813 22.375-34.70703175 52.125-34.710938 83.769531s12.320312 61.394531 34.695312 83.773437l30.464844 30.464844c1.875 1.875 4.417969 2.929688 7.070313 2.929688h163.792969c2.617187 0 5.128906-1.03125 6.996093-2.867188 5.347657 1.875 11.046875 2.867188 16.917969 2.867188h201.148438c16.058593 0 30.832031-7.339844 40.535156-20.128907 9.707031-12.792969 12.789062-29 8.464844-44.460937zm-201.570313-327.40625h103.996094c5.515625 0 10 4.488281 10 10 0 5.515625-4.484375 10-10 10h-103.996094c-5.515625 0-10-4.484375-10-10 0-5.511719 4.484375-10 10-10zm-120.636719 25.074218c-3.519531 2.550782-7.730468 3.949219-12.164062 3.949219-5.554688 0-10.777344-2.164062-14.707032-6.09375-7.707031-7.707031-17.953124-11.949219-28.851562-11.949219-4.050781 0-8.007812.585938-11.78125 1.71875v-72.695312h67.503906zm-91.75-115.070312c0-5.515625 4.484375-10 10-10h95.996094c5.515625 0 10 4.484375 10 10 0 5.511719-4.484375 10-10 10h-95.996094c-5.515625 0-10-4.488281-10-10zm-47.289062 434.457031c-18.601563-18.597656-28.84375-43.328125-28.839844-69.632812 0-26.304688 10.246094-51.027344 28.847656-69.625l68.597656-68.574219c1.875-1.875 2.929688-4.417969 2.929688-7.070312v-94.914063c3.441406-2.375 7.507812-3.664063 11.78125-3.664063 5.554688 0 10.78125 2.164063 14.707031 6.09375 7.707031 7.703126 17.953125 11.949219 28.851563 11.949219 4.1875 0 8.277344-.632812 12.164062-1.84375v82.378907c0 2.652343 1.054688 5.195312 2.929688 7.070312l57.441406 57.425781-37.308594 133.351563c-4.324218 15.460937-1.242187 31.667968 8.460938 44.460937.035156.042969.070312.082031.105468.128907h-143.132812zm436.847656 15.316407c-5.890625 7.765624-14.855469 12.21875-24.601562 12.21875h-201.148438c-9.742188 0-18.710938-4.453126-24.601562-12.21875-5.890626-7.765626-7.761719-17.597657-5.136719-26.984376l24.460937-87.414062c15.113282 10.472656 32.769532 15.734375 50.441406 15.734375 22.699219 0 45.398438-8.640625 62.679688-25.921875 12.960938-12.964844 30.199219-20.105469 48.535156-20.105469 17.492188 0 33.980469 6.515625 46.714844 18.375l27.792969 99.332031c2.625 9.386719.753906 19.222657-5.136719 26.984376zm0 0"/><path d="m127.996094 398.492188c-16.539063 0-29.996094 13.457031-29.996094 30 0 16.542968 13.457031 30 29.996094 30 16.542968 0 30-13.457032 30-30 0-16.542969-13.457032-30-30-30zm0 40c-5.511719 0-10-4.484376-10-10 0-5.515626 4.488281-10 10-10 5.515625 0 10 4.484374 10 10 0 5.515624-4.484375 10-10 10zm0 0"/><path d="m414.78125 412.492188c-16.542969 0-30 13.457031-30 30 0 16.542968 13.457031 30 30 30s30-13.457032 30-30c0-16.542969-13.457031-30-30-30zm0 40c-5.515625 0-10-4.488282-10-10 0-5.515626 4.484375-10 10-10 5.511719 0 10 4.484374 10 10 0 5.511718-4.488281 10-10 10zm0 0"/><path d="m310.710938 258.824219c0 16.542969 13.457031 30 30 30 16.539062 0 30-13.457031 30-30 0-16.539063-13.460938-29.996094-30-29.996094-16.542969 0-30 13.457031-30 29.996094zm40 0c0 5.515625-4.488282 10-10 10-5.515626 0-10-4.484375-10-10 0-5.511719 4.484374-9.996094 10-9.996094 5.511718 0 10 4.484375 10 9.996094zm0 0"/><path d="m183.664062 311.984375c-16.542968 0-30 13.457031-30 30 0 16.539063 13.457032 30 30 30 16.542969 0 30-13.460937 30-30 0-16.542969-13.460937-30-30-30zm0 40c-5.515624 0-10-4.488281-10-10 0-5.515625 4.484376-10 10-10 5.511719 0 10 4.484375 10 10 0 5.511719-4.488281 10-10 10zm0 0"/><path d="m159.667969 238.496094c2.628906 0 5.210937-1.070313 7.070312-2.929688s2.929688-4.441406 2.929688-7.070312-1.070313-5.210938-2.929688-7.070313-4.441406-2.929687-7.070312-2.929687c-2.640625 0-5.210938 1.070312-7.070313 2.929687-1.871094 1.859375-2.929687 4.441407-2.929687 7.070313s1.058593 5.210937 2.929687 7.070312c1.859375 1.859375 4.441406 2.929688 7.070313 2.929688zm0 0"/><path d="m96.738281 334.914062c-1.859375-1.859374-4.441406-2.929687-7.070312-2.929687-2.640625 0-5.210938 1.070313-7.070313 2.929687-1.867187 1.859376-2.929687 4.4375-2.929687 7.070313 0 2.628906 1.0625 5.210937 2.929687 7.066406 1.859375 1.863281 4.429688 2.933594 7.070313 2.933594 2.628906 0 5.199219-1.070313 7.070312-2.933594 1.859375-1.855469 2.929688-4.4375 2.929688-7.066406s-1.070313-5.210937-2.929688-7.070313zm0 0"/><path d="m432.671875 244.054688c0 2.628906 1.058594 5.210937 2.929687 7.070312 1.859376 1.871094 4.429688 2.929688 7.070313 2.929688 2.628906 0 5.210937-1.058594 7.070313-2.929688 1.859374-1.859375 2.929687-4.441406 2.929687-7.070312 0-2.628907-1.070313-5.210938-2.929687-7.066407-1.859376-1.863281-4.441407-2.933593-7.070313-2.933593-2.640625 0-5.210937 1.070312-7.070313 2.933593-1.871093 1.855469-2.929687 4.4375-2.929687 7.066407zm0 0"/></svg>