<?xml version="1.0" encoding="utf-8"?>
<!-- Svg Vector Icons : http://www.onlinewebfonts.com/icon -->
<!DOCTYPE svg PUBLIC "-//W3C//DTD SVG 1.1//EN" "http://www.w3.org/Graphics/SVG/1.1/DTD/svg11.dtd">
<svg version="1.1" xmlns="http://www.w3.org/2000/svg" xmlns:xlink="http://www.w3.org/1999/xlink" x="0px" y="0px" viewBox="0 0 1000 1000" enable-background="new 0 0 1000 1000" xml:space="preserve">
<metadata> Svg Vector Icons : http://www.onlinewebfonts.com/icon </metadata>
<g><path d="M944.2,698.7C916.6,718.6,653.8,895.3,616.7,917c-43.5,25.5-82.1,65.1-172.2,20.8c-29.3-14.4-146.5-76.3-184.6-96.2c-39.4-20.6-56.3-17.2-86.7,2.5l-55.1,36.3L10,637.1c0,0,117.2-55.4,170.8-76.8c84.7-33.8,123.4-4.7,171.9,26.1c20.5,13,87.2,62.5,87.2,62.5s66.7,39.5,132.6,39.5c101,0,118.8,5.8,118.8,38.6c0,35.9-65.8,38.5-66.1,38.5H463.2c-55,0-132.4-32.2-132.4-32.2s65.5,70.8,132.4,70.8h162.3c35.9-0.7,103.7-17.8,103.7-77.1c0-77.2-69.2-77.2-156.8-77.2c-6.8,0-13-1.1-19.2-2.4c3.3-1.8,6.7-3.6,10.8-6c15.6-9,36.6-21.8,60.4-36.8c62.4-39.3,94.5-44.3,125.7-2.6c21.7-22.4,49-28.5,72.4-28.5c26.4,0,48.7,17.7,42.5,46.2c67.7-40.6,101.1-24.3,116-4.7C1000.8,640.9,987.4,667.9,944.2,698.7z M571.3,559.9c-18.2,11.5-34.1,20.8-52.4,32.3c-2.3,2.3-6.8,4.6-11.3,4.6c-4.5,0-9.1-2.3-13.7-4.6c-15.9-11.5-34.1-23.1-52.2-32.3c-66-41.4-136.5-82.9-168.4-163.5c-11.5-27.7-18.3-60-18.3-92.1V145.3c0-9.3,6.8-18.5,15.9-23.1L498.5,44c4.5-2.3,9.1-2.3,13.6,0l227.5,78.3c11.3,4.6,18.2,13.8,18.2,23.1v158.9c0,34.6-6.9,64.4-18.2,92.1C707.8,477,637.3,518.4,571.3,559.9z M712.3,161.4L507.6,92.3l-204.9,69.1v142.8c0,27.5,4.7,52.9,13.7,76C343.8,447,403,483.8,466.7,520.7c13.6,9.2,27.2,16.2,40.9,25.4c13.6-9.2,27.3-16.2,40.9-25.4c63.7-39.1,122.9-76,150.2-140.4c9.1-23.1,13.6-48.5,13.6-76V161.4z M578.7,349.9c10,0,18,8,18,17.8c0,10-8,18-18,18H524V427c0,9.9-8.1,18-18,18c-10,0-18.1-8.1-18.1-18v-41.3h-53.3c-10,0-18-8-18-18c0-9.9,8-17.8,18-17.8h53.3V326h-53.3c-10,0-18-8.1-18-18c0-9.9,8-17.8,18-17.8h53.3v-11.1l-66.5-54.6c-7.1-6.9-6.8-18.2,0.3-25.2c7.1-7,18.4-7,25.5,0l60.6,48.1l57.2-47.8c6.9-7.2,18.3-7.4,25.5-0.7c7.2,6.9,7.3,18.2,0.4,25.4L524,281.7v8.5h54.6c10,0,18,8,18,17.8c0,9.8-8,17.9-18,17.9v0H524v23.9L578.7,349.9L578.7,349.9z"/></g>
</svg>