<?xml version="1.0" encoding="utf-8"?>
<!-- Svg Vector Icons : http://www.onlinewebfonts.com/icon -->
<!DOCTYPE svg PUBLIC "-//W3C//DTD SVG 1.1//EN" "http://www.w3.org/Graphics/SVG/1.1/DTD/svg11.dtd">
<svg version="1.1" xmlns="http://www.w3.org/2000/svg" xmlns:xlink="http://www.w3.org/1999/xlink" x="0px" y="0px" viewBox="0 0 1000 1000" enable-background="new 0 0 1000 1000" xml:space="preserve">
<metadata> Svg Vector Icons : http://www.onlinewebfonts.com/icon </metadata>
<g><g transform="translate(0.000000,512.000000) scale(0.100000,-0.100000)"><path d="M4776.4,4851.9c-339-170.4-386.8-206.8-386.8-298.7c0-15.3,122.6-273.8,273.8-578.3l273.8-551.5l-80.4-72.8c-141.7-126.4-189.6-285.3-134-446.2c17.2-49.8,28.7-91.9,24.9-93.8c-1.9,0-51.7-17.2-109.2-36.4c-155.1-51.7-430.9-193.4-574.5-293c-68.9-49.8-206.8-170.4-306.4-271.9c-597.5-605.1-900-1533.9-900-2763.3v-245.1h151.3h149.4l11.5,446.2c21.1,764.1,130.2,1283,373.4,1767.5c277.7,549.6,672.2,909.6,1191.1,1085.8l181.9,61.3l777.5,5.7c653,5.8,796.6,1.9,905.8-23c321.7-74.7,666.4-277.7,930.7-545.8c340.9-342.8,584.1-800.5,714.3-1342.4c105.3-430.9,114.9-540,122.6-1487.9l9.6-886.6h151.3h151.3v714.3c0,756.4-15.3,1028.3-78.5,1409.4c-143.6,869.4-557.3,1599-1156.7,2047.1c-135.9,101.5-478.7,287.2-607.1,327.5l-70.8,23l38.3,80.4c19.2,44,36.4,111.1,36.4,147.5c0,95.8-76.6,247-166.6,325.5l-74.7,67l273.8,551.5c151.3,304.5,273.8,563,273.8,578.3c0,91.9-47.9,128.3-386.8,298.7c-189.6,93.8-358.1,170.4-377.3,170.4s-166.6-65.1-325.5-143.6l-289.2-143.6l-289.2,143.6c-159,78.5-306.4,143.6-325.5,143.6C5134.5,5022.3,4966,4945.7,4776.4,4851.9z M5444.7,4553.2c159-78.5,304.5-143.6,323.6-143.6s164.7,65.1,323.6,143.6l291.1,143.6l195.3-97.7c107.2-53.6,197.2-101.5,201.1-103.4c3.8-3.8-107.2-229.8-243.2-505.6l-250.9-499.8h-517h-517l-250.9,499.8c-136,275.8-247,501.7-243.2,505.6c5.7,5.7,384.9,197.2,392.6,199.2C5151.7,4696.8,5283.8,4631.7,5444.7,4553.2z M6496,3145.7c24.9-24.9,38.3-63.2,38.3-114.9s-13.4-90-38.3-114.9c-36.4-36.4-63.2-38.3-727.7-38.3s-691.3,1.9-727.7,38.3c-24.9,24.9-38.3,63.2-38.3,114.9s13.4,90,38.3,114.9c36.4,36.4,63.2,38.3,727.7,38.3S6459.6,3182.1,6496,3145.7z"/><path d="M5615.1,1644.3v-162.8l-114.9-61.3c-132.1-68.9-208.7-149.4-277.7-285.3c-168.5-333.2-5.7-593.6,561.1-890.5c76.6-40.2,174.3-107.2,216.4-147.5c76.6-74.7,78.5-80.4,70.8-172.4c-17.2-160.8-132.1-264.3-298.7-264.3c-162.8,0-279.6,90-302.6,233.6l-13.4,72.8h-151.3h-153.2l13.4-80.4c32.6-187.7,174.2-373.4,354.3-465.3l95.8-47.9v-162.8v-162.8h153.2h153.2v162.8v162.8l95.8,47.9c212.5,107.2,350.4,314.1,352.4,526.6c1.9,245.1-164.7,425.1-616.6,660.7c-76.6,40.2-174.3,107.2-216.4,147.5c-76.6,74.7-78.5,80.4-70.9,172.3c17.2,160.9,132.1,264.3,298.7,264.3c162.8,0,279.6-90,302.6-233.6l13.4-72.8h151.3H6385l-13.4,72.8c-34.5,197.3-172.3,381.1-354.3,473l-95.8,47.9v162.8v162.8h-153.2h-153.2V1644.3z"/><path d="M4542.7,426.4V273.2h153.2h153.2v153.2v153.2h-153.2h-153.2V426.4z"/><path d="M6687.5,426.4V273.2h153.2h153.2v153.2v153.2h-153.2h-153.2V426.4z"/><path d="M100-952.4v-153.2h919.2h919.2v-1378.8v-1378.8h-919.2H100v-153.2v-153.2h940.3c829.2,0,947.9,3.8,1005.4,30.6c80.4,38.3,174.3,147.5,189.6,222.1l13.4,53.6h294.9h296.8l1302.2-459.6l1302.2-459.6h178.1H5799l1953.3,1014.9c1945.6,1011.1,1951.4,1014.9,2022.2,1112.6c93.8,128.3,137.9,264.3,122.5,375.4c-26.8,201.1-155.1,386.8-331.3,480.6c-214.5,113-174.3,120.6-1355.8-250.8L7156.7-2381l-21.1,116.8c-36.4,212.6-159,379.2-356.2,482.6l-101.5,53.6l-775.6,9.6l-775.6,9.6l-819.6,302.6l-817.7,300.6h-620.4h-620.4l-13.4,53.6c-15.3,74.7-109.2,183.8-189.6,222.1c-57.4,26.8-176.2,30.6-1005.4,30.6H100V-952.4z M4293.8-1718.4l842.6-306.4h743c668.3,0,746.8-3.8,806.2-34.5c99.6-49.8,141.7-120.6,149.4-247c9.6-128.3-28.7-218.3-114.9-281.5c-53.6-38.3-80.4-40.2-1034.1-49.8l-980.5-9.6l-99.6-51.7c-55.5-30.6-128.3-78.5-164.7-111.1c-78.5-68.9-176.2-248.9-195.3-358.1l-13.4-82.3h153.2H4537l13.4,72.8c11.5,80.4,67,162.8,132.1,201.1c30.6,17.2,291.1,24.9,1018.8,32.6l976.6,9.6l86.2,46c47.9,24.9,113,65.1,143.6,90c36.4,26.8,480.7,176.2,1233.3,409.8c915.4,285.3,1189.2,363.8,1237.1,356.2c183.8-34.5,279.6-262.3,176.2-415.5c-36.4-55.5-316-206.8-1928.4-1045.6L5739.6-4474l-128.3-1.9c-120.6,0-220.2,32.6-1432.4,459.6l-1304.1,459.6h-314.1h-316v1072.4V-1412H2848h603.2L4293.8-1718.4z"/><path d="M712.8-3403.6v-153.2H866h153.2v153.2v153.2H866H712.8V-3403.6z"/><path d="M1325.6-3403.6v-153.2h153.2H1632v153.2v153.2h-153.2h-153.2V-3403.6z"/></g></g>
</svg>