<?xml version="1.0" encoding="UTF-8" standalone="no"?>
<svg
   viewBox="0 0 64 48"
   version="1.1"
   id="svg907"
   sodipodi:docname="terminal-emulator-green-screen.svg"
   width="64"
   height="48"
   inkscape:version="1.1.2 (0a00cf5339, 2022-02-04)"
   inkscape:export-filename="/home/practicalli/projects/practicalli/graphic-design/icons/terminal-emulator-green-screen.png"
   inkscape:export-xdpi="90"
   inkscape:export-ydpi="90"
   xmlns:inkscape="http://www.inkscape.org/namespaces/inkscape"
   xmlns:sodipodi="http://sodipodi.sourceforge.net/DTD/sodipodi-0.dtd"
   xmlns="http://www.w3.org/2000/svg"
   xmlns:svg="http://www.w3.org/2000/svg">
  <sodipodi:namedview
     id="namedview909"
     pagecolor="#000000"
     bordercolor="#666666"
     borderopacity="1.0"
     inkscape:pageshadow="2"
     inkscape:pageopacity="0"
     inkscape:pagecheckerboard="true"
     showgrid="false"
     fit-margin-top="0"
     fit-margin-left="0"
     fit-margin-right="0"
     fit-margin-bottom="0"
     showguides="true"
     inkscape:guide-bbox="true"
     inkscape:zoom="11.313708"
     inkscape:cx="-2.6958446"
     inkscape:cy="27.930718"
     inkscape:window-width="3440"
     inkscape:window-height="1415"
     inkscape:window-x="0"
     inkscape:window-y="25"
     inkscape:window-maximized="1"
     inkscape:current-layer="svg907">
    <sodipodi:guide
       position="64.001442,482.59671"
       orientation="1,0"
       id="guide991" />
    <sodipodi:guide
       position="-9.2807765,432.00513"
       orientation="0,-1"
       id="guide993" />
  </sodipodi:namedview>
  <defs
     id="defs895">
    <linearGradient
       gradientTransform="matrix(0.63636,0,0,0.62142,-252.21,-311.09)"
       gradientUnits="userSpaceOnUse"
       y2="507.79999"
       x2="0"
       y1="542.79999"
       id="0">
      <stop
         stop-color="#252525"
         id="stop890" />
      <stop
         offset="1"
         stop-color="#4c4c4c"
         id="stop892" />
    </linearGradient>
  </defs>
  <g
     transform="matrix(2.2857658,0,0,2.268409,14.196892,-10.055984)"
     enable-background="new"
     id="g905">
    <rect
       width="28"
       height="21.129999"
       x="-6.211"
       y="4.461"
       fill="url(#0)"
       rx="0.99400002"
       id="rect897"
       style="fill:url(#0)" />
    <g
       fill="#32ff4d"
       stroke="#35d04a"
       stroke-linejoin="round"
       fill-opacity="0.751"
       stroke-linecap="round"
       stroke-width="0.175"
       id="g903">
      <path
         d="M 5.085,13.1 C 5.054,13.071 5.015,13.056 4.967,13.056 H 0.044 c -0.048,0 -0.087,0.015 -0.118,0.044 -0.031,0.029 -0.046,0.067 -0.046,0.112 v 0.312 c 0,0.046 0.015,0.083 0.046,0.112 0.031,0.029 0.07,0.044 0.118,0.044 h 4.923 c 0.048,0 0.087,-0.015 0.118,-0.044 0.031,-0.029 0.046,-0.067 0.046,-0.112 v -0.312 c 0,-0.046 -0.015,-0.083 -0.046,-0.112 z"
         id="path899" />
      <path
         d="M -2.792,8.489 C -2.826,8.456 -2.866,8.44 -2.91,8.44 c -0.044,0 -0.084,0.016 -0.118,0.049 l -0.256,0.244 c -0.034,0.033 -0.051,0.07 -0.051,0.112 0,0.042 0.017,0.08 0.051,0.112 l 2.02,1.917 -2.02,1.918 c -0.034,0.033 -0.051,0.07 -0.051,0.112 0,0.042 0.017,0.08 0.051,0.112 l 0.256,0.244 c 0.034,0.033 0.073,0.049 0.118,0.049 0.044,0 0.084,-0.016 0.118,-0.049 l 2.39,-2.274 c 0.034,-0.033 0.051,-0.07 0.051,-0.112 0,-0.042 -0.017,-0.08 -0.051,-0.112 l -2.39,-2.274 z"
         id="path901" />
    </g>
  </g>
</svg>
