<?xml version="1.0" encoding="UTF-8" standalone="no"?>
<!-- Generator: Adobe Illustrator 19.2.0, SVG Export Plug-In . SVG Version: 6.00 Build 0)  -->

<svg
   xmlns:dc="http://purl.org/dc/elements/1.1/"
   xmlns:cc="http://creativecommons.org/ns#"
   xmlns:rdf="http://www.w3.org/1999/02/22-rdf-syntax-ns#"
   xmlns:svg="http://www.w3.org/2000/svg"
   xmlns="http://www.w3.org/2000/svg"
   xmlns:sodipodi="http://sodipodi.sourceforge.net/DTD/sodipodi-0.dtd"
   xmlns:inkscape="http://www.inkscape.org/namespaces/inkscape"
   version="1.1"
   id="Layer_1"
   x="0px"
   y="0px"
   viewBox="0 0 456.3085 270.5712"
   xml:space="preserve"
   sodipodi:docname="clojure-piggy-bank.svg"
   inkscape:version="0.92.5 (2060ec1f9f, 2020-04-08)"
   width="456.3085"
   height="270.5712"
   inkscape:export-filename="/home/practicalli/projects/practicalli/developer-guides/clojure/clojure-piggy-bank.png"
   inkscape:export-xdpi="90"
   inkscape:export-ydpi="90"><metadata
   id="metadata945"><rdf:RDF><cc:Work
       rdf:about=""><dc:format>image/svg+xml</dc:format><dc:type
         rdf:resource="http://purl.org/dc/dcmitype/StillImage" /><dc:title></dc:title></cc:Work></rdf:RDF></metadata><defs
   id="defs943">
	
	
	
	
	
	
	
	
	
	
	

		
			
		
			
		
		
		
	</defs><sodipodi:namedview
   pagecolor="#ffffff"
   bordercolor="#666666"
   borderopacity="1"
   objecttolerance="10"
   gridtolerance="10"
   guidetolerance="10"
   inkscape:pageopacity="0"
   inkscape:pageshadow="2"
   inkscape:window-width="1920"
   inkscape:window-height="1059"
   id="namedview941"
   showgrid="false"
   inkscape:zoom="1.8"
   inkscape:cx="308.47571"
   inkscape:cy="109.60156"
   inkscape:window-x="3440"
   inkscape:window-y="0"
   inkscape:window-maximized="0"
   inkscape:current-layer="Layer_1"
   fit-margin-top="16"
   fit-margin-left="16"
   fit-margin-right="16"
   fit-margin-bottom="16" />
<style
   type="text/css"
   id="style900">
	.st0{fill:#DD629A;}
	.st1{fill:#FF7BAC;}
	.st2{fill:#333333;}
	.st3{fill:none;stroke:#FF7BAC;stroke-width:23.6161;stroke-linecap:round;stroke-miterlimit:10;}
	.st4{fill:#FFED6C;}
	.st5{fill:#FFD345;}
	.st6{fill:#FBB03B;}
</style>
<path
   style="fill:#668000;stroke-width:0.43684986"
   inkscape:connector-curvature="0"
   id="path902"
   d="m 168.28109,252.74422 -17.32472,-2.95707 c -5.52043,-0.94237 -9.0441,-3.93193 -8.33936,-7.11647 l 6.16642,-27.36102 56.32002,9.61859 -22.78641,24.53395 c -2.5253,2.82708 -8.51554,4.22438 -14.03595,3.28202 z"
   class="st0" /><path
   style="fill:#668000;stroke-width:0.43684986"
   inkscape:connector-curvature="0"
   id="path904"
   d="m 344.05356,251.67188 -17.5009,2.66461 c -5.57915,0.84487 -11.45194,-0.64991 -13.91851,-3.54199 l -21.31821,-24.92388 56.84857,-8.61125 4.6395,27.45851 c 0.52854,3.18454 -3.17131,6.10912 -8.75045,6.954 z"
   class="st0" /><ellipse
   style="fill:#88aa00;stroke-width:0.43684986"
   id="ellipse906"
   ry="70.352287"
   rx="172.36626"
   cy="166.27428"
   cx="248.6795"
   class="st1" /><path
   style="fill:#5599ff;stroke-width:0.43684986"
   inkscape:connector-curvature="0"
   id="path908"
   d="m 432.55643,179.88979 -17.67708,2.63213 c -6.69497,1.00736 -13.21377,-1.78725 -13.21377,-5.58919 v -21.31691 c 0,-3.60697 5.93151,-6.33658 12.33286,-5.71916 l 17.67708,1.75474 c 4.99187,0.48743 8.63299,2.89208 8.63299,5.71917 v 16.93004 c 0,2.63212 -3.1713,4.90679 -7.75208,5.58918 z"
   class="st1" /><ellipse
   style="fill:#5599ff;fill-opacity:1;stroke:#aaeeff;stroke-width:13.08801079;stroke-miterlimit:4;stroke-dasharray:none;stroke-opacity:1"
   id="circle910"
   cy="152.72069"
   cx="361.6239"
   class="st2"
   rx="16.91201"
   ry="12.67097" /><path
   style="fill:#668000;fill-opacity:1;stroke-width:0.43684986"
   inkscape:connector-curvature="0"
   id="path912"
   d="m 336.47766,106.64544 49.56631,-10.918418 c 4.69823,-1.03984 9.80755,0.94237 9.63137,3.73696 l -1.82056,28.790828 c -0.17619,3.05455 -6.40134,4.7768 -10.92339,3.08704 l -47.74574,-17.83991 c -4.69823,-1.75475 -3.93476,-5.68667 1.29201,-6.8565 z"
   class="st1" /><path
   style="fill:#16502d;stroke-width:0.43684986"
   inkscape:connector-curvature="0"
   id="path914"
   d="m 360.26244,110.08994 17.67709,-4.41936 c 1.64438,-0.38994 3.40621,0.32495 3.17131,1.29981 l -2.34912,10.30101 c -0.23491,1.03985 -2.46657,1.46228 -3.81731,0.74738 -1.58566,-0.81237 -3.64113,-1.78723 -6.22516,-2.79459 -2.99511,-1.16983 -6.16642,-2.17718 -8.63299,-2.92457 -1.64438,-0.45493 -1.52692,-1.78724 0.17618,-2.20968 z"
   class="st0" /><path
   style="fill:#16502d;fill-opacity:1;stroke:#668000;stroke-width:10.31669044;stroke-linecap:round;stroke-miterlimit:10;stroke-opacity:1"
   inkscape:connector-curvature="0"
   id="path916"
   d="m 83.008236,168.06151 c 0,0 -35.17799,-1.10483 -37.87947,12.25073 -2.81894,13.97297 22.61023,13.64802 21.43567,1.85224 -1.4682,-14.10297 -28.48301,-17.06003 -45.33791,-10.26852"
   class="st3" /><path
   style="fill:#225500;stroke-width:0.43684986"
   inkscape:connector-curvature="0"
   id="path918"
   d="m 190.06912,127.89736 c -3.69986,0 -7.28226,-1.07235 -9.16155,-3.02207 -2.76021,-2.79459 -0.88091,-6.27159 4.16968,-7.79887 1.11583,-0.32495 27.837,-8.28629 60.48969,-8.28629 32.65269,0 57.72948,7.50641 58.78659,7.83136 5.05059,1.52728 6.87116,5.03676 4.11094,7.83136 -2.7602,2.7946 -9.10281,3.80196 -14.09468,2.27467 -0.17619,-0.065 -21.67058,-6.40157 -48.74412,-6.40157 -27.13227,0 -50.27104,6.82401 -50.50596,6.889 -1.7031,0.45493 -3.40621,0.68241 -5.05059,0.68241 z"
   class="st0" /><path
   style="fill:#aaeeff;stroke-width:0.43684986"
   inkscape:connector-curvature="0"
   id="path936"
   d="m 423.15998,174.43059 v 0 c -3.1713,0 -5.75533,-1.42979 -5.75533,-3.18454 v -10.88591 c 0,-1.75475 2.58403,-3.18454 5.75533,-3.18454 v 0 c 3.1713,0 5.75533,1.42979 5.75533,3.18454 v 10.88591 c 0.0587,1.75475 -2.5253,3.18454 -5.75533,3.18454 z"
   class="st0" />
<g
   id="g12361"
   transform="matrix(0.77238351,0,0,0.77238351,-85.371674,-200.18212)"><circle
     style="fill:#ffed6c;stroke-width:0.76717484"
     r="65.900322"
     id="ellipse920"
     cy="351.92053"
     cx="423.12155"
     class="st4"
     transform="rotate(-0.82524334)" /><circle
     style="fill:#ffd345;stroke-width:0.76717484"
     r="49.482777"
     id="ellipse922"
     cy="351.92053"
     cx="423.12155"
     class="st5"
     transform="rotate(-0.82524334)" /><path
     style="fill:#fbb03b;stroke-width:0.76717198"
     inkscape:connector-curvature="0"
     id="path924"
     d="m 382.19127,352.07994 c -0.38359,-27.31133 21.48081,-49.86618 48.79213,-50.24977 16.57092,-0.23015 31.37734,7.74844 40.50669,20.17662 -8.51561,-15.57359 -25.16325,-26.00713 -44.11239,-25.70026 -27.31133,0.38359 -49.17573,22.86173 -48.79214,50.24977 0.15343,10.74041 3.75914,20.63693 9.66636,28.61551 -3.75914,-6.90454 -5.90722,-14.7297 -6.06065,-23.09187 z"
     class="st6" /><polygon
     inkscape:export-ydpi="90"
     inkscape:export-xdpi="90"
     transform="matrix(0.03690163,0,0,0.03684711,391.94248,304.91324)"
     style="fill:#f4d7d7;fill-opacity:0.64779873;stroke:#ffffff;stroke-width:92.72168732;stroke-miterlimit:4;stroke-dasharray:none;stroke-opacity:1"
     class="st1"
     points="1024.9,1112.3 1368.5,1979.8 1912,1807.7 1825.5,1540.3 1576,1616.4 990.9,146 533,146 533,439 774.5,439 872.5,744.9 168.3,1836.6 140.3,1880 500.4,1884.5 "
     id="polygon4693" /></g></svg>