<?xml version="1.0" encoding="UTF-8" standalone="no"?>
<svg
   xmlns:dc="http://purl.org/dc/elements/1.1/"
   xmlns:cc="http://creativecommons.org/ns#"
   xmlns:rdf="http://www.w3.org/1999/02/22-rdf-syntax-ns#"
   xmlns:svg="http://www.w3.org/2000/svg"
   xmlns="http://www.w3.org/2000/svg"
   xmlns:sodipodi="http://sodipodi.sourceforge.net/DTD/sodipodi-0.dtd"
   xmlns:inkscape="http://www.inkscape.org/namespaces/inkscape"
   width="231.33684mm"
   height="72.64698mm"
   viewBox="0 0 231.33684 72.64698"
   version="1.1"
   id="svg2554"
   inkscape:version="1.0.1 (3bc2e813f5, 2020-09-07)"
   sodipodi:docname="scicloj-logo-title.svg"
   inkscape:export-filename="/home/practicalli/projects/practicalli/graphic-design/scicloj/scicloj-logo-title.png"
   inkscape:export-xdpi="89.5"
   inkscape:export-ydpi="89.5">
  <defs
     id="defs2548" />
  <sodipodi:namedview
     id="base"
     pagecolor="#ffffff"
     bordercolor="#666666"
     borderopacity="1.0"
     inkscape:pageopacity="0.0"
     inkscape:pageshadow="2"
     inkscape:zoom="0.35650155"
     inkscape:cx="1330.8585"
     inkscape:cy="329.82581"
     inkscape:document-units="mm"
     inkscape:current-layer="layer1"
     inkscape:document-rotation="0"
     showgrid="false"
     fit-margin-top="4"
     fit-margin-left="4"
     fit-margin-right="4"
     fit-margin-bottom="4"
     inkscape:window-width="1920"
     inkscape:window-height="1157"
     inkscape:window-x="0"
     inkscape:window-y="22"
     inkscape:window-maximized="1" />
  <metadata
     id="metadata2551">
    <rdf:RDF>
      <cc:Work
         rdf:about="">
        <dc:format>image/svg+xml</dc:format>
        <dc:type
           rdf:resource="http://purl.org/dc/dcmitype/StillImage" />
        <dc:title></dc:title>
      </cc:Work>
    </rdf:RDF>
  </metadata>
  <g
     inkscape:label="Layer 1"
     inkscape:groupmode="layer"
     id="layer1"
     transform="translate(246.28964,-60.900254)">
    <rect
       style="opacity:1;fill:#aaccff;fill-opacity:0.125027;stroke:#d5e5ff;stroke-width:6.45999;stroke-linecap:round;stroke-linejoin:round;stroke-miterlimit:4;stroke-dasharray:none;stroke-opacity:1"
       id="rect1993"
       width="216.87685"
       height="58.186993"
       x="-239.05965"
       y="68.130249"
       ry="21.667374"
       rx="0" />
    <text
       xml:space="preserve"
       style="font-size:42.3333px;line-height:1.25;font-family:'Ubuntu Mon';-inkscape-font-specification:'Ubuntu Mon';letter-spacing:0px;word-spacing:0px;writing-mode:lr-tb;fill:#aa0000;stroke:#fff6d5;stroke-width:0.656093;stroke-miterlimit:4;stroke-dasharray:none;stroke-opacity:1"
       x="-172.37274"
       y="99.577309"
       id="text1157-8-7-3"
       transform="scale(0.88641425,1.1281407)"><tspan
         sodipodi:role="line"
         id="tspan1155-0-2-5"
         x="-172.37274"
         y="99.577309"
         style="font-style:normal;font-variant:normal;font-weight:bold;font-stretch:normal;font-size:42.3333px;font-family:Ubuntu;-inkscape-font-specification:'Ubuntu Bold';fill:#aa0000;stroke:#fff6d5;stroke-width:0.656093;stroke-miterlimit:4;stroke-dasharray:none;stroke-opacity:1">Sci</tspan></text>
    <text
       xml:space="preserve"
       style="font-size:34.6321px;line-height:1.25;font-family:'Ubuntu Mon';-inkscape-font-specification:'Ubuntu Mon';letter-spacing:0px;word-spacing:0px;writing-mode:lr-tb;fill:#339967;fill-opacity:0.976471;stroke:#c6e9af;stroke-width:0.536739;stroke-miterlimit:4;stroke-dasharray:none;stroke-opacity:1"
       x="-111.72699"
       y="99.577309"
       id="text1157-8-7-2-1"
       transform="scale(0.88641425,1.1281407)"><tspan
         sodipodi:role="line"
         id="tspan1155-0-2-9-7"
         x="-111.72699"
         y="99.577309"
         style="font-style:normal;font-variant:normal;font-weight:bold;font-stretch:normal;font-size:34.6321px;font-family:Ubuntu;-inkscape-font-specification:'Ubuntu Bold';fill:#339967;fill-opacity:0.976471;stroke:#c6e9af;stroke-width:0.536739;stroke-miterlimit:4;stroke-dasharray:none;stroke-opacity:1">Cloj</tspan></text>
    <g
       id="g2445"
       transform="matrix(0.08317511,0,0,0.08317511,-215.37904,85.746552)">
      <rect
         width="880.79999"
         height="532.79999"
         x="-120.5"
         y="-155.297"
         id="Wrapper"
         style="fill:none" />
      <g
         id="250ml">
        <g
           id="g4">
          <path
             d="m 554.935,164.345 c -2.932,-0.541 -5.854,-1.148 -8.764,-1.822 0.02,-2.08 1.096,-3.402 2.817,-4.17 1.665,-0.83 3.833,-1.4 3.869,-3.369 0.018,-0.902 -0.368,-2.313 -2.166,-2.682 -1.649,-0.344 -2.144,0.938 -2.197,2.701 -0.696,-0.152 -1.392,-0.309 -2.085,-0.469 0,-2.811 1.551,-4.52 4.411,-3.926 3.137,0.641 4.133,3.066 4.132,4.701 0,2.012 -1.397,3.004 -2.866,3.725 -1.486,0.719 -3.044,1.16 -3.409,2.203 2.08,0.453 4.167,0.873 6.258,1.26 0,0.615 0,1.232 0,1.848 z m 2.983,-12.151 c 2.225,0.375 4.453,0.715 6.687,1.014 0,0.617 0,1.232 0,1.848 -1.709,-0.229 -3.415,-0.48 -5.118,-0.756 -0.222,1.039 -0.443,2.078 -0.665,3.117 0.013,0.014 0.024,0.027 0.037,0.041 0.571,-0.521 1.514,-0.715 2.382,-0.584 2.567,0.389 4.05,2.383 4.049,4.811 0.001,2.025 -1.298,4.395 -4.475,3.91 -2.493,-0.383 -4.425,-2.057 -4.518,-4.607 0.699,0.125 1.399,0.244 2.101,0.361 0.129,1.379 1.015,2.309 2.381,2.52 1.791,0.273 2.402,-0.896 2.401,-2.434 0,-1.396 -0.758,-2.748 -2.458,-3.008 -0.886,-0.137 -1.753,-0.008 -2.084,0.826 -0.701,-0.117 -1.401,-0.236 -2.102,-0.359 0.461,-2.233 0.921,-4.465 1.382,-6.7 z m 17.652,8.522 c 10e-4,2.873 -0.764,6.555 -4.495,6.189 -3.729,-0.391 -4.486,-4.229 -4.487,-7.1 0.001,-2.889 0.757,-6.477 4.487,-6.086 3.732,0.366 4.495,4.11 4.495,6.997 z m -2.118,-0.178 c 0,-2.646 -0.521,-4.914 -2.377,-5.1 -1.855,-0.191 -2.375,1.971 -2.375,4.617 0,2.643 0.519,4.938 2.375,5.129 1.857,0.186 2.377,-2.003 2.377,-4.646 z m 9.079,-2.422 c 0.671,0.029 1.341,0.055 2.012,0.078 0,0.434 0,0.869 0,1.305 0.019,0 0.037,0 0.056,0.002 0.633,-0.904 1.435,-1.512 2.962,-1.482 1.174,0.023 2.273,0.52 2.702,1.59 0.709,-0.957 1.621,-1.553 3.018,-1.566 2.032,-0.021 3.225,0.809 3.225,3.094 0,2.154 0,4.311 0,6.465 -0.708,0.02 -1.416,0.033 -2.124,0.045 0,-1.822 0,-3.646 0,-5.469 0,-1.488 -0.093,-2.514 -1.752,-2.498 -1.435,0.008 -2.05,0.926 -2.05,2.502 0,1.83 0,3.658 0,5.488 -0.708,-0.002 -1.416,-0.008 -2.124,-0.018 0,-2.006 0,-4.01 0,-6.014 0,-1.287 -0.41,-1.977 -1.695,-2.004 -1.099,-0.025 -2.105,0.811 -2.105,2.367 0,1.854 0,3.707 0,5.561 -0.708,-0.023 -1.415,-0.051 -2.123,-0.08 -0.002,-3.124 -0.002,-6.245 -0.002,-9.366 z m 16.266,-3.519 c 0.708,-0.027 1.416,-0.059 2.124,-0.092 0,4.311 0,8.621 0,12.932 -0.708,0.033 -1.416,0.064 -2.124,0.092 0,-4.311 0,-8.622 0,-12.932 z"
             id="path6" />
          <path
             d="m 611.5,200.767 c 10e-4,5.631 -4.681,10.715 -10.474,10.994 -18.25,0.895 -36.594,-0.713 -54.502,-4.826 -5.688,-1.303 -10.243,-7.215 -10.244,-12.848 0,-5.994 0,-11.99 0,-17.986 10e-4,-5.641 4.557,-8.865 10.244,-7.564 17.908,4.113 36.252,5.723 54.502,4.828 5.793,-0.279 10.475,3.775 10.474,9.416 10e-4,5.993 10e-4,11.99 0,17.986 z"
             id="path8"
             style="fill:none;stroke:#161413;stroke-linecap:round;stroke-linejoin:round" />
        </g>
        <g
           id="g10">
          <path
             d="m 665.025,76.073 c -2.186,0.813 -4.381,1.588 -6.587,2.322 0.015,-1.617 0.831,-3.104 2.129,-4.435 1.257,-1.356 2.879,-2.714 2.906,-4.251 0.014,-0.706 -0.274,-1.634 -1.624,-1.156 -1.24,0.438 -1.613,1.641 -1.655,3.028 -0.524,0.18 -1.05,0.357 -1.575,0.533 0,-2.173 1.177,-4.167 3.327,-4.926 2.354,-0.837 3.092,0.626 3.093,1.889 0,1.556 -1.042,2.91 -2.144,4.091 -1.113,1.186 -2.287,2.193 -2.563,3.156 1.569,-0.54 3.134,-1.101 4.692,-1.681 10e-4,0.478 10e-4,0.954 10e-4,1.43 z m 7.617,-7.916 c -0.001,2.222 -0.552,5.345 -3.287,6.443 -2.74,1.086 -3.308,-1.592 -3.306,-3.813 -0.002,-2.232 0.564,-5.298 3.306,-6.384 2.735,-1.098 3.285,1.522 3.287,3.754 z m -1.546,0.641 c -10e-4,-2.046 -0.381,-3.609 -1.741,-3.064 -1.363,0.542 -1.746,2.409 -1.746,4.456 -0.001,2.044 0.383,3.622 1.746,3.08 1.361,-0.545 1.74,-2.428 1.741,-4.472 z m 9.022,-3.961 c -0.002,2.222 -0.543,5.368 -3.243,6.584 -2.705,1.201 -3.266,-1.452 -3.264,-3.674 -0.002,-2.232 0.559,-5.322 3.264,-6.523 2.7,-1.216 3.241,1.38 3.243,3.613 z m -1.525,0.707 c -10e-4,-2.046 -0.374,-3.593 -1.718,-2.99 -1.345,0.6 -1.724,2.483 -1.724,4.529 0,2.044 0.378,3.606 1.724,3.007 1.344,-0.603 1.718,-2.502 1.718,-4.546 z"
             id="path12" />
          <path
             d="m 658.632,132.567 c 1.329,-0.428 2.585,-1.33 2.818,-2.589 0.427,-0.15 0.854,-0.302 1.28,-0.454 0,3.268 0,6.537 0,9.806 -0.573,0.205 -1.147,0.408 -1.722,0.607 0,-2.307 0,-4.613 0,-6.92 -0.791,0.275 -1.583,0.546 -2.377,0.811 10e-4,-0.42 10e-4,-0.84 10e-4,-1.261 z m 8.606,-4.72 c 1.65,-0.636 3.293,-1.295 4.929,-1.977 0,0.476 0,0.952 0,1.429 -1.252,0.521 -2.508,1.029 -3.767,1.524 -0.164,0.896 -0.328,1.791 -0.492,2.687 0.01,0.006 0.019,0.012 0.027,0.017 0.423,-0.64 1.118,-1.181 1.759,-1.438 1.892,-0.76 2.974,0.179 2.974,2.058 -10e-4,1.565 -0.946,3.923 -3.287,4.861 -1.838,0.734 -3.277,0.252 -3.346,-1.683 0.521,-0.197 1.04,-0.396 1.559,-0.598 0.097,1.013 0.752,1.362 1.761,0.96 1.32,-0.528 1.767,-1.683 1.768,-2.872 -0.001,-1.079 -0.556,-1.813 -1.809,-1.313 -0.654,0.261 -1.296,0.722 -1.541,1.504 -0.52,0.201 -1.039,0.401 -1.56,0.599 0.342,-1.918 0.684,-3.838 1.025,-5.758 z m 12.88,-0.592 c -0.002,2.222 -0.543,5.368 -3.243,6.584 -2.705,1.201 -3.266,-1.452 -3.264,-3.674 -0.002,-2.232 0.559,-5.322 3.264,-6.523 2.7,-1.216 3.241,1.38 3.243,3.613 z m -1.525,0.707 c -10e-4,-2.046 -0.374,-3.593 -1.718,-2.99 -1.345,0.6 -1.724,2.483 -1.724,4.529 0,2.044 0.378,3.606 1.724,3.007 1.344,-0.603 1.718,-2.502 1.718,-4.546 z"
             id="path14" />
          <path
             d="m 658.632,196.473 c 1.329,-0.428 2.585,-1.33 2.818,-2.59 0.427,-0.15 0.854,-0.301 1.28,-0.453 0,3.268 0,6.537 0,9.805 -0.573,0.205 -1.147,0.408 -1.722,0.607 0,-2.307 0,-4.613 0,-6.92 -0.791,0.275 -1.583,0.547 -2.377,0.811 10e-4,-0.42 10e-4,-0.84 10e-4,-1.26 z m 14.01,-1.993 c -0.001,2.221 -0.552,5.344 -3.287,6.443 -2.74,1.086 -3.308,-1.592 -3.306,-3.814 -0.002,-2.232 0.564,-5.297 3.306,-6.383 2.735,-1.099 3.285,1.522 3.287,3.754 z m -1.546,0.641 c -10e-4,-2.047 -0.381,-3.609 -1.741,-3.064 -1.363,0.541 -1.746,2.41 -1.746,4.455 -0.001,2.043 0.383,3.623 1.746,3.08 1.361,-0.545 1.74,-2.428 1.741,-4.471 z m 9.022,-3.961 c -0.002,2.221 -0.543,5.367 -3.243,6.584 -2.705,1.201 -3.266,-1.453 -3.264,-3.674 -0.002,-2.232 0.559,-5.322 3.264,-6.523 2.7,-1.217 3.241,1.381 3.243,3.613 z m -1.525,0.707 c -10e-4,-2.047 -0.374,-3.594 -1.718,-2.99 -1.345,0.6 -1.724,2.482 -1.724,4.529 0,2.043 0.378,3.605 1.724,3.006 1.344,-0.601 1.718,-2.502 1.718,-4.545 z"
             id="path16" />
          <path
             d="m 663.43,255.535 c 1.659,-0.602 3.312,-1.227 4.958,-1.873 0,0.477 0,0.953 0,1.43 -1.26,0.494 -2.522,0.977 -3.79,1.445 -0.165,0.891 -0.33,1.783 -0.494,2.676 0.009,0.006 0.018,0.012 0.027,0.018 0.425,-0.633 1.125,-1.158 1.769,-1.4 1.903,-0.721 2.992,0.24 2.992,2.119 0,1.566 -0.951,3.904 -3.308,4.793 -1.849,0.695 -3.296,0.182 -3.365,-1.754 0.523,-0.186 1.046,-0.375 1.568,-0.564 0.097,1.014 0.756,1.377 1.771,0.996 1.328,-0.5 1.777,-1.645 1.778,-2.834 -10e-4,-1.078 -0.559,-1.826 -1.819,-1.352 -0.658,0.246 -1.303,0.693 -1.551,1.471 -0.521,0.191 -1.045,0.379 -1.568,0.566 0.344,-1.913 0.688,-3.825 1.032,-5.737 z m 12.963,-0.316 c -0.002,2.221 -0.547,5.355 -3.266,6.514 -2.724,1.143 -3.287,-1.521 -3.286,-3.744 -10e-4,-2.232 0.563,-5.311 3.286,-6.453 2.718,-1.159 3.264,1.45 3.266,3.683 z m -1.537,0.674 c -10e-4,-2.047 -0.377,-3.602 -1.729,-3.027 -1.355,0.57 -1.735,2.445 -1.735,4.492 0,2.043 0.381,3.615 1.735,3.043 1.352,-0.573 1.729,-2.465 1.729,-4.508 z"
             id="path18" />
          <g
             id="g20">
            <path
               d="m 635.923,140.82 c 6.576,-0.843 12.676,-1.882 18.181,-3.087"
               id="path22"
               style="fill:none;stroke:#161413;stroke-width:3;stroke-linecap:round;stroke-linejoin:round" />
            <path
               d="m 635.923,203.85 c 6.576,-0.844 12.676,-1.881 18.181,-3.086"
               id="path24"
               style="fill:none;stroke:#161413;stroke-width:3;stroke-linecap:round;stroke-linejoin:round" />
            <path
               d="m 654.104,263.996 c -5.505,1.203 -11.604,2.244 -18.181,3.086 V 77.92 c 6.576,-0.844 12.676,-1.883 18.181,-3.086"
               id="path26"
               style="fill:none;stroke:#161413;stroke-width:3;stroke-linecap:round;stroke-linejoin:round" />
          </g>
        </g>
        <g
           id="g28">
          <path
             d="m 494.27,-7.964 c 1.188,-0.764 3.89,-1.547 5.157,-1.788 10.227,-1.944 17.291,-1.553 29.514,1.237 17.599,4.02 41.913,6.504 68.771,6.504 39.391,0 71.88,-5.659 87.244,-13.075 3.707,-1.79 5.684,-4.23 6.077,-5.996"
             id="path30"
             style="fill:none;stroke:#161413;stroke-width:2;stroke-linecap:round;stroke-linejoin:round" />
          <path
             d="m 689.544,-1.659 v 303.837 c 0,12.324 -11.623,32.982 -89.91,32.982 -78.287,0 -89.91,-20.658 -89.91,-32.982 V 17.07 c 0,0 1.085,-16.695 -14.782,-18.978 -0.793,-0.114 -3.342,1.012 -4.222,0.979 -5.084,-0.192 -6.255,-6.085 2.163,-13.997 9.366,-8.801 4.969,-18.466 23.584,-25.036 17.829,-6.292 48.311,-11.222 83.167,-11.222 54.714,0 99.067,11.186 99.067,24.586 0,9.71 -9.157,10.699 -9.157,24.939 z"
             id="path32"
             style="fill:none;stroke:#161413;stroke-width:4;stroke-linecap:round;stroke-linejoin:round" />
          <path
             d="m 502.82,-5.477 c 12.318,-1.33 15.688,0.139 26.323,2.835 0.695,0.176 1.42,0.358 2.181,0.547"
             id="path34"
             style="fill:none;stroke:#161413;stroke-linecap:round;stroke-linejoin:round" />
          <path
             d="m 688.391,-10.482 c -16.381,10.074 -51.242,15.508 -88.79,15.508 -19.525,0 -37.732,-1.475 -53.08,-4.021"
             id="path36"
             style="fill:none;stroke:#161413;stroke-linecap:round;stroke-linejoin:round" />
          <path
             d="m 653.353,-40.07 c 14.549,2.714 27.802,7.288 33.088,10.875 2.426,1.647 3.832,3.549 3.832,5.787"
             id="path38"
             style="fill:none;stroke:#161413;stroke-linecap:round;stroke-linejoin:round" />
          <path
             d="m 503.795,-16.821 c 3.144,-7.721 4.968,-14.095 22.284,-19.244 17.87,-5.313 43.558,-8.645 72.104,-8.645 14.146,0 27.592,0.818 39.73,2.29"
             id="path40"
             style="fill:none;stroke:#161413;stroke-linecap:round;stroke-linejoin:round" />
          <path
             d="M 684.403,291.525 V -1.618 c 0,-1.911 0.708,-4.862 1.308,-5.843"
             id="path42"
             style="fill:none;stroke:#161413;stroke-linecap:round;stroke-linejoin:round" />
          <path
             d="m 514.798,291.525 c 0,0 0,-266.151 0,-273.113 0,-12.429 -4.191,-20.31 -13.054,-22.348"
             id="path44"
             style="fill:none;stroke:#161413;stroke-linecap:round;stroke-linejoin:round" />
          <path
             d="m 529.595,318.34 c -12.029,-5.674 -14.783,-12.863 -14.783,-18.934"
             id="path46"
             style="fill:none;stroke:#161413;stroke-linecap:round;stroke-linejoin:round" />
          <path
             d="m 684.292,299.406 c 0,12.139 -10.94,28.764 -84.641,28.764 -25.374,0 -43.309,-1.973 -55.919,-5.053"
             id="path48"
             style="fill:none;stroke:#161413;stroke-linecap:round;stroke-linejoin:round" />
          <path
             d="m 675.616,309.842 c 0,-6.143 -13.254,-11.555 -33.42,-14.76"
             id="path50"
             style="fill:none;stroke:#161413;stroke-linecap:round;stroke-linejoin:round" />
          <path
             d="m 619.674,292.654 c -6.395,-0.41 -13.125,-0.631 -20.073,-0.631 -41.981,0 -76.016,7.977 -76.016,17.818"
             id="path52"
             style="fill:none;stroke:#161413;stroke-linecap:round;stroke-linejoin:round" />
          <path
             d="m 630.35,278.536 c -9.579,-1.033 -19.935,-1.604 -30.749,-1.604 -36.113,0 -67.18,6.297 -80.959,15.322"
             id="path54"
             style="fill:none;stroke:#161413;stroke-linecap:round;stroke-linejoin:round" />
          <path
             d="m 680.559,292.255 c -4.941,-3.236 -11.345,-5.841 -19.911,-8.215"
             id="path56"
             style="fill:none;stroke:#161413;stroke-linecap:round;stroke-linejoin:round" />
        </g>
      </g>
      <g
         id="150ml">
        <g
           id="g59">
          <path
             d="m 326.548,175.505 c 1.75,0.436 3.417,0.199 3.729,-1.256 0.567,0.123 1.136,0.242 1.704,0.359 0,4.227 0,8.453 0,12.68 -0.765,-0.158 -1.527,-0.32 -2.29,-0.488 0,-2.982 0,-5.965 0,-8.947 -1.049,-0.229 -2.097,-0.469 -3.143,-0.719 0,-0.543 0,-1.086 0,-1.629 z m 11.482,0.242 c 2.224,0.379 4.453,0.715 6.687,1.01 0,0.617 0,1.232 0,1.848 -1.709,-0.225 -3.415,-0.477 -5.118,-0.75 -0.222,1.039 -0.443,2.076 -0.665,3.115 0.013,0.014 0.024,0.027 0.037,0.041 0.572,-0.52 1.513,-0.713 2.382,-0.582 2.567,0.385 4.05,2.375 4.049,4.803 0.001,2.025 -1.297,4.398 -4.475,3.916 -2.493,-0.383 -4.425,-2.059 -4.518,-4.611 0.699,0.127 1.399,0.248 2.1,0.365 0.13,1.379 1.016,2.311 2.381,2.521 1.792,0.271 2.402,-0.898 2.402,-2.438 0,-1.396 -0.758,-2.744 -2.458,-3.006 -0.886,-0.137 -1.753,-0.008 -2.084,0.826 -0.701,-0.117 -1.401,-0.238 -2.102,-0.363 0.461,-2.23 0.921,-4.463 1.382,-6.695 z m 17.658,8.461 c 0,2.871 -0.765,6.563 -4.497,6.219 -3.732,-0.369 -4.488,-4.207 -4.489,-7.078 0,-2.889 0.757,-6.477 4.489,-6.107 3.733,0.343 4.497,4.077 4.497,6.966 z m -2.12,-0.162 c 0,-2.646 -0.521,-4.91 -2.378,-5.084 -1.857,-0.182 -2.376,1.982 -2.376,4.629 0,2.643 0.519,4.936 2.376,5.115 1.857,0.176 2.377,-2.019 2.378,-4.66 z m 9.083,-2.508 c 0.671,0.021 1.341,0.039 2.012,0.053 0,0.436 0,0.869 0,1.305 0.019,0 0.038,0 0.057,0.002 0.633,-0.912 1.435,-1.529 2.962,-1.523 1.174,0.006 2.273,0.484 2.702,1.549 0.709,-0.969 1.62,-1.578 3.018,-1.615 2.031,-0.059 3.223,0.748 3.223,3.033 0,2.154 0,4.311 0,6.465 -0.707,0.033 -1.415,0.061 -2.123,0.084 0,-1.822 0,-3.646 0,-5.469 0,-1.488 -0.093,-2.51 -1.751,-2.467 -1.435,0.033 -2.05,0.961 -2.05,2.537 0,1.828 0,3.658 0,5.488 -0.708,0.008 -1.416,0.014 -2.124,0.014 0,-2.004 0,-4.01 0,-6.014 10e-4,-1.285 -0.41,-1.971 -1.695,-1.98 -1.1,-0.008 -2.105,0.84 -2.106,2.398 0,1.854 0,3.707 0,5.561 -0.707,-0.016 -1.415,-0.033 -2.123,-0.057 -0.002,-3.122 -0.002,-6.243 -0.002,-9.364 z m 16.264,-3.783 c 0.708,-0.041 1.415,-0.086 2.122,-0.137 0,4.311 0,8.621 0,12.932 -0.707,0.051 -1.414,0.096 -2.122,0.137 0,-4.311 0,-8.622 0,-12.932 z"
             id="path61" />
          <path
             d="m 391.344,222.748 c 0.001,5.548 -4.599,10.685 -10.299,11.083 -17.958,1.27 -36.064,-0.187 -53.682,-4.371 -5.595,-1.323 -10.067,-7.213 -10.068,-12.759 0,-5.906 0,-11.813 0,-17.717 10e-4,-5.556 4.474,-8.671 10.068,-7.347 17.617,4.184 35.724,5.643 53.682,4.373 5.701,-0.398 10.299,3.464 10.299,9.021 0,5.907 0,11.813 0,17.717 z"
             id="path63"
             style="fill:none;stroke:#161413;stroke-width:0.985;stroke-linecap:round;stroke-linejoin:round" />
        </g>
        <g
           id="g65">
          <path
             d="m 428.638,153.236 c 1.189,-0.361 2.313,-1.148 2.521,-2.268 0.383,-0.127 0.766,-0.256 1.146,-0.387 0,2.914 0,5.828 0,8.74 -0.514,0.176 -1.027,0.348 -1.541,0.518 0,-2.055 0,-4.111 0,-6.168 -0.707,0.234 -1.416,0.463 -2.127,0.688 10e-4,-0.375 10e-4,-0.75 10e-4,-1.123 z m 12.496,2.778 c -1.93,0.789 -3.871,1.537 -5.822,2.248 0.012,-1.441 0.734,-2.787 1.883,-4.008 1.111,-1.242 2.545,-2.496 2.568,-3.869 0.012,-0.629 -0.24,-1.447 -1.434,-0.984 -1.098,0.424 -1.428,1.506 -1.465,2.742 -0.463,0.176 -0.928,0.348 -1.393,0.518 -0.002,-1.938 1.043,-3.744 2.943,-4.479 2.08,-0.811 2.73,0.471 2.73,1.596 0,1.387 -0.918,2.625 -1.893,3.707 -0.982,1.088 -2.021,2.02 -2.266,2.885 1.389,-0.523 2.77,-1.066 4.146,-1.629 0.003,0.423 0.003,0.849 0.003,1.273 z m 6.717,-7.295 c -0.002,1.98 -0.484,4.785 -2.896,5.852 -2.418,1.053 -2.918,-1.318 -2.916,-3.299 -0.002,-1.99 0.498,-4.738 2.916,-5.791 2.411,-1.066 2.894,1.248 2.896,3.238 z m -1.362,0.623 c 0,-1.824 -0.334,-3.203 -1.535,-2.676 -1.201,0.525 -1.539,2.201 -1.539,4.025 -0.002,1.822 0.338,3.219 1.539,2.691 1.201,-0.528 1.535,-2.218 1.535,-4.04 z"
             id="path67" />
          <path
             d="m 431.883,209.795 c 0,-1.1 0.616,-2.094 1.575,-2.678 0,-0.008 0,-0.016 0,-0.025 -0.774,-0.029 -1.218,-0.527 -1.218,-1.377 0,-1.486 0.974,-2.711 2.679,-3.322 1.703,-0.615 2.665,-0.092 2.665,1.395 0,0.85 -0.438,1.668 -1.209,2.254 0,0.008 0,0.016 0,0.025 0.954,-0.105 1.563,0.445 1.563,1.545 -10e-4,1.709 -1.279,3.242 -3.02,3.869 -1.74,0.628 -3.035,0.023 -3.035,-1.686 z m 4.663,-1.658 c 0,-0.961 -0.695,-1.273 -1.627,-0.938 -0.933,0.336 -1.633,1.152 -1.633,2.113 -10e-4,1.023 0.7,1.381 1.633,1.045 0.932,-0.336 1.627,-1.197 1.627,-2.22 z m -2.978,-2.807 c 0,0.824 0.578,1.086 1.351,0.807 0.771,-0.277 1.346,-0.955 1.346,-1.779 0,-0.859 -0.598,-1.111 -1.346,-0.842 -0.748,0.269 -1.35,0.953 -1.351,1.814 z m 11.038,-2.244 c -10e-4,1.979 -0.489,4.771 -2.918,5.781 -2.435,0.996 -2.939,-1.387 -2.938,-3.367 -10e-4,-1.99 0.504,-4.727 2.938,-5.723 2.429,-1.009 2.917,1.319 2.918,3.309 z m -1.372,0.59 c -10e-4,-1.824 -0.337,-3.213 -1.546,-2.713 -1.212,0.498 -1.553,2.166 -1.552,3.99 0,1.82 0.34,3.225 1.552,2.729 1.209,-0.502 1.546,-2.186 1.546,-4.006 z"
             id="path69" />
          <path
             d="m 437.944,259.268 c -0.365,0.141 -0.73,0.279 -1.098,0.416 0,0.691 0,1.383 0,2.072 -0.439,0.166 -0.881,0.328 -1.322,0.488 0,-0.691 0,-1.381 0,-2.072 -1.223,0.447 -2.453,0.879 -3.686,1.293 0,-0.469 0,-0.939 0,-1.41 1.232,-2.168 2.463,-4.352 3.686,-6.551 0.441,-0.16 0.883,-0.322 1.322,-0.488 0,1.848 0,3.697 0,5.545 0.367,-0.137 0.732,-0.277 1.098,-0.416 0,0.375 0,0.748 0,1.123 z m -5.021,0.705 c 0.869,-0.301 1.736,-0.607 2.602,-0.924 0,-1.281 0,-2.564 0,-3.846 -0.008,0.004 -0.016,0.006 -0.023,0.008 -0.858,1.596 -1.718,3.182 -2.579,4.762 z m 11.726,-5.744 c 0,1.979 -0.488,4.771 -2.918,5.781 -2.434,0.996 -2.939,-1.387 -2.938,-3.367 -0.002,-1.99 0.504,-4.727 2.938,-5.723 2.43,-1.01 2.918,1.318 2.918,3.309 z m -1.371,0.589 c -0.002,-1.824 -0.338,-3.213 -1.547,-2.713 -1.211,0.498 -1.553,2.166 -1.551,3.99 0,1.82 0.34,3.225 1.551,2.729 1.209,-0.502 1.547,-2.183 1.547,-4.006 z"
             id="path71" />
          <g
             id="g73">
            <path
               d="m 410.498,186.674 c 5.857,-0.752 11.292,-1.676 16.196,-2.75"
               id="path75"
               style="fill:none;stroke:#161413;stroke-width:3;stroke-linecap:round;stroke-linejoin:round" />
            <path
               d="m 410.498,212.383 c 5.857,-0.75 11.292,-1.676 16.196,-2.748"
               id="path77"
               style="fill:none;stroke:#161413;stroke-width:3;stroke-linecap:round;stroke-linejoin:round" />
            <path
               d="m 410.498,238.27 c 5.857,-0.75 11.292,-1.676 16.196,-2.748"
               id="path79"
               style="fill:none;stroke:#161413;stroke-width:3;stroke-linecap:round;stroke-linejoin:round" />
            <path
               d="m 426.694,261.832 c -4.904,1.072 -10.339,1.998 -16.196,2.75 V 160.059 c 5.857,-0.752 11.292,-1.678 16.196,-2.748"
               id="path81"
               style="fill:none;stroke:#161413;stroke-width:3;stroke-linecap:round;stroke-linejoin:round" />
          </g>
        </g>
        <g
           id="g83">
          <path
             d="m 282.76,102.082 c 1.053,-0.647 3.45,-1.311 4.575,-1.515 9.073,-1.646 15.341,-1.315 26.183,1.048 15.613,3.404 37.186,5.509 61.014,5.509 34.946,0 63.769,-4.793 77.398,-11.074 3.291,-1.517 5.043,-3.583 5.394,-5.078"
             id="path85"
             style="fill:none;stroke:#161413;stroke-width:2;stroke-linecap:round;stroke-linejoin:round" />
          <path
             d="m 456.706,107.437 v 192.558 c 0,10.977 -10.353,29.379 -80.09,29.379 -69.736,0 -80.09,-18.402 -80.09,-29.379 V 124.121 c 0,0 0.981,-14.864 -13.521,-16.684 -0.601,-0.075 -2.733,0.625 -3.388,0.601 -4.157,-0.157 -5.126,-5.808 1.907,-12.418 8.344,-7.839 4.426,-16.449 21.008,-22.301 15.881,-5.604 43.034,-9.996 74.084,-9.996 48.738,0 88.247,9.964 88.247,21.901 0,8.647 -8.157,9.527 -8.157,22.213 z"
             id="path87"
             style="fill:none;stroke:#161413;stroke-width:4;stroke-linecap:round;stroke-linejoin:round" />
          <path
             d="m 291.64,104.549 c 10.809,-1.166 13.768,0.122 23.097,2.488 0.611,0.155 1.247,0.315 1.913,0.48"
             id="path89"
             style="fill:none;stroke:#161413;stroke-linecap:round;stroke-linejoin:round" />
          <path
             d="m 454.463,100.158 c -14.373,8.84 -44.96,13.608 -77.905,13.608 -17.133,0 -33.107,-1.294 -46.575,-3.53"
             id="path91"
             style="fill:none;stroke:#161413;stroke-linecap:round;stroke-linejoin:round" />
          <path
             d="m 424.442,74.198 c 12.836,2.38 24.529,6.394 29.191,9.541 2.143,1.447 3.382,3.115 3.382,5.079"
             id="path93"
             style="fill:none;stroke:#161413;stroke-linecap:round;stroke-linejoin:round" />
          <path
             d="m 292.494,94.597 c 2.773,-6.775 4.384,-12.368 19.662,-16.886 15.764,-4.662 38.428,-7.586 63.614,-7.586 12.48,0 24.343,0.718 35.05,2.01"
             id="path95"
             style="fill:none;stroke:#161413;stroke-linecap:round;stroke-linejoin:round" />
          <path
             d="M 450.966,291.003 V 107.936 c 0,-1.676 0.62,-4.266 1.146,-5.127"
             id="path97"
             style="fill:none;stroke:#161413;stroke-linecap:round;stroke-linejoin:round" />
          <path
             d="m 302.149,291.003 c 0,0 0,-159.384 0,-165.492 0,-10.905 -3.707,-18.008 -11.483,-19.797"
             id="path99"
             style="fill:none;stroke:#161413;stroke-linecap:round;stroke-linejoin:round" />
          <path
             d="M 315.133,314.529 C 304.577,309.551 302.16,303.242 302.16,297.917"
             id="path101"
             style="fill:none;stroke:#161413;stroke-linecap:round;stroke-linejoin:round" />
          <path
             d="m 450.866,297.917 c 0,10.65 -9.6,25.236 -74.265,25.236 -22.264,0 -38,-1.729 -49.064,-4.431"
             id="path103"
             style="fill:none;stroke:#161413;stroke-linecap:round;stroke-linejoin:round" />
          <path
             d="m 443.255,307.072 c 0,-5.387 -11.629,-10.139 -29.324,-12.951"
             id="path105"
             style="fill:none;stroke:#161413;stroke-linecap:round;stroke-linejoin:round" />
          <path
             d="m 394.169,291.991 c -5.609,-0.359 -11.515,-0.552 -17.611,-0.552 -36.837,0 -66.699,6.999 -66.699,15.633"
             id="path107"
             style="fill:none;stroke:#161413;stroke-linecap:round;stroke-linejoin:round" />
          <path
             d="m 403.536,279.43 c -8.405,-0.906 -17.491,-1.404 -26.979,-1.404 -31.688,0 -58.941,5.521 -71.035,13.441"
             id="path109"
             style="fill:none;stroke:#161413;stroke-linecap:round;stroke-linejoin:round" />
          <path
             d="m 447.592,291.467 c -4.169,-2.729 -10.14,-5.173 -17.471,-7.206"
             id="path111"
             style="fill:none;stroke:#161413;stroke-linecap:round;stroke-linejoin:round" />
        </g>
      </g>
      <g
         id="800ml">
        <g
           id="g114">
          <path
             d="m -58.002,-49.541 c 19.94,-2.152 25.397,0.225 42.611,4.589 1.124,0.285 2.297,0.581 3.529,0.886"
             id="path116"
             style="fill:none;stroke:#161413;stroke-linecap:round;stroke-linejoin:round" />
          <path
             d="m 242.38,-57.643 c -26.517,16.307 -82.943,25.104 -143.724,25.104 -31.604,0 -61.077,-2.388 -85.922,-6.51"
             id="path118"
             style="fill:none;stroke:#161413;stroke-linecap:round;stroke-linejoin:round" />
          <path
             d="m 187.159,-103.93 c 23.644,4.24 45.181,11.386 53.771,16.991 3.945,2.575 6.229,5.545 6.229,9.042"
             id="path120"
             style="fill:none;stroke:#161413;stroke-linecap:round;stroke-linejoin:round" />
          <path
             d="m -63.12,-59.303 c 4.471,-3.317 8.346,-10.953 8.897,-12.24 4.417,-10.312 9.537,-18.977 34.555,-26.13 29.04,-8.302 70.785,-13.509 117.175,-13.509 22.988,0 44.838,1.279 64.564,3.579"
             id="path122"
             style="fill:none;stroke:#161413;stroke-linecap:round;stroke-linejoin:round" />
          <path
             d="M 235.926,280.025 V -43.294 c 0,-3.092 1.146,-7.87 2.115,-9.458"
             id="path124"
             style="fill:none;stroke:#161413;stroke-linecap:round;stroke-linejoin:round" />
          <path
             d="m -38.614,280.025 c 0,0 0,-279.628 0,-290.896 0,-20.118 -6.782,-32.071 -21.127,-35.371"
             id="path126"
             style="fill:none;stroke:#161413;stroke-linecap:round;stroke-linejoin:round" />
          <path
             d="m -14.66,321.95 c -19.475,-9.401 -23.933,-21.317 -23.933,-31.374"
             id="path128"
             style="fill:none;stroke:#161413;stroke-linecap:round;stroke-linejoin:round" />
          <path
             d="m 235.744,290.576 c 0,20.114 -17.71,47.661 -137.006,47.661 -41.073,0 -70.104,-3.266 -90.516,-8.369"
             id="path130"
             style="fill:none;stroke:#161413;stroke-linecap:round;stroke-linejoin:round" />
          <path
             d="m 221.701,309.674 c 0,-9.94 -21.453,-18.705 -54.097,-23.891"
             id="path132"
             style="fill:none;stroke:#161413;stroke-linecap:round;stroke-linejoin:round" />
          <path
             d="m 131.148,281.852 c -10.352,-0.663 -21.244,-1.019 -32.493,-1.019 -67.956,0 -123.045,12.911 -123.045,28.841"
             id="path134"
             style="fill:none;stroke:#161413;stroke-linecap:round;stroke-linejoin:round" />
          <path
             d="m 148.43,258.458 c -15.507,-1.672 -32.269,-2.592 -49.774,-2.592 -58.458,0 -108.737,10.189 -131.047,24.8"
             id="path136"
             style="fill:none;stroke:#161413;stroke-linecap:round;stroke-linejoin:round" />
          <path
             d="m 229.703,280.666 c -7.69,-5.036 -18.705,-9.546 -32.231,-13.296"
             id="path138"
             style="fill:none;stroke:#161413;stroke-linecap:round;stroke-linejoin:round" />
          <path
             d="m -69.337,-50.947 c 1.928,-1.349 6.316,-2.732 8.374,-3.157 16.61,-3.432 28.083,-2.741 47.929,2.184 28.584,7.094 68.072,11.481 111.69,11.481 63.974,0 115.051,-9.989 140.001,-23.079 6.023,-3.16 9.314,-7.467 9.956,-10.583"
             id="path140"
             style="fill:none;stroke:#161413;stroke-width:2;stroke-linecap:round;stroke-linejoin:round" />
          <path
             d="m 242.009,-39.879 v 333.252 c 0,19.648 -18.53,52.587 -143.353,52.587 -124.822,0 -143.353,-32.938 -143.353,-52.587 V -10.016 c 0,0 1.712,-27.856 -23.21,-31.709 -1.371,-0.212 -5.023,0.996 -6.56,0.938 -7.028,-0.265 -8.036,-9.949 2.919,-20.244 14.933,-14.032 7.921,-29.442 37.602,-39.917 28.424,-10.031 77.026,-17.892 132.602,-17.892 87.236,0 157.954,17.835 157.954,39.2 -0.001,15.479 -14.601,17.056 -14.601,39.761 z"
             id="path142"
             style="fill:none;stroke:#161413;stroke-width:4;stroke-linecap:round;stroke-linejoin:round" />
        </g>
        <g
           id="g144">
          <path
             d="m 66.173,176.265 c 0,-1.595 0.947,-2.605 2.425,-2.786 0,-0.012 0,-0.023 0,-0.036 -1.194,-0.582 -1.875,-1.615 -1.875,-2.847 0,-2.157 1.495,-3.255 4.132,-2.953 2.637,0.298 4.139,1.737 4.139,3.895 0,1.231 -0.685,2.109 -1.881,2.419 0,0.013 0,0.024 0,0.036 1.481,0.518 2.431,1.745 2.431,3.339 0,2.48 -1.996,3.804 -4.689,3.497 -2.693,-0.307 -4.682,-2.084 -4.682,-4.564 z m 7.206,0.852 c 0,-1.396 -1.083,-2.338 -2.524,-2.502 -1.441,-0.164 -2.522,0.532 -2.522,1.928 0,1.484 1.081,2.49 2.522,2.654 1.441,0.164 2.524,-0.595 2.524,-2.08 z m -4.61,-6.153 c 0,1.194 0.891,1.977 2.086,2.112 1.195,0.135 2.087,-0.442 2.087,-1.638 0,-1.249 -0.93,-2.034 -2.087,-2.166 -1.158,-0.131 -2.086,0.442 -2.086,1.692 z m 17.261,4.527 c 0,2.873 -0.782,6.571 -4.608,6.311 -3.825,-0.279 -4.603,-4.088 -4.603,-6.961 0,-2.886 0.778,-6.504 4.603,-6.225 3.826,0.261 4.608,3.989 4.608,6.875 z m -2.172,-0.122 c 0,-2.646 -0.534,-4.9 -2.437,-5.033 -1.903,-0.137 -2.435,2.043 -2.435,4.689 0,2.642 0.532,4.919 2.435,5.056 1.904,0.133 2.437,-2.069 2.437,-4.712 z m 12.77,0.445 c 0,2.874 -0.782,6.604 -4.614,6.508 -3.832,-0.115 -4.612,-3.89 -4.612,-6.764 0,-2.886 0.781,-6.537 4.612,-6.422 3.833,0.097 4.614,3.793 4.614,6.678 z m -2.173,-0.029 c 0,-2.646 -0.534,-4.878 -2.44,-4.929 -1.906,-0.055 -2.44,2.147 -2.44,4.794 0,2.642 0.534,4.896 2.44,4.951 1.906,0.051 2.44,-2.173 2.44,-4.816 z m 9.307,-3.033 c 0.687,-0.014 1.373,-0.03 2.059,-0.049 0,0.435 0,0.869 0,1.305 0.019,-0.001 0.038,-0.002 0.057,-0.002 0.648,-0.943 1.467,-1.6 3.03,-1.662 1.201,-0.048 2.324,0.385 2.763,1.431 0.724,-0.998 1.657,-1.646 3.086,-1.736 2.074,-0.134 3.291,0.635 3.291,2.918 0,2.155 0,4.311 0,6.466 -0.723,0.057 -1.445,0.109 -2.169,0.159 0,-1.823 0,-3.646 0,-5.47 0,-1.487 -0.095,-2.508 -1.79,-2.401 -1.466,0.089 -2.094,1.043 -2.095,2.619 0,1.829 0,3.658 0,5.488 -0.724,0.038 -1.447,0.073 -2.171,0.105 0,-2.005 0,-4.01 0,-6.014 0,-1.286 -0.419,-1.953 -1.734,-1.903 -1.125,0.042 -2.154,0.939 -2.154,2.497 0,1.854 0,3.707 0,5.561 -0.724,0.021 -1.448,0.038 -2.173,0.053 0,-3.123 0,-6.244 0,-9.365 z m 16.628,-4.454 c 0.723,-0.063 1.444,-0.129 2.167,-0.198 0,4.311 0,8.621 0,12.932 -0.723,0.069 -1.444,0.136 -2.167,0.198 0,-4.311 0,-8.622 0,-12.932 z"
             id="path146" />
          <path
             d="m 133.348,213.882 c 0,5.633 -4.771,10.904 -10.685,11.471 -18.624,1.794 -37.407,1.476 -55.974,-0.957 -5.896,-0.769 -10.646,-6.204 -10.646,-11.837 0,-5.996 0,-11.991 0,-17.986 0,-5.64 4.751,-9.343 10.646,-8.574 18.566,2.433 37.35,2.751 55.974,0.957 5.913,-0.566 10.685,3.301 10.685,8.94 0,5.995 0,11.991 0,17.986 z"
             id="path148"
             style="fill:none;stroke:#161413;stroke-linecap:round;stroke-linejoin:round" />
        </g>
        <g
           id="g150">
          <g
             id="g152">
            <path
               d="m 164.374,87.704 c 10.484,-1.345 20.211,-3.001 28.988,-4.92"
               id="path154"
               style="fill:none;stroke:#161413;stroke-width:3;stroke-linecap:round;stroke-linejoin:round" />
            <path
               d="m 164.374,132.503 c 10.484,-1.345 20.211,-3.001 28.988,-4.92"
               id="path156"
               style="fill:none;stroke:#161413;stroke-width:3;stroke-linecap:round;stroke-linejoin:round" />
            <path
               d="m 164.374,177.303 c 10.484,-1.345 20.211,-3.001 28.988,-4.92"
               id="path158"
               style="fill:none;stroke:#161413;stroke-width:3;stroke-linecap:round;stroke-linejoin:round" />
            <path
               d="m 164.374,222.103 c 10.484,-1.345 20.211,-3.001 28.988,-4.92"
               id="path160"
               style="fill:none;stroke:#161413;stroke-width:3;stroke-linecap:round;stroke-linejoin:round" />
            <path
               d="m 193.362,261.982 c -8.777,1.919 -18.504,3.575 -28.988,4.92 V 42.904 c 10.484,-1.345 20.211,-3.001 28.988,-4.92"
               id="path162"
               style="fill:none;stroke:#161413;stroke-width:3;stroke-linecap:round;stroke-linejoin:round" />
          </g>
          <g
             id="g164">
            <path
               d="m 208.495,74.262 c -0.067,-0.772 -0.577,-1.118 -1.366,-0.815 -1.66,0.638 -2.225,3.579 -1.945,4.102 0.002,0.004 0.018,0.009 0.027,0.016 0.415,-0.926 1.192,-1.61 2.022,-1.931 1.864,-0.72 2.964,0.25 2.964,2.127 0,1.902 -1.247,3.854 -3.123,4.573 -2.759,1.059 -3.42,-0.989 -3.42,-3.84 0,-2.34 0.889,-5.382 3.541,-6.401 1.487,-0.572 2.744,0 2.824,1.564 -0.508,0.204 -1.015,0.405 -1.524,0.605 z m 0.175,4.076 c -10e-4,-1.052 -0.549,-1.785 -1.647,-1.361 -1.113,0.428 -1.69,1.566 -1.69,2.644 0,1.064 0.577,1.831 1.69,1.403 1.098,-0.424 1.646,-1.636 1.647,-2.686 z m 8.899,-5.425 c -10e-4,2.222 -0.542,5.355 -3.212,6.482 -2.671,1.128 -3.229,-1.54 -3.229,-3.761 0,-2.23 0.559,-5.307 3.229,-6.435 2.67,-1.127 3.211,1.483 3.212,3.714 z m -1.511,0.656 c 0,-2.046 -0.37,-3.602 -1.7,-3.04 -1.331,0.562 -1.706,2.435 -1.706,4.481 -10e-4,2.043 0.375,3.618 1.706,3.056 1.33,-0.561 1.7,-2.453 1.7,-4.497 z m 8.824,-4.005 c -0.002,2.222 -0.533,5.37 -3.169,6.584 -2.637,1.215 -3.191,-1.435 -3.191,-3.655 0,-2.229 0.555,-5.327 3.191,-6.542 2.636,-1.215 3.167,1.381 3.169,3.613 z m -1.49,0.706 c -0.001,-2.046 -0.365,-3.594 -1.679,-2.989 -1.314,0.605 -1.685,2.494 -1.685,4.539 0,2.043 0.371,3.604 1.685,2.998 1.312,-0.605 1.678,-2.505 1.679,-4.548 z"
               id="path166" />
            <path
               d="m 210.209,169.206 c -0.402,0.161 -0.803,0.321 -1.205,0.479 0,0.775 0,1.55 0,2.325 -0.482,0.19 -0.965,0.377 -1.448,0.565 0,-0.775 -0.001,-1.549 -0.001,-2.323 -1.343,0.521 -2.688,1.029 -4.035,1.525 0,-0.527 0,-1.056 0,-1.583 1.347,-2.462 2.691,-4.939 4.034,-7.425 0.483,-0.188 0.966,-0.375 1.448,-0.565 0,2.073 0,4.146 0,6.22 0.402,-0.158 0.805,-0.317 1.207,-0.479 0,0.421 0,0.841 0,1.261 z m -5.504,0.87 c 0.949,-0.356 1.902,-0.717 2.851,-1.084 0,-1.438 -0.002,-2.877 -0.002,-4.314 -0.009,0.003 -0.018,0.006 -0.026,0.01 -0.94,1.801 -1.882,3.597 -2.823,5.388 z m 12.88,-6.541 c -0.001,2.223 -0.542,5.355 -3.212,6.481 -2.671,1.126 -3.231,-1.542 -3.231,-3.764 0,-2.23 0.559,-5.308 3.229,-6.434 2.67,-1.125 3.213,1.486 3.214,3.717 z m -1.512,0.657 c 0,-2.046 -0.371,-3.604 -1.7,-3.043 -1.33,0.562 -1.706,2.436 -1.706,4.481 -0.001,2.044 0.376,3.617 1.706,3.056 1.329,-0.56 1.7,-2.45 1.7,-4.494 z m 8.809,-4 c -0.002,2.223 -0.53,5.372 -3.161,6.585 -2.632,1.213 -3.188,-1.439 -3.188,-3.66 0,-2.229 0.556,-5.323 3.188,-6.537 2.631,-1.213 3.159,1.381 3.161,3.612 z m -1.486,0.705 c -10e-4,-2.046 -0.364,-3.592 -1.675,-2.987 -1.312,0.604 -1.683,2.49 -1.683,4.535 0,2.043 0.372,3.604 1.683,2.999 1.31,-0.603 1.674,-2.503 1.675,-4.547 z"
               id="path168" />
            <path
               d="m 210.156,260.077 c -2.138,0.855 -4.282,1.681 -6.434,2.48 0.015,-1.617 0.842,-3.132 2.076,-4.494 1.229,-1.357 2.814,-2.781 2.841,-4.319 0.013,-0.706 -0.271,-1.627 -1.588,-1.118 -1.21,0.467 -1.278,2.595 -1.615,3.068 -0.141,0.198 -1.026,0.388 -1.539,0.578 0,-2.172 1.15,-4.2 3.247,-5.011 2.298,-0.889 3.023,0.558 3.024,1.82 0.001,1.555 -1.02,2.934 -2.097,4.135 -1.084,1.209 -2.502,3.217 -2.502,3.217 0.131,0.119 3.062,-1.173 4.586,-1.783 0.001,0.477 0.001,0.951 0.001,1.427 z m 7.443,-8.018 c -10e-4,2.223 -0.54,5.353 -3.21,6.477 -2.671,1.124 -3.233,-1.544 -3.233,-3.766 0,-2.23 0.561,-5.304 3.231,-6.428 2.67,-1.124 3.211,1.485 3.212,3.717 z m -1.51,0.654 c 0,-2.046 -0.372,-3.603 -1.702,-3.043 -1.33,0.56 -1.704,2.437 -1.704,4.482 -0.001,2.044 0.376,3.613 1.706,3.054 1.33,-0.559 1.7,-2.449 1.7,-4.493 z m 8.793,-3.993 c -0.002,2.223 -0.528,5.371 -3.153,6.582 -2.626,1.212 -3.182,-1.438 -3.182,-3.659 0,-2.229 0.556,-5.323 3.182,-6.535 2.626,-1.212 3.151,1.38 3.153,3.612 z m -1.483,0.704 c -0.001,-2.046 -0.363,-3.591 -1.671,-2.987 -1.309,0.604 -1.681,2.49 -1.681,4.535 0,2.043 0.372,3.604 1.681,3.001 1.308,-0.603 1.67,-2.505 1.671,-4.549 z"
               id="path170" />
          </g>
        </g>
      </g>
    </g>
  </g>
</svg>
