<?xml version="1.0" encoding="UTF-8" standalone="no"?>
<!-- Created with Inkscape (http://www.inkscape.org/) -->

<svg
   xmlns:dc="http://purl.org/dc/elements/1.1/"
   xmlns:cc="http://creativecommons.org/ns#"
   xmlns:rdf="http://www.w3.org/1999/02/22-rdf-syntax-ns#"
   xmlns:svg="http://www.w3.org/2000/svg"
   xmlns="http://www.w3.org/2000/svg"
   xmlns:sodipodi="http://sodipodi.sourceforge.net/DTD/sodipodi-0.dtd"
   xmlns:inkscape="http://www.inkscape.org/namespaces/inkscape"
   width="265.34442"
   height="264.71429"
   id="svg2"
   version="1.1"
   inkscape:version="0.48.5 r10040"
   sodipodi:docname="clojurescript_logo.svg">
  <defs
     id="defs4" />
  <sodipodi:namedview
     id="base"
     pagecolor="#ffffff"
     bordercolor="#666666"
     borderopacity="1.0"
     inkscape:pageopacity="0.0"
     inkscape:pageshadow="2"
     inkscape:zoom="0.35"
     inkscape:cx="-3.5016523"
     inkscape:cy="266.64286"
     inkscape:document-units="px"
     inkscape:current-layer="layer1"
     showgrid="false"
     inkscape:window-width="1366"
     inkscape:window-height="664"
     inkscape:window-x="-8"
     inkscape:window-y="-8"
     inkscape:window-maximized="1"
     fit-margin-top="0"
     fit-margin-left="0"
     fit-margin-right="0"
     fit-margin-bottom="0" />
  <metadata
     id="metadata7">
    <rdf:RDF>
      <cc:Work
         rdf:about="">
        <dc:format>image/svg+xml</dc:format>
        <dc:type
           rdf:resource="http://purl.org/dc/dcmitype/StillImage" />
        <dc:title></dc:title>
      </cc:Work>
    </rdf:RDF>
  </metadata>
  <g
     inkscape:label="Layer 1"
     inkscape:groupmode="layer"
     id="layer1"
     transform="translate(-378.50165,-558.57647)">
    <g
       transform="matrix(0.15766187,0,0,0.15766187,371.25031,550.06273)"
       id="g2987">
      <path
         style="fill:#95c94a"
         d="m 807.5,1731.4288 c -90.54956,-9.2873 -168.51449,-29.0777 -249,-63.2056 -22.21934,-9.4215 -67.71204,-32.047 -88.59798,-44.0636 C 418.3363,1594.4916 370.26423,1559.6649 325.5,1519.545 306.52943,1502.5427 271.04936,1466.7424 255.09035,1448.5 101.91787,1273.4116 28.379389,1046.9146 49.569449,815.5 64.652654,650.77774 128.28106,494.65982 233.31142,364.67288 268.54246,321.07049 314.95122,274.65254 358.67797,239.28155 479.88574,141.23538 625.26822,78.898102 779,59.055344 795.05062,56.983627 825.26105,54 830.18738,54 L 833,54 l 0,53.93873 0,53.93872 -4.25,0.52781 c -2.3375,0.2903 -11,1.23519 -19.25,2.09976 -130.10209,13.63426 -255.5673,63.06682 -361,142.23189 C 358.914,374.00335 285.82105,460.50567 234.91959,559.5 c -70.77792,137.65052 -96.09249,295.94313 -71.80527,449 17.56264,110.6788 61.08144,216.997 126.57872,309.2368 39.20712,55.2154 89.62656,108.2004 144.30696,151.6499 101.20239,80.4162 225.97138,133.4245 355.5,151.0347 9.47005,1.2875 40.11963,4.5786 42.6401,4.5786 0.47294,0 0.8599,24.3 0.8599,54 l 0,54 -6.25,-0.1189 c -3.4375,-0.065 -12.1,-0.7189 -19.25,-1.4523 z m -322,-621.477 c -29.89582,-3.0716 -53.02794,-10.774 -73.71245,-24.5442 -33.66209,-22.4098 -54.5494,-59.5328 -62.40239,-110.9076 -2.32285,-15.19625 -2.66501,-65.45948 -0.548,-80.5 6.20361,-44.07412 19.92118,-75.34514 43.93428,-100.154 18.93953,-19.56716 42.57148,-32.54779 71.4465,-39.24435 27.9027,-6.47107 73.97929,-6.4566 103.24963,0.0324 C 586.72142,758.90253 613,768.056 613,770.49414 c 0,1.165 -20.88017,57.5606 -21.62819,58.41594 -0.19725,0.22554 -7.22409,-1.88857 -15.61522,-4.69802 -48.23446,-16.14949 -79.06508,-17.0377 -105.94686,-3.05226 -23.305,12.12459 -37.38783,35.32762 -43.90612,72.3402 -1.96523,11.15912 -2.29178,16.46936 -2.30603,37.5 -0.0143,21.16972 0.29505,26.25548 2.27616,37.4146 9.67184,54.479 38.04359,80.6214 87.44862,80.5772 26.21057,-0.023 54.98374,-6.7249 79.55059,-18.5278 6.25513,-3.0052 11.54263,-5.464 11.75,-5.464 0.20738,0 0.37705,14.5514 0.37705,32.3365 l 0,32.3365 -8.25,4.0837 c -16.40818,8.1218 -30.0074,12.1788 -49.6104,14.8003 -14.04404,1.8781 -49.19411,2.6735 -61.6396,1.3948 z M 736,859.5 736,614 l 37,0 37,0 0,245.5 0,245.5 -37,0 -37,0 0,-245.5 z"
         id="path2991"
         inkscape:connector-curvature="0" />
      <path
         style="fill:#5d7ebf"
         d="m 942,1679 c 0,-29.7 0.38696,-54 0.8599,-54 0.47295,0 7.78545,-0.6937 16.25,-1.5415 127.8962,-12.8106 247.8884,-57.7792 352.6269,-132.1515 33.6339,-23.8827 62.3685,-48.3117 93.8135,-79.7567 59.0493,-59.0493 103.1195,-120.3563 139.492,-194.0503 13.8016,-27.9632 21.1208,-44.9538 31.3755,-72.8346 C 1622.3284,1019.8428 1632.947,882.96178 1606.9179,751.5 1571.82,574.23586 1472.0872,416.05235 1326.5,306.73691 1221.0503,227.5591 1095.623,178.14148 965.5,164.50502 c -8.25,-0.86457 -16.9125,-1.80946 -19.25,-2.09976 L 942,161.87745 942,107.93873 942,54 l 2.81262,0 c 4.92633,0 35.13676,2.983627 51.18738,5.055344 165.6415,21.379996 318.2414,90.564206 446.822,202.575706 18.3691,16.00198 57.8622,55.31382 74.3834,74.04183 137.4293,155.78692 211.7843,351.63355 211.7843,557.82712 0,178.8818 -56.259,351.3457 -161.7989,496 -47.7582,65.458 -109.6269,128.1156 -174.6908,176.9181 -43.3644,32.5264 -81.0573,55.7615 -130.5,80.4442 -93.5813,46.7175 -186.1725,73.4668 -291.22718,84.1345 -10.84995,1.1018 -21.76245,2.0032 -24.25,2.0032 l -4.52282,0 0,-54 z m -29,-419.6225 c -10.44373,-0.7548 -27.0456,-3.4567 -33.51229,-5.454 L 873,1251.9196 l 0,-29.5272 c 0,-27.6611 0.11059,-29.4929 1.75,-28.9846 12.34483,3.8273 39.9995,6.4561 50.59274,4.8092 21.37719,-3.3234 32.71279,-14.1542 37.07612,-35.4248 C 963.82935,1155.9162 964,1133.5474 964,955.54216 L 964,756 l 37,0 37,0 -0.02,205.25 c -0.013,130.7011 -0.3813,207.7925 -1.015,212.25 -2.9173,20.5203 -11.0285,40.3792 -21.6185,52.9286 -13.7367,16.2785 -33.5981,26.7703 -58.82343,31.0734 -9.09948,1.5523 -33.46603,2.6023 -43.52327,1.8755 z m 341.5201,-149.4516 c -29.3672,-2.0985 -56.6018,-8.1511 -76.2701,-16.9502 l -7.25,-3.2435 0,-31.8661 c 0,-17.5263 0.2291,-31.8661 0.5092,-31.8661 0.28,0 5.1175,1.963 10.75,4.3622 34.5841,14.7314 66.0294,22.2356 97.7408,23.3251 49.8141,1.7114 75.9415,-13.656 73.7813,-43.3962 -1.2634,-17.39445 -11.9998,-28.12726 -43.2813,-43.26688 -7.7,-3.72665 -22.775,-10.24214 -33.5,-14.47886 -24.3931,-9.63605 -52.6355,-23.37056 -64.7931,-31.50943 -21.1071,-14.13011 -32.665,-29.27961 -38.384,-50.31183 -2.916,-10.72389 -3.6324,-34.61851 -1.3728,-45.7883 7.1854,-35.51983 35.7716,-60.14206 81.5897,-70.27588 16.9028,-3.73847 29.1348,-4.89401 51.4602,-4.86138 30.2274,0.0442 55.4223,3.66814 82.461,11.86092 11.3887,3.45081 30.7033,10.84105 32.4247,12.40652 0.9099,0.82742 -22.1634,55.93402 -23.4196,55.93402 -0.3801,0 -3.9836,-1.35774 -8.0078,-3.01721 -11.4647,-4.72767 -36.3278,-12.52052 -48.9583,-15.34501 -16.6105,-3.71453 -29.5003,-4.98341 -44.4473,-4.37541 -26.3383,1.07136 -42.1771,7.60921 -48.8631,20.16942 -3.0963,5.81659 -3.0855,19.07702 0.021,25.83433 6.3879,13.895 22.1261,23.02888 78.7893,45.72665 42.2643,16.92992 62.6515,28.19094 76.9822,42.52168 18.1776,18.17759 25.5767,39.58239 24.1925,69.98555 -0.7308,16.0484 -3.2972,27.0189 -9.1365,39.0551 -14.685,30.2688 -44.467,49.2864 -89.0382,56.8562 -19.7967,3.3623 -48.4764,4.3371 -73.9799,2.5146 z M 989.0453,702.96741 c -14.18696,-2.97138 -24.62303,-13.33216 -28.03756,-27.83529 -1.81291,-7.70031 -0.83649,-23.11503 1.92144,-30.33375 4.2884,-11.22463 14.53726,-19.31204 27.50448,-21.70389 23.22204,-4.28338 42.79294,4.25901 49.72424,21.70389 1.929,4.85487 2.2654,7.55802 2.2654,18.20163 0,15.93355 -1.9931,21.72978 -10.3433,30.08 -7.6807,7.6807 -14.1152,10.08818 -28.08,10.50615 -5.775,0.17285 -12.50461,-0.10558 -14.9547,-0.61874 z"
         id="path2989"
         inkscape:connector-curvature="0" />
    </g>
  </g>
</svg>
