<?xml version="1.0" encoding="UTF-8" standalone="no"?>
<!-- Created with Inkscape (http://www.inkscape.org/) -->

<svg
   width="5.7125001mm"
   height="5.7125001mm"
   viewBox="0 0 5.7124998 5.7124998"
   version="1.1"
   id="svg8"
   sodipodi:docname="clojure-logo-bullet.svg"
   inkscape:export-filename="/home/practicalli/projects/practicalli/graphic-design/logos/clojure-logo-bullet.png"
   inkscape:export-xdpi="90"
   inkscape:export-ydpi="90"
   inkscape:version="1.1.2 (0a00cf5339, 2022-02-04)"
   xmlns:inkscape="http://www.inkscape.org/namespaces/inkscape"
   xmlns:sodipodi="http://sodipodi.sourceforge.net/DTD/sodipodi-0.dtd"
   xmlns="http://www.w3.org/2000/svg"
   xmlns:svg="http://www.w3.org/2000/svg"
   xmlns:rdf="http://www.w3.org/1999/02/22-rdf-syntax-ns#"
   xmlns:cc="http://creativecommons.org/ns#"
   xmlns:dc="http://purl.org/dc/elements/1.1/">
  <defs
     id="defs2" />
  <sodipodi:namedview
     id="base"
     pagecolor="#ffffff"
     bordercolor="#666666"
     borderopacity="1.0"
     inkscape:pageopacity="0"
     inkscape:pageshadow="2"
     inkscape:zoom="11.313708"
     inkscape:cx="11.534679"
     inkscape:cy="-11.402097"
     inkscape:document-units="mm"
     inkscape:current-layer="layer1"
     showgrid="false"
     fit-margin-top="0"
     fit-margin-left="0"
     fit-margin-right="0"
     fit-margin-bottom="0"
     inkscape:window-width="3440"
     inkscape:window-height="1415"
     inkscape:window-x="0"
     inkscape:window-y="25"
     inkscape:window-maximized="1"
     inkscape:pagecheckerboard="true" />
  <metadata
     id="metadata5">
    <rdf:RDF>
      <cc:Work
         rdf:about="">
        <dc:format>image/svg+xml</dc:format>
        <dc:type
           rdf:resource="http://purl.org/dc/dcmitype/StillImage" />
      </cc:Work>
    </rdf:RDF>
  </metadata>
  <g
     inkscape:label="Layer 1"
     inkscape:groupmode="layer"
     id="layer1"
     transform="translate(-39.316075,-3.8621448)">
    <g
       id="g1810"
       transform="matrix(0.08110179,0,0,0.08110179,33.823028,3.277638)">
      <path
         d="m 102.9481,8.5578379 c -18.673231,0 -33.8664,15.1931681 -33.8664,33.8669311 0,18.675349 15.193169,33.867724 33.8664,33.867724 18.67376,0 33.86693,-15.192375 33.86693,-33.867724 0,-18.673763 -15.19317,-33.8669311 -33.86693,-33.8669311"
         id="path8"
         style="fill:#ffffff;stroke-width:0.264583" />
      <path
         d="m 101.70959,43.03384 c -0.30427,0.659341 -0.64003,1.400175 -0.98769,2.188633 -1.228992,2.784475 -2.590009,6.172729 -3.087161,8.343371 -0.178594,0.773112 -0.289189,1.731168 -0.287073,2.79347 0,0.420159 0.02249,0.861748 0.05821,1.31154 1.737518,0.63844 3.614204,0.989542 5.573974,0.992981 1.78409,-0.0034 3.49806,-0.298185 5.10223,-0.831585 -0.37703,-0.344752 -0.73687,-0.712259 -1.06442,-1.126331 -2.17488,-2.773363 -3.38826,-6.837892 -5.30807,-13.672079"
         id="path10"
         style="fill:#91dc47;stroke-width:0.264583" />
      <path
         d="m 93.680012,29.254869 c -4.153694,2.92735 -6.871758,7.755466 -6.882077,13.22705 0.01032,5.389827 2.646627,10.155502 6.695811,13.095022 0.993245,-4.137289 3.482974,-7.925593 7.216514,-15.519135 -0.22172,-0.609071 -0.4744,-1.275821 -0.757242,-1.976173 -1.034256,-2.594504 -2.527035,-5.607579 -3.859212,-6.972035 -0.679185,-0.712787 -1.503363,-1.328737 -2.413794,-1.854729"
         id="path12"
         style="fill:#91dc47;stroke-width:0.264583" />
      <path
         d="m 117.07553,61.042439 c -2.14313,-0.268552 -3.91187,-0.592666 -5.45915,-1.138502 -2.60244,1.292225 -5.53323,2.022211 -8.63653,2.022211 -10.737848,0 -19.442375,-8.703204 -19.443698,-19.444229 0,-5.827977 2.567517,-11.05244 6.6294,-14.615583 -1.086379,-0.262467 -2.219325,-0.415661 -3.376613,-0.413544 -5.704945,0.05371 -11.727127,3.210983 -14.234318,11.73771 -0.234421,1.24116 -0.178594,2.179638 -0.178594,3.291946 0,16.902906 13.703035,30.605941 30.604623,30.605941 10.35102,0 19.49502,-5.143235 25.03249,-13.009298 -2.99508,0.74639 -5.87534,1.103313 -8.34178,1.110986 -0.92446,0 -1.79229,-0.04948 -2.59583,-0.147638"
         id="path14"
         style="fill:#63b132;stroke-width:0.264583" />
      <path
         d="m 111.32455,55.112069 c 0.18891,0.09366 0.61727,0.246591 1.21337,0.41566 4.01029,-2.944019 6.61644,-7.686146 6.62676,-13.04581 h -0.002 c -0.0151,-8.935244 -7.24588,-16.164983 -16.18324,-16.18271 -1.77641,0.0034 -3.482973,0.296597 -5.080792,0.826029 3.285862,3.745441 4.865952,9.097962 6.394452,14.952927 7.9e-4,0.0026 0.002,0.0048 0.003,0.0069 0.003,0.0048 0.48895,1.625864 1.32345,3.776662 0.82867,2.147888 2.00925,4.80695 3.29671,6.744758 0.84534,1.298575 1.77509,2.231761 2.40824,2.505605"
         id="path16"
         style="fill:#90b4fe;stroke-width:0.264583" />
      <path
         d="m 102.98065,11.875977 c -10.251021,0 -19.318821,5.046398 -24.872954,12.784138 2.890573,-1.810279 5.842,-2.463271 8.417718,-2.439988 3.557588,0.01032 6.354498,1.113367 7.696465,1.867959 0.324114,0.186795 0.631825,0.387879 0.933185,0.594518 2.394479,-1.054629 5.040316,-1.644385 7.824786,-1.644385 10.73917,0.0013 19.44502,8.704527 19.44661,19.4437 h -0.002 c 0,5.414433 -2.21456,10.310018 -5.78458,13.835327 0.8763,0.09816 1.81081,0.159279 2.76516,0.154516 3.38958,0.0016 7.05326,-0.746389 9.7999,-3.056466 1.79097,-1.508654 3.29142,-3.717661 4.12353,-7.029715 0.16272,-1.27926 0.25638,-2.579687 0.25638,-3.903133 0,-16.902112 -13.70171,-30.606471 -30.60461,-30.606471"
         id="path18"
         style="fill:#5881d8;stroke-width:0.264583" />
    </g>
  </g>
</svg>
