<svg xmlns="http://www.w3.org/2000/svg" width="350" height="350" viewBox="0 0 350 350">
  <path fill="#E05966" fill-rule="evenodd" d="M3.3,166 L3.3,143.263 L15.378,143.263 L15.015,145.771 L6.435,145.771 L6.435,153.526 L13.86,153.526 L13.86,156.001 L6.435,156.001 L6.435,166 L3.3,166 Z M35.638,143.263 L35.638,166 L32.503,166 L32.503,143.263 L35.638,143.263 Z M61.62,142.867 C63.0500072,142.867 64.2874948,143.070498 65.3325,143.4775 C66.3775052,143.884502 67.4169948,144.516996 68.451,145.375 L66.603,147.289 C65.7889959,146.628997 65.0080037,146.156001 64.26,145.87 C63.5119963,145.583999 62.6320051,145.441 61.62,145.441 C60.4539942,145.441 59.3815049,145.754497 58.4025,146.3815 C57.4234951,147.008503 56.6260031,148.009493 56.01,149.3845 C55.3939969,150.759507 55.086,152.502989 55.086,154.615 C55.086,157.805016 55.6084948,160.136993 56.6535,161.611 C57.6985052,163.085007 59.2439898,163.822 61.29,163.822 C62.9620084,163.822 64.402994,163.481003 65.613,162.799 L65.613,155.935 L61.587,155.935 L61.224,153.394 L68.715,153.394 L68.715,164.383 C66.3609882,165.725007 63.886013,166.396 61.29,166.396 C58.297985,166.396 55.9605084,165.39501 54.2775,163.393 C52.5944916,161.39099 51.753,158.465019 51.753,154.615 C51.753,152.150988 52.1984955,150.033509 53.0895,148.2625 C53.9805045,146.491491 55.1794925,145.149505 56.6865,144.2365 C58.1935075,143.323495 59.8379911,142.867 61.62,142.867 Z M111.194,143.263 L106.574,166 L102.548,166 L98.357,146.959 L94.133,166 L90.206,166 L85.586,143.263 L88.655,143.263 L92.318,163.261 L96.707,143.263 L100.04,143.263 L104.528,163.261 L108.323,143.263 L111.194,143.263 Z M141.024,166 L141.024,155.341 L131.454,155.341 L131.454,166 L128.319,166 L128.319,143.263 L131.454,143.263 L131.454,152.767 L141.024,152.767 L141.024,143.263 L144.159,143.263 L144.159,166 L141.024,166 Z M177.068,143.263 L176.705,145.771 L167.894,145.771 L167.894,153.196 L175.55,153.196 L175.55,155.704 L167.894,155.704 L167.894,163.492 L177.332,163.492 L177.332,166 L164.759,166 L164.759,143.263 L177.068,143.263 Z M209.723,143.263 L209.36,145.771 L200.549,145.771 L200.549,153.196 L208.205,153.196 L208.205,155.704 L200.549,155.704 L200.549,163.492 L209.987,163.492 L209.987,166 L197.414,166 L197.414,143.263 L209.723,143.263 Z M234.204,143.263 L234.204,163.261 L243.543,163.261 L243.18,166 L231.069,166 L231.069,143.263 L234.204,143.263 Z M109.803659,67.4585987 L81.0606061,67.4585987 L90.1515152,52.2993631 L120.497429,52.2993631 C123.925429,47.438503 130.097966,38.7266343 131.84669,36.4617828 C139.799512,26.1617276 147.540072,18.0716288 155.937919,11.9330986 C166.501006,4.21185515 177.661266,0 189.564581,0 C222.787805,1.42108547e-14 249.413065,26.3810934 249.413065,59.9036061 C249.413065,93.0771126 222.407805,119 189.564581,119 C167.594884,119 149.413065,105.356688 142.267448,95.5407509 L150.020287,82.4411334 C152.215969,84.7867888 169.110035,103.840764 189.564581,103.840764 C214.177021,103.840764 234.26155,84.5612249 234.26155,59.9036061 C234.26155,34.7864767 214.452652,15.1592357 189.564581,15.1592357 C173.740479,15.1592357 159.278449,25.7304691 143.837129,45.729212 C143.026232,46.7794414 141.155061,49.3739525 139.068239,52.2993631 L168.181818,52.2993631 L159.090909,67.4585987 L128.380875,67.4585987 C124.880502,72.417892 119.227525,80.3867872 117.566375,82.5382172 C109.613553,92.8382724 101.872994,100.928371 93.4751462,107.066901 C82.9120596,114.788145 71.7517992,119 59.8484848,119 C26.62526,119 0,92.6189066 0,59.0963939 C0,25.9228874 27.0052607,3.64725678e-15 59.8484848,0 C81.8181818,0 100,13.6433121 107.145618,23.4592491 L99.3927786,36.5588666 C97.197097,34.2132112 80.3030303,15.1592357 59.8484848,15.1592357 C35.2360444,15.1592357 15.1515152,34.4387751 15.1515152,59.0963939 C15.1515152,84.2135233 34.9604135,103.840764 59.8484848,103.840764 C75.6725868,103.840764 90.1346167,93.2695309 105.575936,73.270788 C106.316026,72.3122644 107.939308,70.0673771 109.803659,67.4585987 Z" transform="translate(50 93)"/>
</svg>
