<?xml version="1.0" encoding="UTF-8" standalone="no"?>
<!-- Created with Inkscape (http://www.inkscape.org/) -->

<svg
   width="60.4701mm"
   height="57.48148mm"
   viewBox="0 0 60.4701 57.48148"
   version="1.1"
   id="svg3928"
   inkscape:version="1.1.2 (0a00cf5339, 2022-02-04)"
   sodipodi:docname="practicalli-figwheel-logo-name.svg"
   inkscape:export-filename="/home/practicalli/projects/practicalli/graphic-design/logos/practicalli-figwheel-logo-name.png"
   inkscape:export-xdpi="90"
   inkscape:export-ydpi="90"
   xmlns:inkscape="http://www.inkscape.org/namespaces/inkscape"
   xmlns:sodipodi="http://sodipodi.sourceforge.net/DTD/sodipodi-0.dtd"
   xmlns="http://www.w3.org/2000/svg"
   xmlns:svg="http://www.w3.org/2000/svg">
  <sodipodi:namedview
     id="namedview3930"
     pagecolor="#ffffff"
     bordercolor="#666666"
     borderopacity="1.0"
     inkscape:pageshadow="2"
     inkscape:pageopacity="0.0"
     inkscape:pagecheckerboard="0"
     inkscape:document-units="mm"
     showgrid="false"
     fit-margin-top="4"
     fit-margin-left="4"
     fit-margin-right="4"
     fit-margin-bottom="4"
     inkscape:zoom="1.0316077"
     inkscape:cx="255.42654"
     inkscape:cy="-24.234017"
     inkscape:window-width="3440"
     inkscape:window-height="1415"
     inkscape:window-x="0"
     inkscape:window-y="25"
     inkscape:window-maximized="1"
     inkscape:current-layer="layer1" />
  <defs
     id="defs3925">
    <filter
       inkscape:collect="always"
       style="color-interpolation-filters:sRGB"
       id="filter2607-3"
       x="-0.11397986"
       width="1.2279598"
       y="-0.12677042"
       height="1.2535408">
      <feGaussianBlur
         inkscape:collect="always"
         stdDeviation="30.39463"
         id="feGaussianBlur2609-6" />
    </filter>
  </defs>
  <g
     inkscape:label="Layer 1"
     inkscape:groupmode="layer"
     id="layer1"
     transform="translate(-37.474795,-154.89657)">
    <g
       id="g3606"
       style="display:inline"
       transform="translate(61.417538,142.55796)">
      <path
         style="fill:#c80000;fill-opacity:1;stroke:#9200bd;stroke-width:3.77921;stroke-miterlimit:4;stroke-dasharray:none;stroke-opacity:1"
         id="path2417-7-9-3"
         d="M 5.5468927,55.919572 C 4.837298,55.132738 3.0654692,53.59885 1.6094978,52.510888 -2.7044323,49.287349 -3.291556,48.820826 -5.0431101,47.224957 -8.2721963,44.282876 -9.6435304,41.327042 -9.6388234,37.31915 c 0.0018,-1.956488 0.1370496,-2.71025 0.6907773,-3.863488 0.9394338,-1.956593 2.3232639,-3.410482 4.092488,-4.299698 1.2530861,-0.629802 1.8711058,-0.909605 3.96366152,-0.92105 2.18896768,-0.01238 2.64976638,0.240571 3.93739478,0.940516 1.5672671,0.851955 3.1804232,2.672727 3.5138899,3.966138 l 0.205951,0.798839 0.5079067,-1.100191 c 2.8701252,-6.217147 12.0334152,-6.124139 15.2222902,0.154603 1.011602,1.991779 1.122661,6.2447 0.225626,8.640344 -1.170124,3.125035 -3.367931,5.507503 -8.448492,9.158409 -3.331925,2.394321 -7.1028942,6.016981 -7.3654002,6.525791 -0.3047337,0.590642 -0.01451,0.09248 -1.3603771,-1.399721 z"
         inkscape:connector-curvature="0" />
      <g
         id="g2221-5-3-5"
         transform="matrix(0.04748804,0,0,0.04698869,-2.3580816,25.526502)"
         style="fill:#ff0000;fill-opacity:1;stroke:#9200ff;stroke-width:73.7524;stroke-miterlimit:4;stroke-dasharray:none;stroke-opacity:1;filter:url(#filter2607-3)" />
      <path
         id="path945-2-0-2"
         d="M 4.5118643,62.881303 C -6.6459972,61.890296 -15.430358,52.481965 -15.430358,41.067191 c 0,-11.414793 8.7843608,-20.81089 19.9422223,-21.801891 V 16.806155 C -8.0040093,17.80939 -17.877268,28.306591 -17.877268,41.079408 c 0,12.772824 9.8732587,23.270022 22.3891323,24.27326 z"
         stroke-miterlimit="10"
         inkscape:connector-curvature="0"
         style="fill:#c80000;fill-opacity:1;stroke:#c80000;stroke-width:0.862905;stroke-miterlimit:10;stroke-dasharray:none;stroke-opacity:1" />
      <path
         id="path947-7-6-9"
         d="M 8.4269069,16.806155 V 19.2653 c 11.1578681,0.991001 19.9422311,10.399332 19.9422311,21.814108 0,11.414796 -8.784363,20.823128 -19.9422311,21.814126 v 2.459134 C 20.942811,64.34943 30.816048,53.852232 30.816048,41.079408 c 0,-12.772817 -9.873237,-23.270018 -22.3891411,-24.273253 z"
         stroke-miterlimit="10"
         inkscape:connector-curvature="0"
         style="fill:#9200bd;fill-opacity:1;stroke:#9200bd;stroke-width:0.862905;stroke-miterlimit:10;stroke-dasharray:none;stroke-opacity:1" />
      <rect
         inkscape:transform-center-y="0.13363477"
         inkscape:transform-center-x="-1.2027129"
         transform="matrix(0.61749626,-0.78657382,0.93331709,0.35905322,0,0)"
         y="14.949144"
         x="-24.563814"
         height="2.3946364"
         width="10.14115"
         id="rect13839"
         style="fill:#c80000;fill-opacity:1;stroke:#c80000;stroke-width:0.651902;stroke-miterlimit:10;stroke-dasharray:none;stroke-opacity:1" />
      <rect
         inkscape:transform-center-y="0.13363477"
         inkscape:transform-center-x="-1.2027129"
         transform="matrix(0.61749626,-0.78657382,0.93331709,0.35905322,0,0)"
         y="46.379848"
         x="-60.939198"
         height="2.3946364"
         width="10.14115"
         id="rect13839-2"
         style="fill:#9200bd;fill-opacity:1;stroke:#9200bd;stroke-width:0.651902;stroke-miterlimit:10;stroke-dasharray:none;stroke-opacity:1" />
      <rect
         style="opacity:1;fill:#800080;fill-opacity:0.380179;stroke:#800080;stroke-width:0.553623;stroke-miterlimit:4;stroke-dasharray:none;stroke-opacity:1"
         id="rect3799-6-3"
         width="51.916477"
         height="13.577812"
         x="-19.665932"
         y="34.82967"
         ry="3.1974156" />
      <text
         xml:space="preserve"
         style="font-style:normal;font-weight:normal;font-size:5.41204px;line-height:1.25;font-family:sans-serif;letter-spacing:0px;word-spacing:0px;fill:#fdf7f7;fill-opacity:1;stroke:#aa0000;stroke-width:0.27206;stroke-miterlimit:4;stroke-dasharray:none;stroke-opacity:1"
         x="-18.604605"
         y="44.847187"
         id="text1492-5-6"
         transform="scale(0.99052965,1.0095609)"><tspan
           sodipodi:role="line"
           id="tspan1490-3-1"
           x="-18.604605"
           y="44.847187"
           style="font-style:italic;font-variant:normal;font-weight:bold;font-stretch:normal;font-size:11.5458px;font-family:Ubuntu;-inkscape-font-specification:'Ubuntu Bold Italic';fill:#fdf7f7;fill-opacity:1;stroke:#aa0000;stroke-width:0.27206;stroke-miterlimit:4;stroke-dasharray:none;stroke-opacity:1">Figwheel</tspan></text>
    </g>
  </g>
</svg>
