<?xml version="1.0" encoding="UTF-8" standalone="no"?>
<!-- Generator: Adobe Illustrator 16.0.0, SVG Export Plug-In . SVG Version: 6.00 Build 0)  -->
<svg xmlns:dc="http://purl.org/dc/elements/1.1/" xmlns:cc="http://creativecommons.org/ns#" xmlns:rdf="http://www.w3.org/1999/02/22-rdf-syntax-ns#" xmlns:svg="http://www.w3.org/2000/svg" xmlns="http://www.w3.org/2000/svg" xmlns:sodipodi="http://sodipodi.sourceforge.net/DTD/sodipodi-0.dtd" xmlns:inkscape="http://www.inkscape.org/namespaces/inkscape" version="1.1" id="Layer_1" x="0px" y="0px" width="667.73901" height="253.59055" viewBox="0 0 667.73902 253.59054" enable-background="new 0 0 667.74 299.884" xml:space="preserve" inkscape:version="0.91 r13725" sodipodi:docname="Logo_for_e-Science_Photo_Competition_v2.svg"><metadata id="metadata98"><rdf:RDF><cc:Work rdf:about=""><dc:format>image/svg+xml</dc:format><dc:type rdf:resource="http://purl.org/dc/dcmitype/StillImage"/><dc:title/><cc:license rdf:resource="http://creativecommons.org/publicdomain/zero/1.0/"/><dc:creator><cc:Agent><dc:title>Toomas Loide (derivate by Ivo Kruusamägi)</dc:title></cc:Agent></dc:creator></cc:Work><cc:License rdf:about="http://creativecommons.org/publicdomain/zero/1.0/"><cc:permits rdf:resource="http://creativecommons.org/ns#Reproduction"/><cc:permits rdf:resource="http://creativecommons.org/ns#Distribution"/><cc:permits rdf:resource="http://creativecommons.org/ns#DerivativeWorks"/></cc:License></rdf:RDF></metadata><defs id="defs96"/><sodipodi:namedview pagecolor="#ffffff" bordercolor="#666666" borderopacity="1" objecttolerance="10" gridtolerance="10" guidetolerance="10" inkscape:pageopacity="0" inkscape:pageshadow="2" inkscape:window-width="1536" inkscape:window-height="801" id="namedview94" showgrid="false" fit-margin-top="10" fit-margin-bottom="10" fit-margin-left="0" fit-margin-right="0" inkscape:zoom="1.0602929" inkscape:cx="375.40569" inkscape:cy="97.348981" inkscape:window-x="-8" inkscape:window-y="-8" inkscape:window-maximized="1" inkscape:current-layer="text4226"/>
<rect x="124.169" y="63.425011" width="8.2309999" height="47.194" id="rect3" style="fill:#991b1e"/>
<rect x="203.72" y="63.425011" width="8.2309999" height="47.194" id="rect5" style="fill:#991b1e"/>
<rect x="35.660999" y="63.425011" width="8.2309999" height="47.194" id="rect7" style="fill:#991b1e"/>
<rect x="150.687" y="43.189011" width="8.2299995" height="87.541" id="rect9" style="fill:#991b1e"/>
<rect x="177.203" y="43.189011" width="8.2309999" height="87.541" id="rect11" style="fill:#991b1e"/>
<rect x="9.1440001" y="43.189011" width="8.2309999" height="87.541" id="rect13" style="fill:#991b1e"/>
<rect x="455.79199" y="63.425011" width="8.2299995" height="47.194" id="rect15" style="fill:#991b1e"/>
<rect x="623.85101" y="63.425011" width="8.2299995" height="47.194" id="rect17" style="fill:#991b1e"/>
<rect x="535.34302" y="63.425011" width="8.2299995" height="47.194" id="rect19" style="fill:#991b1e"/>
<rect x="482.30899" y="43.189011" width="8.2299995" height="87.541" id="rect21" style="fill:#991b1e"/>
<rect x="508.827" y="43.189011" width="8.2320004" height="87.541" id="rect23" style="fill:#991b1e"/>
<rect x="650.36603" y="43.189011" width="8.2299995" height="87.541" id="rect25" style="fill:#991b1e"/>
<path d="m 415.673,72.620012 c -0.01,0.015 -0.02,0.029 -0.029,0.044 l 0.029,0.045 0,-0.089 z" id="path27" inkscape:connector-curvature="0" style="fill:#81c341"/>
<path d="m 4.206,163.50701 c 38.453,-1.229 60.835,-33.431 79.825,-62.724 l 0.066,-0.099 c -0.021,-0.031 -0.043,-0.063 -0.065,-0.095 L 76.951,90.298012 c -0.729,-1.123 -1.463,-2.266 -2.2,-3.416 l -6.543,9.816 C 51.811,121.68201 31.832,147.15401 0,146.44201 l 0,17.068 c 1.386,0.035 2.784,0.042 4.206,-0.003 z" id="path29" inkscape:connector-curvature="0" style="fill:#046799"/>
<path d="m 583.841,72.773012 9.318,13.896 c 18.266,-27.059 39.625,-58.543 74.58,-59.577 l 0,-17.05 c -39.259,0.893 -63.583,32.887 -83.898,62.731 z" id="path31" inkscape:connector-curvature="0" style="fill:#339967"/>
<path d="m 415.748,72.820012 -0.074,-0.11 0,0.218 c 0.025,-0.036 0.048,-0.072 0.074,-0.108 z" id="path33" inkscape:connector-curvature="0" style="fill:#81c341"/>
<path d="m 408.591,90.347012 c -0.727,-1.119 -1.457,-2.254 -2.191,-3.396 -17.498,27.690998 -37.285,59.235998 -72.519,59.570998 -35.138,-0.333 -55.049,-31.851 -72.573,-59.491998 -3.125,-4.928 -6.173,-9.733 -9.218,-14.216 l -0.002,-0.051 c -0.146,-0.226 -0.294,-0.452 -0.441,-0.678 -19.413,-29.907 -42.455,-62.1079997 -81.872,-62.085 -40.278,-0.023 -65.004,32.494 -85.616,62.773 l 9.318,13.897 c 19.393,-28.729 42.272,-62.456 81.209,-59.419 32.644,2.545 51.427,32.717 67.979,59.093 3.174,5.058 6.268,9.977 9.36,14.533998 0.021,0.031 0.043,0.064 0.064,0.096 19.303,29.773 42.316,62.06 81.293,62.591 l 0,0.023 c 0.155,0 0.306,-0.011 0.461,-0.012 0.181,0.001 0.356,0.014 0.538,0.014 l 0,-0.027 c 39.089,-0.531 61.954,-32.902 81.292,-62.732 l 0.064,-0.095 -7.146,-10.388998 z" id="path35" inkscape:connector-curvature="0" style="fill:#046799"/>
<path d="m 242.665,86.344012 c -6.54,10.451 -12.934,20.551998 -19.637,29.213998 -16.145,20.863 -37.948,35.191 -65.301,29.777 -26.189,-5.182 -43.333,-28.16 -57.644,-48.812998 l -6.606,-9.853 -9.318,-13.897 -4.183,-6.238 C 60.881,37.521012 37.285,9.3050123 0,10.029012 l 0,17.068 c 2.135,-0.066 4.316,-0.023 6.552,0.149 33.224,2.552 51.832,34.088 68.198,59.636 0.737,1.15 1.471,2.293 2.2,3.416 l 7.081,10.290998 c 0.021,0.031 0.043,0.063 0.065,0.095 20.082,29.513 44.108,61.601 83.16,62.821 40.957,1.278 64.72,-31.679 84.769,-62.626 -3.092,-4.557998 -6.186,-9.476998 -9.36,-14.534998 z" id="path37" inkscape:connector-curvature="0" style="fill:#339967"/>
<path d="m 657.408,145.33501 c -26.189,-5.182 -43.332,-28.16 -57.643,-48.812998 l -6.605,-9.854 -9.318,-13.896 -4.184,-6.238 c -19.65,-29.857 -44.063,-58.8769997 -83.26,-56.376 -37.793,2.412 -61.084,33.911 -80.65,62.661 l 6.807,10.289 c 0.836,1.234 1.68,2.488 2.527,3.752 l 6.625,-9.838 c 17.826,-25.725 40.01,-52.429 74.527,-49.777 33.223,2.552 51.83,34.087 68.199,59.636 0.736,1.15 1.471,2.293 2.199,3.416 l 7.08,10.290998 c 0.021,0.031 0.045,0.063 0.066,0.096 20.082,29.513 44.109,61.6 83.158,62.82 0.271,0.009 0.533,-0.001 0.803,0.004 l 0,-17.042 c -3.351,-0.067 -6.794,-0.431 -10.331,-1.131 z" id="path39" inkscape:connector-curvature="0" style="fill:#046799"/>
<path d="m 583.712,100.58901 -7.08,-10.290998 c -0.729,-1.123 -1.463,-2.266 -2.199,-3.416 l -6.545,9.816 c -17.336,26.413998 -38.666,53.392998 -73.785,49.374998 -32.545,-3.724 -52.107,-34.011 -69.021,-59.212998 -0.848,-1.264 -1.691,-2.518 -2.527,-3.752 l -6.807,-10.289 c -0.025,0.036 -0.049,0.072 -0.074,0.107 l 0,-0.218 -0.029,-0.045 -4.025,-6.083 c -18.39,-27.938 -41.009,-56.01 -77.238,-56.508 l 0,-0.022 c -0.185,0 -0.364,0.008 -0.548,0.01 -0.152,-0.001 -0.3,-0.011 -0.452,-0.011 l 0,0.019 c -38.386,0.505 -61.624,30.661 -81.735,62.018 0.146,0.226 0.295,0.452 0.441,0.678 l 0.002,0.051 c 3.045,4.482 6.094,9.288 9.218,14.216 17.31,-26.938 36.926,-59.56 72.574,-59.904 35.611,0.344 55.221,32.901 72.518,59.825 0.734,1.143 1.465,2.277 2.191,3.396 l 7.146,10.389998 4.438,6.452 c 20.15,29.021 45.279,57.546 83.713,56.318 38.451,-1.229 60.834,-33.431 79.824,-62.724 l 0.066,-0.098 c -0.021,-0.033 -0.044,-0.066 -0.066,-0.097 z" id="path41" inkscape:connector-curvature="0" style="fill:#339967"/>
<path id="path2834" d="m 288.831,61.450012 -0.173,0.173 0,1.707 c 0,0.469 0.222,0.716 0.692,0.716 2.228,0.235 3.733,0.702 4.524,1.434 0.82,0.705 1.616,2.103 2.35,4.155 l 23.466,49.057998 c 0.498,1.407 1.171,2.126 2.051,2.126 0.88,0 1.614,-0.719 2.201,-2.126 l 9.496,-19.682998 9.42,19.682998 c 0.496,1.407 1.197,2.126 2.076,2.126 0.881,0 1.588,-0.719 2.178,-2.126 l 23.465,-48.661998 c 0.732,-1.904 1.66,-3.359 2.744,-4.326 1.084,-0.998 2.736,-1.54 4.994,-1.658 0.498,0 0.768,-0.247 0.768,-0.716 l 0,-1.707 -0.197,-0.173 -8.309,0.173 c -2.346,0 -5.641,-0.057 -9.891,-0.173 l -0.174,0.173 0,1.707 c 0,0.469 0.248,0.716 0.717,0.716 l 1.434,0.074 c 1.818,0.089 3.082,0.504 3.783,1.237 0.734,0.703 0.789,1.874 0.174,3.486 l -19.236,39.437998 -0.348,0 -9.246,-18.297998 9.617,-19.954 c 0.734,-1.904 1.635,-3.359 2.721,-4.326 1.084,-0.998 2.762,-1.54 5.02,-1.658 0.498,0 0.742,-0.247 0.742,-0.716 l 0,-1.707 -0.174,-0.173 -8.309,0.173 c -2.346,0 -5.641,-0.057 -9.891,-0.173 l -0.173,0.173 0,1.707 c 0,0.469 0.224,0.716 0.692,0.716 l 1.459,0.074 c 1.818,0.089 3.08,0.504 3.783,1.237 0.734,0.703 0.789,1.874 0.174,3.486 l -8.036,16.467 -8.655,-17.086 c -0.498,-1.349 -0.498,-2.271 0,-2.77 0.528,-0.527 1.871,-0.941 3.981,-1.235 l 1.533,-0.174 c 0.469,-0.088 0.692,-0.335 0.692,-0.716 l 0,-1.707 -0.173,-0.173 -10.237,0.173 c -2.346,0 -5.868,-0.057 -10.558,-0.173 l -0.173,0.173 0,1.707 c 0,0.469 0.222,0.716 0.692,0.716 2.228,0.235 3.732,0.702 4.524,1.434 0.82,0.705 1.616,2.103 2.35,4.155 l 11.72,24.503 -6.899,14.144998 -0.347,0 -20.275,-40.057998 c -0.498,-1.349 -0.498,-2.271 0,-2.77 0.528,-0.527 1.846,-0.941 3.957,-1.235 l 1.558,-0.174 c 0.469,-0.088 0.692,-0.335 0.692,-0.716 l 0,-1.707 -0.173,-0.173 -10.237,0.173 c -2.345,0.001 -5.867,-0.055 -10.556,-0.172 z" inkscape:connector-curvature="0" style="fill:#010101"/>


<g style="font-style:normal;font-weight:normal;font-size:40px;line-height:125%;font-family:sans-serif;letter-spacing:0px;word-spacing:0px;fill:#000000;fill-opacity:1;stroke:none;stroke-width:1px;stroke-linecap:butt;stroke-linejoin:miter;stroke-opacity:1" id="text4226" transform="translate(0,10.050012)"><path d="m 67.547237,172.43054 0,7.77 q -3.01,-2.8 -5.88,-3.85 -2.87,-1.05 -5.32,-1.05 -3.29,0 -5.46,1.61 -2.1,1.54 -2.1,4.06 0,2.59 1.89,4.41 1.96,1.75 4.76,3.36 0.84,0.49 1.75,1.05 0.98,0.49 1.96,1.05 3.85,2.24 7.07,5.46 3.22,3.22 3.22,8.89 0,5.6 -3.78,9.24 -3.78,3.64 -9.59,3.64 -3.85,0 -7.14,-1.05 -3.22,-1.05 -6.23,-3.29 l 0,-8.75 q 2.66,3.43 5.88,5.25 3.22,1.75 6.72,1.75 3.29,0 5.11,-1.4 1.89,-1.47 2.45,-3.22 0.07,-0.35 0.14,-0.7 0.07,-0.35 0.07,-0.7 0,-3.15 -2.38,-5.25 -2.38,-2.17 -5.53,-4.13 -0.63,-0.35 -1.26,-0.7 -0.56,-0.42 -1.12,-0.77 -3.92,-2.38 -7.14,-5.32 -3.22,-3.01 -3.22,-7.91 0,-5.81 3.92,-9.24 3.99,-3.5 10.57,-3.5 2.73,0 5.39,0.84 2.73,0.84 5.25,2.52 l 0,-0.07 z" style="font-style:normal;font-variant:normal;font-weight:100;font-stretch:normal;font-size:70px;font-family:GillSans;-inkscape-font-specification:'GillSans Thin';fill:#4d4d4d" id="path4231" inkscape:connector-curvature="0"/><path d="m 99.256143,187.55054 0,6.65 q -2.1,-1.33 -3.71,-1.96 -1.61,-0.7 -3.15,-0.91 -0.42,-0.07 -0.91,-0.07 -0.42,-0.07 -0.91,-0.07 -4.27,0 -6.93,2.94 -2.66,2.94 -2.66,7.7 0,4.9 2.87,7.7 2.94,2.73 7.77,2.73 0.35,0 0.7,0 0.35,0 0.77,-0.07 1.61,-0.14 3.22,-0.63 1.68,-0.56 3.64,-1.4 l 0,6.09 q -1.12,0.63 -2.94,1.05 -1.75,0.35 -3.64,0.63 -0.77,0.07 -1.47,0.07 -0.63,0.07 -1.33,0.07 -7,0 -11.48,-4.34 -4.48,-4.41 -4.48,-11.34 0,-7.77 4.2,-12.32 4.2,-4.62 11.34,-4.62 1.89,0 3.36,0.28 1.54,0.28 2.94,0.77 0.7,0.21 1.4,0.49 0.7,0.28 1.4,0.63 l 0,-0.07 z" style="font-style:normal;font-variant:normal;font-weight:100;font-stretch:normal;font-size:70px;font-family:GillSans;-inkscape-font-specification:'GillSans Thin';fill:#4d4d4d" id="path4233" inkscape:connector-curvature="0"/><path d="m 113.15114,186.01054 0,31.43 -6.23,0 0,-31.43 6.23,0 0,0 z m 0.63,-9.52 q 0,1.61 -1.12,2.73 -1.05,1.05 -2.59,1.05 -1.54,0 -2.66,-1.05 -1.05,-1.12 -1.05,-2.66 0,-1.54 1.05,-2.59 1.12,-1.12 2.66,-1.12 1.54,0 2.59,1.12 1.12,1.05 1.12,2.59 l 0,-0.07 z" style="font-style:normal;font-variant:normal;font-weight:100;font-stretch:normal;font-size:70px;font-family:GillSans;-inkscape-font-specification:'GillSans Thin';fill:#4d4d4d" id="path4235" inkscape:connector-curvature="0"/><path d="m 148.34364,208.34054 0,6.02 q -0.42,0.35 -0.91,0.63 -0.42,0.28 -0.84,0.49 -2.38,1.4 -4.9,1.96 -2.52,0.63 -5.88,0.63 -7.35,0 -11.34,-5.04 -3.92,-5.11 -3.92,-11.62 0,-7.14 4.06,-11.55 4.13,-4.41 10.64,-4.41 6.23,0 9.94,4.27 3.71,4.27 3.71,13.02 l -22.12,-0.07 q 0.77,4.76 3.43,7.14 2.66,2.38 7.14,2.38 2.1,0 4.13,-0.56 2.1,-0.56 4.13,-1.61 0.7,-0.35 1.33,-0.77 0.7,-0.42 1.4,-0.84 l 0,-0.07 z m -21.42,-9.8 15.82,0 q -0.14,-3.5 -2.1,-5.6 -1.96,-2.1 -5.25,-2.1 -3.57,0 -5.74,2.03 -2.1,2.03 -2.73,5.74 l 0,-0.07 z" style="font-style:normal;font-variant:normal;font-weight:100;font-stretch:normal;font-size:70px;font-family:GillSans;-inkscape-font-specification:'GillSans Thin';fill:#4d4d4d" id="path4237" inkscape:connector-curvature="0"/><path d="m 161.67974,186.01054 0,4.13 0.14,0 q 1.82,-2.17 4.27,-3.43 2.52,-1.26 5.11,-1.26 4.48,0 7.56,3.15 3.15,3.08 3.15,9.52 l 0,19.32 -6.23,0 0,-19.46 q 0,-3.43 -1.68,-5.46 -1.61,-2.1 -4.48,-2.1 -0.84,0 -1.68,0.21 -0.77,0.14 -1.54,0.49 -1.12,0.56 -2.24,1.54 -1.12,0.91 -2.38,2.31 l 0,22.47 -6.23,0 0,-31.43 6.23,0 0,0 z" style="font-style:normal;font-variant:normal;font-weight:100;font-stretch:normal;font-size:70px;font-family:GillSans;-inkscape-font-specification:'GillSans Thin';fill:#4d4d4d" id="path4239" inkscape:connector-curvature="0"/><path d="m 213.68974,187.55054 0,6.65 q -2.1,-1.33 -3.71,-1.96 -1.61,-0.7 -3.15,-0.91 -0.42,-0.07 -0.91,-0.07 -0.42,-0.07 -0.91,-0.07 -4.27,0 -6.93,2.94 -2.66,2.94 -2.66,7.7 0,4.9 2.87,7.7 2.94,2.73 7.77,2.73 0.35,0 0.7,0 0.35,0 0.77,-0.07 1.61,-0.14 3.22,-0.63 1.68,-0.56 3.64,-1.4 l 0,6.09 q -1.12,0.63 -2.94,1.05 -1.75,0.35 -3.64,0.63 -0.77,0.07 -1.47,0.07 -0.63,0.07 -1.33,0.07 -7,0 -11.48,-4.34 -4.48,-4.41 -4.48,-11.34 0,-7.77 4.2,-12.32 4.2,-4.62 11.34,-4.62 1.89,0 3.36,0.28 1.54,0.28 2.94,0.77 0.7,0.21 1.4,0.49 0.7,0.28 1.4,0.63 l 0,-0.07 z" style="font-style:normal;font-variant:normal;font-weight:100;font-stretch:normal;font-size:70px;font-family:GillSans;-inkscape-font-specification:'GillSans Thin';fill:#4d4d4d" id="path4241" inkscape:connector-curvature="0"/><path d="m 247.46474,208.34054 0,6.02 q -0.42,0.35 -0.91,0.63 -0.42,0.28 -0.84,0.49 -2.38,1.4 -4.9,1.96 -2.52,0.63 -5.88,0.63 -7.35,0 -11.34,-5.04 -3.92,-5.11 -3.92,-11.62 0,-7.14 4.06,-11.55 4.13,-4.41 10.64,-4.41 6.23,0 9.94,4.27 3.71,4.27 3.71,13.02 l -22.12,-0.07 q 0.77,4.76 3.43,7.14 2.66,2.38 7.14,2.38 2.1,0 4.13,-0.56 2.1,-0.56 4.13,-1.61 0.7,-0.35 1.33,-0.77 0.7,-0.42 1.4,-0.84 l 0,-0.07 z m -21.42,-9.8 15.82,0 q -0.14,-3.5 -2.1,-5.6 -1.96,-2.1 -5.25,-2.1 -3.57,0 -5.74,2.03 -2.1,2.03 -2.73,5.74 l 0,-0.07 z" style="font-style:normal;font-variant:normal;font-weight:100;font-stretch:normal;font-size:70px;font-family:GillSans;-inkscape-font-specification:'GillSans Thin';fill:#4d4d4d" id="path4243" inkscape:connector-curvature="0"/><path d="m 315.63489,172.99054 0,7.35 q -2.8,-1.54 -5.39,-2.59 -2.52,-1.12 -5.11,-1.68 -1.47,-0.28 -2.94,-0.42 -1.47,-0.21 -3.01,-0.21 -8.19,0 -13.65,5.18 -5.39,5.18 -5.39,13.09 0,8.05 5.32,13.09 5.39,5.04 14,5.04 2.03,0 4.13,-0.35 2.1,-0.35 4.2,-1.05 2.1,-0.7 4.2,-1.68 2.1,-0.98 4.13,-2.31 l 0,7.42 q -3.5,1.89 -7.63,3.08 -4.06,1.12 -9.66,1.12 -10.57,0 -16.59,-5.25 -6.02,-5.32 -8.05,-11.69 -0.56,-1.75 -0.84,-3.43 -0.28,-1.75 -0.28,-3.36 0,-10.92 7.35,-18.06 7.42,-7.14 18.83,-7.14 3.71,0 7.56,0.98 3.92,0.91 8.82,2.94 l 0,-0.07 z" style="font-style:normal;font-variant:normal;font-weight:100;font-stretch:normal;font-size:70px;font-family:GillSans;-inkscape-font-specification:'GillSans Thin';fill:#4d4d4d" id="path4245" inkscape:connector-curvature="0"/><path d="m 338.4538,185.38054 q 7.42,0.07 12.18,4.62 4.83,4.48 4.83,11.48 0,7.42 -4.76,12.04 -4.69,4.55 -12.25,4.55 -7.21,0 -11.9,-4.69 -4.69,-4.69 -4.69,-11.9 0,-6.79 4.76,-11.41 4.83,-4.62 11.83,-4.62 l 0,-0.07 z m -0.07,5.6 q -4.41,0.07 -7.28,3.01 -2.87,2.94 -2.87,7.49 0,4.97 2.8,8.05 2.87,3.01 7.35,3.01 4.97,0 7.84,-2.94 2.87,-2.94 2.87,-8.05 0,-4.55 -3.01,-7.49 -3.01,-3.01 -7.7,-3.01 l 0,-0.07 z" style="font-style:normal;font-variant:normal;font-weight:100;font-stretch:normal;font-size:70px;font-family:GillSans;-inkscape-font-specification:'GillSans Thin';fill:#4d4d4d" id="path4247" inkscape:connector-curvature="0"/><path d="m 362.16521,186.01054 6.23,0 0,4.13 q 2.45,-2.38 4.69,-3.5 2.31,-1.19 4.48,-1.19 3.01,0 5.39,1.47 2.45,1.4 3.99,4.2 2.03,-2.31 4.55,-3.99 2.59,-1.68 5.95,-1.68 4.76,0 7.56,3.36 2.87,3.36 2.87,8.96 l 0,19.67 -6.23,0 0,-19.46 q 0,-3.5 -1.96,-5.39 -1.89,-1.89 -4.55,-1.89 0,0 -0.07,0 0,0 0,0 0,0 -0.07,0 0,0 0,0 -0.84,0 -1.82,0.42 -0.98,0.35 -2.03,1.05 -0.77,0.49 -1.54,1.12 -0.77,0.63 -1.47,1.4 l 0,22.75 -6.23,0 0,-19.53 q 0,-3.78 -1.68,-5.46 -1.68,-1.75 -3.99,-1.75 -1.61,0 -2.94,0.42 -1.26,0.35 -2.52,1.26 -0.56,0.42 -1.19,1.05 -0.56,0.56 -1.19,1.26 l 0,22.75 -6.23,0 0,-31.43 0,0 z" style="font-style:normal;font-variant:normal;font-weight:100;font-stretch:normal;font-size:70px;font-family:GillSans;-inkscape-font-specification:'GillSans Thin';fill:#4d4d4d" id="path4249" inkscape:connector-curvature="0"/><path d="m 422.25911,216.67054 0,16.87 -6.23,0 0,-47.53 10.78,0 q 8.61,0.07 13.16,4.2 4.55,4.06 4.55,11.83 0,7.07 -4.48,11.55 -4.48,4.48 -11.48,4.48 -0.35,0 -0.7,0 -0.28,0 -0.63,-0.07 -1.19,-0.14 -2.38,-0.42 -1.19,-0.28 -2.59,-0.84 l 0,-0.07 z m 0,-25.06 0,19.46 q 0.98,0.49 1.96,0.84 0.98,0.28 1.96,0.49 0.49,0.07 0.98,0.14 0.49,0 0.98,0 4.34,0 7.14,-3.01 2.87,-3.01 2.87,-7.56 0,-4.9 -2.59,-7.56 -2.52,-2.73 -7.63,-2.73 l -5.67,-0.07 0,0 z" style="font-style:normal;font-variant:normal;font-weight:100;font-stretch:normal;font-size:70px;font-family:GillSans;-inkscape-font-specification:'GillSans Thin';fill:#4d4d4d" id="path4251" inkscape:connector-curvature="0"/><path d="m 477.69911,208.34054 0,6.02 q -0.42,0.35 -0.91,0.63 -0.42,0.28 -0.84,0.49 -2.38,1.4 -4.9,1.96 -2.52,0.63 -5.88,0.63 -7.35,0 -11.34,-5.04 -3.92,-5.11 -3.92,-11.62 0,-7.14 4.06,-11.55 4.13,-4.41 10.64,-4.41 6.23,0 9.94,4.27 3.71,4.27 3.71,13.02 l -22.12,-0.07 q 0.77,4.76 3.43,7.14 2.66,2.38 7.14,2.38 2.1,0 4.13,-0.56 2.1,-0.56 4.13,-1.61 0.7,-0.35 1.33,-0.77 0.7,-0.42 1.4,-0.84 l 0,-0.07 z m -21.42,-9.8 15.82,0 q -0.14,-3.5 -2.1,-5.6 -1.96,-2.1 -5.25,-2.1 -3.57,0 -5.74,2.03 -2.1,2.03 -2.73,5.74 l 0,-0.07 z" style="font-style:normal;font-variant:normal;font-weight:100;font-stretch:normal;font-size:70px;font-family:GillSans;-inkscape-font-specification:'GillSans Thin';fill:#4d4d4d" id="path4253" inkscape:connector-curvature="0"/><path d="m 492.22521,179.50054 0,6.51 9.94,0 0,5.6 -9.94,0 0,16.1 q 0,2.17 0.91,3.22 0.98,1.05 2.17,1.4 0.35,0.14 0.7,0.21 0.35,0 0.7,0 1.68,0 3.43,-0.56 1.75,-0.63 3.64,-1.75 l 0,5.74 q -0.77,0.49 -1.75,0.84 -0.91,0.35 -1.82,0.63 -1.12,0.28 -2.17,0.42 -1.05,0.21 -1.82,0.21 -5.11,0 -7.7,-2.73 -2.52,-2.8 -2.52,-7.07 l 0,-16.66 -5.46,0 0,-0.7 11.69,-11.41 0,0 z" style="font-style:normal;font-variant:normal;font-weight:100;font-stretch:normal;font-size:70px;font-family:GillSans;-inkscape-font-specification:'GillSans Thin';fill:#4d4d4d" id="path4255" inkscape:connector-curvature="0"/><path d="m 514.69411,186.01054 0,31.43 -6.23,0 0,-31.43 6.23,0 0,0 z m 0.63,-9.52 q 0,1.61 -1.12,2.73 -1.05,1.05 -2.59,1.05 -1.54,0 -2.66,-1.05 -1.05,-1.12 -1.05,-2.66 0,-1.54 1.05,-2.59 1.12,-1.12 2.66,-1.12 1.54,0 2.59,1.12 1.12,1.05 1.12,2.59 l 0,-0.07 z" style="font-style:normal;font-variant:normal;font-weight:100;font-stretch:normal;font-size:70px;font-family:GillSans;-inkscape-font-specification:'GillSans Thin';fill:#4d4d4d" id="path4257" inkscape:connector-curvature="0"/><path d="m 530.91661,179.50054 0,6.51 9.94,0 0,5.6 -9.94,0 0,16.1 q 0,2.17 0.91,3.22 0.98,1.05 2.17,1.4 0.35,0.14 0.7,0.21 0.35,0 0.7,0 1.68,0 3.43,-0.56 1.75,-0.63 3.64,-1.75 l 0,5.74 q -0.77,0.49 -1.75,0.84 -0.91,0.35 -1.82,0.63 -1.12,0.28 -2.17,0.42 -1.05,0.21 -1.82,0.21 -5.11,0 -7.7,-2.73 -2.52,-2.8 -2.52,-7.07 l 0,-16.66 -5.46,0 0,-0.7 11.69,-11.41 0,0 z" style="font-style:normal;font-variant:normal;font-weight:100;font-stretch:normal;font-size:70px;font-family:GillSans;-inkscape-font-specification:'GillSans Thin';fill:#4d4d4d" id="path4259" inkscape:connector-curvature="0"/><path d="m 553.38552,186.01054 0,31.43 -6.23,0 0,-31.43 6.23,0 0,0 z m 0.63,-9.52 q 0,1.61 -1.12,2.73 -1.05,1.05 -2.59,1.05 -1.54,0 -2.66,-1.05 -1.05,-1.12 -1.05,-2.66 0,-1.54 1.05,-2.59 1.12,-1.12 2.66,-1.12 1.54,0 2.59,1.12 1.12,1.05 1.12,2.59 l 0,-0.07 z" style="font-style:normal;font-variant:normal;font-weight:100;font-stretch:normal;font-size:70px;font-family:GillSans;-inkscape-font-specification:'GillSans Thin';fill:#4d4d4d" id="path4261" inkscape:connector-curvature="0"/><path d="m 577.02802,185.38054 q 7.42,0.07 12.18,4.62 4.83,4.48 4.83,11.48 0,7.42 -4.76,12.04 -4.69,4.55 -12.25,4.55 -7.21,0 -11.9,-4.69 -4.69,-4.69 -4.69,-11.9 0,-6.79 4.76,-11.41 4.83,-4.62 11.83,-4.62 l 0,-0.07 z m -0.07,5.6 q -4.41,0.07 -7.28,3.01 -2.87,2.94 -2.87,7.49 0,4.97 2.8,8.05 2.87,3.01 7.35,3.01 4.97,0 7.84,-2.94 2.87,-2.94 2.87,-8.05 0,-4.55 -3.01,-7.49 -3.01,-3.01 -7.7,-3.01 l 0,-0.07 z" style="font-style:normal;font-variant:normal;font-weight:100;font-stretch:normal;font-size:70px;font-family:GillSans;-inkscape-font-specification:'GillSans Thin';fill:#4d4d4d" id="path4263" inkscape:connector-curvature="0"/><path d="m 607.10942,186.01054 0,4.13 0.14,0 q 1.82,-2.17 4.27,-3.43 2.52,-1.26 5.11,-1.26 4.48,0 7.56,3.15 3.15,3.08 3.15,9.52 l 0,19.32 -6.23,0 0,-19.46 q 0,-3.43 -1.68,-5.46 -1.61,-2.1 -4.48,-2.1 -0.84,0 -1.68,0.21 -0.77,0.14 -1.54,0.49 -1.12,0.56 -2.24,1.54 -1.12,0.91 -2.38,2.31 l 0,22.47 -6.23,0 0,-31.43 6.23,0 0,0 z" style="font-style:normal;font-variant:normal;font-weight:100;font-stretch:normal;font-size:70px;font-family:GillSans;-inkscape-font-specification:'GillSans Thin';fill:#4d4d4d" id="path4265" inkscape:connector-curvature="0"/></g></svg>