<?xml version="1.0" encoding="UTF-8" standalone="no"?>
<!-- Created with Inkscape (http://www.inkscape.org/) -->

<svg
   xmlns:dc="http://purl.org/dc/elements/1.1/"
   xmlns:cc="http://creativecommons.org/ns#"
   xmlns:rdf="http://www.w3.org/1999/02/22-rdf-syntax-ns#"
   xmlns:svg="http://www.w3.org/2000/svg"
   xmlns="http://www.w3.org/2000/svg"
   xmlns:sodipodi="http://sodipodi.sourceforge.net/DTD/sodipodi-0.dtd"
   xmlns:inkscape="http://www.inkscape.org/namespaces/inkscape"
   width="332.78027"
   height="33.105209"
   viewBox="0 0 88.048109 8.7590871"
   version="1.1"
   id="svg8"
   inkscape:version="0.92.3 (2405546, 2018-03-11)"
   sodipodi:docname="youtube-live-recorded-broadcast.svg"
   inkscape:export-filename="/home/jr0cket/projects/practicalli/youtube-channel-art/youtube-live-recorded-broadcast.png"
   inkscape:export-xdpi="90"
   inkscape:export-ydpi="90">
  <defs
     id="defs2" />
  <sodipodi:namedview
     id="base"
     pagecolor="#ffffff"
     bordercolor="#666666"
     borderopacity="1.0"
     inkscape:pageopacity="1"
     inkscape:pageshadow="2"
     inkscape:zoom="1"
     inkscape:cx="264.51248"
     inkscape:cy="-141.49244"
     inkscape:document-units="mm"
     inkscape:current-layer="layer1"
     showgrid="false"
     inkscape:window-width="1920"
     inkscape:window-height="1173"
     inkscape:window-x="0"
     inkscape:window-y="27"
     inkscape:window-maximized="1"
     fit-margin-top="4"
     fit-margin-left="4"
     fit-margin-right="4"
     fit-margin-bottom="4"
     inkscape:pagecheckerboard="false"
     units="px" />
  <metadata
     id="metadata5">
    <rdf:RDF>
      <cc:Work
         rdf:about="">
        <dc:format>image/svg+xml</dc:format>
        <dc:type
           rdf:resource="http://purl.org/dc/dcmitype/StillImage" />
        <dc:title></dc:title>
      </cc:Work>
    </rdf:RDF>
  </metadata>
  <g
     inkscape:label="Layer 1"
     inkscape:groupmode="layer"
     id="layer1"
     transform="translate(-33.598131,-19.680201)">
    <g
       id="g935"
       transform="matrix(0.08671567,0,0,0.08671567,30.139744,20.452373)">
      <g
         id="g933">
        <path
           style="fill:#282828"
           inkscape:connector-curvature="0"
           class="st2"
           d="m 176.3,77.4 c -2.4,-1.6 -4.1,-4.1 -5.1,-7.6 -1,-3.4 -1.5,-8 -1.5,-13.6 v -7.7 c 0,-5.7 0.6,-10.3 1.7,-13.8 1.2,-3.5 3,-6 5.4,-7.6 2.5,-1.6 5.7,-2.4 9.7,-2.4 3.9,0 7.1,0.8 9.5,2.4 2.4,1.6 4.1,4.2 5.2,7.6 1.1,3.4 1.7,8 1.7,13.8 v 7.7 c 0,5.7 -0.5,10.2 -1.6,13.7 -1.1,3.4 -2.8,6 -5.2,7.6 -2.4,1.6 -5.7,2.4 -9.8,2.4 -4.2,-0.1 -7.6,-0.9 -10,-2.5 z M 189.8,69 c 0.7,-1.7 1,-4.6 1,-8.5 V 43.9 c 0,-3.8 -0.3,-6.6 -1,-8.4 -0.7,-1.8 -1.8,-2.6 -3.5,-2.6 -1.6,0 -2.8,0.9 -3.4,2.6 -0.7,1.8 -1,4.6 -1,8.4 v 16.6 c 0,3.9 0.3,6.8 1,8.5 0.6,1.7 1.8,2.6 3.5,2.6 1.6,0 2.7,-0.8 3.4,-2.6 z"
           id="path919" />
        <path
           style="fill:#282828"
           inkscape:connector-curvature="0"
           class="st2"
           d="M 360.9,56.3 V 59 c 0,3.4 0.1,6 0.3,7.7 0.2,1.7 0.6,3 1.3,3.7 0.6,0.8 1.6,1.2 3,1.2 1.8,0 3,-0.7 3.7,-2.1 0.7,-1.4 1,-3.7 1.1,-7 l 10.3,0.6 c 0.1,0.5 0.1,1.1 0.1,1.9 0,4.9 -1.3,8.6 -4,11 -2.7,2.4 -6.5,3.6 -11.4,3.6 -5.9,0 -10,-1.9 -12.4,-5.6 -2.4,-3.7 -3.6,-9.4 -3.6,-17.2 v -9.3 c 0,-8 1.2,-13.8 3.7,-17.5 2.5,-3.7 6.7,-5.5 12.6,-5.5 4.1,0 7.3,0.8 9.5,2.3 2.2,1.5 3.7,3.9 4.6,7 0.9,3.2 1.3,7.6 1.3,13.2 v 9.1 h -20.1 z m 1.5,-22.4 c -0.6,0.8 -1,2 -1.2,3.7 -0.2,1.7 -0.3,4.3 -0.3,7.8 v 3.8 h 8.8 v -3.8 c 0,-3.4 -0.1,-6 -0.3,-7.8 -0.2,-1.8 -0.7,-3 -1.3,-3.7 -0.6,-0.7 -1.6,-1.1 -2.8,-1.1 -1.4,-0.1 -2.3,0.3 -2.9,1.1 z"
           id="path921" />
        <path
           style="fill:#282828"
           inkscape:connector-curvature="0"
           class="st2"
           d="M 147.1,55.3 133.5,6 h 11.9 l 4.8,22.3 c 1.2,5.5 2.1,10.2 2.7,14.1 h 0.3 c 0.4,-2.8 1.3,-7.4 2.7,-14 l 5,-22.4 h 11.9 L 159,55.3 V 78.9 H 147.2 V 55.3 Z"
           id="path923" />
        <path
           style="fill:#282828"
           inkscape:connector-curvature="0"
           class="st2"
           d="M 241.6,25.7 V 79 h -9.4 l -1,-6.5 h -0.3 c -2.5,4.9 -6.4,7.4 -11.5,7.4 -3.5,0 -6.1,-1.2 -7.8,-3.5 -1.7,-2.3 -2.5,-5.9 -2.5,-10.9 V 25.7 h 12 v 39.1 c 0,2.4 0.3,4.1 0.8,5.1 0.5,1 1.4,1.5 2.6,1.5 1,0 2,-0.3 3,-1 1,-0.6 1.7,-1.4 2.1,-2.4 V 25.7 Z"
           id="path925" />
        <path
           style="fill:#282828"
           inkscape:connector-curvature="0"
           class="st2"
           d="M 303.1,25.7 V 79 h -9.4 l -1,-6.5 h -0.3 c -2.5,4.9 -6.4,7.4 -11.5,7.4 -3.5,0 -6.1,-1.2 -7.8,-3.5 -1.7,-2.3 -2.5,-5.9 -2.5,-10.9 V 25.7 h 12 v 39.1 c 0,2.4 0.3,4.1 0.8,5.1 0.5,1 1.4,1.5 2.6,1.5 1,0 2,-0.3 3,-1 1,-0.6 1.7,-1.4 2.1,-2.4 V 25.7 Z"
           id="path927" />
        <path
           style="fill:#282828"
           inkscape:connector-curvature="0"
           class="st2"
           d="M 274.2,15.7 H 262.3 V 78.9 H 250.6 V 15.7 H 238.7 V 6 h 35.5 z"
           id="path929" />
        <path
           style="fill:#282828"
           inkscape:connector-curvature="0"
           class="st2"
           d="m 342.8,34.2 c -0.7,-3.4 -1.9,-5.8 -3.5,-7.3 -1.6,-1.5 -3.9,-2.3 -6.7,-2.3 -2.2,0 -4.3,0.6 -6.2,1.9 -1.9,1.2 -3.4,2.9 -4.4,4.9 h -0.1 V 3.3 h -11.6 v 75.6 h 9.9 l 1.2,-5 h 0.3 c 0.9,1.8 2.3,3.2 4.2,4.3 1.9,1 3.9,1.6 6.2,1.6 4.1,0 7,-1.9 8.9,-5.6 1.9,-3.7 2.9,-9.6 2.9,-17.5 v -8.4 c -0.1,-6.1 -0.4,-10.8 -1.1,-14.1 z m -11,21.7 c 0,3.9 -0.2,6.9 -0.5,9.1 -0.3,2.2 -0.9,3.8 -1.6,4.7 -0.8,0.9 -1.8,1.4 -3,1.4 -1,0 -1.9,-0.2 -2.7,-0.7 -0.8,-0.5 -1.5,-1.2 -2,-2.1 V 38.1 c 0.4,-1.4 1.1,-2.6 2.1,-3.6 1,-0.9 2.1,-1.4 3.2,-1.4 1.2,0 2.2,0.5 2.8,1.4 0.7,1 1.1,2.6 1.4,4.8 0.3,2.3 0.4,5.5 0.4,9.6 v 7 z"
           id="path931" />
      </g>
    </g>
    <g
       style="clip-rule:evenodd;fill-rule:evenodd;stroke-linejoin:round;stroke-miterlimit:1.41420996"
       id="g1053"
       transform="matrix(0.00433216,0,0,0.00433216,34.656464,20.810632)">
      <g
         id="g1035"
         transform="scale(0.75)">
        <g
           transform="matrix(2.22469,0,0,2.22469,-1.11235,0)"
           id="YouTube-Live">
          <g
             id="g1024"
             transform="matrix(0.998889,0,0,0.95798,0.5,0)">
            <rect
               id="rect1022"
               style="fill:#fb0000"
               height="938.43298"
               width="900"
               y="0"
               x="0" />
          </g>
          <g
             id="g1028"
             transform="translate(-0.5)">
            <path
               id="path1026"
               style="fill-opacity:0.10054902"
               d="M 456.383,899 228.319,670.935 v 0 c 0,0 0,0 0,0 L 268.63,630.668 C 222.278,584.264 193.597,520.205 193.597,449.5 c 0,-70.705 28.681,-134.764 75.033,-181.168 l 32.868,32.831 0.027,-0.026 7.082,7.082 -0.022,0.023 c 0,0 -0.651,0.65 -0.651,0.65 l 0.002,0.002 c -35.76,36.128 -57.856,85.807 -57.856,140.606 0,55.129 22.363,105.077 58.505,141.258 l 40.491,-40.446 C 323.282,524.491 307.322,488.844 307.322,449.5 c 0,-39.344 15.96,-74.991 41.754,-100.812 l 41.861,41.861 -0.298,0.299 c -14.9,15.079 -24.105,35.799 -24.105,58.652 0,46.066 37.4,83.466 83.466,83.466 46.066,0 83.466,-37.4 83.466,-83.466 0,-23.096 -9.401,-44.013 -24.582,-59.13 v -10e-4 l 81.971,81.971 c -4.868,30.207 -19.233,57.253 -39.931,77.972 l 40.491,40.446 c 36.142,-36.181 58.505,-86.129 58.505,-141.258 0,-55.064 -22.311,-104.959 -58.377,-141.13 v 0 l 113.372,113.372 c 0.984,9.119 1.488,18.38 1.488,27.758 0,70.705 -28.681,134.764 -75.033,181.168 l 40.311,40.267 c 56.656,-56.717 91.711,-135.015 91.711,-221.435 0,-85.554 -34.356,-163.148 -90.014,-219.724 l 0.007,-0.007 L 900,456.383 V 899 Z"
               inkscape:connector-curvature="0" />
          </g>
          <g
             id="g1032"
             transform="translate(-0.5)">
            <path
               id="path1030"
               style="fill:#ffffff"
               d="M 228.319,670.935 C 171.663,614.218 136.608,535.92 136.608,449.5 c 0,-86.42 35.055,-164.718 91.711,-221.435 l 40.311,40.267 c -46.352,46.404 -75.033,110.463 -75.033,181.168 0,70.705 28.681,134.764 75.033,181.168 z M 631.37,630.668 c 46.352,-46.404 75.033,-110.463 75.033,-181.168 0,-70.705 -28.681,-134.764 -75.033,-181.168 l 40.311,-40.267 c 56.656,56.717 91.711,135.015 91.711,221.435 0,86.42 -35.055,164.718 -91.711,221.435 z M 308.585,590.758 C 272.443,554.577 250.08,504.629 250.08,449.5 c 0,-55.129 22.363,-105.077 58.505,-141.258 l 40.491,40.446 c -25.794,25.821 -41.754,61.468 -41.754,100.812 0,39.344 15.96,74.991 41.754,100.812 z m 242.339,-40.446 c 25.794,-25.821 41.754,-61.468 41.754,-100.812 0,-39.344 -15.96,-74.991 -41.754,-100.812 l 40.491,-40.446 c 36.142,36.181 58.505,86.129 58.505,141.258 0,55.129 -22.363,105.077 -58.505,141.258 z M 450,366.034 c 46.066,0 83.466,37.4 83.466,83.466 0,46.066 -37.4,83.466 -83.466,83.466 -46.066,0 -83.466,-37.4 -83.466,-83.466 0,-46.066 37.4,-83.466 83.466,-83.466 z"
               inkscape:connector-curvature="0" />
          </g>
        </g>
      </g>
    </g>
    <text
       xml:space="preserve"
       style="font-style:normal;font-variant:normal;font-weight:500;font-stretch:normal;font-size:4.87120771px;line-height:125%;font-family:Ubuntu;-inkscape-font-specification:'Ubuntu Medium';letter-spacing:0px;word-spacing:0px;fill:#800000;fill-opacity:1;stroke:#800000;stroke-width:0.34623554;stroke-linecap:butt;stroke-linejoin:miter;stroke-miterlimit:4;stroke-dasharray:none;stroke-opacity:1"
       x="63.822441"
       y="27.033131"
       id="text1069"><tspan
         sodipodi:role="line"
         id="tspan1067"
         x="63.822441"
         y="27.033131"
         style="font-style:normal;font-variant:normal;font-weight:normal;font-stretch:normal;font-size:7.79393244px;font-family:'Ubuntu Condensed';-inkscape-font-specification:'Ubuntu Condensed, ';fill:#e20000;fill-opacity:1;stroke:#e20000;stroke-width:0.34623554;stroke-miterlimit:4;stroke-dasharray:none;stroke-opacity:1">Recorded Broadcast</tspan></text>
  </g>
  <style
     id="style911"
     type="text/css">
	.st0{fill:#FF0000;}
	.st1{fill:#FFFFFF;}
	.st2{fill:#282828;}
</style>
</svg>
