<?xml version="1.0" encoding="UTF-8" standalone="no"?>
<!-- Created with Inkscape (http://www.inkscape.org/) -->

<svg
   xmlns:dc="http://purl.org/dc/elements/1.1/"
   xmlns:cc="http://creativecommons.org/ns#"
   xmlns:rdf="http://www.w3.org/1999/02/22-rdf-syntax-ns#"
   xmlns:svg="http://www.w3.org/2000/svg"
   xmlns="http://www.w3.org/2000/svg"
   xmlns:sodipodi="http://sodipodi.sourceforge.net/DTD/sodipodi-0.dtd"
   xmlns:inkscape="http://www.inkscape.org/namespaces/inkscape"
   width="63.997646mm"
   height="64.001373mm"
   viewBox="0 0 63.997645 64.001372"
   version="1.1"
   id="svg1444"
   inkscape:export-filename="/home/practicalli/projects/practicalli/graphic-design/clojuresphere-logo.png"
   inkscape:export-xdpi="90"
   inkscape:export-ydpi="90"
   inkscape:version="0.92.5 (2060ec1f9f, 2020-04-08)"
   sodipodi:docname="clojuresphere-logo.svg">
  <defs
     id="defs1438" />
  <sodipodi:namedview
     id="base"
     pagecolor="#ffffff"
     bordercolor="#666666"
     borderopacity="1.0"
     inkscape:pageopacity="1"
     inkscape:pageshadow="2"
     inkscape:zoom="1"
     inkscape:cx="113.17731"
     inkscape:cy="190.23549"
     inkscape:document-units="mm"
     inkscape:current-layer="layer1"
     showgrid="false"
     fit-margin-top="0"
     fit-margin-right="0"
     fit-margin-left="0"
     fit-margin-bottom="0"
     inkscape:window-width="1712"
     inkscape:window-height="1409"
     inkscape:window-x="1722"
     inkscape:window-y="4"
     inkscape:window-maximized="0" />
  <metadata
     id="metadata1441">
    <rdf:RDF>
      <cc:Work
         rdf:about="">
        <dc:format>image/svg+xml</dc:format>
        <dc:type
           rdf:resource="http://purl.org/dc/dcmitype/StillImage" />
        <dc:title></dc:title>
      </cc:Work>
    </rdf:RDF>
  </metadata>
  <g
     inkscape:label="Layer 1"
     inkscape:groupmode="layer"
     id="layer1"
     transform="translate(52.657221,-134.63725)">
    <g
       id="g27457"
       transform="matrix(0.98872305,0,0,0.97736589,-307.48693,68.847748)">
      <ellipse
         style="display:inline;opacity:1;fill:#000000;fill-opacity:1;stroke:#ffffff;stroke-width:7.0708003;stroke-linejoin:miter;stroke-miterlimit:10;stroke-dasharray:none;stroke-dashoffset:0;stroke-opacity:1"
         id="path7398-9-5-7"
         cx="290.09998"
         cy="100.05484"
         rx="28.828388"
         ry="29.206366" />
      <g
         id="g17572"
         transform="matrix(0.44295245,0,0,0.44295245,152.24469,-85.978052)">
        <path
           id="path17488"
           d="m 379.56309,420.70063 c 0,37.4097 -30.31966,67.73333 -67.73333,67.73333 -37.40547,0 -67.73333,-30.32363 -67.73333,-67.73333 0,-37.4097 30.32786,-67.73333 67.73333,-67.73333 37.41367,0 67.73333,30.32363 67.73333,67.73333 z"
           style="fill:#5f7fbf;fill-opacity:1;stroke-width:0.26458332"
           inkscape:connector-curvature="0" />
        <path
           id="path17490"
           d="m 378.94291,429.93618 c 0.40534,-3.02207 0.62018,-6.10182 0.62018,-9.23555 0,-0.51673 -0.008,-1.02949 -0.0164,-1.53776 -0.51276,1.22794 -1.5957,2.6334 -3.13372,4.03913 -3.13373,2.85248 -7.98725,5.59356 -14.03932,7.9293 -6.46589,2.48867 -14.03933,4.45664 -22.50599,5.83724 -8.87175,1.44277 -18.29753,2.17461 -28.03763,2.17461 -9.73164,0 -19.16589,-0.73184 -28.02943,-2.17461 -8.47487,-1.38086 -16.04857,-3.34857 -22.50599,-5.83724 -6.05234,-2.33574 -10.90586,-5.07682 -14.03932,-7.9293 -1.54622,-1.40546 -2.62096,-2.81119 -3.14193,-4.03913 -0.009,0.50827 -0.0169,1.02103 -0.0169,1.53776 0,3.13373 0.21484,6.21348 0.62839,9.23555 11.90625,9.67369 37.47981,16.36686 67.10494,16.36686 29.62513,0 55.1987,-6.6929 67.11315,-16.36686 z"
           style="fill:#96ca4b;fill-opacity:1;stroke:#ffffff;stroke-width:2.11666656;stroke-miterlimit:4;stroke-dasharray:none"
           inkscape:connector-curvature="0" />
        <path
           id="path17492"
           d="m 348.46635,386.70591 c 6.54844,6.5442 7.60677,16.09831 2.37305,21.33203 -5.23372,5.23372 -14.78359,4.17539 -21.33203,-2.37305 -6.54844,-6.54023 -7.60677,-16.09407 -2.37305,-21.33203 5.24193,-5.23372 14.7918,-4.17539 21.33203,2.37305 z"
           style="fill:#96ca4b;fill-opacity:1;stroke:#ffffff;stroke-width:3.17499995;stroke-miterlimit:4;stroke-dasharray:none"
           inkscape:connector-curvature="0" />
      </g>
    </g>
  </g>
</svg>
